<svg width="283" height="287" viewBox="0 0 283 287" fill="none" xmlns="http://www.w3.org/2000/svg">
<path d="M231.78 129.974C231.746 130.247 231.711 130.52 231.662 130.996C231.518 132.343 231.388 133.486 231.258 134.63C231.187 134.619 231.116 134.609 231.046 134.598C230.916 133.312 230.786 132.026 230.656 130.741C230.53 129.611 230.405 128.482 230.251 127.15C229.328 121.002 227.172 118.715 221.383 117.644C220.108 117.408 218.814 117.218 217.522 117.161C216.999 117.139 216.308 117.383 215.95 117.758C213.676 120.142 211.552 122.678 209.234 125.015C194.685 139.684 177.806 150.975 159.544 160.234C155.952 162.055 152.3 163.755 148.675 165.511C148.39 165.608 148.106 165.706 147.664 165.863C144.525 167.191 141.544 168.46 138.562 169.729C138.29 169.822 138.017 169.915 137.582 170.063C135.539 170.816 133.676 171.567 131.776 172.206C126.08 174.121 120.369 175.993 114.664 177.881C114.311 177.963 113.958 178.045 113.428 178.179C110.993 178.848 108.736 179.465 106.447 180.09C106.53 180.287 106.555 180.416 106.627 180.506C113.975 189.679 121.322 198.854 128.699 208.002C128.922 208.279 129.501 208.453 129.863 208.386C131.383 208.107 132.885 207.718 134.393 207.369C134.652 207.325 134.911 207.282 135.356 207.202C138.18 206.519 140.83 205.919 143.453 205.213C146.105 204.5 148.73 203.681 151.367 202.909C151.435 202.982 151.512 202.994 151.746 202.913C153.609 202.334 155.324 201.787 157.039 201.24C157.219 201.204 157.399 201.167 157.753 201.083C161.553 199.771 165.18 198.507 168.807 197.242C169.014 197.189 169.222 197.136 169.589 197.033C170.927 196.549 172.123 196.16 173.28 195.672C178.602 193.429 183.912 191.159 189.226 188.898C189.226 188.898 189.349 188.891 189.472 188.838C189.677 188.715 189.759 188.643 189.841 188.572C189.841 188.572 189.897 188.588 190.008 188.56C191.145 188.016 192.172 187.501 193.2 186.985C193.409 186.911 193.619 186.837 193.977 186.691C211.851 178.006 228.329 167.447 243.183 154.26C242.199 152.444 240.718 151.35 238.944 150.957C236.056 150.317 233.107 149.967 230.183 149.494C229.444 149.438 228.705 149.382 227.813 149.291C227.592 149.18 227.524 149.103 227.457 149.027C227.531 149.006 227.605 148.976 227.681 148.967C230.756 148.616 233.864 148.446 236.899 147.877C241.846 146.95 244.143 144.328 244.732 139.435C244.761 139.324 244.79 139.213 244.868 138.936C245.05 137.723 245.19 136.678 245.313 135.63C245.543 133.669 245.764 131.707 245.989 129.745C246.08 131.365 246.172 132.984 246.268 134.802C246.287 135.116 246.302 135.23 246.317 135.344C246.432 136.225 246.548 137.105 246.702 138.178C246.893 139.16 247.044 139.951 247.195 140.742C247.574 141.739 247.954 142.737 248.441 143.85C248.726 144.246 248.902 144.526 249.079 144.806C249.598 145.313 250.118 145.82 250.81 146.338C251.199 146.183 251.415 146.019 251.63 145.854C252.268 145.219 252.906 144.584 253.614 143.806C254.677 142.524 255.668 141.387 256.66 140.249C256.66 140.249 256.626 140.223 256.716 140.21C257.851 138.929 258.896 137.662 259.941 136.395C260.33 135.93 260.72 135.465 261.177 134.863C261.398 134.516 261.55 134.307 261.702 134.098C262.01 133.738 262.317 133.379 262.724 132.901C264.074 130.993 265.325 129.203 266.575 127.412C266.607 127.38 266.639 127.347 266.74 127.195C267.515 125.91 268.223 124.745 268.93 123.58C269.036 123.474 269.142 123.368 269.334 123.139C269.613 122.617 269.805 122.218 269.998 121.82C270.426 121.074 270.854 120.327 271.38 119.437C271.797 118.64 272.117 117.985 272.437 117.331C272.612 117.085 272.787 116.839 273.021 116.45C273.555 115.243 274.032 114.179 274.509 113.115C274.831 112.511 275.154 111.907 275.522 111.164C275.619 110.863 275.67 110.7 275.72 110.537C275.81 110.338 275.9 110.138 276.027 109.817C276.122 109.548 276.178 109.402 276.235 109.255C276.425 108.912 276.615 108.569 276.816 108.093C276.878 107.796 276.928 107.632 276.979 107.468C277.075 107.196 277.171 106.925 277.339 106.552C277.508 106.387 277.607 106.323 277.705 106.259C277.929 106.95 278.154 107.641 278.409 108.516C278.63 109.483 278.821 110.266 279.013 111.05C279.083 111.414 279.154 111.779 279.233 112.318C279.325 112.694 279.407 112.895 279.49 113.095C279.822 114.902 280.154 116.708 280.493 118.719C280.664 119.71 280.829 120.495 280.995 121.28C280.995 121.472 280.995 121.664 280.996 122.047C281.092 122.686 281.187 123.133 281.281 123.581C281.321 123.871 281.361 124.161 281.434 124.623C281.489 124.986 281.51 125.178 281.531 125.371C281.673 126.617 281.792 127.866 281.961 129.109C282.211 130.951 281.667 132.588 280.736 134.308C280.629 134.674 280.568 134.881 280.506 135.088C280.304 135.482 280.102 135.875 279.819 136.412C279.413 137.344 279.088 138.134 278.764 138.924C278.426 139.463 278.089 140.002 277.693 140.696C277.383 141.41 277.131 141.969 276.88 142.528C276.558 143.042 276.235 143.556 275.821 144.209C275.152 145.314 274.575 146.281 273.997 147.247C273.903 147.411 273.809 147.575 273.69 147.892C273.26 148.67 272.856 149.296 272.452 149.922C272.452 149.922 272.446 149.921 272.378 149.971C271.088 151.843 269.867 153.666 268.646 155.488C268.579 155.544 268.511 155.599 268.367 155.749C268.197 156.001 268.104 156.158 268.011 156.316C268.011 156.316 267.917 156.385 267.828 156.484C265.873 158.966 264.006 161.349 262.139 163.733C262.139 163.733 262.133 163.729 262.059 163.768C261.452 164.465 260.919 165.123 260.386 165.782C260.386 165.782 260.37 165.778 260.316 165.803C260.189 165.881 260.154 165.952 260.158 166.042C260.158 166.042 260.132 166.041 260.057 166.085C259.511 166.687 259.039 167.245 258.568 167.804C258.349 168.018 258.13 168.231 257.807 168.547C257.536 168.868 257.368 169.086 257.201 169.304C256.728 169.758 256.254 170.211 255.67 170.774C254.575 171.913 253.592 172.942 252.61 173.97C252.455 174.099 252.301 174.227 252.034 174.449C251.457 175.025 250.994 175.509 250.53 175.992C250.383 176.104 250.235 176.217 249.996 176.421C249.85 176.592 249.797 176.671 249.743 176.75C249.666 176.74 249.603 176.766 249.464 176.908C249.199 177.176 249.023 177.365 248.847 177.554C248.685 177.675 248.522 177.796 248.267 178.004C248.132 178.162 248.089 178.234 247.965 178.332C247.277 178.941 246.668 179.523 246.06 180.105C245.984 180.146 245.908 180.187 245.726 180.315C244.31 181.559 243 182.716 241.69 183.873C241.69 183.873 241.736 183.896 241.635 183.9C240.612 184.685 239.689 185.466 238.766 186.247C238.766 186.247 238.747 186.239 238.683 186.258C238.571 186.346 238.523 186.415 238.475 186.484C238.475 186.484 238.485 186.49 238.416 186.498C238.296 186.578 238.245 186.651 238.194 186.724C238.194 186.724 238.217 186.728 238.13 186.739C237.429 187.257 236.814 187.764 236.199 188.27C236.113 188.261 236.042 188.29 235.881 188.439C234.224 189.709 232.671 190.898 231.118 192.087C230.997 192.144 230.876 192.2 230.655 192.327C230.503 192.467 230.45 192.537 230.397 192.607C230.397 192.607 230.42 192.611 230.333 192.622C229.591 193.128 228.936 193.622 228.281 194.117C228.172 194.167 228.063 194.216 227.845 194.342C226.842 195.064 225.949 195.709 225.055 196.355C225.055 196.355 225.036 196.385 224.966 196.388C224.639 196.581 224.384 196.771 224.128 196.961C224.128 196.961 224.143 196.973 224.071 196.972C223.941 197.041 223.882 197.11 223.824 197.18C223.824 197.18 223.855 197.181 223.767 197.182C223.425 197.373 223.171 197.562 222.917 197.751C222.686 197.88 222.455 198.009 222.112 198.211C221.945 198.349 221.89 198.415 221.835 198.48C221.835 198.48 221.858 198.485 221.769 198.489C220.816 199.074 219.953 199.655 219.09 200.236C218.703 200.449 218.316 200.661 217.796 200.962C215.873 202.156 214.084 203.263 212.294 204.369C212.294 204.369 212.314 204.379 212.237 204.376C212.041 204.461 211.923 204.548 211.804 204.635C211.804 204.635 211.817 204.647 211.726 204.652C210.662 205.239 209.689 205.822 208.716 206.405C208.346 206.588 207.976 206.77 207.462 207.034C206.546 207.567 205.772 208.019 204.999 208.47C204.613 208.649 204.227 208.828 203.7 209.081C203.183 209.373 202.805 209.589 202.428 209.805C202.428 209.805 202.334 209.817 202.218 209.871C201.954 210.029 201.807 210.133 201.66 210.237C201.66 210.237 201.568 210.23 201.449 210.269C199.93 211.052 198.531 211.796 197.131 212.539C196.617 212.768 196.103 212.998 195.438 213.297C194.43 213.797 193.572 214.227 192.714 214.656C192.495 214.738 192.276 214.819 191.943 214.947C191.757 215.014 191.718 215.061 191.709 215.135L191.594 215.128C191.594 215.128 191.485 215.166 191.349 215.219C190.673 215.554 190.132 215.837 189.591 216.12C188.999 216.368 188.407 216.617 187.654 216.923C186.359 217.505 185.226 218.029 184.093 218.554C183.822 218.658 183.551 218.761 183.118 218.921C181.87 219.467 180.786 219.956 179.701 220.445C179.213 220.613 178.725 220.781 178.098 220.997C177.842 221.12 177.723 221.193 177.605 221.267C177.605 221.267 177.608 221.268 177.526 221.265C177.151 221.391 176.859 221.519 176.567 221.648C176.525 221.649 176.483 221.651 176.302 221.704C175.353 222.093 174.542 222.431 173.731 222.768C173.731 222.768 173.644 222.753 173.52 222.785C172.617 223.143 171.838 223.468 171.059 223.794C170.851 223.851 170.644 223.908 170.283 224.015C169.585 224.277 169.042 224.488 168.499 224.7C168.393 224.729 168.287 224.758 168.019 224.834C166.243 225.466 164.629 226.051 163.016 226.635C162.64 226.739 162.265 226.842 161.762 226.981C161.56 227.027 161.514 227.069 161.497 227.144C161.497 227.144 161.504 227.152 161.406 227.147C159.528 227.738 157.749 228.334 155.97 228.93C155.829 228.947 155.687 228.963 155.386 229.034C154.055 229.468 152.885 229.848 151.715 230.228C151.715 230.228 151.706 230.217 151.615 230.215C151.247 230.313 150.969 230.412 150.691 230.511C150.404 230.579 150.117 230.647 149.692 230.753C149.463 230.805 149.405 230.856 149.379 230.945C149.379 230.945 149.404 230.954 149.305 230.937C148.671 231.059 148.137 231.199 147.392 231.393C148.09 232.205 148.643 232.849 149.197 233.493C149.306 233.662 149.416 233.83 149.615 234.112C150.053 234.623 150.402 235.021 150.75 235.419C150.878 235.612 151.005 235.805 151.225 236.128C152.015 236.765 152.1 238.138 153.317 237.873C154.858 237.537 156.371 237.071 157.896 236.661C158.45 236.55 159.003 236.44 159.707 236.304C160.244 236.142 160.629 236.007 161.014 235.871C161.219 235.843 161.424 235.815 161.758 235.749C161.959 235.702 162.007 235.664 162.034 235.597C162.034 235.597 162.155 235.617 162.307 235.594C163.458 235.256 164.457 234.941 165.456 234.626C165.456 234.626 165.491 234.66 165.609 234.651C166.081 234.524 166.436 234.406 166.791 234.287C167.658 234.053 168.526 233.818 169.554 233.543C169.793 233.445 169.871 233.385 169.949 233.326C169.949 233.326 170.008 233.362 170.128 233.35C170.698 233.174 171.148 233.009 171.598 232.845C171.598 232.845 171.719 232.857 171.867 232.827C172.715 232.558 173.414 232.319 174.113 232.079C174.663 231.932 175.214 231.785 175.863 231.604C176.017 231.564 176.039 231.534 176.027 231.479C176.027 231.479 176.065 231.499 176.171 231.482C177.144 231.147 178.012 230.828 178.88 230.51C179.092 230.464 179.305 230.418 179.64 230.314C179.797 230.23 179.832 230.204 179.867 230.177C180.075 230.127 180.282 230.076 180.653 229.982C182.524 229.29 184.232 228.642 185.94 227.994C186.466 227.821 186.992 227.649 187.686 227.42C188.769 226.968 189.684 226.571 190.599 226.174C190.846 226.115 191.094 226.056 191.489 225.939C193.18 225.231 194.722 224.579 196.265 223.927C196.632 223.794 197 223.661 197.482 223.478C197.657 223.41 197.692 223.369 197.702 223.306C197.753 223.305 197.803 223.303 198.002 223.249C198.936 222.815 199.721 222.434 200.506 222.053C200.956 221.878 201.406 221.703 201.988 221.48C202.208 221.362 202.295 221.293 202.383 221.224C202.383 221.224 202.427 221.204 202.523 221.198C202.934 221.025 203.248 220.859 203.562 220.693C203.841 220.585 204.119 220.476 204.541 220.3C204.766 220.164 204.847 220.097 204.928 220.03C205.27 219.9 205.611 219.77 206.087 219.572C206.676 219.271 207.129 219.04 207.583 218.808C207.715 218.764 207.848 218.72 208.116 218.602C208.334 218.445 208.416 218.362 208.499 218.278C208.575 218.343 208.649 218.342 208.853 218.222C210.56 217.34 212.138 216.512 213.716 215.684C213.98 215.57 214.243 215.456 214.638 215.272C215.059 215.019 215.347 214.836 215.636 214.654C215.636 214.654 215.607 214.637 215.702 214.645C216.334 214.353 216.871 214.053 217.408 213.754C217.609 213.661 217.81 213.568 218.148 213.396C219.264 212.739 220.242 212.162 221.22 211.585C221.22 211.585 221.322 211.581 221.419 211.539C221.574 211.437 221.631 211.376 221.688 211.315C221.973 211.178 222.257 211.042 222.675 210.826C223.438 210.339 224.066 209.93 224.694 209.522C224.694 209.522 224.813 209.518 224.94 209.462C226.541 208.471 228.015 207.536 229.49 206.601C229.681 206.503 229.873 206.405 230.192 206.224C230.643 205.91 230.967 205.68 231.292 205.449C231.407 205.393 231.522 205.338 231.753 205.209C232.68 204.558 233.492 203.98 234.304 203.402C234.667 203.189 235.031 202.975 235.504 202.681C235.67 202.529 235.726 202.457 235.782 202.385C235.782 202.385 235.754 202.384 235.844 202.375C236.625 201.853 237.316 201.339 238.006 200.825C238.006 200.825 237.988 200.812 238.077 200.808C238.708 200.385 239.249 199.968 239.791 199.55C240.158 199.3 240.524 199.049 241.022 198.712C242.699 197.394 244.244 196.163 245.788 194.932C245.788 194.932 245.782 194.928 245.851 194.921C245.973 194.841 246.025 194.769 246.077 194.696C246.077 194.696 246.055 194.694 246.141 194.684C246.917 194.076 247.606 193.479 248.295 192.882C248.37 192.848 248.444 192.813 248.621 192.692C249.267 192.112 249.811 191.62 250.355 191.128C250.355 191.128 250.326 191.112 250.416 191.104C251.048 190.592 251.59 190.087 252.132 189.583C252.273 189.48 252.414 189.377 252.66 189.185C252.99 188.865 253.214 188.635 253.439 188.404C253.439 188.404 253.392 188.311 253.497 188.323C254.407 187.591 255.251 186.886 256.009 186.096C258.896 183.085 261.756 180.047 264.626 177.02C264.798 176.848 264.971 176.676 265.242 176.392C265.966 175.506 266.592 174.733 267.219 173.961C267.219 173.961 267.327 173.91 267.411 173.813C267.733 173.38 267.971 173.045 268.21 172.71C268.21 172.71 268.182 172.692 268.26 172.677C268.444 172.495 268.55 172.327 268.655 172.16C268.655 172.16 268.673 172.165 268.743 172.12C269.349 171.336 269.884 170.598 270.42 169.86C270.42 169.86 270.436 169.863 270.505 169.818C271.201 168.867 271.827 167.962 272.454 167.056C272.541 166.962 272.629 166.868 272.797 166.658C273.315 165.858 273.752 165.174 274.189 164.49C274.445 164.138 274.7 163.786 275.043 163.303C275.296 162.863 275.462 162.554 275.628 162.244C275.673 162.209 275.701 162.164 275.796 162.021C276.226 161.334 276.573 160.733 276.921 160.133C277.013 160.016 277.105 159.899 277.267 159.651C277.747 158.624 278.159 157.729 278.571 156.833C278.654 156.801 278.695 156.74 278.755 156.533C279.347 155.368 279.877 154.317 280.407 153.267C280.521 153.163 280.634 153.059 280.793 152.818C280.838 152.554 280.836 152.426 280.834 152.298C280.994 151.973 281.155 151.649 281.416 151.182C281.774 150.527 282.032 150.014 282.289 149.502C282.254 151.426 282.219 153.35 282.113 155.439C282.043 155.755 282.042 155.906 282.041 156.057C282.021 156.58 282 157.103 281.962 157.836C281.419 161.853 280.896 165.659 280.323 169.54C280.238 169.964 280.2 170.313 280.163 170.661C280.11 170.844 280.056 171.027 279.954 171.373C279.878 171.753 279.851 171.97 279.795 172.283C279.675 172.908 279.585 173.437 279.437 174.033C279.275 174.57 279.169 175.039 279.028 175.611C278.763 176.786 278.531 177.859 278.299 178.932C278.281 178.972 278.264 179.012 278.221 179.181C277.359 182.201 276.526 185.093 275.683 187.983C275.252 189.457 274.802 190.925 274.361 192.396C274.222 192.745 274.083 193.095 273.851 193.586C273.096 195.488 272.511 197.284 271.755 199.002C270.335 202.228 268.815 205.41 267.272 208.662C267.086 208.967 266.965 209.219 266.773 209.529C266.247 210.498 265.821 211.426 265.333 212.319C264.072 214.622 262.921 217.003 261.476 219.182C258.714 223.347 255.882 227.473 252.883 231.462C250.419 234.741 247.778 237.9 245.018 240.925C242.168 244.048 239.079 246.946 236.095 249.943C236.095 249.943 236.041 249.979 235.953 250.043C233.615 252.04 231.41 254.032 229.103 255.892C226.419 258.055 223.733 260.237 220.888 262.167C217.624 264.38 214.231 266.409 210.809 268.365C207.254 270.396 203.685 272.443 199.964 274.121C195.672 276.056 191.224 277.64 186.81 279.286C184.674 280.083 182.458 280.66 180.286 281.36C179.376 281.654 178.486 282.009 177.587 282.336C177.208 282.356 176.83 282.376 176.308 282.468C176.071 282.566 175.977 282.591 175.855 282.587C175.73 282.542 175.67 282.579 175.556 282.664C175.347 282.696 175.231 282.732 175.044 282.753C174.847 282.8 174.721 282.862 174.512 282.922C174.321 282.951 174.214 282.982 174.036 282.992C173.838 283.037 173.712 283.103 173.503 283.169C173.313 283.197 173.206 283.225 173.009 283.239C172.515 283.348 172.11 283.472 171.667 283.587C171.627 283.578 171.56 283.624 171.495 283.612C171.393 283.625 171.355 283.649 171.224 283.673C170.949 283.725 170.769 283.776 170.496 283.815C169.785 283.943 169.169 284.084 168.552 284.225C168.442 284.235 168.333 284.244 168.08 284.265C167.807 284.332 167.677 284.386 167.547 284.44C167.406 284.45 167.264 284.461 166.983 284.503C166.492 284.604 166.141 284.674 165.722 284.736C165.613 284.751 165.573 284.773 165.436 284.794C162.795 285.168 160.249 285.539 157.705 285.92C156.456 286.107 155.209 286.312 153.961 286.509C152.025 286.569 150.09 286.63 147.923 286.69C143.576 286.707 139.461 286.724 135.345 286.74C134.173 286.726 133 286.711 131.656 286.594C130.842 286.497 130.201 286.503 129.56 286.508C129.297 286.487 129.034 286.466 128.615 286.342C127.273 286.141 126.081 286.09 124.902 285.937C123.293 285.728 121.697 285.421 120.09 285.196C118.722 285.006 117.347 284.873 115.975 284.715C115.695 284.595 115.416 284.475 114.958 284.39C114.423 284.356 114.067 284.286 113.711 284.217C113.669 284.205 113.627 284.193 113.426 284.155C111.332 283.683 109.396 283.236 107.46 282.79C106.856 282.633 106.252 282.475 105.499 282.219C101.778 281.018 98.1329 280.111 94.6517 278.766C89.501 276.774 84.3621 274.69 79.4134 272.238C74.6828 269.894 70.1932 267.044 65.6174 264.382C64.584 263.781 63.6326 263.034 62.5918 262.319C63.0858 261.996 63.4339 261.703 63.8324 261.528C64.2416 261.348 64.6956 261.26 65.1378 261.172C67.6025 260.683 67.9028 260.245 67.4103 257.806C67.3205 257.236 67.2307 256.666 67.0474 255.937C66.4691 253.298 65.9842 250.819 65.4993 248.34C65.3104 247.311 65.1215 246.282 64.9266 245.076C64.854 244.337 64.7874 243.774 64.7208 243.212C64.8133 243.189 64.9058 243.167 64.9982 243.144C65.224 243.524 65.4498 243.904 65.6755 244.284C65.7298 244.415 65.784 244.546 65.8867 244.826C68.1669 249.428 70.3986 253.881 72.6775 258.427C74.1555 257.877 75.5702 257.35 76.985 256.823C79.4484 256.041 79.6731 255.731 79.0545 253.721C78.8385 251.632 78.6559 249.748 78.4733 247.864C78.4977 247.509 78.5221 247.154 78.5654 246.602C78.494 246.2 78.4036 245.994 78.3131 245.788C78.2929 245.274 78.2727 244.76 78.2919 244.081C78.2196 243.612 78.1079 243.309 77.9962 243.005C77.9447 241.607 77.8932 240.209 77.9785 238.79C78.2992 239.081 78.4831 239.394 78.667 239.706C78.8735 240.357 79.0801 241.007 79.3712 241.803C79.7901 242.648 80.1245 243.347 80.4589 244.046C80.6597 244.712 80.8604 245.377 81.1507 246.178C81.7218 247.694 82.2035 249.075 82.6852 250.456C82.8675 250.982 83.0499 251.509 83.2679 252.216C83.3738 252.548 83.474 252.693 83.5093 252.853C83.7143 253.782 84.1098 254.219 85.1322 253.772C86.4392 253.201 87.7966 252.749 89.1323 252.246C89.3536 252.212 89.5749 252.179 89.9329 252.076C91.3307 251.49 92.5918 250.975 93.8529 250.459C94.3246 250.359 94.7962 250.258 95.4239 250.079C96.7864 249.471 97.9928 248.942 99.1992 248.412C99.7336 248.308 100.268 248.204 100.955 248.019C102.379 247.416 103.65 246.895 104.92 246.374C105.202 246.314 105.483 246.255 105.935 246.163C107.551 245.598 108.996 245.064 110.441 244.531C110.895 244.373 111.35 244.214 111.963 243.979C112.651 243.71 113.17 243.487 113.708 243.33C114.79 243.015 115.062 242.346 114.544 241.187C114.53 241.001 114.516 240.814 114.494 240.439C114.407 239.611 114.327 238.971 114.246 238.331C114.095 236.461 113.928 234.593 113.807 232.721C113.785 232.38 113.95 232.025 114.088 231.724C114.44 232.506 114.732 233.24 115.023 233.974C115.75 235.804 116.476 237.634 117.203 239.465C117.203 239.465 117.21 239.442 117.203 239.54C117.459 240.332 117.72 241.026 118.004 241.776C119.274 241.311 120.421 240.854 121.593 240.475C122.397 240.215 122.41 239.783 122.017 239.168C121.959 238.879 121.901 238.59 121.81 238.138C121.696 237.766 121.614 237.558 121.532 237.35C121.532 237.35 121.517 237.375 121.536 237.264C121.161 235.678 120.767 234.203 120.373 232.728C120.373 232.728 120.385 232.612 120.352 232.478C120.223 232.057 120.128 231.771 120.033 231.485C119.9 230.859 119.767 230.233 119.582 229.425C119.184 227.605 118.84 225.969 118.493 224.334C118.492 224.336 118.489 224.339 118.558 224.34C118.722 224.438 118.818 224.534 118.913 224.63C119.064 224.923 119.215 225.216 119.437 225.653C121.296 228.83 123.083 231.865 124.869 234.899C124.869 234.899 124.898 235.012 124.96 235.127C125.095 235.326 125.169 235.409 125.243 235.493C125.243 235.493 125.235 235.557 125.268 235.643C125.362 235.79 125.424 235.852 125.486 235.914C125.486 235.914 125.49 235.884 125.492 235.98C126.849 238.528 126.851 238.533 129.479 237.579C130.022 237.381 130.545 237.128 131.078 236.901C131.292 236.85 131.506 236.8 131.864 236.685C132.389 236.456 132.771 236.292 133.153 236.127C133.255 236.114 133.358 236.101 133.586 236.055C133.793 235.999 133.844 235.945 133.865 235.861C133.865 235.861 133.846 235.849 133.944 235.856C135.238 235.425 136.432 234.988 137.791 234.489C136.39 232.809 135.108 231.272 133.827 229.735C133.722 229.57 133.616 229.404 133.419 229.125C130.817 225.913 128.307 222.815 125.797 219.717C125.797 219.717 125.787 219.732 125.783 219.66C125.705 219.537 125.63 219.485 125.556 219.434C125.556 219.434 125.553 219.457 125.541 219.371C124.986 218.631 124.442 217.978 123.899 217.324C123.855 217.352 123.812 217.379 123.809 217.298C123.744 217.095 123.638 217 123.532 216.905C123.532 216.905 123.522 216.92 123.507 216.833C123.014 216.189 122.535 215.632 122.057 215.075C122.057 215.075 122.041 215.108 122.032 215.015C119.927 212.339 117.831 209.757 115.734 207.175C115.634 207.023 115.534 206.871 115.345 206.604C114.748 205.941 114.241 205.392 113.734 204.842C113.619 204.68 113.504 204.518 113.294 204.247C111.369 201.888 109.539 199.639 107.708 197.389C107.728 197.305 107.7 197.242 107.549 197.11C106.877 196.3 106.281 195.582 105.686 194.864C105.584 194.715 105.482 194.565 105.295 194.316C104.889 193.843 104.568 193.47 104.248 193.098C104.038 192.784 103.829 192.47 103.514 192.038C101.997 190.189 100.584 188.459 99.1709 186.728C99.1709 186.728 99.1538 186.633 99.2318 186.546C100.629 185.951 101.948 185.443 103.386 184.888C102.784 183.401 102.236 182.046 101.687 180.691C101.687 180.691 101.717 180.66 101.711 180.537C101.012 178.942 100.32 177.469 99.6286 175.996C99.6286 175.996 99.6227 176.004 99.6032 175.918C98.5065 175.236 97.4292 174.639 96.3519 174.043C95.6708 174.015 94.9896 173.987 94.1037 173.986C92.9555 174.105 92.012 174.195 91.0686 174.286C90.8713 174.185 90.674 174.084 90.3508 173.897C89.8004 173.251 89.2925 172.736 88.9674 172.122C88.034 170.357 86.544 169.67 84.7002 170.283C84.1112 170.479 83.5462 170.75 82.9702 170.986C82.1939 171.254 81.4177 171.521 80.489 171.853C80.2502 171.983 80.1638 172.049 80.0775 172.115C79.9238 172.134 79.7701 172.153 79.4822 172.205C79.2306 172.3 79.1132 172.363 78.9958 172.426C78.804 172.448 78.6122 172.47 78.231 172.526C75.8857 172.993 73.7889 172.682 71.7183 172.041C71.6651 171.973 71.597 171.93 71.4434 171.873C71.3254 171.788 71.2825 171.792 71.2442 171.846C71.0349 171.716 70.8255 171.586 70.4738 171.376C69.5407 170.72 68.7501 170.143 67.9593 169.566C67.9593 169.566 67.9416 169.596 67.921 169.508C67.0721 168.201 66.2438 166.982 65.4155 165.763C65.4154 165.717 65.4152 165.672 65.3708 165.48C64.9515 164.27 64.5764 163.208 64.2014 162.145C64.2014 162.145 64.1915 162.173 64.207 162.08C64.1109 161.718 63.9993 161.447 63.8878 161.177C63.8325 160.963 63.7772 160.749 63.6792 160.388C63.5635 160.109 63.4904 159.976 63.4173 159.843C63.4173 159.843 63.4254 159.73 63.3962 159.588C62.8085 157.93 62.2499 156.414 61.6914 154.897C61.6293 154.643 61.5671 154.388 61.4564 153.985C61.3284 153.683 61.2489 153.529 61.1695 153.375C61.1695 153.375 61.1979 153.3 61.1709 153.174C60.644 151.662 60.1442 150.276 59.6444 148.889C59.5413 148.521 59.4381 148.152 59.2817 147.614C58.6175 145.758 58.0066 144.071 57.3958 142.384C57.3958 142.384 57.4122 142.301 57.3815 142.177C56.6187 140.023 55.8866 137.995 55.1546 135.966C55.1546 135.966 55.1758 135.902 55.1563 135.778C54.6126 134.189 54.0884 132.725 53.5643 131.261C53.5385 131.115 53.5126 130.97 53.4304 130.676C52.7967 128.925 52.2196 127.323 51.6425 125.721C51.6167 125.565 51.591 125.409 51.5169 125.093C50.8636 123.276 50.2588 121.619 49.6539 119.961C49.6539 119.961 49.6504 119.839 49.6176 119.724C49.5608 119.571 49.5369 119.533 49.5129 119.495C49.4798 119.356 49.4466 119.218 49.3681 118.959C49.2722 118.767 49.2217 118.695 49.1713 118.624C49.1713 118.624 49.1846 118.616 49.1778 118.514C48.7186 117.151 48.2661 115.889 47.8137 114.626C47.6779 114.162 47.5422 113.698 47.3544 113.085C47.2311 112.803 47.1599 112.669 47.0886 112.535C47.0886 112.535 47.0817 112.568 47.0923 112.457C46.5775 110.892 46.0519 109.438 45.5263 107.985C45.4171 107.593 45.3079 107.201 45.1365 106.648C44.6076 105.178 44.1408 103.868 43.6741 102.558C43.5019 102.027 43.3298 101.495 43.106 100.798C42.8456 100.081 42.6368 99.5296 42.428 98.9781C42.428 98.9781 42.426 98.8551 42.383 98.7142C42.1406 98.0461 41.9413 97.5191 41.7419 96.992C41.5119 96.271 41.2819 95.5499 41.0067 94.6739C40.9067 94.4382 40.8517 94.3574 40.7968 94.2767C40.7884 94.1912 40.7801 94.1058 40.7357 93.876C40.4578 93.1143 40.2161 92.497 39.9743 91.8797C39.9522 91.7335 39.9301 91.5872 39.8514 91.308C39.6998 90.9752 39.6049 90.7754 39.5099 90.5756C39.5099 90.5756 39.499 90.5868 39.5074 90.487C38.8658 88.5686 38.216 86.7501 37.5662 84.9315C37.5662 84.9315 37.5602 84.8062 37.5249 84.671C37.4258 84.4464 37.3621 84.3569 37.2984 84.2674C37.274 84.0912 37.2495 83.9151 37.1684 83.5877C36.4957 81.7137 35.8797 79.991 35.2638 78.2683C35.2638 78.2683 35.2577 78.2952 35.2719 78.1916C34.6989 76.4504 34.1117 74.8127 33.5245 73.1751C33.4214 72.8074 33.3182 72.4397 33.1696 71.9335C33.1052 71.7135 33.0562 71.6607 32.9771 71.6368C32.9771 71.6368 32.9636 71.6562 32.9754 71.5548C32.403 69.8564 31.8188 68.2594 31.2347 66.6624C31.0827 66.3345 30.9308 66.0065 30.7852 65.5537C30.5921 64.9509 30.3927 64.4729 30.1933 63.995C30.1358 63.7922 30.0782 63.5894 30.021 63.2502C29.855 62.7988 29.6886 62.4836 29.5223 62.1685C29.3323 61.4672 29.1423 60.7658 28.8631 59.9062C28.6987 59.046 28.6235 58.344 28.5483 57.642C28.6873 57.516 28.8262 57.3899 29.0602 57.1513C30.414 55.3508 31.6729 53.6629 32.9318 51.975C32.9819 51.8975 33.032 51.8199 33.2314 51.7063C33.9682 50.9192 34.5558 50.1681 35.1434 49.4171C35.1434 49.4171 35.2391 49.3572 35.3253 49.2676C35.7813 48.7521 36.1511 48.326 36.521 47.8999C36.7581 47.6394 36.9952 47.379 37.3325 47.0058C38.0762 46.1889 38.7198 45.4847 39.3634 44.7805C39.3634 44.7805 39.4244 44.741 39.5083 44.6657C40.1273 43.9833 40.6625 43.3761 41.1977 42.7689C41.1977 42.7689 41.2943 42.7313 41.3831 42.6574C42.0503 41.9634 42.6287 41.3434 43.2071 40.7233C43.3307 40.6229 43.4544 40.5225 43.6827 40.3344C44.7282 39.3064 45.6691 38.3658 46.61 37.4253C46.9975 37.1328 47.3851 36.8402 47.8827 36.4422C48.289 36.0185 48.5853 35.7003 48.8815 35.3822C48.9649 35.3938 49.0286 35.3632 49.1712 35.2285C49.8804 34.551 50.4913 33.9355 51.1022 33.32C51.1022 33.32 51.2152 33.3048 51.3543 33.2824C53.3054 31.7509 55.1174 30.2418 56.9295 28.7326C57.0072 28.753 57.0749 28.7348 57.2253 28.5952C57.7588 28.1671 58.1995 27.8217 58.6401 27.4762C58.9545 27.2749 59.269 27.0737 59.7036 26.7645C60.008 26.4967 60.1796 26.3179 60.3786 26.1801C61.7261 25.2469 63.0794 24.3224 64.4309 23.3951C64.6592 23.2776 64.8875 23.1602 65.2447 22.9637C67.058 21.8449 68.7216 20.7683 70.4313 19.7736C73.1073 18.2168 75.8145 16.7154 78.5085 15.1905C79.0081 14.9045 79.5077 14.6184 80.1435 14.2633C82.4556 13.2809 84.6352 12.3768 86.8034 11.4449C87.1581 11.2924 87.462 11.0178 87.7893 10.7996C88.2715 10.7052 88.7537 10.6108 89.3839 10.4281C90.4689 9.90991 91.4059 9.47989 92.3428 9.04988C92.7016 8.97913 93.0604 8.90838 93.596 8.7868C94.9739 8.24643 96.175 7.75692 97.3762 7.2674C98.0598 7.08967 98.7435 6.91192 99.621 6.70864C101.683 6.10433 103.551 5.52558 105.419 4.94682C106.191 4.77997 106.963 4.61312 107.923 4.4107C108.467 4.27387 108.823 4.17261 109.26 4.06417C109.537 3.99472 109.734 3.93247 110.015 3.87137C110.206 3.84261 110.313 3.81269 110.491 3.80095C110.688 3.75442 110.814 3.6897 111.035 3.62623C111.31 3.56984 111.489 3.5122 111.736 3.47692C111.936 3.44911 112.067 3.39894 112.28 3.35369C112.561 3.28842 112.761 3.21823 112.961 3.14802C113.225 3.12818 113.489 3.10834 113.941 3.06481C114.662 2.90197 115.196 2.7628 115.729 2.62365C115.994 2.59145 116.258 2.55925 116.697 2.5111C117.16 2.42998 117.448 2.36481 117.736 2.29964C118.177 2.23133 118.617 2.16302 119.218 2.08163C119.459 2.02649 119.539 1.98445 119.619 1.94241C120.191 1.86948 120.762 1.79655 121.478 1.71483C121.696 1.71232 121.753 1.68261 121.793 1.6169C125.667 1.2741 129.537 0.836851 133.418 0.614976C137.327 0.391518 141.247 0.382105 145.345 0.3045C145.574 0.317322 145.621 0.304539 145.667 0.291748C146.17 0.311961 146.672 0.332174 147.314 0.382777C147.535 0.389863 147.618 0.366552 147.701 0.34324C149.279 0.442518 150.858 0.541788 152.595 0.715089C152.909 0.729995 153.065 0.67087 153.221 0.611737C153.262 0.602247 153.303 0.592765 153.494 0.615913C153.749 0.710609 153.848 0.814281 153.959 0.828757C158.403 1.41088 162.849 1.98495 167.295 2.56004C167.337 2.57847 167.379 2.59691 167.539 2.65941C167.78 2.7043 167.905 2.70511 168.029 2.70591C168.221 2.75878 168.413 2.81165 168.782 2.91397C169.502 3.04767 170.046 3.1319 170.679 3.26261C171.289 3.40954 171.811 3.51 172.398 3.65992C172.675 3.74258 172.886 3.77577 173.176 3.83887C173.364 3.87609 173.474 3.88341 173.636 3.9432C173.828 4.00866 173.968 4.02163 174.186 4.06569C174.374 4.10715 174.484 4.11752 174.648 4.17816C174.838 4.24647 174.977 4.26449 175.199 4.31833C175.405 4.36639 175.526 4.37865 175.666 4.43507C175.73 4.53003 175.786 4.55808 175.939 4.60779C176.217 4.65207 176.41 4.65194 176.602 4.6518C176.961 4.75407 177.321 4.85633 177.859 4.96471C178.455 5.13445 178.865 5.32832 179.293 5.45688C182.578 6.44205 185.919 7.26401 189.138 8.433C192.398 9.61688 195.538 11.1425 198.733 12.5137C200.425 13.24 202.202 13.8095 203.797 14.7129C205.952 15.9339 207.968 17.4079 210.043 18.7733C210.157 18.8572 210.271 18.941 210.499 19.1153C211.325 19.7563 212.02 20.3345 212.759 20.846C213.144 21.1125 213.607 21.2613 214.036 21.4632C214.502 19.9392 215.211 21.5341 215.78 21.3223C215.79 21.5868 215.8 21.8513 215.778 22.2871C215.908 22.8686 215.966 23.3867 216.251 23.6715C218.169 25.5924 220.256 27.3529 222.053 29.3804C224.122 31.7136 225.948 34.2688 227.88 36.7275C227.923 36.8656 227.967 37.0036 228.106 37.2539C228.637 38.0729 229.093 38.7677 229.503 39.4891C230.53 41.293 231.756 43.0208 232.5 44.9401C233.748 48.1571 234.684 51.4993 235.751 54.7888C235.803 54.9958 235.855 55.203 235.93 55.5869C236.151 56.8826 236.349 58.0015 236.558 59.2092C236.634 59.5818 236.698 59.8655 236.755 60.2562C236.804 60.7126 236.863 61.0621 236.887 61.488C236.903 61.7759 236.952 61.9872 236.994 62.3122C237.036 63.026 237.086 63.6261 237.108 64.3348C237.136 65.1444 237.192 65.8455 237.232 66.6598C237.226 67.3829 237.236 67.9926 237.202 68.6929C237.163 69.4978 237.167 70.2122 237.134 71.0023C237.092 71.1901 237.087 71.3022 237.047 71.4949C237.02 71.6914 237.028 71.8075 237.018 72.0187C236.999 72.3074 236.997 72.5009 236.953 72.7728C236.905 73.1472 236.901 73.443 236.86 73.8385C236.802 74.2916 236.779 74.6451 236.711 75.073C236.634 75.4365 236.604 75.7256 236.547 76.0989C236.517 76.2999 236.512 76.4168 236.461 76.6012C236.404 76.8856 236.394 77.1025 236.346 77.4075C236.295 77.6874 236.283 77.8791 236.226 78.1272C236.181 78.3222 236.18 78.4609 236.133 78.6849C236.064 78.9625 236.04 79.1548 235.968 79.3999C235.878 79.5912 235.838 79.7297 235.797 79.8681C235.753 80.1286 235.708 80.3891 235.578 80.8181C234.545 85.9378 232.79 90.6135 230.636 95.1264C228.467 99.6699 226.122 104.122 223.134 108.189C222.017 109.709 221.016 111.317 219.918 112.852C219.193 113.866 218.39 114.822 217.477 115.989C220.621 116.011 223.394 115.436 225.897 113.974C228.113 112.679 229.321 110.526 229.729 108.003C230.151 105.396 230.375 102.756 230.718 100.134C230.783 99.6362 231.001 99.1588 231.148 98.6718C231.219 98.6893 231.29 98.7068 231.36 98.7243C231.413 99.5878 231.465 100.451 231.526 101.422C231.626 102.238 231.718 102.948 231.81 103.657C231.85 104.018 231.89 104.378 231.947 104.928C232.054 105.705 232.114 106.299 232.237 106.879C232.858 109.806 233.651 112.755 236.595 114.092C238.579 114.993 240.778 115.49 242.931 115.896C245.159 116.316 247.447 116.408 249.709 116.643C249.617 116.642 249.525 116.641 249.264 116.665C248.309 116.775 247.52 116.832 246.74 116.951C244.013 117.364 241.257 117.648 238.575 118.266C235.612 118.948 233.68 120.968 232.854 123.954C232.471 125.336 232.279 126.772 232 128.184C231.959 128.453 231.918 128.722 231.843 129.156C231.8 129.538 231.79 129.756 231.78 129.974ZM147.242 50.8221C147.385 49.6094 147.51 48.3942 147.674 47.1844C148.148 43.6885 148.49 40.1651 149.158 36.7075C150.068 32.0002 152.955 29.0491 157.572 27.9184C158.75 27.6298 159.933 27.3132 161.132 27.1654C164.654 26.7313 168.184 26.3758 171.787 25.9811C170.213 25.8584 168.699 25.8184 167.208 25.6083C163.854 25.1354 160.472 24.7585 157.174 24.0096C153.07 23.0778 150.452 20.3459 149.36 16.1932C148.983 14.7571 148.615 13.303 148.432 11.8328C147.992 8.30219 147.663 4.75721 147.335 1.64726C146.976 5.00148 146.683 8.78319 146.147 12.5291C145.026 20.3704 142.18 23.3911 134.511 24.7181C130.746 25.3697 126.916 25.6432 123.715 26.0178C127.064 26.4301 131.031 26.7837 134.951 27.4305C141.758 28.5538 144.707 31.4329 145.895 38.3626C146.59 42.419 146.805 46.5606 147.242 50.8221ZM151.778 83.1922C151.888 82.6498 152.008 82.1092 152.106 81.5645C152.961 76.8176 155.726 73.9992 160.401 73.1989C162.63 72.8174 164.884 72.5924 167.126 72.2875C167.524 72.2333 167.916 72.1347 168.311 72.0567C167.948 71.705 167.632 71.6662 167.317 71.6142C164.387 71.1299 161.417 70.8149 158.539 70.1101C155.571 69.3832 153.577 67.3307 152.692 64.3229C152.261 62.8602 151.902 61.3585 151.696 59.8483C151.349 57.2924 151.15 54.7157 150.892 52.1921C150.495 55.4027 150.155 58.6454 149.68 61.8676C148.959 66.7639 146.23 69.7993 141.366 70.6463C138.738 71.1039 136.088 71.4303 133.447 71.8158C133.948 72.1328 134.517 72.2533 135.091 72.341C137.451 72.7013 139.833 72.9471 142.167 73.4288C146.153 74.251 148.639 76.7951 149.393 80.8313C150.061 84.4047 150.444 88.0332 150.907 91.3107C151.162 88.9102 151.454 86.1612 151.778 83.1922ZM74.9076 72.599C74.812 71.651 74.7164 70.703 74.5884 69.4338C74.5176 70.2246 74.4925 70.6929 74.4315 71.1563C74.1096 73.6002 73.8913 76.0653 73.4229 78.4802C72.8164 81.6074 70.9077 83.6222 67.8076 84.3198C66.3391 84.6502 64.8433 84.8693 63.351 85.0716C62.0666 85.2457 60.7696 85.3242 59.2447 85.4667C62.0808 85.8585 64.6659 86.128 67.2174 86.5894C70.6616 87.2122 72.8765 89.2826 73.4876 92.8407C73.9816 95.7167 74.304 98.6232 74.7025 101.516C74.6334 101.08 74.676 100.616 74.7363 100.154C75.0557 97.7092 75.2842 95.2474 75.7248 92.8255C76.3448 89.418 78.3993 87.2859 81.7705 86.6535C83.948 86.245 86.1613 86.0327 88.3591 85.7367C88.7511 85.6839 89.1458 85.6515 89.7423 85.5881C86.8377 85.1559 84.1718 84.8578 81.5472 84.3424C78.6272 83.769 76.6239 81.9874 75.9421 78.9861C75.4827 76.9636 75.258 74.886 74.9076 72.599ZM169.797 250.769C169.365 249.447 168.818 248.151 168.531 246.797C168.209 245.282 168.122 243.715 167.928 242.137C167.713 243.864 167.546 245.549 167.286 247.218C166.695 250.998 165.204 252.577 161.515 253.248C159.871 253.547 158.196 253.672 156.535 253.873C156.503 253.877 156.464 253.835 156.429 253.814C156.437 253.842 156.444 253.871 156.482 254.007C157.801 254.168 159.165 254.322 160.525 254.502C165.068 255.104 166.639 256.647 167.364 261.226C167.532 262.286 167.653 263.355 167.82 264.606C168.265 262.492 168.595 260.59 169.077 258.728C169.547 256.909 170.778 255.716 172.538 255.164C173.492 254.864 174.481 254.654 175.469 254.493C176.84 254.27 178.225 254.129 179.624 253.951C177.709 253.701 175.832 253.53 173.986 253.194C172.406 252.906 170.912 252.333 169.797 250.769ZM168.045 123.03C166.16 123.27 164.275 123.511 162.769 123.703C164.124 123.876 165.87 124.057 167.602 124.327C171.654 124.957 173.182 126.503 173.826 130.635C174.064 132.162 174.193 133.707 174.386 135.365C174.715 133.2 174.96 131.171 175.345 129.169C175.829 126.647 177.411 125.107 179.869 124.624C181.99 124.207 184.143 123.953 185.942 123.678C184.636 123.518 182.97 123.344 181.312 123.106C177.245 122.52 175.714 121.001 175.042 116.851C174.801 115.366 174.666 113.863 174.483 112.368C174.181 113.868 174.038 115.379 173.811 116.878C173.232 120.708 171.932 122.115 168.045 123.03ZM103.985 143.49C104.029 143.726 104.072 143.961 104.176 144.525C104.443 142.493 104.603 140.781 104.904 139.094C105.524 135.619 106.976 134.134 110.372 133.516C112.095 133.202 113.845 133.04 115.583 132.815C115.596 132.813 115.617 132.878 115.635 132.912C115.643 132.879 115.652 132.846 115.669 132.778C113.928 132.54 112.176 132.379 110.456 132.049C106.94 131.376 105.543 129.953 104.903 126.406C104.592 124.686 104.431 122.938 104.179 121.022C103.926 122.962 103.718 124.725 103.461 126.482C103 129.644 101.234 131.537 98.0976 132.026C96.2207 132.318 94.3369 132.564 92.5808 132.813C94.2713 133.026 96.0924 133.175 97.8838 133.497C101.41 134.129 102.765 135.503 103.457 139.11C103.721 140.484 103.81 141.892 103.985 143.49ZM203.766 40.5877C203.911 39.8545 204.08 39.1252 204.197 38.3873C204.663 35.4412 206.471 33.9785 209.27 33.5748C210.634 33.3782 211.993 33.1489 213.355 32.9378C213.381 32.9337 213.414 32.9712 213.443 32.9894C213.435 32.9861 213.427 32.9828 213.588 33.0501C211.695 32.7531 209.966 32.5414 208.262 32.1997C206.054 31.7569 204.73 30.316 204.316 28.0929C204.001 26.4065 203.822 24.694 203.566 22.8766C203.365 24.4298 203.221 25.8999 202.976 27.3524C202.458 30.4192 201.241 31.7226 198.234 32.3353C196.714 32.6449 195.16 32.7772 193.62 32.99C195.027 33.1839 196.45 33.3477 197.862 33.5812C201.068 34.1115 202.445 35.5132 202.996 38.7781C203.16 39.7477 203.267 40.7271 203.401 41.7021C203.485 41.7038 203.57 41.7055 203.655 41.7072C203.691 41.4086 203.727 41.11 203.766 40.5877ZM233.12 172.512C230.873 173.139 228.626 173.767 226.379 174.394C226.35 174.275 226.321 174.156 226.292 174.038C227.736 174.247 229.182 174.444 230.623 174.67C233.077 175.054 234.5 176.501 234.886 178.999C234.993 179.694 235.115 180.386 235.23 181.08C236.21 179.123 235.844 176.39 238.205 175.429C240.153 174.636 242.313 174.382 243.798 174.028C242.977 173.906 241.528 173.711 240.086 173.473C237.665 173.075 236.335 171.575 235.977 169.148C235.79 167.887 235.64 166.621 235.473 165.357C235.234 166.429 235.151 167.491 234.988 168.539C234.764 169.977 234.468 171.398 233.12 172.512Z" fill="#2B3B8F"/>
<path d="M3.53558 115.86C3.56426 115.752 3.59294 115.643 3.65941 115.391C3.69798 115.109 3.69877 114.97 3.69956 114.831C3.82445 114.31 3.94934 113.789 4.12097 113.097C4.20235 112.71 4.23698 112.494 4.27162 112.278C4.30208 112.169 4.33255 112.061 4.40721 111.811C4.46497 111.531 4.47853 111.391 4.49208 111.252C4.62278 110.73 4.75349 110.209 4.93793 109.534C5.00064 109.239 5.00961 109.096 5.01859 108.953C5.05274 108.845 5.0869 108.737 5.17461 108.493C5.24464 108.215 5.26111 108.073 5.2776 107.93C8.56379 93.7855 14.427 80.7489 21.8647 68.0801C22.1283 68.5953 22.3535 68.9406 22.4915 69.3188C34.2293 101.484 45.9408 133.659 57.7246 165.807C58.7985 168.736 59.7923 171.581 58.9471 174.721C57.8001 178.98 55.1227 181.773 50.9996 183.158C49.6427 183.614 48.2816 184.072 46.965 184.633C45.0879 185.431 44.4415 186.977 44.9462 189.187C45.3383 190.904 44.6765 192.38 43.1377 193.181C41.8453 193.854 40.5926 194.477 39.8677 195.945C39.0484 197.604 38.9313 199.208 39.5362 200.903C40.2262 202.836 41.0601 204.726 41.6078 206.698C41.8775 207.669 42.2745 207.71 42.981 207.457C44.3367 206.972 45.6822 206.457 47.3602 205.832C47.3602 210.884 47.3602 215.688 47.3413 220.705C47.3685 222.815 47.4146 224.71 47.4607 226.605C47.521 234.028 47.5814 241.451 47.6112 249.033C47.6161 249.327 47.6516 249.463 47.6871 249.598C47.6883 249.728 47.6894 249.857 47.6148 250.071C47.4929 250.163 47.4467 250.171 47.4005 250.178C47.4005 250.178 47.3966 250.153 47.3784 250.113C47.2864 250.09 47.2127 250.106 47.139 250.122C35.1406 238.998 25.2198 226.22 17.4489 211.534C17.3226 211.274 17.2707 211.152 17.2189 211.03C17.1446 210.82 17.0703 210.61 16.9442 210.254C16.7779 209.943 16.6632 209.778 16.5486 209.612C16.5205 209.525 16.4924 209.439 16.4227 209.22C16.2691 208.921 16.1572 208.755 16.0452 208.588C15.9246 208.308 15.8041 208.029 15.6214 207.607C15.4459 207.282 15.3326 207.098 15.2193 206.914C13.1486 202.047 10.8828 197.254 9.06468 192.291C7.40566 187.763 6.10028 183.086 4.8865 178.408C3.95286 174.809 3.37707 171.113 2.69331 167.451C2.29593 165.322 1.91797 163.183 1.68007 161.032C1.43252 158.794 1.29069 156.537 1.23168 154.285C1.07962 148.481 0.942059 142.676 0.919818 136.871C0.911834 134.786 1.24585 132.699 1.4318 130.614C1.63722 128.31 1.82858 126.005 2.07099 123.705C2.2218 122.274 2.45594 120.853 2.70254 119.269C2.80955 118.961 2.8667 118.812 2.92387 118.663C2.97314 118.562 3.02241 118.461 3.10451 118.211C3.12884 118.015 3.12035 117.969 3.11185 117.923C3.13355 117.822 3.15525 117.721 3.23238 117.471C3.37039 116.835 3.45299 116.348 3.53558 115.86Z" fill="#2B3B90"/>
<path d="M252.441 71.5619C252.549 71.5608 252.657 71.5597 252.911 71.5548C253.187 71.4968 253.317 71.4426 253.446 71.3884C256.271 71.0982 258.788 70.2514 260.304 67.5402C260.581 67.0449 260.92 66.8391 261.294 67.5063C262.572 69.7872 263.896 72.0428 265.123 74.3517C265.313 74.7097 265.18 75.3256 265.039 75.7708C264.564 77.2708 263.857 78.7126 263.536 80.2412C263.042 82.5926 262.794 84.9975 262.223 87.4399C262.151 87.013 262.066 86.5879 262.01 86.1588C261.679 83.6032 261.487 81.02 260.991 78.4984C260.527 76.1426 259.027 74.5469 256.597 73.8517C256.305 73.7649 256.107 73.6961 255.825 73.6112C253.775 73.281 251.81 72.9626 249.844 72.6549C249.125 72.5423 248.403 72.4549 247.608 72.2992C247.745 72.1312 247.955 72.0199 248.166 71.9085C249.352 71.8232 250.538 71.7379 251.915 71.6488C252.217 71.6172 252.329 71.5896 252.441 71.5619Z" fill="#374595"/>
<path d="M147.356 50.9719C146.922 46.7896 146.707 42.648 146.012 38.5915C144.824 31.6618 141.875 28.7827 135.068 27.6595C131.148 27.0127 127.181 26.659 123.832 26.2467C127.033 25.8721 130.862 25.5986 134.628 24.9471C142.297 23.6201 145.143 20.5994 146.264 12.7581C146.8 9.01216 147.093 5.23044 147.452 1.87622C147.78 4.98618 148.109 8.53116 148.549 12.0617C148.732 13.5319 149.1 14.9861 149.477 16.4221C150.569 20.5748 153.187 23.3068 157.291 24.2386C160.589 24.9874 163.971 25.3644 167.325 25.8372C168.816 26.0473 170.329 26.0873 171.904 26.2101C168.301 26.6047 164.77 26.9603 161.249 27.3943C160.05 27.5422 158.867 27.8587 157.689 28.1474C153.072 29.278 150.185 32.2291 149.275 36.9365C148.606 40.3941 148.265 43.9175 147.791 47.4134C147.627 48.6231 147.502 49.8383 147.356 50.9719Z" fill="#F9FAFC"/>
<path d="M151.879 83.5313C151.571 86.3903 151.279 89.1393 151.024 91.5397C150.561 88.2622 150.178 84.6337 149.51 81.0603C148.756 77.0241 146.27 74.4801 142.284 73.6579C139.949 73.1761 137.568 72.9303 135.208 72.57C134.634 72.4824 134.065 72.3619 133.564 72.0448C136.205 71.6593 138.855 71.333 141.483 70.8754C146.347 70.0283 149.076 66.993 149.797 62.0966C150.272 58.8744 150.612 55.6317 151.009 52.4211C151.266 54.9447 151.466 57.5214 151.813 60.0773C152.018 61.5875 152.378 63.0892 152.809 64.5519C153.694 67.5597 155.688 69.6122 158.656 70.3391C161.534 71.0439 164.504 71.359 167.434 71.8432C167.749 71.8952 168.065 71.934 168.428 72.2857C168.033 72.3638 167.641 72.4623 167.243 72.5165C165.001 72.8214 162.747 73.0464 160.518 73.4279C155.843 74.2282 153.078 77.0466 152.223 81.7935C152.125 82.3382 152.005 82.8788 151.879 83.5313Z" fill="#F8F9FB"/>
<path d="M75.035 72.9448C75.3751 75.1148 75.5998 77.1924 76.0592 79.2149C76.741 82.2163 78.7443 83.9978 81.6643 84.5712C84.2889 85.0866 86.9548 85.3847 89.8594 85.8169C89.2629 85.8803 88.8682 85.9127 88.4762 85.9655C86.2784 86.2615 84.0651 86.4738 81.8876 86.8823C78.5164 87.5147 76.4619 89.6468 75.8419 93.0543C75.4013 95.4762 75.1728 97.9381 74.8534 100.383C74.7931 100.845 74.7505 101.309 74.8196 101.745C74.4211 98.852 74.0987 95.9455 73.6047 93.0695C72.9936 89.5115 70.7787 87.441 67.3345 86.8182C64.783 86.3568 62.1979 86.0873 59.3618 85.6956C60.8867 85.553 62.1837 85.4745 63.4681 85.3004C64.9604 85.0982 66.4562 84.879 67.9247 84.5486C71.0248 83.851 72.9335 81.8362 73.54 78.709C74.0084 76.2942 74.2267 73.829 74.5486 71.3851C74.6096 70.9217 74.6347 70.4534 74.7055 69.6626C74.8335 70.9318 74.9291 71.8798 75.035 72.9448Z" fill="#F6F7FA"/>
<path d="M169.966 251.077C171.029 252.562 172.523 253.135 174.103 253.423C175.949 253.759 177.826 253.93 179.741 254.18C178.342 254.358 176.957 254.499 175.586 254.722C174.598 254.883 173.61 255.093 172.655 255.393C170.895 255.945 169.664 257.138 169.194 258.957C168.712 260.819 168.382 262.721 167.937 264.835C167.77 263.584 167.649 262.515 167.481 261.455C166.756 256.876 165.185 255.333 160.642 254.731C159.282 254.551 157.918 254.397 156.599 254.236C156.561 254.1 156.554 254.071 156.546 254.043C156.581 254.064 156.62 254.106 156.652 254.102C158.313 253.901 159.988 253.776 161.632 253.477C165.321 252.806 166.812 251.227 167.403 247.447C167.664 245.778 167.83 244.093 168.045 242.366C168.239 243.944 168.326 245.511 168.648 247.026C168.935 248.38 169.482 249.676 169.966 251.077Z" fill="#F5F6F9"/>
<path d="M168.267 123.235C172.049 122.344 173.349 120.937 173.928 117.107C174.155 115.608 174.298 114.097 174.6 112.597C174.783 114.092 174.918 115.595 175.159 117.08C175.831 121.23 177.362 122.749 181.429 123.335C183.087 123.573 184.753 123.747 186.059 123.907C184.26 124.182 182.107 124.436 179.986 124.853C177.528 125.336 175.946 126.876 175.462 129.398C175.077 131.4 174.832 133.429 174.503 135.594C174.31 133.936 174.181 132.391 173.943 130.864C173.299 126.732 171.771 125.186 167.719 124.556C165.987 124.286 164.241 124.105 162.886 123.932C164.392 123.74 166.277 123.499 168.267 123.235Z" fill="#F4F5F9"/>
<path d="M104.099 143.616C103.927 142.121 103.838 140.713 103.574 139.339C102.882 135.732 101.527 134.358 98.001 133.726C96.2096 133.404 94.3884 133.255 92.698 133.042C94.454 132.793 96.3378 132.547 98.2147 132.255C101.351 131.766 103.117 129.873 103.579 126.711C103.835 124.954 104.043 123.191 104.296 121.251C104.548 123.167 104.709 124.915 105.02 126.635C105.66 130.182 107.057 131.605 110.573 132.278C112.294 132.608 114.045 132.769 115.786 133.007C115.769 133.075 115.761 133.108 115.752 133.141C115.735 133.107 115.713 133.042 115.7 133.044C113.962 133.269 112.212 133.431 110.489 133.745C107.094 134.363 105.641 135.848 105.021 139.323C104.72 141.01 104.561 142.722 104.293 144.754C104.189 144.19 104.146 143.954 104.099 143.616Z" fill="#F4F5F9"/>
<path d="M203.881 40.9284C203.844 41.3388 203.808 41.6374 203.772 41.936C203.687 41.9343 203.602 41.9326 203.518 41.9309C203.384 40.956 203.277 39.9766 203.113 39.007C202.562 35.742 201.185 34.3404 197.979 33.81C196.567 33.5765 195.144 33.4128 193.737 33.2188C195.277 33.0061 196.831 32.8738 198.351 32.5642C201.358 31.9515 202.575 30.6481 203.093 27.5812C203.338 26.1288 203.482 24.6587 203.683 23.1055C203.939 24.9228 204.118 26.6353 204.433 28.3217C204.847 30.5448 206.171 31.9857 208.379 32.4285C210.083 32.7703 211.812 32.982 213.705 33.279C213.544 33.2116 213.552 33.2149 213.56 33.2182C213.531 33.2001 213.498 33.1626 213.472 33.1667C212.11 33.3778 210.751 33.607 209.387 33.8037C206.588 34.2074 204.78 35.6701 204.314 38.6161C204.197 39.354 204.028 40.0833 203.881 40.9284Z" fill="#F3F4F8"/>
<path d="M233.311 172.682C234.585 171.627 234.881 170.205 235.105 168.768C235.268 167.72 235.351 166.658 235.59 165.585C235.757 166.849 235.907 168.116 236.094 169.377C236.452 171.804 237.782 173.304 240.203 173.702C241.645 173.94 243.094 174.135 243.915 174.257C242.43 174.611 240.27 174.865 238.322 175.658C235.961 176.619 236.327 179.352 235.347 181.308C235.232 180.615 235.11 179.923 235.003 179.228C234.617 176.73 233.194 175.283 230.74 174.899C229.299 174.673 227.853 174.476 226.409 174.266C226.438 174.385 226.467 174.504 226.496 174.623C228.743 173.996 230.99 173.368 233.311 172.682Z" fill="#F3F4F8"/>
</svg>
