<svg width="172" height="172" viewBox="0 0 172 172" fill="none" xmlns="http://www.w3.org/2000/svg">
<path d="M27.8292 59.8781L19.068 51.9097C19.068 51.9097 18.7051 47.9456 21.8092 46.6825C25.3433 45.2446 28.743 46.9378 28.743 46.9378L34.1045 57.2578L27.8292 59.8781Z" fill="#B45E0E"/>
<path d="M143.378 60.1465L135.799 54.1399L140.892 46.6955C140.892 46.6955 143.526 44.559 148.081 46.8299C151.562 48.5633 152.422 51.9227 152.018 52.9574C151.629 53.9921 143.378 60.1465 143.378 60.1465Z" fill="#B45E0E"/>
<path d="M30.5705 58.4399L26.3377 57.2977C26.3377 57.2977 25.8539 55.2956 26.7677 53.5218C27.7217 51.6809 29.5895 51.8824 29.5895 51.8824C29.5895 51.8824 25.088 49.6921 27.0499 44.3306C29.0117 38.969 35.0183 40.1514 35.0183 40.1514C35.0183 40.1514 34.8839 36.7518 37.6386 34.6556C40.3799 32.5593 42.4761 34.1315 42.4761 34.1315C42.4761 34.1315 40.353 27.3456 45.607 24.2012C50.0952 21.5137 53.1858 24.0668 53.1858 24.0668C53.1858 24.0668 54.9999 19.5249 59.9717 19.4309C63.6939 19.3637 64.8227 20.8015 64.8227 20.8015C64.8227 20.8015 66.1261 18.1812 68.2224 17.0121C70.3186 15.8296 71.5683 16.0043 71.5683 16.0043C71.5683 16.0043 70.6142 12.7524 71.622 10.0917C73.3958 5.38861 78.287 4.34049 81.942 5.25424C86.9542 6.50392 86.3361 9.9708 86.3361 9.9708C86.3361 9.9708 88.8758 8.26424 91.2274 8.53299C93.5789 8.7883 94.8152 10.347 94.8152 10.347C94.8152 10.347 96.4545 5.53642 101.937 5.53642C107.433 5.53642 108.992 8.80174 109.26 11.2877C109.529 13.7737 107.876 16.7031 107.876 16.7031C107.876 16.7031 108.669 17.0121 108.911 18.8934C109.099 20.3177 108.548 21.5809 108.548 21.5809C108.548 21.5809 111.075 19.5921 116.114 21.5809C124.472 24.8731 122.725 33.7685 122.725 33.7685C122.725 33.7685 125.144 33.4865 126.971 34.2659C129.067 35.1662 130.035 36.6443 130.035 36.6443C130.035 36.6443 130.505 32.7474 135.396 32.7206C140.503 32.6937 144.682 42.2612 143.768 45.0024C142.854 47.7437 140.368 48.4021 140.368 48.4021C140.368 48.4021 142.639 49.0471 143.486 51.8018C144.493 55.0537 143.66 58.5071 143.66 58.5071C143.66 58.5071 108.212 80.1415 107.823 80.0071C107.433 79.8727 63.5058 83.2724 63.5058 83.2724L30.5705 58.4399Z" fill="#EAB238"/>
<path d="M46.8165 65.1321C46.8165 64.8499 47.2196 63.6809 48.0124 63.1703C48.9933 62.5387 50.458 62.4715 50.458 62.4715C50.458 62.4715 48.8455 61.7056 47.9452 59.1793C47.354 57.5399 48.0796 55.7662 48.0796 55.7662C48.0796 55.7662 43.8199 55.9678 42.839 52.7428C41.858 49.5178 43.4033 49.1012 43.4033 49.1012C43.4033 49.1012 41.6968 39.9503 48.859 39.789C58.6549 39.574 56.9752 52.0306 56.9752 52.0306C56.9752 52.0306 58.3727 52.0306 59.2193 52.7965C60.0524 53.5624 60.3346 54.3418 60.3346 54.3418C60.3346 54.3418 62.1621 51.5871 66.489 52.2456C76.7015 53.7909 71.9446 63.7884 71.9446 63.7884C71.9446 63.7884 70.0499 58.6149 66.7712 58.3999C63.479 58.1849 59.4208 60.429 59.4208 60.429C59.4208 60.429 65.6424 61.1949 67.3221 64.4871C69.0018 67.7793 68.8674 72.254 68.8674 72.254C68.8674 72.254 56.4108 75.8956 56.1287 75.479C55.833 75.0759 46.8165 65.1321 46.8165 65.1321Z" fill="#FCE193"/>
<path d="M54.5695 54.2203C53.6691 53.8306 51.1429 56.0478 51.0891 57.7006C51.0354 59.3534 52.4329 61.4631 54.0991 61.6109C55.752 61.7587 57.4048 60.0522 57.4048 58.3993C57.4048 57.5662 55.6848 54.704 54.5695 54.2203Z" fill="#E17A2C"/>
<path d="M62.1752 35.677C62.1752 35.677 55.4699 34.7095 55.6043 40.2458C55.779 47.5826 64.043 46.4942 64.1102 46.8839C64.1774 47.2736 64.5133 49.7729 64.5133 49.7729C64.5133 49.7729 67.7787 49.3967 70.9365 51.2645C74.0943 53.1323 75.4515 55.3226 75.4515 55.3226C75.4515 55.3226 76.0965 52.2992 76.9968 51.0092C77.8971 49.7192 78.8646 48.7517 78.8646 48.7517C78.8646 48.7517 78.8646 47.1392 78.4077 45.8492C78.0852 44.922 77.3193 44.4383 77.3193 44.4383C77.3193 44.4383 84.5755 40.9983 80.9205 35.2873C76.7952 28.8508 70.2243 34.8304 70.2243 34.8304C70.2243 34.8304 67.6443 31.0948 64.4327 31.9951C61.2077 32.8954 62.1752 35.677 62.1752 35.677Z" fill="#FCE193"/>
<path d="M78.6631 59.8238C78.6631 59.8238 76.7281 53.1857 80.3428 51.3179C83.9574 49.4501 86.3359 51.5732 86.4568 51.1835C86.5777 50.7938 92.1946 44.8007 97.0187 44.9351C104.167 45.1232 105.807 49.6651 105.968 50.1488C106.761 52.4601 105.713 56.2091 105.713 56.2091C105.713 56.2091 108.414 52.0166 112.284 52.4063C116.154 52.796 116.584 55.8866 116.584 55.8866C116.584 55.8866 120.857 58.5338 120.655 61.0466C120.467 63.5595 117.753 65.4273 117.753 65.4273L111.182 71.8638L104.1 69.4182C104.1 69.4182 103.133 66.1932 103.133 64.2045C103.133 62.2023 103.321 60.6032 103.321 60.6032C103.321 60.6032 101.386 61.6379 100.042 62.0141C98.6849 62.4038 95.8496 62.471 95.8496 62.471C95.8496 62.471 95.7421 60.8451 93.0143 58.9907C87.0346 54.9326 78.6631 59.8238 78.6631 59.8238Z" fill="#FCE193"/>
<path d="M81.4984 68.7726C81.4984 68.7726 79.3081 60.8176 85.6237 60.6563C93.1622 60.4682 94.2506 67.1601 94.5193 70.8957C94.7747 74.6314 84.7906 80.3692 84.4009 80.1676C84.0112 79.9795 74.6587 74.2282 74.6587 74.2282C74.6587 74.2282 73.9465 72.1589 75.5187 70.3179C77.1581 68.3695 81.4984 68.7726 81.4984 68.7726Z" fill="#FCE193"/>
<path d="M123.437 65.1045C123.437 65.1045 121.247 63.3039 121.892 59.8908C122.537 56.4776 125.17 56.2895 125.17 56.2895C125.17 56.2895 123.168 53.1989 124.136 51.1967C125.103 49.1945 126.648 48.7511 131.607 48.8182C136.565 48.8854 139.078 50.2292 140.691 51.9761C142.142 53.5348 141.201 58.2917 141.201 58.2917C141.201 58.2917 133.864 67.1201 133.018 66.9186C132.185 66.717 123.437 65.1045 123.437 65.1045Z" fill="#FCE193"/>
<path d="M102.878 42.1128C102.878 42.1128 105.458 43.7253 106.291 44.9481C107.124 46.1709 108.226 48.4956 108.226 48.4956C108.226 48.4956 108.763 42.2069 111.357 39.1431C114.192 35.7972 117.887 35.9316 117.955 35.9316C118.653 35.9316 119.822 30.7178 117.121 27.9497C113.735 24.4828 107.917 25.6922 107.97 26.2162C108.024 26.7403 110.094 29.2397 108.75 35.0447C107.5 40.3391 102.878 42.1128 102.878 42.1128Z" fill="#FCE193"/>
<path d="M84.8445 43.3366C85.8792 43.8607 87.7201 42.1273 89.2923 41.4016C91.0929 40.5685 93.4176 40.246 93.4848 39.3457C93.552 38.4454 90.972 35.2204 87.2364 37.021C83.5007 38.8216 83.6889 42.7588 84.8445 43.3366Z" fill="#FCE193"/>
<path d="M29.3207 46.4538C28.9982 49.7325 32.3442 50.7538 32.3442 50.7538C32.3442 50.7538 31.9276 53.7772 33.1235 55.5241C34.091 56.935 36.0932 58.6819 36.9264 58.4938C37.7595 58.3057 40.4067 55.7928 40.4067 55.5913C40.4067 55.4032 40.2589 48.1872 38.727 45.6072C36.6039 41.9791 29.8985 40.6353 29.3207 46.4538Z" fill="#FCE193"/>
<path d="M41.0517 42.1132C41.9521 42.1132 42.8524 40.0572 43.3764 39.2778C43.8871 38.4985 45.8221 37.2219 45.8221 37.2219C45.8221 37.2219 42.8524 35.166 40.9845 37.0338C39.1167 38.8882 39.6946 42.1132 41.0517 42.1132Z" fill="#FCE193"/>
<path d="M48.2542 36.2548C48.2542 36.2548 50.0548 36.0666 51.0895 36.1204C52.1242 36.1876 53.8577 36.5101 53.8577 36.5101C53.8577 36.5101 54.1129 34.8304 55.9807 33.6076C57.8485 32.3848 59.582 32.7744 59.582 32.7744C59.582 32.7744 59.9717 30.4498 61.4498 29.4285C62.9279 28.3938 63.8282 28.3938 63.8282 28.3938C63.8282 28.3938 65.199 24.8732 63.1833 23.5563C57.4454 19.8207 54.5027 27.3188 53.5218 27.4801C52.7962 27.601 50.2698 25.0882 47.5016 27.0232C42.7985 30.3288 48.2542 36.2548 48.2542 36.2548Z" fill="#FCE193"/>
<path d="M66.4214 27.8156C66.4214 27.8156 67.9667 28.2053 69.1223 28.904C70.2779 29.6028 72.0248 30.839 72.0248 30.839L80.5308 30.5837C80.5308 30.5837 82.3986 28.1381 85.0995 27.0362C87.3033 26.1359 89.8698 26.0687 89.8698 26.0687C89.8698 26.0687 90.1117 19.78 84.9114 18.1406C78.3404 16.0847 76.1501 22.7765 76.1501 22.7765C76.1501 22.7765 74.2151 20.5997 71.9576 20.6534C66.9454 20.7878 66.4214 27.8156 66.4214 27.8156Z" fill="#FCE193"/>
<path d="M76.016 25.5575C75.2366 25.5575 70.6679 29.4812 70.5469 29.8709C70.4125 30.2606 71.6354 30.9056 71.7697 31.2819C71.9041 31.6716 80.1413 30.7712 80.5982 30.4487C81.0416 30.1262 77.7629 25.5575 76.016 25.5575Z" fill="#E17A2C"/>
<path d="M65.723 38.8212C65.7633 39.5871 69.5259 44.6128 70.6815 44.8143C71.8371 45.0159 75.6533 40.7562 74.5515 39.7887C74.0408 39.3318 70.238 39.8559 70.238 39.8559C70.238 39.8559 70.1708 37.0206 69.8483 36.5771C69.5124 36.1203 65.6558 37.5446 65.723 38.8212Z" fill="#E17A2C"/>
<path d="M75.0621 16.7964C76.0431 16.8233 76.9299 13.1952 78.0856 12.0261C79.2412 10.8571 82.0093 9.70143 81.3643 7.9008C80.7193 6.10018 75.7609 6.6108 74.1484 9.25799C72.3612 12.2008 72.9256 16.7293 75.0621 16.7964Z" fill="#FCE193"/>
<path d="M88.7814 15.8299C88.983 16.7168 91.4824 17.7649 91.872 18.2083C92.2617 18.6652 94.0624 20.2643 94.0624 20.2643C94.0624 20.2643 98.1877 19.2296 100.633 19.8746C103.079 20.5196 104.235 22.253 104.947 21.8096C105.659 21.3527 105.269 19.4312 104.88 18.7862C104.49 18.1412 103.724 16.9183 103.724 16.9183C103.724 16.9183 107.433 11.167 103.59 10.213C98.1205 8.85579 97.0186 14.4055 96.3064 14.5265C95.5942 14.6474 93.5383 12.4705 91.2808 12.793C89.0367 13.1289 88.5127 14.6743 88.7814 15.8299Z" fill="#FCE193"/>
<path d="M91.8721 32.3848C92.7859 34.4139 95.6749 34.5751 95.6749 34.5751C95.6749 34.5751 97.0859 39.0901 99.9884 39.4664C102.891 39.8561 104.799 36.8326 105.404 34.3198C106.183 31.0948 106.196 24.1208 99.0209 24.2014C93.6055 24.2686 91.2943 31.0948 91.8721 32.3848Z" fill="#FCE193"/>
<path d="M120.333 55.3757C121.233 55.3487 120.629 50.0544 123.477 47.9044C126.554 45.5797 128.96 46.0097 132.118 46.2247C135.396 46.4397 137.613 47.461 138.299 46.5472C139.159 45.4185 139.683 37.5441 135.208 36.8857C132.561 36.496 131.862 39.076 131.862 39.076C131.862 39.076 129.161 38.4982 127.67 41.1991C126.649 43.0669 126.581 44.2897 126.124 44.4241C125.923 44.4779 119.016 33.8085 113.628 40.2988C108.024 47.0579 118.264 52.6612 118.264 52.6612C118.264 52.6612 118.599 55.4429 120.333 55.3757Z" fill="#FCE193"/>
<path d="M99.9215 25.3701C99.5587 25.612 99.4108 31.8739 99.7333 31.9411C100.056 32.0083 104.114 34.1986 104.692 33.6208C105.27 33.0429 105.27 30.0733 104.235 28.1517C103.59 26.9154 101.211 24.5236 99.9215 25.3701Z" fill="#E17A2C"/>
<path d="M91.348 17.5093C91.2943 18.1678 92.1811 21.6346 93.2158 21.7556C94.9358 21.9706 98.1071 20.1431 98.4296 19.4981C98.7521 18.8531 98.1743 16.9853 95.5943 16.3403C93.0411 15.7087 91.4152 16.609 91.348 17.5093Z" fill="#E17A2C"/>
<path d="M91.9932 56.733C92.8935 57.7005 96.011 55.0667 97.1398 55.5773C98.4298 56.1551 97.1398 59.5011 98.5507 59.8908C99.9616 60.2805 102.797 55.6983 102.474 53.7095C102.34 52.8764 100.674 51.7745 98.8732 51.1295C97.0726 50.4845 94.6269 50.0411 93.5251 50.7398C92.4232 51.4386 90.3807 54.9995 91.9932 56.733Z" fill="#E17A2C"/>
<path d="M129.672 61.3684C129.672 61.3684 129.537 57.2431 130.639 55.1872C131.728 53.1312 134.509 53.4537 134.953 53.9644C135.396 54.475 136.955 58.2106 136.955 58.2106L133.676 63.8141L129.672 61.3684Z" fill="#E17A2C"/>
<path d="M85.1265 82.4395L72.2803 77.4139L71.9175 76.8495C71.2725 75.8417 62.8069 74.4845 62.8069 74.4845L62.0544 74.3367L51.5059 72.0657L51.2103 71.5551C50.5519 70.4398 42.0594 67.4164 42.0594 67.4164L34.0775 64.1914L33.8625 63.6673C33.1503 61.9607 27.7484 59.0045 27.6275 59.2464L25.2222 58.0504C25.8537 56.7739 27.8559 54.6642 30.8928 55.887C33.54 56.9486 36.5634 60.617 37.2219 62.0682L41.5622 64.3123C42.6237 63.6404 44.6259 62.9686 47.3672 63.9226C51.3447 65.3201 52.3928 68.3973 53.2125 69.6739L61.9469 71.5551C62.874 70.8026 64.8359 69.5395 67.4562 69.9695C72.0384 70.722 73.1537 73.3692 74.1078 74.7129L84.1725 75.5729C85.1803 74.1889 87.7469 71.2595 91.7378 70.7086C95.4734 70.1845 98.2012 71.4745 99.3031 72.7645L108.924 69.5261C109.731 68.2764 112.512 64.7423 116.866 63.9495C120.924 63.2104 124.109 65.2664 125.573 66.1936L131.997 62.9014C132.682 61.7457 134.899 58.1445 138.285 57.1098C142.518 55.8332 145.232 58.5073 145.353 58.6014L143.539 60.5901C143.486 60.5364 134.657 65.5486 134.63 65.5889L132.736 68.8542L125.318 69.3379L124.646 68.8004C124.619 68.7736 111.034 71.2326 111.007 71.2729L110.752 71.7432L98.6044 75.8282L98.0131 75.1967C97.9325 75.1161 85.1265 82.4395 85.1265 82.4395Z" fill="#DFDFDF"/>
<path d="M144.749 62.5918C144.44 62.6187 141.913 59.0712 138.621 60.4418C135.329 61.8258 132.185 67.483 132.185 67.483L121.932 69.0955C121.932 69.0955 120.548 66.3005 116.718 67.3755C112.888 68.4505 109.448 73.1537 109.368 72.8446C109.287 72.5355 98.0803 75.3977 98.0803 75.3977C98.0803 75.3977 95.8631 72.9252 91.9125 73.9062C87.8275 74.9274 85.6103 79.9396 85.6103 79.9396L72.885 77.4133C72.885 77.4133 70.7081 73.7583 67.4159 73.3015C64.1237 72.8446 61.9871 74.9946 61.9871 74.9946L52.4868 72.6833C52.4868 72.6833 51.0356 68.7058 46.8968 67.3218C42.7581 65.9377 40.7693 67.698 40.7693 67.698L34.615 63.519C34.615 63.519 32.8009 60.5358 29.3475 58.9233C25.9075 57.3108 24.9131 60.1327 24.9131 60.1327L46.3593 150.366L87.4243 167.068L127.965 149.318C127.992 149.331 145.676 62.4977 144.749 62.5918Z" fill="white"/>
<path d="M27.8289 59.8774L27.802 59.7833C27.4258 58.023 26.4448 54.0321 24.1201 52.218C21.0967 49.8664 19.0676 51.8955 19.0676 51.8955L42.3817 148.888L48.0792 151.064L27.8289 59.8774Z" fill="#ED5323" fill-opacity="0.78"/>
<path d="M42.9461 67.1602C42.9461 67.1602 42.5833 61.0999 37.7995 59.6621C33.9967 58.5199 33.8354 62.4302 33.8354 62.4302L52.742 152.986L59.9579 155.888L42.9461 67.1602Z" fill="#ED5323" fill-opacity="0.78"/>
<path d="M63.2367 74.1614C63.2367 74.1614 61.2883 67.6442 56.3299 67.0933C51.3714 66.5424 51.8686 70.708 51.8686 70.708L64.7014 157.864L71.9174 160.793L63.2367 74.1614Z" fill="#ED5323" fill-opacity="0.78"/>
<path d="M78.9989 72.32C73.5567 71.6347 72.8042 77.1038 72.8042 77.1038L78.4345 163.454L87.4645 167.082L85.852 79.4957C85.852 79.4957 84.7098 73.0457 78.9989 72.32Z" fill="#ED5323" fill-opacity="0.78"/>
<path d="M110.241 72.6564C110.241 72.6564 110.523 65.8033 104.396 67.5367C98.2685 69.2567 97.5966 74.9945 97.5966 74.9945L96.0647 163.346L103.67 159.973L110.241 72.6564Z" fill="#ED5323" fill-opacity="0.78"/>
<path d="M132.964 65.3062C132.964 65.3062 132.709 59.9312 127.455 61.0197C121.945 62.1484 121.892 67.6981 121.892 67.6981L112.23 156.292L119.567 153.053L132.964 65.3062Z" fill="#ED5323" fill-opacity="0.78"/>
<path d="M146.993 52.4331C142.478 54.5965 142.088 60.4015 142.088 60.4015L126.702 149.922L133.918 146.724L152.072 52.8765C152.059 52.8765 150.943 50.5384 146.993 52.4331Z" fill="#ED5323" fill-opacity="0.78"/>
</svg>
