<svg width="448" height="447" viewBox="0 0 448 447" fill="none" xmlns="http://www.w3.org/2000/svg">
<path d="M446.729 239.067C445.036 257.997 441.823 276.718 435.651 294.655C431.42 306.952 425.939 318.948 419.813 330.436C408.407 351.822 393.803 370.957 375.794 387.31C362.755 399.151 348.967 410.038 333.249 418.19C323.038 423.487 313.034 429.428 302.326 433.454C290.452 437.919 278.071 441.922 265.571 443.616C248.427 445.938 230.974 446.307 213.634 446.772C189.636 447.416 166.621 441.461 144.401 433.311C120.763 424.641 99.1718 411.807 80.1471 395.157C62.3559 379.587 46.4974 362.261 33.9627 342.032C22.0566 322.817 13.2202 302.27 7.30853 280.541C3.71222 267.322 1.77661 253.724 1.55853 239.215C1.35138 237.653 1.17096 236.828 0.990479 236.003C1.34558 222.2 0.424927 208.213 2.39032 194.643C4.66437 178.943 8.18561 163.145 13.555 148.251C18.8637 133.525 26.2606 119.339 34.334 105.87C47.9594 83.1395 65.7149 63.9088 86.7937 47.5501C103.508 34.5786 121.485 23.7928 141.006 16.3331C170.871 4.92063 202.089 -0.568754 234.254 1.14719C253.745 2.18711 272.904 5.41196 291.512 11.3803C321.192 20.8999 347.729 35.9448 371.145 56.6227C402.717 84.503 424.829 118.39 437.152 158.672C441.943 174.333 445.297 190.261 445.983 206.662C446.393 216.453 446.546 226.254 446.7 236.745C446.634 237.981 446.681 238.524 446.729 239.067ZM264.989 428.766C269.518 427.665 274.086 426.701 278.571 425.443C379.839 397.046 444.1 302.453 430.798 198.035C421.199 122.682 380.529 67.4646 312.012 35.1067C247.05 4.42759 181.949 8.24765 119.345 43.4978C41.2057 87.4958 -0.157959 181.347 20.1766 268.667C36.0087 336.654 76.2048 385.559 139.591 414.696C179.345 432.97 221.156 437.014 264.989 428.766Z" fill="#00FF29"/>
<path d="M0.75708 236.166C1.17096 236.828 1.35138 237.653 1.40344 238.776C1.02454 238.158 0.774109 237.244 0.75708 236.166Z" fill="#E3E3E3"/>
<path d="M446.968 238.985C446.681 238.524 446.634 237.981 446.754 237.21C447.017 237.622 447.112 238.263 446.968 238.985Z" fill="#E3E3E3"/>
<path d="M245.208 194.647C239.906 208.477 234.73 221.973 229.2 236.389C225.029 228.802 220.625 222.162 212.261 220.776C204.782 219.537 197.15 219.221 189.999 218.537C189.379 212.152 189.371 205.463 187.98 199.075C184.869 184.797 176.227 178.343 161.626 178.334C155.131 178.33 148.632 178.046 142.142 178.205C133.567 178.415 125.156 179.402 118.752 186.361C115.51 170.109 131.901 144.958 151.762 135.297C182.517 120.338 213.768 129.24 241.379 161C246.929 155.808 252.45 150.595 258.022 145.438C274.987 129.734 295.143 125.284 317.382 129.213C339.617 133.14 355.888 150.539 359.863 174.668C363.848 198.853 357.687 220.524 342.625 239.78C340.73 242.204 338.715 243.376 335.49 243.227C329.338 242.941 323.156 242.974 317.001 243.224C313.764 243.356 311.973 242.473 310.545 239.346C306.26 229.961 301.56 220.766 297.006 211.504C296.443 210.359 295.791 209.258 294.797 207.435C286.712 222.982 278.959 237.89 270.729 253.716C266.346 242.599 262.38 232.592 258.455 222.569C254.535 212.554 250.656 202.522 246.59 192.062C245.975 193.163 245.654 193.738 245.208 194.647Z" fill="#00FF29"/>
<path d="M174.297 280.193C173.504 285.264 173.052 290.303 172.91 295.351C172.766 300.504 173.087 305.672 172.907 310.823C172.725 316.055 169.72 319.558 164.615 319.827C155.001 320.333 145.339 320.423 135.718 320.091C130.978 319.928 128.253 315.962 128.183 310.521C128.076 302.19 128.154 293.857 128.154 285.524C128.154 283.901 128.154 282.277 128.154 280.195C121.577 280.195 115.462 280.174 109.347 280.205C106.684 280.219 104.021 280.408 101.359 280.401C90.888 280.375 87.7723 277.731 87.2356 267.377C86.8483 259.902 86.9867 252.38 87.3007 244.897C87.5626 238.657 91.0154 235.66 97.3395 235.605C107.17 235.519 117.002 235.544 126.834 235.5C127.133 235.498 127.432 235.246 128.145 234.924C128.145 228.666 128.155 222.22 128.138 215.774C128.134 214.109 128.013 212.444 128.004 210.779C127.938 197.427 130.614 194.532 143.828 194.2C150.153 194.041 156.498 194.109 162.818 194.405C169.887 194.735 172.956 198.133 172.996 205.274C173.052 215.099 173.01 224.923 173.01 235.293C180.603 235.293 188.007 235.511 195.394 235.248C211.002 234.693 214.055 237.423 214.147 252.889C214.182 258.719 214.165 264.556 213.902 270.378C213.604 276.98 210.354 280.072 203.771 280.135C194.106 280.228 184.439 280.164 174.297 280.193Z" fill="#00FF29"/>
<path d="M291.893 243.788C292.789 242.168 293.539 240.892 294.57 239.137C297.02 244.022 299.261 248.439 301.456 252.879C303.293 256.594 306.19 258.08 310.358 257.895C315.794 257.653 321.249 257.836 327.703 257.836C300.317 287.588 269.393 312.771 240.844 341.478C226.292 326.21 212.015 311.23 197.896 296.416C199.18 296.416 201.279 296.345 203.371 296.428C214.394 296.863 223.25 291.505 227.287 281.248C232.71 267.469 237.74 253.535 242.972 239.68C243.964 237.054 245.112 234.486 246.605 230.887C254.16 250.103 261.357 268.407 269 287.846C276.939 272.589 284.343 258.36 291.893 243.788Z" fill="#00FF29"/>
</svg>
