<svg width="259" height="247" viewBox="0 0 259 247" fill="none" xmlns="http://www.w3.org/2000/svg">
<path d="M238.284 223.763C232.065 223.763 227.069 228.759 227.069 234.978C227.069 241.197 232.065 246.193 238.284 246.193C244.503 246.193 249.499 241.197 249.499 234.978C249.499 228.759 244.503 223.763 238.284 223.763ZM117.979 30.5621C128.276 30.5621 136.535 38.8203 136.535 49.1175C136.535 59.4148 128.276 67.673 117.979 67.673C107.682 67.673 99.4237 59.4148 99.4237 49.1175C99.4237 38.8203 107.682 30.5621 117.979 30.5621ZM190.264 94.9964H181.7V86.7382H171.912V94.9964H163.348V164.427H190.264V94.9964ZM164.776 223.763C158.557 223.763 153.561 228.759 153.561 234.978C153.561 241.197 158.557 246.193 164.776 246.193C170.995 246.193 175.991 241.197 175.991 234.978C175.991 228.759 170.995 223.763 164.776 223.763ZM164.776 173.296H238.284V201.537H164.776V173.296ZM218.505 26.1781C218.505 18.3277 213.101 11.7007 205.761 9.86558V0.281982H198.726V9.55972C190.672 10.8851 184.453 17.8179 184.453 26.28C162.023 31.2757 144.997 54.2152 144.997 81.7425V121.504C144.589 121.402 144.079 121.402 143.671 121.402H143.569C143.264 121.402 142.958 121.402 142.754 121.402H115.94V85.2089C115.94 82.1503 114.921 77.7664 112.066 74.4019C109.517 70.3238 104.114 66.5515 99.5257 66.0417C91.5733 65.0222 84.5386 68.8964 80.3585 75.1156C80.3585 75.1156 55.5839 120.281 54.6663 123.034C53.7487 127.214 44.2671 176.967 44.2671 176.967L7.15616 191.954C-3.95673 196.848 0.121392 216.83 17.5554 211.631L57.8269 195.012C59.0503 194.503 61.3952 192.464 61.5991 192.362C62.5167 191.444 63.1284 190.323 63.6382 189.099C63.6382 188.997 70.7749 158.717 70.7749 158.717L92.287 187.06L85.1503 234.57C84.7425 250.475 104.929 249.659 106.866 234.672L113.697 188.385C114.105 183.186 112.27 178.7 110.639 175.845L87.4952 143.118L99.5257 116.101L98.812 130.68C98.812 135.472 102.686 139.244 107.376 139.244H143.06C143.264 139.244 143.467 139.346 143.671 139.346C144.079 139.346 144.385 139.244 144.793 139.244C144.895 139.244 144.895 139.244 144.997 139.244V217.85H258.063V81.7425C258.063 54.1132 241.037 31.1738 218.505 26.1781ZM249.295 209.184H153.663V81.7425C153.663 55.3367 171.505 33.9265 193.526 33.9265H209.533C231.555 33.9265 249.397 55.3367 249.397 81.7425L249.295 209.184ZM224.316 121.504H209.227V129.762H193.526V164.528H238.284V129.762H224.316V121.504ZM220.544 129.049H213V124.767H220.544V129.049Z" fill="#A606B4"/>
</svg>
