<svg width="270" height="274" viewBox="0 0 270 274" fill="none" xmlns="http://www.w3.org/2000/svg">
<path fill-rule="evenodd" clip-rule="evenodd" d="M115.505 66.6254C116.773 71.0788 119.485 78.5422 120.119 85.8296C121.458 100.845 101.84 96.5496 93.4046 91.1984C89.1429 88.4876 86.8712 84.0166 85.973 79.0703C84.6523 71.7477 86.202 67.9279 90.4108 62.2951C87.5227 69.9874 86.6951 83.5589 94.9367 88.7869C100.185 92.1137 118.341 98.3802 117.249 86.0937C116.351 75.9899 112.283 69.0193 111.332 60.4293C111.05 57.8593 110.962 54.9549 111.156 51.364C112.864 56.8208 113.991 61.3094 115.505 66.6254ZM188.377 159.285C192.673 158.739 196.953 157.947 201.214 156.891C215.179 153.441 228.422 147.333 240.063 138.971C232.895 131.015 228.246 119.926 226.238 109.98C224.108 99.3835 219.388 86.3753 208.311 85.7592C204.032 80.7073 196.847 77.0108 186.88 75.3914C189.891 79.0175 191.582 84.3862 192.568 89.1389C183.481 92.4834 180.17 95.3702 176.56 102.534C175.873 103.872 175.186 105.368 174.447 107.058C172.809 112.005 173.091 110.966 169.076 113.589C167.808 114.416 167.403 114.486 167.544 116.352C168.354 126.685 172.246 128.375 181.033 128.304C189.997 128.216 194.787 134.236 194.91 140.468C195.051 147.051 190.701 152.156 188.377 159.285ZM13.9648 119.961C21.4844 122.32 28.1939 127.988 33.4594 133.638C45.1878 146.241 58.0608 158.088 72.5893 167.417C74.544 168.667 76.534 169.881 78.5591 171.043C75.8648 166.009 74.9138 160.411 77.5377 154.655C80.9894 147.033 89.0725 143.935 96.9266 143.531C104.076 143.161 111.596 144.833 118.499 147.315C112.829 133.955 113.41 118.676 123.765 107.146C129.963 100.246 139.966 99.5948 157.752 99.718C163.247 99.7532 166.047 99.454 169.586 93.9796C172.316 89.755 175.081 85.9529 175.979 80.9186C177.036 75.0393 176.877 70.8147 169.71 68.8081C164.638 67.3823 164.567 67.8927 161.345 67.2414C155.569 66.5549 147.503 66.2205 145.989 59.4436C144.826 48.7589 135.792 44.0238 125.473 41.9643C83.3315 33.5679 86.5366 52.4026 71.11 73.1559L55.1375 93.8564C49.9249 99.2251 44.6242 103.696 38.1965 107.551C35.3613 109.259 21.3435 112.744 14.8277 114.662C14.5108 116.423 14.2114 118.183 13.9648 119.961ZM135.035 5.28076C65.0169 5.28076 7.78365 59.8484 3.52197 128.762C9.63272 127.107 17.2051 130.135 26.5033 140.116C45.2934 160.306 83.0321 196.18 128.132 193.733C117.742 188.47 108.18 185.02 98.5996 178.383C72.6421 160.394 88.5794 144.534 119.855 158.105C178.867 183.717 235.044 164.055 266.478 127.741C261.723 59.3027 204.701 5.28076 135.035 5.28076Z" fill="#009FE6"/>
<path fill-rule="evenodd" clip-rule="evenodd" d="M6.19873 164.829C32.5612 201.953 84.3177 225.276 142.026 205.174C172.105 194.701 185.858 210.578 160.411 225.54C151.043 231.05 141.886 233.602 131.848 237.792C173.69 243.196 211.34 212.391 230.236 194.894C242.017 183.999 250.47 183.171 256.458 188.276C236.452 235.556 189.609 268.737 135.035 268.737C71.8144 268.719 18.9838 224.22 6.19873 164.829Z" fill="#1F7D00"/>
</svg>
