<svg width="237" height="236" viewBox="0 0 237 236" fill="none" xmlns="http://www.w3.org/2000/svg">
<path d="M125.9 180.6C123.3 181.1 120.6 181.4 117.9 181.6C81.6 183.6 50.8 155.2 48.9 118.7C47.9 100.9 53.9 83.9 65.6 70.7C77.3 57.5 93.3 49.8001 110.8 48.9001C112 48.8001 113.1 48.8 114.3 48.8C149.1 48.8 177.9 76.5 179.8 111.8C180 116.4 179.8 120.9 179.1 125.3L202.4 147.9C204.2 142.8 205.7 137.6 206.6 132.3L228.6 127.7L228.3 121.5L227.5 105.9L227.2 99.7L206.5 97.6C205.6 92.8 204.4 88.2 202.9 83.7L219.6 68.8L216.3 63.6L207.8 50.5L204.4 45.3L185.8 53.7001C182.6 49.9001 179.2 46.5001 175.5 43.2001L182.3 22.4001L176.8 19.6L162.9 12.5L157.4 9.70005L145.8 25.8C141.1 24.1 136.2 22.9 131.2 21.9L126.8 0.800049L120.6 1.10005L105 2.00005L98.8 2.30005L96.8 22C91.8 22.9 86.9 24.2001 82.2 25.9001L68 10L62.8 13.4L49.7 21.9L44.5 25.3L52.8 43.7001C49.9 46.3001 47 49.0001 44.4 51.9001C43.7 52.6001 43.1 53.4 42.5 54.2L21.5 47.3L18.7 52.8L11.6 66.7L8.8 72.2L25.5 84.2C24 88.8 22.8 93.4 22 98.1L0 102.7L0.3 108.9L1.1 124.5L1.4 130.6L22.1 132.7C23 137.5 24.2 142.1 25.7 146.6L9 161.5L12.3 166.7L20.8 179.8L24.2 185L42.8 176.6C46 180.4 49.4 183.8 53.2 187L46.4 208L51.9 210.8L65.8 217.9L71.3 220.7L83 204.5C87.7 206.2 92.5 207.5 97.5 208.4L101.9 229.5L108.1 229.2L123.7 228.4L129.8 228L131.8 208.3C137.4 207.2 142.9 205.6 148.2 203.6L125.9 180.6Z" fill="#01A6A6"/>
<path d="M235.9 206C236.5 202.3 234.4 197.5 232.3 195.4C207.7 171.6 183.2 147.8 158.7 124C162.2 109.1 158.2 92.9001 146.6 81.3001C133.3 68.0001 113.7 64.6001 97.3 71.3001L122.5 96.5001C124.6 98.6001 124.6 102.1 122.5 104.2L105 121.6C102.9 123.7 99.4 123.7 97.3 121.6L72.1 96.4001C65.5 112.8 68.8 132.4 82.1 145.7C93.7 157.3 109.9 161.3 124.8 157.8C148.6 182.3 172.4 206.9 196.2 231.4C198.3 233.5 203.1 235.6 206.8 235C221.4 232.8 233.6 220.6 235.9 206Z" fill="#01A6A6"/>
</svg>
