<svg width="21" height="21" viewBox="0 0 21 21" fill="none" xmlns="http://www.w3.org/2000/svg">
<g clip-path="url(#clip0_8_2230)">
<path d="M10.5 19.9062C15.6949 19.9062 19.9062 15.6949 19.9062 10.5C19.9062 5.30507 15.6949 1.09375 10.5 1.09375C5.30507 1.09375 1.09375 5.30507 1.09375 10.5C1.09375 15.6949 5.30507 19.9062 10.5 19.9062Z" stroke="#95969D" stroke-width="1.5" stroke-linecap="round" stroke-linejoin="round"/>
<path d="M12.6656 8.33442C11.4695 7.13829 5.7356 5.73523 5.7356 5.73523C5.7356 5.73523 7.13866 11.4695 8.33435 12.6657C8.9087 13.24 9.6877 13.5627 10.5 13.5627C11.3122 13.5627 12.0912 13.24 12.6656 12.6657C13.24 12.0913 13.5626 11.3123 13.5626 10.5C13.5626 9.68778 13.24 8.90878 12.6656 8.33442V8.33442Z" stroke="#95969D" stroke-width="1.5" stroke-linecap="round" stroke-linejoin="round"/>
</g>
<defs>
<clipPath id="clip0_8_2230">
<rect width="21" height="21" fill="white"/>
</clipPath>
</defs>
</svg>
