<svg width="100" height="94" viewBox="0 0 100 94" fill="none" xmlns="http://www.w3.org/2000/svg">
<g opacity="0.6" filter="url(#filter0_f_38_244)">
<path d="M69.3096 46.9276C69.3096 56.0004 60.5207 63.3553 49.679 63.3553C38.8373 63.3553 30.0483 56.0004 30.0483 46.9276C30.0483 37.8549 38.8373 30.5 49.679 30.5C60.5207 30.5 69.3096 37.8549 69.3096 46.9276Z" fill="#FF7622"/>
</g>
<path d="M72 39.5C72 51.9264 61.9264 62 49.5 62C37.0736 62 27 51.9264 27 39.5C27 27.0736 37.0736 17 49.5 17C61.9264 17 72 27.0736 72 39.5Z" fill="#FF7622"/>
<path d="M57.0001 43.1901V45.4401C57.0009 45.6489 56.9581 45.8557 56.8745 46.0471C56.7908 46.2385 56.668 46.4103 56.5141 46.5515C56.3602 46.6927 56.1785 46.8002 55.9806 46.8671C55.7828 46.934 55.5731 46.9589 55.3651 46.9401C53.0572 46.6893 50.8403 45.9007 48.8926 44.6376C47.0804 43.4861 45.5441 41.9497 44.3926 40.1376C43.1251 38.181 42.3363 35.9533 42.0901 33.6351C42.0713 33.4277 42.096 33.2186 42.1624 33.0213C42.2289 32.8239 42.3358 32.6426 42.4761 32.4888C42.6165 32.335 42.7874 32.2121 42.9779 32.128C43.1684 32.0438 43.3743 32.0003 43.5826 32.0001H45.8326C46.1966 31.9965 46.5494 32.1254 46.8254 32.3627C47.1014 32.6001 47.2816 32.9297 47.3326 33.2901C47.4275 34.0101 47.6037 34.7171 47.8576 35.3976C47.9585 35.666 47.9803 35.9578 47.9205 36.2382C47.8607 36.5187 47.7217 36.7762 47.5201 36.9801L46.5676 37.9326C47.6352 39.8102 49.1899 41.3649 51.0676 42.4326L52.0201 41.4801C52.224 41.2784 52.4814 41.1395 52.7619 41.0796C53.0424 41.0198 53.3341 41.0417 53.6026 41.1426C54.283 41.3965 54.99 41.5726 55.7101 41.6676C56.0744 41.719 56.4071 41.9025 56.645 42.1832C56.8828 42.4639 57.0092 42.8223 57.0001 43.1901Z" stroke="white" stroke-width="2" stroke-linecap="round" stroke-linejoin="round"/>
<defs>
<filter id="filter0_f_38_244" x="0.0483398" y="0.5" width="99.2612" height="92.8552" filterUnits="userSpaceOnUse" color-interpolation-filters="sRGB">
<feFlood flood-opacity="0" result="BackgroundImageFix"/>
<feBlend mode="normal" in="SourceGraphic" in2="BackgroundImageFix" result="shape"/>
<feGaussianBlur stdDeviation="15" result="effect1_foregroundBlur_38_244"/>
</filter>
</defs>
</svg>
