<svg width="22" height="23" viewBox="0 0 22 23" fill="none" xmlns="http://www.w3.org/2000/svg">
<path d="M17.875 11.9212V10.0625H16.5V12.2188C16.5 12.4094 16.5725 12.5921 16.7014 12.7269L18.5625 14.6726V15.8125H3.4375V14.6726L5.29856 12.7269C5.4275 12.5921 5.49996 12.4094 5.5 12.2188V9.34375C5.49808 8.33376 5.75114 7.34112 6.23362 6.4661C6.7161 5.59108 7.41091 4.86467 8.24787 4.36023C9.08483 3.85579 10.0343 3.59119 11.0004 3.59316C11.9665 3.59513 12.9149 3.86359 13.75 4.37144V2.76503C13.0956 2.46209 12.3995 2.26901 11.6875 2.19291V0.71875H10.3125V2.19219C8.61752 2.37255 7.04671 3.20355 5.90382 4.52452C4.76092 5.84548 4.12713 7.56257 4.125 9.34375V11.9212L2.26394 13.8668C2.135 14.0016 2.06254 14.1844 2.0625 14.375V16.5312C2.0625 16.7219 2.13493 16.9047 2.26386 17.0395C2.3928 17.1743 2.56766 17.25 2.75 17.25H7.5625V17.9688C7.5625 18.9219 7.92466 19.836 8.56932 20.5099C9.21398 21.1839 10.0883 21.5625 11 21.5625C11.9117 21.5625 12.786 21.1839 13.4307 20.5099C14.0753 19.836 14.4375 18.9219 14.4375 17.9688V17.25H19.25C19.4323 17.25 19.6072 17.1743 19.7361 17.0395C19.8651 16.9047 19.9375 16.7219 19.9375 16.5312V14.375C19.9375 14.1844 19.865 14.0016 19.7361 13.8668L17.875 11.9212ZM13.0625 17.9688C13.0625 18.5406 12.8452 19.0891 12.4584 19.4935C12.0716 19.8978 11.547 20.125 11 20.125C10.453 20.125 9.92839 19.8978 9.54159 19.4935C9.1548 19.0891 8.9375 18.5406 8.9375 17.9688V17.25H13.0625V17.9688Z" fill="#95969D"/>
<path d="M17.875 8.625C19.3938 8.625 20.625 7.33782 20.625 5.75C20.625 4.16218 19.3938 2.875 17.875 2.875C16.3562 2.875 15.125 4.16218 15.125 5.75C15.125 7.33782 16.3562 8.625 17.875 8.625Z" fill="#95969D"/>
</svg>
