<svg width="24" height="24" viewBox="0 0 24 24" fill="none" xmlns="http://www.w3.org/2000/svg">
<path d="M7.94454 12.8839C7.45639 12.3957 7.45639 11.6043 7.94454 11.1161L11.1161 7.94454C11.6043 7.45639 12.3957 7.45639 12.8839 7.94454L16.0555 11.1161C16.5436 11.6043 16.5436 12.3957 16.0555 12.8839L12.8839 16.0555C12.3957 16.5436 11.6043 16.5436 11.1161 16.0555L7.94454 12.8839Z" stroke="#95969D" stroke-width="1.5"/>
<path d="M12 2.95L11.9999 2.95C9.60061 2.95279 7.30034 3.90717 5.60376 5.60375C3.90717 7.30034 2.9528 9.60061 2.95 11.9999V12C2.95 13.7899 3.48078 15.5396 4.4752 17.0279C5.46963 18.5162 6.88305 19.6761 8.53672 20.3611C10.1904 21.0461 12.01 21.2253 13.7656 20.8761C15.5211 20.5269 17.1337 19.665 18.3993 18.3993C19.665 17.1337 20.5269 15.5211 20.8761 13.7656C21.2253 12.01 21.0461 10.1904 20.3611 8.53672C19.6761 6.88304 18.5162 5.46963 17.0279 4.4752C15.5397 3.48077 13.7899 2.95 12 2.95ZM6.1943 3.31114C7.91279 2.16288 9.93319 1.55 12 1.55C14.7715 1.55 17.4295 2.65098 19.3893 4.61073C21.349 6.57049 22.45 9.22849 22.45 12C22.45 14.0668 21.8371 16.0872 20.6889 17.8057C19.5406 19.5242 17.9085 20.8636 15.999 21.6545C14.0896 22.4455 11.9884 22.6524 9.96131 22.2492C7.93421 21.846 6.0722 20.8507 4.61074 19.3893C3.14928 17.9278 2.15401 16.0658 1.7508 14.0387C1.34758 12.0116 1.55453 9.91045 2.34546 8.00096C3.1364 6.09147 4.4758 4.4594 6.1943 3.31114Z" fill="#95969D" stroke="#FAFAFD" stroke-width="0.1"/>
</svg>
