<svg width="46" height="46" viewBox="0 0 46 46" fill="none" xmlns="http://www.w3.org/2000/svg">
<path d="M44.6079 23.1772C44.6079 35.3275 34.7582 45.1772 22.6079 45.1772C10.4576 45.1772 0.60791 35.3275 0.60791 23.1772C0.60791 11.027 10.4576 1.17725 22.6079 1.17725C34.7582 1.17725 44.6079 11.027 44.6079 23.1772Z" fill="white" stroke="#FF7622"/>
<path fill-rule="evenodd" clip-rule="evenodd" d="M23.7663 25.8315L20.9217 22.9055L15.4414 25.9052L21.4484 19.5956L24.293 22.5216L29.771 19.5219L23.7652 25.8315H23.7663ZM22.6074 12.1772C16.5326 12.1772 11.6079 16.7356 11.6079 22.3599C11.6079 25.5587 13.2013 28.4132 15.6948 30.2799V34.1772L19.4483 32.1158C20.4484 32.393 21.5095 32.5426 22.6074 32.5426C28.6832 32.5426 33.6079 27.9831 33.6079 22.3599C33.6079 16.7356 28.6832 12.1772 22.6074 12.1772Z" fill="#FF7622"/>
</svg>
