<svg width="24" height="18" viewBox="0 0 24 18" fill="none" xmlns="http://www.w3.org/2000/svg">
<path fill-rule="evenodd" clip-rule="evenodd" d="M4.21283 4.77823C4.19791 4.79187 4.16863 4.82018 4.13633 4.852C4.11292 4.87506 4.09421 4.8937 4.05548 4.93243L1.91232 7.07559C1.8562 7.13437 1.81721 7.17384 1.72664 7.26441C1.67611 7.31495 1.639 7.35377 1.55916 7.4386C1.41071 7.58226 1.25417 7.75377 1.10748 7.93482C0.969168 8.08114 0.858656 8.25156 0.781475 8.43774C0.622572 8.92186 0.622572 9.3924 0.764118 9.82943L0.783078 9.88035C0.860884 10.0646 0.970736 10.2335 1.10746 10.3792C1.25427 10.5589 1.4108 10.7305 1.57632 10.8932C1.639 10.9605 1.67611 10.9993 1.72664 11.0498L1.91232 11.2355L3.86629 13.1926C3.95767 13.284 4.00254 13.3284 4.05452 13.378C4.10992 13.4364 4.1681 13.4943 4.22651 13.5493C4.23696 13.5586 6.72734 16.0474 6.72734 16.0474C6.80426 16.1243 6.8663 16.1847 7.00586 16.3195C7.02068 16.334 7.04316 16.3569 7.05007 16.3641C7.086 16.4019 7.10683 16.4237 7.12073 16.4376C7.41115 16.7284 7.74503 16.9728 8.11031 17.162C8.48458 17.3483 8.87402 17.4765 9.27574 17.5471C9.65523 17.6092 10.0311 17.6424 10.408 17.6479C10.4728 17.6492 10.5267 17.6498 10.6468 17.651C10.7627 17.6522 10.8137 17.6528 10.8765 17.6541L18.2973 17.6542C18.3738 17.6528 18.4255 17.6522 18.5427 17.651C18.6639 17.6498 18.7184 17.6492 18.788 17.6478C19.1664 17.6411 19.5449 17.6068 19.9195 17.5452C20.3301 17.4757 20.7251 17.3453 21.0938 17.1579C21.4653 16.9692 21.8044 16.7225 22.0983 16.427C22.3907 16.1335 22.6361 15.7962 22.8256 15.4273C23.0127 15.0529 23.1412 14.6597 23.2104 14.2542C23.2732 13.8751 23.3065 13.4947 23.3106 13.1134C23.3139 13.0349 23.3154 12.9599 23.3175 12.7939C23.3186 12.7151 23.3191 12.6803 23.3199 12.6375L23.32 5.64814C23.3191 5.59369 23.3186 5.5591 23.3175 5.48166L23.3164 5.40119C23.3149 5.29973 23.3131 5.2236 23.3101 5.14778C23.306 4.78887 23.2739 4.4133 23.2146 4.04157C23.1423 3.62992 23.0141 3.24048 22.8324 2.87529C22.6415 2.50234 22.3976 2.16757 22.1065 1.87655C21.8164 1.58414 21.4794 1.33837 21.11 1.15028C20.7431 0.966463 20.3554 0.83808 19.9554 0.767238C19.5718 0.706142 19.1953 0.674097 18.8179 0.669522C18.6931 0.664286 18.5826 0.663181 18.3382 0.663181C18.2581 0.661759 18.1645 0.660876 18.0592 0.660433C17.98 0.6601 17.917 0.660034 17.7749 0.660034H11.4524C11.1688 0.660034 11.0404 0.660571 10.8786 0.663269C10.6447 0.663181 10.5342 0.664286 10.3919 0.669978C10.0331 0.673807 9.65721 0.705897 9.28518 0.765526C8.87402 0.837789 8.48458 0.965945 8.11939 1.14764C7.74503 1.34142 7.41115 1.58585 7.12045 1.8769C7.10683 1.89052 7.086 1.91236 7.05149 1.94869C7.04317 1.9574 7.00586 1.99477 7.00586 1.99477C6.8663 2.12952 6.80426 2.18995 6.72734 2.26686L6.40634 2.58786L4.27139 4.72591C4.25268 4.74084 4.23266 4.75839 4.21283 4.77823ZM17.7749 1.91886C17.9152 1.91886 17.977 1.91893 18.0539 1.91925C18.1543 1.91967 18.2428 1.92051 18.3277 1.92192C18.5659 1.92201 18.6652 1.923 18.7851 1.9278C19.1189 1.93209 19.4345 1.95895 19.7468 2.00861C20.0163 2.05643 20.288 2.14641 20.5425 2.27392C20.7889 2.39939 21.0171 2.56582 21.2148 2.76504C21.4148 2.96505 21.5809 3.19306 21.7087 3.4426C21.8332 3.69301 21.9234 3.96707 21.9732 4.24976C22.0211 4.55104 22.048 4.86547 22.0518 5.18059C22.0548 5.26138 22.0564 5.32806 22.0577 5.41989L22.0588 5.49829C22.0599 5.57858 22.0604 5.61507 22.0613 5.66073L22.0612 12.6252C22.0604 12.6593 22.0599 12.6959 22.0588 12.7775C22.0568 12.9325 22.0555 13.0002 22.0522 13.082C22.0484 13.4169 22.0208 13.7329 21.969 14.0455C21.9211 14.3262 21.8312 14.6011 21.7027 14.8585C21.5758 15.1054 21.4072 15.3371 21.2062 15.5389C21.0063 15.7399 20.776 15.9075 20.5236 16.0356C20.2682 16.1654 19.9947 16.2557 19.7123 16.3035C19.4008 16.3548 19.0831 16.3836 18.7645 16.3892C18.6992 16.3905 18.6474 16.3911 18.5303 16.3923C18.409 16.3935 18.3546 16.3942 18.285 16.3955L10.8891 16.3954C10.8333 16.3942 10.7795 16.3935 10.6594 16.3923C10.5434 16.3911 10.4924 16.3905 10.4296 16.3892C10.1112 16.3846 9.79709 16.3569 9.48629 16.3061C9.21117 16.2576 8.93711 16.1674 8.68013 16.0396C8.43898 15.9146 8.21026 15.7472 8.01112 15.5478L7.96197 15.4963C7.91313 15.4451 7.89198 15.4233 7.86767 15.4018C7.74227 15.2806 7.68519 15.225 7.61747 15.1573L5.12184 12.6616C5.09905 12.6409 5.08526 12.6284 5.07574 12.6199C5.03064 12.5765 4.99375 12.5393 4.95888 12.5022C4.88682 12.4324 4.84735 12.3934 4.75678 12.3029L2.8028 10.3458L2.61677 10.1597C2.57814 10.1211 2.54706 10.0886 2.47584 10.0129C2.32083 9.8599 2.19078 9.71674 2.06912 9.56658L2.03105 9.52373C1.99933 9.49114 1.97299 9.45377 1.95297 9.41304C1.90455 9.24523 1.90473 9.06708 1.95352 8.89934C1.97239 8.86024 1.99759 8.82447 2.02815 8.79349L2.07105 8.74529C2.19071 8.59611 2.31943 8.45442 2.45648 8.32104C2.54706 8.22569 2.57814 8.19317 2.61677 8.15454C2.71502 8.05629 2.75891 8.01184 2.81371 7.95416L4.75678 6.01138L4.9456 5.82256C4.98319 5.78497 4.99931 5.76891 5.01974 5.74879L5.06132 5.71142L5.06133 5.71141L5.06137 5.71137C5.09159 5.68428 5.10835 5.66925 5.12499 5.65262L7.29679 3.47767L7.61747 3.15699C7.68519 3.08926 7.74227 3.03362 7.86767 2.91251C7.89198 2.89091 7.91313 2.86912 7.96034 2.81969L8.01085 2.76675C8.21026 2.5671 8.43898 2.39966 8.68921 2.27007C8.93711 2.14682 9.21117 2.05664 9.49386 2.0069C9.79527 1.95866 10.1094 1.93185 10.4242 1.92826C10.5621 1.923 10.6615 1.92201 10.8891 1.92201C11.0521 1.91938 11.1758 1.91886 11.4524 1.91886H17.7749ZM11.8129 12.4885C11.762 12.5384 11.7012 12.5792 11.6326 12.6075C11.4206 12.695 11.1768 12.6461 11.015 12.4836C10.7949 12.2626 10.7949 11.9052 11.015 11.6842C11.0471 11.652 11.0823 11.6243 11.12 11.6012L13.5641 9.15441L11.015 6.608L11.0227 6.60029C10.9727 6.54935 10.932 6.48852 10.9037 6.41999C10.8161 6.20801 10.865 5.96416 11.0276 5.80235C11.2486 5.5823 11.6059 5.5823 11.8269 5.80235C11.8591 5.83438 11.8868 5.86963 11.9099 5.90721L14.3621 8.35552L16.8374 5.87758C16.8558 5.85118 16.8766 5.826 16.9 5.80235C17.0612 5.64045 17.3041 5.59171 17.5152 5.6789C17.7264 5.76609 17.8642 5.972 17.8642 6.20046C17.8642 6.35274 17.803 6.49501 17.6996 6.59877L17.7057 6.60485L15.1606 9.15266L17.6445 11.6326C17.6669 11.649 17.6884 11.6673 17.7088 11.6874C17.8707 11.8486 17.9194 12.0915 17.8323 12.3026C17.7451 12.5138 17.5392 12.6515 17.3107 12.6515C17.1584 12.6515 17.0161 12.5903 16.9124 12.487L16.9063 12.493L14.3623 9.95177L11.8206 12.4962L11.8129 12.4885Z" fill="#181C2E"/>
</svg>
