<svg width="17" height="19" viewBox="0 0 17 19" fill="none" xmlns="http://www.w3.org/2000/svg">
<path d="M1.35229 4.70508H2.92062H15.4672" stroke="#FB6D3A" stroke-width="1.56833" stroke-linecap="round" stroke-linejoin="round"/>
<path d="M5.27314 4.70501V3.13669C5.27314 2.72074 5.43838 2.32183 5.7325 2.02771C6.02662 1.73359 6.42553 1.56836 6.84147 1.56836H9.97813C10.3941 1.56836 10.793 1.73359 11.0871 2.02771C11.3812 2.32183 11.5465 2.72074 11.5465 3.13669V4.70501M13.8989 4.70501V15.6833C13.8989 16.0993 13.7337 16.4982 13.4396 16.7923C13.1455 17.0864 12.7466 17.2516 12.3306 17.2516H4.48898C4.07304 17.2516 3.67412 17.0864 3.38001 16.7923C3.08589 16.4982 2.92065 16.0993 2.92065 15.6833V4.70501H13.8989Z" stroke="#FB6D3A" stroke-width="1.56833" stroke-linecap="round" stroke-linejoin="round"/>
<path d="M6.84155 8.62598V13.331" stroke="#FB6D3A" stroke-width="1.56833" stroke-linecap="round" stroke-linejoin="round"/>
<path d="M9.97827 8.62598V13.331" stroke="#FB6D3A" stroke-width="1.56833" stroke-linecap="round" stroke-linejoin="round"/>
</svg>
