<svg width="23" height="16" viewBox="0 0 23 16" fill="none" xmlns="http://www.w3.org/2000/svg">
<path d="M0 0V2H14V6V8V11H8.2207C7.67163 10.3907 6.88492 10 6 10C5.11508 10 4.32837 10.3907 3.7793 11H3V10L5 8H1V13H3C3 14.657 4.343 16 6 16C7.657 16 9 14.657 9 13H15C15 14.657 16.343 16 18 16C19.657 16 21 14.657 21 13H22H23V8L20.2754 2.55273C20.1064 2.21373 19.7618 2 19.3828 2H16V0H0ZM1 4V6H8V4H1ZM16 4H18.7637L19.7637 6H16V4ZM16 8H20.7637L21 8.47266V11H20.2207C19.6716 10.3907 18.8849 10 18 10C17.2279 10 16.5316 10.3002 16 10.7793V8ZM6 11.75C6.689 11.75 7.25 12.311 7.25 13C7.25 13.689 6.689 14.25 6 14.25C5.311 14.25 4.75 13.689 4.75 13C4.75 12.311 5.311 11.75 6 11.75ZM18 11.75C18.689 11.75 19.25 12.311 19.25 13C19.25 13.689 18.689 14.25 18 14.25C17.311 14.25 16.75 13.689 16.75 13C16.75 12.311 17.311 11.75 18 11.75Z" fill="#FF7622"/>
</svg>
