<svg width="44" height="44" viewBox="0 0 44 44" fill="none" xmlns="http://www.w3.org/2000/svg">
<path d="M22 1.46265C33.3438 1.46265 42.5219 10.6515 42.5219 21.9914C42.5219 33.3312 33.3438 42.5373 22 42.5373C10.6563 42.5373 1.47815 33.3484 1.47815 22.0086C1.47815 10.6687 10.6563 1.46265 22 1.46265Z" fill="#E74D89"/>
<path d="M22 44C9.86563 44 0 34.14 0 22.0086C0 9.85999 9.86563 0 22 0C34.1344 0 44 9.85999 44 21.9914C44 34.1228 34.1344 44 22 44ZM40.5453 25.0027C39.9094 24.7962 34.7359 23.2648 28.8406 24.194C31.2984 30.9394 32.2953 36.4458 32.4844 37.5815C36.7125 34.7423 39.7203 30.2339 40.5453 25.0027ZM29.3391 39.3195C29.0641 37.6676 27.9641 31.9202 25.3344 25.0716C25.3 25.0888 25.2484 25.106 25.2141 25.106C14.6094 28.8056 10.8109 36.1533 10.4672 36.8416C13.6469 39.3195 17.6516 40.7994 22 40.7994C24.5953 40.8166 27.0875 40.2831 29.3391 39.3195ZM8.04375 34.5874C8.47344 33.8647 13.6297 25.3297 23.3234 22.1807C23.5641 22.0946 23.8219 22.0258 24.0625 21.957C23.5984 20.8901 23.0828 19.8232 22.5328 18.7736C13.1484 21.5784 4.03906 21.458 3.21406 21.4408C3.21406 21.63 3.19688 21.8193 3.19688 22.0086C3.21406 26.844 5.03594 31.2491 8.04375 34.5874ZM3.60938 18.1713C4.45156 18.1885 12.1859 18.2229 20.9859 15.8827C17.875 10.3418 14.5062 5.69574 14.025 5.02464C8.74844 7.50254 4.82969 12.3551 3.60938 18.1713ZM17.6 3.75127C18.1156 4.43958 21.5359 9.08565 24.6125 14.747C31.2984 12.2346 34.1172 8.44896 34.4609 7.96715C31.1437 5.02464 26.7781 3.23504 22 3.23504C20.4875 3.23504 19.0094 3.42433 17.6 3.75127ZM36.5406 10.1353C36.1453 10.6688 33 14.7126 26.0563 17.5518C26.4859 18.4466 26.9156 19.3586 27.3109 20.2706C27.4484 20.5976 27.5859 20.9245 27.7234 21.2343C33.9797 20.4427 40.1844 21.7161 40.8031 21.8365C40.7516 17.4142 39.1703 13.3359 36.5406 10.1353Z" fill="#B2215A"/>
</svg>
