<svg width="17" height="17" viewBox="0 0 17 17" fill="none" xmlns="http://www.w3.org/2000/svg">
<path d="M7.75 2.59082H2.5C2.10218 2.59082 1.72064 2.74886 1.43934 3.03016C1.15804 3.31146 1 3.693 1 4.09082V14.5908C1 14.9886 1.15804 15.3702 1.43934 15.6515C1.72064 15.9328 2.10218 16.0908 2.5 16.0908H13C13.3978 16.0908 13.7794 15.9328 14.0607 15.6515C14.342 15.3702 14.5 14.9886 14.5 14.5908V9.34082" stroke="#FB6D3A" stroke-width="1.5" stroke-linecap="round" stroke-linejoin="round"/>
<path d="M13.375 1.46599C13.6734 1.16762 14.078 1 14.5 1C14.922 1 15.3266 1.16762 15.625 1.46599C15.9234 1.76436 16.091 2.16903 16.091 2.59099C16.091 3.01295 15.9234 3.41762 15.625 3.71599L8.5 10.841L5.5 11.591L6.25 8.59099L13.375 1.46599Z" stroke="#FB6D3A" stroke-width="1.5" stroke-linecap="round" stroke-linejoin="round"/>
</svg>
