<svg width="27" height="27" viewBox="0 0 27 27" fill="none" xmlns="http://www.w3.org/2000/svg">
<path fill-rule="evenodd" clip-rule="evenodd" d="M13.5 0C20.9558 0 27 6.04416 27 13.5C27 20.9558 20.9558 27 13.5 27C6.04416 27 0 20.9558 0 13.5C0 6.04416 6.04416 0 13.5 0ZM13.5 1.57275C20.0871 1.5735 25.4264 6.91384 25.4259 13.5009C25.4254 20.088 20.0853 25.4275 13.4982 25.4272C6.91114 25.427 1.5714 20.0871 1.5714 13.5C1.57149 10.3365 2.82832 7.30259 5.06539 5.06578C7.30245 2.82897 10.3365 1.57248 13.5 1.57275ZM9.22927 7.64437C8.81201 7.6394 8.41017 7.80197 8.11373 8.09568C7.8173 8.38939 7.65102 8.7897 7.65214 9.207C7.65214 10.078 8.35825 10.7841 9.22927 10.7841C10.1003 10.7841 10.8064 10.078 10.8064 9.207C10.8075 8.7897 10.6413 8.38939 10.3448 8.09568C10.0484 7.80197 9.64654 7.6394 9.22927 7.64437ZM22.4967 15.8254C21.7779 19.71 18.0286 22.9534 13.4983 22.9534C9.00416 22.9534 5.27681 19.7572 4.51575 15.9165C4.36151 14.958 5.14654 14.7319 5.886 14.9107C8.35973 15.626 10.9251 15.974 13.5 15.9435C16.0691 15.9733 18.6286 15.6265 21.0971 14.9141C21.816 14.7319 22.5858 14.9377 22.4967 15.8254ZM20.0563 16.3654C19.9861 16.3924 19.9149 16.4126 19.843 16.4362C19.8356 16.4396 20.0731 16.362 20.0661 16.3654C17.9315 16.953 15.725 17.2382 13.5111 17.2125C10.8692 17.2125 8.50635 16.9189 6.88027 16.335C5.70139 15.984 5.92751 17.3711 6.75607 17.7964C8.87576 18.7613 11.182 19.2476 13.5108 19.2206C16.281 19.2206 18.7495 18.576 20.3799 17.7424C21.1515 17.2462 21.304 15.9165 20.0563 16.3654ZM17.7795 7.64437C17.3622 7.6394 16.9603 7.80196 16.6638 8.09566C16.3673 8.38936 16.201 8.78967 16.202 9.207C16.1937 9.77602 16.4925 10.3054 16.9839 10.5923C17.4754 10.8793 18.0833 10.8793 18.5747 10.5923C19.0662 10.3054 19.365 9.77602 19.3566 9.207C19.3577 8.78973 19.1914 8.38947 18.8949 8.09578C18.5985 7.80209 18.1967 7.6395 17.7795 7.64437Z" fill="#50555C"/>
</svg>
