<svg width="115" height="114" viewBox="0 0 115 114" fill="none" xmlns="http://www.w3.org/2000/svg">
<path opacity="0.05" d="M115 57C115 88.4802 89.2564 114 57.5 114C25.7436 114 0 88.4802 0 57C0 25.5198 25.7436 0 57.5 0C89.2564 0 115 25.5198 115 57Z" fill="#FF7622"/>
<path opacity="0.1" d="M100 57C100 80.196 80.9721 99 57.5 99C34.0279 99 15 80.196 15 57C15 33.804 34.0279 15 57.5 15C80.9721 15 100 33.804 100 57Z" fill="#FF7622"/>
<path d="M87.8303 56.888C87.8303 73.563 74.3126 87.0807 57.6376 87.0807C40.9627 87.0807 27.4449 73.563 27.4449 56.888C27.4449 40.213 40.9627 26.6953 57.6376 26.6953C74.3126 26.6953 87.8303 40.213 87.8303 56.888Z" fill="#FF3434"/>
<path d="M70.1583 63.0478V66.8039C70.1597 67.1526 70.0883 67.4978 69.9486 67.8173C69.8089 68.1368 69.604 68.4236 69.347 68.6593C69.0901 68.8951 68.7867 69.0745 68.4564 69.1862C68.1261 69.298 67.7761 69.3394 67.4288 69.3081C63.576 68.8894 59.8751 67.5729 56.6235 65.4642C53.5983 63.5419 51.0335 60.9771 49.1112 57.9519C46.9952 54.6855 45.6783 50.9667 45.2674 47.0966C45.2361 46.7503 45.2772 46.4014 45.3882 46.0719C45.4992 45.7424 45.6775 45.4397 45.9119 45.1829C46.1463 44.9262 46.4315 44.721 46.7495 44.5806C47.0675 44.4401 47.4113 44.3674 47.759 44.3671H51.5151C52.1228 44.3611 52.7118 44.5763 53.1726 44.9725C53.6333 45.3687 53.9342 45.9189 54.0192 46.5206C54.1778 47.7227 54.4718 48.9029 54.8957 50.0389C55.0641 50.487 55.1006 50.9741 55.0007 51.4423C54.9009 51.9105 54.6689 52.3403 54.3323 52.6807L52.7422 54.2708C54.5245 57.4054 57.1199 60.0008 60.2545 61.7832L61.8446 60.1931C62.185 59.8564 62.6148 59.6245 63.083 59.5246C63.5513 59.4247 64.0383 59.4612 64.4865 59.6296C65.6224 60.0535 66.8027 60.3476 68.0047 60.5061C68.6129 60.5919 69.1684 60.8982 69.5655 61.3669C69.9625 61.8355 70.1735 62.4337 70.1583 63.0478Z" stroke="white" stroke-width="2" stroke-linecap="round" stroke-linejoin="round"/>
</svg>
