<svg width="24" height="24" viewBox="0 0 24 24" fill="none" xmlns="http://www.w3.org/2000/svg">
<path d="M12 15C13.6569 15 15 13.6569 15 12C15 10.3431 13.6569 9 12 9C10.3431 9 9 10.3431 9 12C9 13.6569 10.3431 15 12 15Z" fill="#CACBCE"/>
<path d="M23.0081 11.1844C21.7678 9.26625 20.1586 7.63688 18.3548 6.47203C16.3594 5.18203 14.1563 4.5 11.9841 4.5C9.99094 4.5 8.03109 5.06953 6.15891 6.19266C4.24969 7.33781 2.52 9.01078 1.01765 11.1647C0.848052 11.4081 0.754646 11.6965 0.749304 11.9931C0.743962 12.2897 0.826926 12.5813 0.987653 12.8306C2.22562 14.768 3.8189 16.3997 5.59453 17.5486C7.59375 18.8438 9.74531 19.5 11.9841 19.5C14.1736 19.5 16.3814 18.8236 18.3684 17.5444C20.1713 16.3833 21.7772 14.7478 23.0128 12.8137C23.168 12.5702 23.2501 12.2872 23.2492 11.9984C23.2484 11.7096 23.1647 11.4271 23.0081 11.1844ZM12 16.5C11.11 16.5 10.24 16.2361 9.49993 15.7416C8.75991 15.2471 8.18314 14.5443 7.84254 13.7221C7.50195 12.8998 7.41283 11.995 7.58647 11.1221C7.7601 10.2492 8.18868 9.44736 8.81802 8.81802C9.44736 8.18868 10.2492 7.7601 11.1221 7.58647C11.995 7.41283 12.8998 7.50195 13.7221 7.84254C14.5443 8.18314 15.2472 8.75991 15.7416 9.49993C16.2361 10.24 16.5 11.11 16.5 12C16.4986 13.1931 16.0241 14.3369 15.1805 15.1805C14.3369 16.0241 13.1931 16.4986 12 16.5Z" fill="#CACBCE"/>
</svg>
