<svg width="16" height="16" viewBox="0 0 16 16" fill="none" xmlns="http://www.w3.org/2000/svg">
<path d="M9.34909 9.34895C9.17431 9.53652 8.96355 9.68696 8.72937 9.7913C8.49519 9.89565 8.24239 9.95175 7.98606 9.95628C7.72972 9.9608 7.4751 9.91364 7.23739 9.81763C6.99967 9.72161 6.78373 9.5787 6.60245 9.39741C6.42116 9.21613 6.27825 9.00019 6.18223 8.76247C6.08622 8.52476 6.03906 8.27014 6.04358 8.0138C6.04811 7.75747 6.10421 7.50467 6.20856 7.27049C6.3129 7.03631 6.46334 6.82555 6.65091 6.65077M11.78 11.7799C10.6922 12.609 9.36761 13.0684 8 13.0908C3.54545 13.0908 1 7.99986 1 7.99986C1.79157 6.5247 2.88945 5.23588 4.22 4.21986L11.78 11.7799ZM6.66364 3.06168C7.10167 2.95915 7.55013 2.90789 8 2.90895C12.4545 2.90895 15 7.99986 15 7.99986C14.6137 8.72252 14.153 9.40287 13.6255 10.0299L6.66364 3.06168Z" stroke="#A0A5BA" stroke-width="1.5" stroke-linecap="round" stroke-linejoin="round"/>
<path d="M1 1L15 15" stroke="#A0A5BA" stroke-width="1.5" stroke-linecap="round" stroke-linejoin="round"/>
</svg>
