<svg width="26" height="26" viewBox="0 0 26 26" fill="none" xmlns="http://www.w3.org/2000/svg">
<path d="M8.02441 11.191L8.02441 4.36523" stroke="#356899" stroke-linecap="round" stroke-linejoin="round"/>
<path d="M18.5245 14.2355L18.5245 21.0613" stroke="#356899" stroke-linecap="round" stroke-linejoin="round"/>
<path fill-rule="evenodd" clip-rule="evenodd" d="M18.5832 9.45349C19.9869 9.45349 21.125 8.30715 21.125 6.89342C21.125 5.47968 19.9869 4.33334 18.5832 4.33334C17.1796 4.33334 16.0415 5.47968 16.0415 6.89342C16.0415 8.30715 17.1796 9.45349 18.5832 9.45349Z" stroke="#356899" stroke-linecap="round" stroke-linejoin="round"/>
<path fill-rule="evenodd" clip-rule="evenodd" d="M8.06675 21.6667C9.47037 21.6667 10.6085 20.5212 10.6085 19.1075C10.6085 17.6929 9.47037 16.5465 8.06675 16.5465C6.66312 16.5465 5.52497 17.6929 5.52497 19.1075C5.52497 20.5212 6.66312 21.6667 8.06675 21.6667Z" stroke="#356899" stroke-linecap="round" stroke-linejoin="round"/>
</svg>
