<svg width="26" height="26" viewBox="0 0 26 26" fill="none" xmlns="http://www.w3.org/2000/svg">
<path d="M21.125 15.8438C21.125 15.1973 20.8682 14.5773 20.4111 14.1202C19.954 13.6631 19.334 13.4063 18.6875 13.4063H7.3125C6.66603 13.4063 6.04605 13.6631 5.58893 14.1202C5.13181 14.5773 4.875 15.1973 4.875 15.8438V16.6563C4.875 19.8592 7.8975 23.1563 13 23.1563C18.1025 23.1563 21.125 19.8592 21.125 16.6563V15.8438ZM6.5 15.8438C6.5 15.6283 6.5856 15.4216 6.73798 15.2693C6.89035 15.1169 7.09701 15.0313 7.3125 15.0313H18.6875C18.903 15.0313 19.1097 15.1169 19.262 15.2693C19.4144 15.4216 19.5 15.6283 19.5 15.8438V16.6563C19.5 18.993 17.173 21.5313 13 21.5313C8.827 21.5313 6.5 18.993 6.5 16.6563V15.8438ZM17.4688 7.31254C17.4688 6.34915 17.1575 5.41154 16.5813 4.63947C16.0051 3.86739 15.1948 3.3022 14.2713 3.02814C13.3477 2.75408 12.3602 2.78583 11.4562 3.11865C10.5521 3.45147 9.7798 4.06755 9.25438 4.87504H6.5C6.28451 4.87504 6.07785 4.96064 5.92548 5.11302C5.7731 5.26539 5.6875 5.47205 5.6875 5.68754V8.93754C5.6875 8.96354 5.6875 8.98792 5.69075 9.01229H5.6875V10.5625C5.6875 11.209 5.94431 11.829 6.40143 12.2861C6.85855 12.7432 7.47853 13 8.125 13H8.75388C8.92134 12.9999 9.08608 12.9576 9.23286 12.877C9.37964 12.7963 9.50372 12.68 9.59363 12.5387C9.68354 12.3974 9.73638 12.2358 9.74726 12.0686C9.75814 11.9015 9.72672 11.7344 9.65589 11.5826C9.58506 11.4309 9.47712 11.2994 9.34204 11.2004C9.20695 11.1014 9.0491 11.0381 8.88306 11.0163C8.71702 10.9945 8.54816 11.0148 8.39208 11.0756C8.23601 11.1363 8.09776 11.2354 7.99012 11.3637C7.8007 11.3318 7.6287 11.2338 7.50465 11.0872C7.3806 10.9405 7.31252 10.7546 7.3125 10.5625V9.75004H7.71875C8.20138 9.75004 8.6515 9.60866 9.03013 9.36654C9.49006 10.2564 10.2357 10.966 11.1473 11.3813C12.0588 11.7967 13.0835 11.8936 14.0569 11.6567C15.0302 11.4198 15.8957 10.8628 16.5144 10.0749C17.1332 9.28713 17.4692 8.31428 17.4688 7.31254ZM10.1562 7.31254C10.1562 6.55833 10.4559 5.83501 10.9892 5.30171C11.5225 4.7684 12.2458 4.46879 13 4.46879C13.7542 4.46879 14.4775 4.7684 15.0108 5.30171C15.5441 5.83501 15.8438 6.55833 15.8438 7.31254C15.8438 8.06675 15.5441 8.79007 15.0108 9.32337C14.4775 9.85668 13.7542 10.1563 13 10.1563C12.2458 10.1563 11.5225 9.85668 10.9892 9.32337C10.4559 8.79007 10.1562 8.06675 10.1562 7.31254ZM8.53125 7.31254C8.53125 7.52803 8.44565 7.73469 8.29327 7.88706C8.1409 8.03944 7.93424 8.12504 7.71875 8.12504H7.3125V6.50004H8.53125V7.31254Z" fill="#95969D"/>
</svg>
