<svg width="220" height="153" viewBox="0 0 220 153" fill="none" xmlns="http://www.w3.org/2000/svg">
<path d="M220 144.488H0V144.598H220V144.488Z" fill="#EBEBEB"/>
<path d="M104.28 124.864H19.3204C18.6548 124.862 18.0169 124.597 17.5467 124.126C17.0765 123.655 16.8124 123.017 16.8124 122.351V2.92204C16.8182 2.26029 17.0848 1.62755 17.5544 1.16126C18.024 0.694962 18.6586 0.432774 19.3204 0.431641H104.28C104.946 0.431641 105.585 0.696339 106.057 1.16751C106.528 1.63867 106.792 2.27771 106.792 2.94404V122.351C106.792 123.018 106.528 123.657 106.057 124.128C105.585 124.599 104.946 124.864 104.28 124.864ZM19.3204 0.519641C18.684 0.520807 18.0741 0.774429 17.6245 1.22484C17.1749 1.67525 16.9224 2.28565 16.9224 2.92204V122.351C16.9224 122.988 17.1749 123.598 17.6245 124.048C18.0741 124.499 18.684 124.752 19.3204 124.754H104.28C104.917 124.752 105.527 124.499 105.977 124.049C106.428 123.598 106.681 122.988 106.682 122.351V2.92204C106.681 2.28524 106.428 1.67486 105.977 1.22457C105.527 0.774286 104.917 0.520804 104.28 0.519641H19.3204Z" fill="#EBEBEB"/>
<path d="M199.456 124.864H114.492C113.827 124.862 113.188 124.597 112.717 124.127C112.246 123.656 111.981 123.017 111.98 122.351V2.92204C111.987 2.25989 112.255 1.62715 112.725 1.16098C113.195 0.694808 113.83 0.432762 114.492 0.431641H199.456C200.118 0.433931 200.751 0.69663 201.22 1.1628C201.688 1.62897 201.954 2.26105 201.96 2.92204V122.351C201.96 123.016 201.697 123.654 201.227 124.125C200.758 124.596 200.121 124.861 199.456 124.864ZM114.492 0.519641C113.856 0.520804 113.245 0.774286 112.795 1.22457C112.345 1.67486 112.091 2.28524 112.09 2.92204V122.351C112.091 122.988 112.345 123.598 112.795 124.049C113.245 124.499 113.856 124.752 114.492 124.754H199.456C200.093 124.752 200.704 124.499 201.154 124.049C201.604 123.598 201.858 122.988 201.859 122.351V2.92204C201.858 2.28524 201.604 1.67486 201.154 1.22457C200.704 0.774286 200.093 0.520804 199.456 0.519641H114.492Z" fill="#EBEBEB"/>
<path d="M197.956 151.567H186.516V151.677H197.956V151.567Z" fill="#EBEBEB"/>
<path d="M156.653 152.764H136.84V152.874H156.653V152.764Z" fill="#EBEBEB"/>
<path d="M186.076 147.484H159.328V147.594H186.076V147.484Z" fill="#EBEBEB"/>
<path d="M31.5436 148.223H23.0824V148.333H31.5436V148.223Z" fill="#EBEBEB"/>
<path d="M59.7916 148.223H35.464V148.333H59.7916V148.223Z" fill="#EBEBEB"/>
<path d="M107.422 150.08H74.6548V150.19H107.422V150.08Z" fill="#EBEBEB"/>
<path d="M166.58 142.234H170.1V77.0924H166.58V142.234Z" fill="#F0F0F0"/>
<path d="M149.688 144.479H169.176V142.231H149.688V144.479Z" fill="#F0F0F0"/>
<path d="M166.584 77.0884H148.755V142.23H166.584V77.0884Z" fill="#F5F5F5"/>
<path d="M164.683 111.012H150.656V122.646H164.683V111.012Z" fill="#F0F0F0"/>
<path d="M164.683 126.236H150.656V137.87H164.683V126.236Z" fill="#F0F0F0"/>
<path d="M155.8 117.625H159.535C159.822 117.625 160.054 117.393 160.054 117.106V116.547C160.054 116.261 159.822 116.028 159.535 116.028H155.8C155.513 116.028 155.28 116.261 155.28 116.547V117.106C155.28 117.393 155.513 117.625 155.8 117.625Z" fill="#F5F5F5"/>
<path d="M155.8 132.85H159.535C159.822 132.85 160.054 132.618 160.054 132.331V131.772C160.054 131.485 159.822 131.253 159.535 131.253H155.8C155.513 131.253 155.28 131.485 155.28 131.772V132.331C155.28 132.618 155.513 132.85 155.8 132.85Z" fill="#F5F5F5"/>
<path d="M164.683 80.6836H150.656V92.3172H164.683V80.6836Z" fill="#F0F0F0"/>
<path d="M164.683 95.7842H150.656V107.418H164.683V95.7842Z" fill="#F0F0F0"/>
<path d="M155.8 87.2959H159.535C159.822 87.2959 160.054 87.0634 160.054 86.7767V86.2179C160.054 85.9311 159.822 85.6987 159.535 85.6987H155.8C155.513 85.6987 155.28 85.9311 155.28 86.2179V86.7767C155.28 87.0634 155.513 87.2959 155.8 87.2959Z" fill="#F5F5F5"/>
<path d="M155.8 102.402H159.535C159.822 102.402 160.054 102.169 160.054 101.883V101.324C160.054 101.037 159.822 100.805 159.535 100.805H155.8C155.513 100.805 155.28 101.037 155.28 101.324V101.883C155.28 102.169 155.513 102.402 155.8 102.402Z" fill="#F5F5F5"/>
<path d="M186.094 142.234H196.654V77.0924H186.094V142.234Z" fill="#F0F0F0"/>
<path d="M169.189 144.479H195.567V142.231H169.189V144.479Z" fill="#F0F0F0"/>
<path d="M186.094 77.0884H168.265V142.23H186.094V77.0884Z" fill="#F5F5F5"/>
<path d="M184.193 111.012H170.166V122.646H184.193V111.012Z" fill="#F0F0F0"/>
<path d="M184.193 126.236H170.166V137.87H184.193V126.236Z" fill="#F0F0F0"/>
<path d="M175.309 117.625H179.045C179.332 117.625 179.564 117.393 179.564 117.106V116.547C179.564 116.261 179.332 116.028 179.045 116.028H175.309C175.022 116.028 174.79 116.261 174.79 116.547V117.106C174.79 117.393 175.022 117.625 175.309 117.625Z" fill="#F5F5F5"/>
<path d="M175.309 132.85H179.045C179.332 132.85 179.564 132.618 179.564 132.331V131.772C179.564 131.485 179.332 131.253 179.045 131.253H175.309C175.022 131.253 174.79 131.485 174.79 131.772V132.331C174.79 132.618 175.022 132.85 175.309 132.85Z" fill="#F5F5F5"/>
<path d="M184.193 80.6836H170.166V92.3172H184.193V80.6836Z" fill="#F0F0F0"/>
<path d="M184.193 95.7842H170.166V107.418H184.193V95.7842Z" fill="#F0F0F0"/>
<path d="M175.309 87.2959H179.045C179.332 87.2959 179.564 87.0634 179.564 86.7767V86.2179C179.564 85.9311 179.332 85.6987 179.045 85.6987H175.309C175.022 85.6987 174.79 85.9311 174.79 86.2179V86.7767C174.79 87.0634 175.022 87.2959 175.309 87.2959Z" fill="#F5F5F5"/>
<path d="M175.309 102.402H179.045C179.332 102.402 179.564 102.169 179.564 101.883V101.324C179.564 101.037 179.332 100.805 179.045 100.805H175.309C175.022 100.805 174.79 101.037 174.79 101.324V101.883C174.79 102.169 175.022 102.402 175.309 102.402Z" fill="#F5F5F5"/>
<path d="M128.757 63.4927L188.03 63.4927V11.4583L128.757 11.4583V63.4927Z" fill="#E6E6E6"/>
<path d="M122.404 9.43408H191.866C192.023 9.43408 192.173 9.4962 192.283 9.60677C192.394 9.71734 192.456 9.86731 192.456 10.0237C192.455 10.1793 192.392 10.3281 192.282 10.4378C192.171 10.5474 192.022 10.6089 191.866 10.6089H122.404C122.249 10.6077 122.101 10.5457 121.991 10.4362C121.882 10.3267 121.82 10.1785 121.818 10.0237C121.818 9.86807 121.88 9.71877 121.989 9.60832C122.099 9.49787 122.248 9.43524 122.404 9.43408Z" fill="#E6E6E6"/>
<path d="M126.245 63.4927L186.859 63.4927V11.4583L126.245 11.4583V63.4927Z" fill="#F0F0F0"/>
<path d="M128.757 63.4927H188.03V65.1603H127.024L128.757 63.4927Z" fill="#E6E6E6"/>
<path d="M122.052 63.4927H182.666L180.932 65.1603H120.318L122.052 63.4927Z" fill="#F0F0F0"/>
<path d="M183.335 59.9719V14.9775L129.765 14.9775V59.9719H183.335Z" fill="#FAFAFA"/>
<path d="M171.173 59.9719L150.506 14.9775H140.752L161.418 59.9719H171.173Z" fill="white"/>
<path d="M159.324 59.9719L138.657 14.9775H134.851L155.518 59.9719H159.324Z" fill="white"/>
<path d="M130.209 59.9719V14.9775H129.76V59.9719H130.209Z" fill="#E6E6E6"/>
<g opacity="0.4">
<path opacity="0.4" d="M183.291 51.3179H189.35V8.37827H183.291V51.3179Z" fill="#F0F0F0"/>
<path opacity="0.4" d="M180.932 51.3179H185.654V8.37827H180.932V51.3179Z" fill="#E6E6E6"/>
<path opacity="0.4" d="M177.236 51.3179H183.295V8.37827H177.236V51.3179Z" fill="#F0F0F0"/>
<path opacity="0.4" d="M174.874 51.3179H179.595V8.37827H174.874V51.3179Z" fill="#E6E6E6"/>
<path opacity="0.4" d="M171.173 51.3179H177.232V8.37827H171.173V51.3179Z" fill="#F0F0F0"/>
</g>
<g opacity="0.4">
<path opacity="0.4" d="M132.018 51.3179H135.511V8.37827H132.018V51.3179Z" fill="#F0F0F0"/>
<path opacity="0.4" d="M130.658 51.3179H133.377V8.37827H130.658V51.3179Z" fill="#E6E6E6"/>
<path opacity="0.4" d="M128.524 51.3179H132.018V8.37827H128.524V51.3179Z" fill="#F0F0F0"/>
<path opacity="0.4" d="M127.169 51.3179H129.888V8.37827H127.169V51.3179Z" fill="#E6E6E6"/>
<path opacity="0.4" d="M125.03 51.3179H128.524V8.37827H125.03V51.3179Z" fill="#F0F0F0"/>
</g>
<path d="M72.2568 42.9796H80.6432L79.6532 21.71H72.2568V42.9796Z" fill="#F5F5F5"/>
<path d="M85.382 44.1279L87.1904 53.5747H85.382L74.2896 44.1279H85.382Z" fill="#F5F5F5"/>
<path d="M87.1904 44.1279V53.5747L76.098 44.1279H87.1904Z" fill="#E6E6E6"/>
<path d="M41.8791 44.1279L43.6875 53.5747H41.8791L30.7867 44.1279H41.8791Z" fill="#F5F5F5"/>
<path d="M43.6876 44.1279V53.5747L32.5952 44.1279H43.6876Z" fill="#E6E6E6"/>
<path d="M95.3348 43.0107H83.27V44.3747H95.3348V43.0107Z" fill="#E6E6E6"/>
<path d="M23.2892 44.374L83.27 44.374V43.01L23.2892 43.01V44.374Z" fill="#F5F5F5"/>
<path d="M59.9324 42.9793H77.9372L80.1636 17.2041H62.1588L59.9324 42.9793Z" fill="#E6E6E6"/>
<path d="M58.9996 42.9793H77.0044L79.2308 17.2041H61.226L58.9996 42.9793Z" fill="#F0F0F0"/>
<path d="M75.4953 40.1246L77.5325 20.0562H62.7397L60.7025 40.1246H75.4953Z" fill="white"/>
<path d="M51.8716 42.9796H57.6488L56.9668 28.332H51.8716V42.9796Z" fill="#E0E0E0"/>
<path d="M43.3884 42.9791H55.7832L57.3188 25.2295H44.9196L43.3884 42.9791Z" fill="#F0F0F0"/>
<path d="M42.746 42.9791H55.1452L56.6764 25.2295H44.2772L42.746 42.9791Z" fill="#F5F5F5"/>
<path d="M54.1024 41.0128L55.5016 27.1968H45.32L43.9164 41.0128H54.1024Z" fill="#E0E0E0"/>
<path d="M115.438 80.2648C115.479 80.7567 115.374 81.2498 115.134 81.6816C114.895 82.1133 114.533 82.4644 114.094 82.6903C113.655 82.9163 113.159 83.0069 112.669 82.9508C112.178 82.8947 111.715 82.6944 111.339 82.3752C110.962 82.0559 110.689 81.6322 110.553 81.1575C110.418 80.6829 110.426 80.1787 110.577 79.7087C110.728 79.2387 111.015 78.8242 111.402 78.5174C111.789 78.2107 112.258 78.0256 112.75 77.9856C113.076 77.9585 113.405 77.996 113.716 78.0959C114.028 78.1958 114.317 78.3562 114.567 78.5678C114.816 78.7795 115.022 79.0384 115.171 79.3296C115.321 79.6207 115.412 79.9385 115.438 80.2648Z" fill="#E0E0E0"/>
<path d="M120.072 81.5677C120.113 82.0596 120.007 82.5527 119.767 82.9844C119.528 83.4162 119.166 83.7673 118.727 83.9932C118.288 84.2192 117.792 84.3098 117.302 84.2537C116.811 84.1976 116.349 83.9973 115.972 83.678C115.596 83.3588 115.322 82.9351 115.187 82.4604C115.051 81.9857 115.059 81.4815 115.21 81.0116C115.361 80.5416 115.648 80.127 116.035 79.8203C116.422 79.5136 116.891 79.3285 117.383 79.2885C118.042 79.2349 118.695 79.4448 119.199 79.8721C119.703 80.2994 120.017 80.9092 120.072 81.5677Z" fill="#E0E0E0"/>
<path d="M123.42 80.0722C123.46 80.564 123.354 81.0567 123.114 81.488C122.874 81.9192 122.511 82.2697 122.072 82.4949C121.633 82.7202 121.137 82.8102 120.647 82.7535C120.157 82.6969 119.695 82.4961 119.318 82.1767C118.942 81.8572 118.669 81.4333 118.534 80.9588C118.399 80.4842 118.408 79.9801 118.559 79.5104C118.71 79.0407 118.997 78.6264 119.384 78.3199C119.771 78.0134 120.24 77.8285 120.732 77.7886C121.391 77.7363 122.044 77.9472 122.547 78.3752C123.051 78.8032 123.365 79.4134 123.42 80.0722Z" fill="#E0E0E0"/>
<path d="M126.953 81.005C126.992 81.4957 126.885 81.987 126.645 82.4168C126.406 82.8466 126.044 83.1958 125.606 83.4201C125.168 83.6444 124.673 83.7338 124.184 83.6771C123.695 83.6204 123.234 83.42 122.858 83.1014C122.483 82.7827 122.211 82.36 122.076 81.8867C121.941 81.4133 121.949 80.9106 122.1 80.4419C122.25 79.9733 122.536 79.5597 122.921 79.2535C123.307 78.9473 123.774 78.7621 124.265 78.7214C124.591 78.6943 124.92 78.7319 125.232 78.8321C125.544 78.9323 125.833 79.0931 126.083 79.3052C126.333 79.5174 126.538 79.7767 126.688 80.0684C126.837 80.3601 126.927 80.6784 126.953 81.005Z" fill="#E0E0E0"/>
<path d="M130.126 81.3911C130.126 81.3911 129.835 88.3167 118.712 88.3167C107.589 88.3167 107.272 81.3911 107.272 81.3911H130.126Z" fill="#F0F0F0"/>
<path d="M26.3471 144.488H30.3907L30.3907 88.3306H26.3471L26.3471 144.488Z" fill="#E6E6E6"/>
<path d="M25.2693 144.488H27.6497L27.6497 88.3306H25.2693L25.2693 144.488Z" fill="#F0F0F0"/>
<path d="M81.9324 88.3306H24.53V92.5414H81.9324V88.3306Z" fill="#F0F0F0"/>
<path d="M136.294 144.488H140.338V88.3306H136.294V144.488Z" fill="#E6E6E6"/>
<path d="M135.538 144.488H137.918V88.3306H135.538V144.488Z" fill="#F0F0F0"/>
<path d="M141.06 88.3306H83.6572V92.5414H141.06V88.3306Z" fill="#E6E6E6"/>
<path d="M82.2712 144.488H86.3148V88.3306H82.2712V144.488Z" fill="#E6E6E6"/>
<path d="M81.1932 144.488H83.5736V88.3306H81.1932V144.488Z" fill="#F0F0F0"/>
<path d="M95.5416 69.6519H65.5732L60.2316 87.3486H90.2044L95.5416 69.6519Z" fill="#E6E6E6"/>
<path d="M90.2044 87.3491L90.0856 88.3303H60.1128L60.2316 87.3491H90.2044Z" fill="#E6E6E6"/>
<path d="M94.622 69.6519H64.6492L59.312 87.3486H89.2804L94.622 69.6519Z" fill="#F0F0F0"/>
<path d="M88.6952 86.5439L93.544 70.4619H65.2388L60.3856 86.5439H88.6952Z" fill="white"/>
<path d="M81.4748 87.3491L81.3516 88.3303H48.3472L48.466 87.3491H81.4748Z" fill="#F0F0F0"/>
</svg>
