<svg width="44" height="44" viewBox="0 0 44 44" fill="none" xmlns="http://www.w3.org/2000/svg">
<path d="M43.5721 17.6913H41.8V17.6H22V26.4H34.4333C32.6194 31.5227 27.7453 35.2 22 35.2C14.7103 35.2 8.8 29.2897 8.8 22C8.8 14.7103 14.7103 8.8 22 8.8C25.3649 8.8 28.4262 10.0694 30.7571 12.1429L36.9798 5.9202C33.0506 2.2583 27.7948 0 22 0C9.8505 0 0 9.8505 0 22C0 34.1495 9.8505 44 22 44C34.1495 44 44 34.1495 44 22C44 20.5249 43.8482 19.085 43.5721 17.6913Z" fill="#FFC107"/>
<path d="M2.53674 11.7601L9.76484 17.061C11.7206 12.2188 16.4572 8.8 22.0001 8.8C25.365 8.8 28.4263 10.0694 30.7572 12.1429L36.9799 5.9202C33.0507 2.2583 27.7949 0 22.0001 0C13.5499 0 6.22174 4.7707 2.53674 11.7601Z" fill="#FF3D00"/>
<path d="M21.9998 44C27.6824 44 32.8458 41.8252 36.7497 38.2887L29.9407 32.5269C27.6577 34.2632 24.868 35.2022 21.9998 35.2C16.2776 35.2 11.4189 31.5513 9.58851 26.4594L2.41431 31.9868C6.05531 39.1115 13.4495 44 21.9998 44Z" fill="#4CAF50"/>
<path d="M43.5721 17.6913H41.8V17.6H22V26.4H34.4333C33.5656 28.838 32.0027 30.9685 29.9376 32.5281L29.9409 32.5259L36.7499 38.2877C36.2681 38.7255 44 33 44 22C44 20.5249 43.8482 19.085 43.5721 17.6913Z" fill="#1976D2"/>
</svg>
