<svg width="399" height="227" viewBox="0 0 399 227" fill="none" xmlns="http://www.w3.org/2000/svg">
<g filter="url(#filter0_ddddd_8_6128)">
<rect x="36" y="18" width="327" height="156" rx="24" fill="#356899"/>
</g>
<g opacity="0.06">
<mask id="mask0_8_6128" style="mask-type:alpha" maskUnits="userSpaceOnUse" x="36" y="18" width="327" height="156">
<rect x="36" y="18" width="327" height="156" rx="24" fill="#34A853"/>
</mask>
<g mask="url(#mask0_8_6128)">
<path d="M139.52 104.212L144.75 98.2722L146.661 103.233L152.917 101.97L154.023 106.572L161.083 105.676L155.864 111.616L139.52 104.212Z" fill="white"/>
<path d="M155.864 112.202C155.713 112.202 155.561 112.169 155.433 112.11L139.1 104.706C138.716 104.53 138.611 104.17 138.844 103.894L144.063 97.9543C144.238 97.7618 144.552 97.6531 144.867 97.6865C145.181 97.72 145.449 97.8873 145.531 98.1132L147.22 102.514L152.696 101.41C152.917 101.368 153.161 101.393 153.348 101.476C153.546 101.569 153.674 101.711 153.721 101.87L154.688 105.894L160.943 105.099C161.258 105.057 161.584 105.158 161.759 105.35C161.934 105.543 161.945 105.794 161.771 105.986L156.552 111.926C156.4 112.102 156.132 112.202 155.864 112.202ZM140.65 104.028L155.608 110.805L159.406 106.48L154.163 107.149C153.954 107.174 153.732 107.14 153.558 107.048C153.383 106.956 153.255 106.823 153.22 106.672L152.264 102.706L146.871 103.794C146.661 103.836 146.44 103.819 146.253 103.744C146.067 103.668 145.927 103.543 145.869 103.392L144.448 99.7028L140.65 104.028Z" fill="white"/>
<path d="M42.4084 159.597C42.1754 159.597 41.9541 159.522 41.791 159.396C41.6046 159.246 41.5463 159.028 41.6279 158.836L44.8781 151.381C44.9713 151.172 45.216 151.013 45.5189 150.98L56.2482 149.7C56.5278 149.666 56.8074 149.742 56.9938 149.892C57.1802 150.043 57.2384 150.26 57.1569 150.453L53.9066 157.907C53.8134 158.116 53.5688 158.275 53.2659 158.309L42.5366 159.589C42.49 159.597 42.4434 159.597 42.4084 159.597ZM46.2761 152.076L43.5734 158.275L52.497 157.204L55.1997 151.005L46.2761 152.076Z" fill="white"/>
<path d="M56.5626 109.082L39.659 103.041C38.4707 102.623 38.261 101.201 39.1813 99.8703C40.1017 98.54 41.8025 97.8122 42.9908 98.2305L59.8944 104.271C61.0827 104.698 61.2924 106.112 60.372 107.442C59.4517 108.772 57.7509 109.508 56.5626 109.082Z" fill="white"/>
<path d="M57.2967 109.793C56.9239 109.793 56.5511 109.734 56.2016 109.609L39.298 103.568C37.6903 102.991 37.3176 101.259 38.4476 99.6192C39.5892 97.9794 41.7328 97.1428 43.3521 97.7201L60.2557 103.761C61.0712 104.053 61.607 104.672 61.7352 105.467C61.84 106.178 61.6187 106.973 61.1061 107.718C60.2091 108.998 58.683 109.793 57.2967 109.793ZM56.9239 108.563C57.5879 108.805 58.8694 108.295 59.6383 107.191C60.0111 106.655 60.1741 106.07 60.1042 105.593C60.046 105.208 59.8363 104.923 59.5218 104.806L42.6181 98.7659C41.9541 98.5232 40.6727 99.0336 39.9038 100.138C39.1349 101.242 39.3446 102.28 40.0086 102.522L56.9239 108.563Z" fill="white"/>
<path d="M39.1815 99.8786C40.1018 98.5483 41.8026 97.8205 42.9909 98.2388C44.1792 98.6571 44.3889 100.079 43.4685 101.41C42.5482 102.74 40.8474 103.468 39.6591 103.049C38.4708 102.623 38.2611 101.2 39.1815 99.8786Z" fill="white"/>
<path d="M40.3813 103.752C39.9969 103.752 39.6241 103.694 39.2863 103.576C37.6786 102.999 37.3058 101.267 38.4359 99.6276C38.9484 98.8829 39.694 98.2806 40.5561 97.9125C41.5114 97.4858 42.5249 97.4272 43.3404 97.7117C44.1558 98.0045 44.6917 98.6236 44.8199 99.4184C44.9247 100.13 44.7034 100.924 44.1908 101.669C43.6782 102.414 42.921 103.016 42.0705 103.384C41.5114 103.627 40.9289 103.752 40.3813 103.752ZM39.9037 100.138C39.1348 101.242 39.3445 102.28 40.0202 102.522C40.3347 102.631 40.7774 102.581 41.2434 102.38C41.8259 102.129 42.3618 101.686 42.7346 101.15C43.1074 100.615 43.2705 100.029 43.2006 99.5523C43.1423 99.1674 42.9326 98.883 42.6181 98.7658C42.3035 98.6571 41.8608 98.7073 41.3949 98.908C40.824 99.1507 40.2765 99.6025 39.9037 100.138Z" fill="white"/>
<path d="M89.5193 34.8973C89.3679 34.6714 89.2863 34.1778 89.2863 34.1778L88.0631 22.2809L99.7943 30.7225L99.771 30.7309C100.027 30.8982 100.26 31.0906 100.412 31.3165C101.297 32.6969 99.573 34.6212 96.5673 35.6084C93.5501 36.5957 90.393 36.2777 89.5193 34.8973Z" fill="white"/>
<path d="M93.0959 36.7713C91.1038 36.7713 89.4612 36.2024 88.7856 35.1399C88.5992 34.8471 88.506 34.3869 88.4827 34.2447L87.2478 22.3227C87.2245 22.0801 87.4109 21.8458 87.7254 21.7454C88.04 21.645 88.4011 21.6869 88.6458 21.8625L100.377 30.3042C100.424 30.3376 100.458 30.3711 100.493 30.4129C100.785 30.6221 100.994 30.8396 101.146 31.0739C101.693 31.9272 101.507 32.9396 100.622 33.9268C99.8178 34.8303 98.4897 35.6168 96.8937 36.1355C95.5889 36.5705 94.2842 36.7713 93.0959 36.7713ZM90.2651 34.6463C90.9407 35.7088 93.6668 35.9096 96.218 35.073C97.5344 34.6379 98.6062 34.0104 99.2469 33.2909C99.8178 32.6551 99.9692 32.036 99.6547 31.5591C99.5731 31.4336 99.4333 31.2998 99.212 31.1575C99.1537 31.1157 99.0955 31.0655 99.0489 31.0153L89.0302 23.8035L90.0903 34.1192C90.1253 34.2865 90.2068 34.5626 90.2651 34.6463Z" fill="white"/>
<path d="M93.3641 30.6054C96.3697 29.6182 99.5151 29.9361 100.4 31.3166C101.286 32.697 99.5617 34.6213 96.5561 35.6085C93.5505 36.5957 90.4051 36.2778 89.5197 34.8973C88.6343 33.5085 90.3585 31.5927 93.3641 30.6054Z" fill="white"/>
<path d="M93.0959 36.763C92.7581 36.763 92.4319 36.7463 92.1173 36.7128C90.5097 36.5455 89.3098 35.985 88.7739 35.1316C88.2264 34.2782 88.4128 33.2659 89.2981 32.2787C90.102 31.3751 91.43 30.5887 93.026 30.07C96.4976 28.9322 100.062 29.3756 101.146 31.0739C102.229 32.7723 100.365 34.9978 96.8937 36.1356C95.6355 36.5539 94.3191 36.763 93.0959 36.763ZM93.7017 31.1409C92.3853 31.5759 91.3135 32.2034 90.6728 32.9229C90.102 33.5587 89.9505 34.1779 90.2651 34.6547C90.5679 35.1316 91.3135 35.4579 92.362 35.5667C93.5386 35.6838 94.9133 35.5165 96.218 35.0814C98.7693 34.2448 100.342 32.6385 99.6663 31.5676C98.979 30.4967 96.253 30.3042 93.7017 31.1409Z" fill="white"/>
<path d="M314.602 152.72L306.668 150.796L305.026 144.906L311.293 140.94L319.227 142.856L320.881 148.746L314.602 152.72Z" fill="white"/>
<path d="M314.602 153.306C314.509 153.306 314.427 153.297 314.346 153.272L306.412 151.356C306.133 151.29 305.935 151.122 305.876 150.913L304.222 145.023C304.164 144.814 304.269 144.605 304.478 144.471L310.758 140.497C310.979 140.355 311.282 140.313 311.561 140.38L319.495 142.296C319.774 142.363 319.972 142.53 320.031 142.739L321.685 148.629C321.743 148.838 321.638 149.047 321.429 149.181L315.149 153.155C314.986 153.256 314.788 153.306 314.602 153.306ZM307.379 150.353L314.416 152.059L319.984 148.537L318.516 143.308L311.48 141.601L305.911 145.124L307.379 150.353Z" fill="white"/>
<path d="M314.602 153.306C314.218 153.306 313.88 153.113 313.798 152.837L312.237 147.282L304.758 145.475C304.327 145.375 304.106 145.04 304.246 144.73C304.386 144.421 304.852 144.262 305.283 144.362L313.216 146.278C313.496 146.345 313.694 146.512 313.752 146.722L315.406 152.611C315.499 152.929 315.208 153.239 314.765 153.297C314.707 153.297 314.649 153.306 314.602 153.306Z" fill="white"/>
<path d="M312.948 147.416C312.727 147.416 312.494 147.349 312.33 147.215C312.028 146.973 312.063 146.604 312.4 146.387L318.68 142.413C319.017 142.204 319.53 142.221 319.833 142.463C320.136 142.706 320.101 143.074 319.763 143.291L313.484 147.265C313.332 147.366 313.146 147.416 312.948 147.416Z" fill="white"/>
<path d="M216.291 125.228L216.302 125.245C216.396 125.17 216.489 125.095 216.594 125.028C216.733 124.936 216.873 124.852 217.048 124.785C217.188 124.735 217.386 124.693 217.572 124.66C217.654 124.643 217.747 124.626 217.828 124.618C217.91 124.601 217.98 124.593 217.98 124.593L218.364 124.601C218.423 124.601 218.481 124.601 218.551 124.609L229.012 124.869L223.374 131.202C223.339 131.244 223.304 131.277 223.269 131.319L223.059 131.553L223.047 131.537C222.954 131.612 222.861 131.687 222.756 131.754C222.616 131.846 222.477 131.93 222.302 131.997C222.162 132.047 221.952 132.089 221.766 132.122C221.684 132.139 221.603 132.156 221.51 132.164C221.428 132.181 221.358 132.189 221.358 132.189L220.974 132.181C220.916 132.181 220.857 132.181 220.787 132.173L210.326 131.913L215.964 125.58C215.999 125.538 216.034 125.505 216.069 125.463L216.291 125.228Z" fill="white"/>
<path d="M221.37 132.758C221.358 132.758 221.347 132.758 221.347 132.758L220.962 132.75C220.846 132.75 220.776 132.75 220.706 132.741L210.326 132.491C210.035 132.482 209.767 132.365 209.627 132.181C209.487 131.997 209.499 131.771 209.662 131.595L215.301 125.262C215.301 125.254 215.37 125.187 215.37 125.187L215.603 124.919C215.662 124.852 215.743 124.793 215.825 124.752C215.895 124.701 215.965 124.643 216.046 124.601C216.163 124.517 216.372 124.392 216.652 124.283C216.652 124.283 216.664 124.283 216.664 124.275C216.838 124.208 217.06 124.149 217.374 124.099C217.526 124.066 217.63 124.049 217.724 124.041L217.817 124.024C217.875 124.015 217.957 124.007 218.003 124.015L218.388 124.024C218.504 124.024 218.574 124.024 218.632 124.032L229.024 124.292C229.315 124.3 229.583 124.417 229.723 124.601C229.863 124.785 229.851 125.011 229.688 125.187L224.049 131.512C224.049 131.512 224.014 131.553 223.98 131.595L223.747 131.855C223.688 131.922 223.607 131.98 223.525 132.022C223.455 132.081 223.385 132.131 223.304 132.181C223.129 132.306 222.943 132.407 222.733 132.482C222.71 132.491 222.686 132.499 222.675 132.507C222.512 132.566 222.29 132.624 221.987 132.683C221.836 132.716 221.743 132.725 221.638 132.741L221.533 132.758C221.475 132.758 221.417 132.758 221.37 132.758ZM211.806 131.353L220.834 131.579L220.986 132.173L221.009 131.587L221.3 131.595L221.498 131.562C221.766 131.512 221.871 131.487 221.906 131.47C221.918 131.461 221.929 131.461 221.941 131.453C222.011 131.428 222.092 131.378 222.197 131.311C222.29 131.252 222.349 131.202 222.407 131.152C222.43 131.135 222.453 131.11 222.477 131.093L222.57 130.993L222.64 131.01C222.675 130.993 222.721 130.976 222.768 130.968L222.651 130.918L227.544 125.413L218.516 125.187L218.364 124.593L218.341 125.178L218.05 125.17L217.852 125.203C217.561 125.254 217.456 125.287 217.432 125.295C217.432 125.295 217.421 125.295 217.421 125.304C217.339 125.337 217.258 125.379 217.153 125.454C217.06 125.513 217.001 125.563 216.943 125.613C216.92 125.63 216.897 125.655 216.873 125.672L216.78 125.772L216.722 125.756C216.675 125.772 216.64 125.789 216.594 125.797L216.722 125.856L211.806 131.353Z" fill="white"/>
<path d="M221.137 132.766C220.403 132.766 219.634 132.607 218.854 132.29C217.619 131.788 216.512 130.926 215.731 129.863C214.963 128.801 214.601 127.663 214.718 126.642C214.846 125.53 215.533 124.685 216.652 124.266C217.048 124.116 217.549 124.224 217.759 124.509C217.968 124.793 217.817 125.153 217.421 125.304C216.605 125.613 216.407 126.341 216.361 126.743C216.267 127.538 216.559 128.458 217.188 129.32C217.817 130.181 218.702 130.876 219.669 131.269C220.158 131.47 221.114 131.762 221.929 131.453C222.325 131.302 222.814 131.411 223.036 131.704C223.246 131.988 223.094 132.34 222.698 132.499C222.209 132.683 221.684 132.766 221.137 132.766Z" fill="white"/>
<path d="M84.9644 134.314L89.368 122.903L83.1354 124.601L82.0054 118.125L77.5436 129.395L83.648 127.73L84.9644 134.314Z" fill="white"/>
<path d="M84.9644 134.9C84.9411 134.9 84.9295 134.9 84.9062 134.9C84.5218 134.883 84.2072 134.674 84.149 134.398L82.984 128.541L77.8232 129.947C77.532 130.031 77.2058 129.981 76.9844 129.83C76.7631 129.679 76.6699 129.453 76.7515 129.236L81.2249 117.966C81.3298 117.699 81.6909 117.523 82.0753 117.54C82.4598 117.565 82.7743 117.774 82.8209 118.05L83.8111 123.789L89.0768 122.359C89.368 122.283 89.6942 122.325 89.9155 122.476C90.1369 122.627 90.2301 122.852 90.1485 123.07L85.745 134.482C85.6518 134.724 85.3256 134.9 84.9644 134.9ZM83.648 127.144C83.7878 127.144 83.9393 127.169 84.0674 127.228C84.2771 127.32 84.4286 127.471 84.4635 127.646L85.2207 131.461L88.1564 123.865L83.415 125.153C83.1821 125.22 82.9141 125.195 82.7044 125.111C82.4947 125.019 82.3433 124.86 82.32 124.685L81.6909 121.07L78.7668 128.441L83.3568 127.195C83.45 127.161 83.5548 127.144 83.648 127.144Z" fill="white"/>
<path d="M188.996 111.115C188.996 111.115 187.959 109.148 186.386 106.337C184.743 103.409 186.736 101.385 189.264 101.008C192.106 100.581 193.853 102.313 194.226 104.12C196.545 103.342 199.515 103.443 200.587 105.384C201.542 107.115 200.284 109.416 195.985 110.052C191.85 110.654 188.996 111.115 188.996 111.115Z" fill="white"/>
<path d="M188.996 111.7C188.658 111.7 188.355 111.55 188.238 111.324C188.238 111.324 187.202 109.358 185.629 106.555C184.755 104.99 184.755 103.484 185.641 102.305C186.363 101.334 187.621 100.657 189.101 100.431C190.37 100.238 191.582 100.406 192.595 100.908C193.644 101.426 194.424 102.288 194.832 103.325C196.253 102.999 197.686 102.999 198.875 103.334C200.016 103.66 200.878 104.296 201.356 105.166C201.915 106.178 201.822 107.308 201.088 108.27C200.203 109.45 198.444 110.278 196.149 110.621C192.036 111.223 189.182 111.683 189.182 111.692C189.112 111.7 189.054 111.7 188.996 111.7ZM190.114 101.527C189.893 101.527 189.66 101.543 189.427 101.577C188.425 101.727 187.563 102.196 187.073 102.857C186.421 103.727 186.444 104.89 187.143 106.12C188.262 108.111 189.112 109.684 189.508 110.437C190.592 110.261 192.887 109.901 195.822 109.475C197.64 109.207 198.991 108.588 199.655 107.718C200.156 107.057 200.214 106.287 199.841 105.601C199.527 105.032 199.003 104.639 198.269 104.43C197.255 104.137 195.881 104.221 194.576 104.656C194.343 104.731 194.075 104.731 193.842 104.639C193.621 104.555 193.458 104.396 193.423 104.212C193.213 103.2 192.549 102.321 191.652 101.878C191.197 101.644 190.685 101.527 190.114 101.527Z" fill="white"/>
<path d="M155.247 78.8038C151.577 78.8038 148.548 76.6955 148.455 74.0433C148.362 71.3494 151.344 69.1156 155.084 69.0486C156.913 69.0068 158.625 69.4921 159.93 70.3956C161.246 71.2908 161.992 72.5039 162.038 73.8091C162.132 76.503 159.161 78.7368 155.41 78.8038C155.363 78.8038 155.305 78.8038 155.247 78.8038ZM155.247 70.2199C155.2 70.2199 155.165 70.2199 155.119 70.2199C153.744 70.245 152.451 70.655 151.507 71.3661C150.552 72.0856 150.051 73.0226 150.086 74.0182C150.156 76.0596 152.497 77.691 155.375 77.6325C158.217 77.5823 160.477 75.8756 160.408 73.8342C160.349 71.8179 158.043 70.2199 155.247 70.2199Z" fill="white"/>
<path d="M123.676 93.06C123.536 93.06 123.396 93.0349 123.268 92.9847C121.311 92.1815 119.901 90.8847 119.296 89.3202C118.702 87.7557 118.981 86.1243 120.088 84.7188C121.206 83.3132 123.012 82.3009 125.19 81.8658C127.369 81.4308 129.641 81.64 131.598 82.4348C131.994 82.5937 132.122 82.9535 131.901 83.2296C131.679 83.514 131.178 83.606 130.794 83.4471C129.21 82.8029 127.369 82.6355 125.621 82.9869C123.874 83.3383 122.406 84.1498 121.509 85.2877C119.657 87.6302 120.799 90.6254 124.072 91.9556C124.468 92.1146 124.596 92.4743 124.375 92.7504C124.235 92.9512 123.956 93.06 123.676 93.06Z" fill="white"/>
<path d="M169.925 133.344C169.832 133.344 169.739 133.336 169.646 133.31C169.226 133.202 169.005 132.867 169.156 132.557C170.275 130.324 172.546 128.533 175.54 127.521C178.534 126.509 181.901 126.4 185.011 127.203C185.431 127.312 185.652 127.646 185.501 127.956C185.349 128.257 184.883 128.416 184.452 128.307C181.749 127.613 178.825 127.705 176.228 128.583C173.63 129.462 171.661 131.018 170.682 132.959C170.566 133.193 170.263 133.344 169.925 133.344Z" fill="white"/>
<path d="M319.274 32.2453C319.006 32.2453 318.738 32.1449 318.586 31.9692L309.371 21.5364C309.127 21.2603 309.243 20.9006 309.628 20.7249C310.012 20.5492 310.513 20.6328 310.758 20.9089L319.972 31.3417C320.217 31.6178 320.101 31.9776 319.716 32.1533C319.576 32.2202 319.425 32.2453 319.274 32.2453Z" fill="white"/>
<path d="M124.305 120.51C124.177 120.51 124.049 120.485 123.921 120.443L110.71 115.365C110.314 115.214 110.162 114.854 110.372 114.57C110.582 114.285 111.083 114.177 111.479 114.327L124.69 119.406C125.086 119.556 125.237 119.916 125.027 120.2C124.876 120.393 124.596 120.51 124.305 120.51Z" fill="white"/>
<path d="M114.159 122.71C114.03 122.71 113.902 122.685 113.774 122.643C113.378 122.493 113.227 122.133 113.436 121.848L120.508 112.361C120.717 112.077 121.218 111.968 121.614 112.118C122.01 112.269 122.162 112.629 121.952 112.913L114.881 122.401C114.729 122.593 114.45 122.71 114.159 122.71Z" fill="white"/>
<path d="M144.075 133.461C143.877 133.461 143.69 133.411 143.527 133.31C143.189 133.093 143.166 132.725 143.457 132.482L146.207 130.273C146.51 130.031 147.022 130.006 147.36 130.223C147.698 130.441 147.721 130.809 147.43 131.051L144.681 133.26C144.529 133.394 144.296 133.461 144.075 133.461Z" fill="white"/>
<path d="M134.976 140.781C134.778 140.781 134.592 140.731 134.429 140.631C134.091 140.413 134.068 140.045 134.359 139.802L137.108 137.594C137.411 137.351 137.924 137.334 138.262 137.544C138.599 137.761 138.623 138.129 138.332 138.372L135.582 140.581C135.419 140.714 135.198 140.781 134.976 140.781Z" fill="white"/>
<path d="M149.608 137.318C149.55 137.318 149.492 137.318 149.445 137.31L145.403 136.707C144.96 136.64 144.681 136.331 144.774 136.013C144.867 135.695 145.298 135.494 145.741 135.561L149.783 136.163C150.226 136.23 150.506 136.54 150.412 136.858C150.331 137.125 149.993 137.318 149.608 137.318Z" fill="white"/>
<path d="M136.235 135.318C136.176 135.318 136.118 135.318 136.071 135.31L132.029 134.708C131.586 134.641 131.307 134.331 131.4 134.013C131.493 133.695 131.924 133.494 132.367 133.561L136.409 134.164C136.852 134.231 137.132 134.54 137.038 134.858C136.957 135.126 136.619 135.318 136.235 135.318Z" fill="white"/>
<path d="M143.69 142.087C143.352 142.087 143.026 141.928 142.91 141.685L141.617 138.866C141.477 138.556 141.71 138.23 142.141 138.129C142.572 138.029 143.026 138.196 143.166 138.506L144.459 141.325C144.599 141.635 144.366 141.961 143.935 142.062C143.853 142.07 143.772 142.087 143.69 142.087Z" fill="white"/>
<path d="M139.415 132.767C139.077 132.767 138.751 132.608 138.634 132.365L137.341 129.546C137.201 129.236 137.434 128.91 137.865 128.809C138.296 128.709 138.751 128.876 138.891 129.186L140.184 132.005C140.324 132.315 140.091 132.641 139.659 132.741C139.578 132.758 139.496 132.767 139.415 132.767Z" fill="white"/>
<path d="M105.538 69.3415C105.514 69.3415 105.491 69.3415 105.468 69.3415C105.025 69.308 104.687 69.0235 104.734 68.7056L105.806 60.3309L94.1326 59.5612C93.69 59.5278 93.3521 59.2433 93.3987 58.9254C93.4453 58.5991 93.8297 58.3649 94.2841 58.3983L106.761 59.2182C107.204 59.2517 107.541 59.5361 107.495 59.8541L106.353 68.8144C106.318 69.1156 105.957 69.3415 105.538 69.3415Z" fill="white"/>
<path d="M277.859 54.006C277.789 54.006 277.719 53.9976 277.649 53.9893L268.33 52.2156C268.062 52.1654 267.852 52.0232 267.759 51.8308C267.677 51.6467 267.724 51.4376 267.899 51.2786L272.629 47.0201L264.509 45.4724C264.078 45.3887 263.81 45.0708 263.926 44.7529C264.043 44.4433 264.474 44.2509 264.928 44.3345L274.248 46.1082C274.516 46.1584 274.725 46.3006 274.819 46.4931C274.9 46.6771 274.854 46.8863 274.679 47.0452L269.949 51.3037L278.069 52.8515C278.5 52.9351 278.768 53.253 278.651 53.571C278.547 53.8303 278.22 54.006 277.859 54.006Z" fill="white"/>
<path d="M185.303 87.5383C185.116 87.5383 184.93 87.4965 184.779 87.4045L178.22 83.4807C177.87 83.2715 177.824 82.9034 178.115 82.6524C178.406 82.4014 178.919 82.368 179.268 82.5771L185.198 86.1328L190.149 81.8743C190.44 81.6233 190.953 81.5899 191.302 81.799L197.232 85.3547L202.183 81.0963C202.474 80.8453 202.987 80.8118 203.336 81.021C203.686 81.2301 203.733 81.5983 203.441 81.8492L197.978 86.5595C197.686 86.8105 197.174 86.8439 196.824 86.6348L190.895 83.0791L185.944 87.3376C185.769 87.4714 185.536 87.5383 185.303 87.5383Z" fill="white"/>
<path d="M78.7669 105.961C78.3824 105.961 78.0446 105.768 77.9631 105.492C77.8699 105.174 78.1611 104.865 78.6038 104.806L86.1411 103.727L84.6383 98.314C84.5451 97.9961 84.8363 97.6866 85.279 97.628L92.8163 96.5487L91.3135 91.1357C91.2203 90.8178 91.5116 90.5083 91.9543 90.4497L99.4916 89.3704L97.9888 83.9574C97.8956 83.6395 98.1868 83.33 98.6295 83.2714C99.0722 83.2045 99.5032 83.4136 99.5848 83.7315L101.251 89.7218C101.344 90.0397 101.053 90.3493 100.61 90.4079L93.0726 91.4871L94.5754 96.9001C94.6686 97.2181 94.3774 97.5276 93.9347 97.5862L86.3974 98.6654L87.9002 104.078C87.9934 104.396 87.7022 104.706 87.2595 104.764L78.9183 105.961C78.8717 105.961 78.8251 105.961 78.7669 105.961Z" fill="white"/>
<path d="M239.089 104.02C239.019 104.02 238.949 104.012 238.88 104.003L227.568 101.845C227.137 101.761 226.869 101.443 226.985 101.125L229.991 93.0015C230.049 92.8509 230.189 92.7254 230.375 92.6417C230.562 92.5664 230.783 92.5413 230.993 92.5831L242.305 94.7417C242.736 94.8253 243.004 95.1432 242.887 95.4612L239.881 103.585C239.777 103.853 239.45 104.02 239.089 104.02ZM228.779 100.857L238.518 102.715L241.105 95.7205L231.366 93.8632L228.779 100.857Z" fill="white"/>
<path d="M294.064 131.687C293.808 131.687 293.551 131.645 293.318 131.553C292.526 131.252 292.223 130.549 292.631 129.981C292.829 129.704 293.167 129.504 293.586 129.412C294.006 129.32 294.437 129.345 294.821 129.487C295.206 129.629 295.485 129.872 295.613 130.173C295.741 130.466 295.707 130.784 295.508 131.06C295.217 131.461 294.658 131.687 294.064 131.687ZM294.064 130.516V130.524L294.786 130.784L294.064 130.516Z" fill="white"/>
<path d="M303.826 58.0972L296.557 53.3702L303.698 52.8598L303.022 48.1914H309.523L309.476 43.0127L316.746 47.7397L303.826 58.0972Z" fill="white"/>
<path d="M303.826 58.6828C303.628 58.6828 303.43 58.6326 303.279 58.5322L296.009 53.8052C295.765 53.6463 295.683 53.4037 295.776 53.1861C295.881 52.9686 296.149 52.8097 296.475 52.7846L302.789 52.3328L302.195 48.25C302.172 48.0827 302.242 47.9237 302.405 47.7982C302.556 47.6727 302.778 47.6058 303.011 47.6058H308.696L308.661 43.0127C308.661 42.7784 308.847 42.5693 309.15 42.4773C309.441 42.3852 309.791 42.4187 310.024 42.5776L317.293 47.3046C317.631 47.5221 317.654 47.8903 317.351 48.1329L304.432 58.4904C304.292 58.6075 304.082 58.6744 303.861 58.6828C303.861 58.6828 303.849 58.6828 303.826 58.6828ZM298.467 53.822L303.768 57.2689L315.592 47.7815L310.303 44.3346L310.338 48.1831C310.338 48.342 310.257 48.4926 310.105 48.6014C309.954 48.7102 309.744 48.7771 309.523 48.7771H303.931L304.514 52.8013C304.537 52.9602 304.467 53.1108 304.339 53.2363C304.199 53.3535 304.001 53.4371 303.791 53.4455L298.467 53.822Z" fill="white"/>
<path d="M320.439 115.398C320.392 115.398 320.357 115.398 320.31 115.39L309.476 114.135C309.173 114.101 308.917 113.942 308.824 113.733L305.504 106.22C305.422 106.028 305.48 105.81 305.667 105.66C305.853 105.509 306.133 105.434 306.412 105.467L317.247 106.731C317.549 106.764 317.794 106.923 317.887 107.132L321.207 114.645C321.289 114.837 321.231 115.055 321.044 115.206C320.905 115.323 320.672 115.398 320.439 115.398ZM310.233 113.039L319.262 114.085L316.489 107.818L307.461 106.772L310.233 113.039Z" fill="white"/>
<path d="M234.569 33.5923L252.207 31.9609C253.441 31.8437 254.641 32.8728 254.886 34.2616C255.131 35.642 254.338 36.8635 253.104 36.9723L235.466 38.6037C234.231 38.7209 233.031 37.6918 232.787 36.303C232.542 34.9225 233.334 33.7094 234.569 33.5923Z" fill="white"/>
<path d="M235.28 39.206C233.684 39.206 232.274 38.018 231.971 36.3866C231.831 35.6085 231.971 34.8388 232.379 34.2281C232.833 33.542 233.59 33.0986 234.464 33.0149L252.102 31.3835C253.814 31.2329 255.387 32.4544 255.701 34.1862C255.841 34.9643 255.701 35.734 255.294 36.3447C254.839 37.0308 254.082 37.4742 253.208 37.5579L235.571 39.1893C235.478 39.1977 235.373 39.206 235.28 39.206ZM252.393 32.5381C252.37 32.5381 252.335 32.5381 252.311 32.5381L234.674 34.1695C234.371 34.1946 234.068 34.3954 233.858 34.7217C233.59 35.1316 233.497 35.6754 233.59 36.2276C233.789 37.332 234.686 38.0766 235.361 38.0264L252.999 36.3949C253.302 36.3698 253.605 36.169 253.814 35.8428C254.082 35.4328 254.175 34.889 254.082 34.3368C253.896 33.2743 253.057 32.5381 252.393 32.5381Z" fill="white"/>
<path d="M254.898 34.2615C255.142 35.6503 254.35 36.8634 253.115 36.9722C251.88 37.0893 250.68 36.0603 250.436 34.6715C250.191 33.2826 250.983 32.0695 252.218 31.9608C253.453 31.852 254.653 32.8811 254.898 34.2615Z" fill="white"/>
<path d="M252.929 37.5746C252.148 37.5746 251.379 37.2901 250.774 36.7714C250.168 36.2527 249.76 35.5332 249.62 34.7551C249.48 33.9771 249.62 33.2074 250.028 32.5966C250.482 31.9106 251.24 31.4672 252.113 31.3835C253.826 31.2329 255.398 32.4544 255.713 34.1862C255.853 34.9643 255.713 35.734 255.305 36.3447C254.851 37.0308 254.094 37.4742 253.22 37.5579C253.127 37.5662 253.022 37.5746 252.929 37.5746ZM252.393 32.5381C252.37 32.5381 252.335 32.5381 252.311 32.5381C252.008 32.5632 251.706 32.764 251.496 33.0902C251.228 33.5002 251.135 34.044 251.228 34.5962C251.333 35.1484 251.612 35.6587 252.02 36.0101C252.335 36.2862 252.707 36.4284 252.999 36.3949C253.302 36.3698 253.604 36.169 253.814 35.8428C254.082 35.4328 254.175 34.889 254.082 34.3368C253.896 33.2743 253.057 32.5381 252.393 32.5381Z" fill="white"/>
<path d="M275.086 92.9763C275.389 92.8508 276.065 92.7588 276.065 92.7588L292.398 90.9851L281.622 99.9873L281.61 99.9705C281.401 100.171 281.156 100.347 280.841 100.464C279.001 101.192 276.216 100.113 274.632 98.0463C273.048 95.9798 273.246 93.7125 275.086 92.9763Z" fill="white"/>
<path d="M279.572 101.276C279.187 101.276 278.779 101.234 278.372 101.15C276.671 100.799 275.005 99.7447 273.921 98.3308C272.081 95.9464 272.419 93.3696 274.69 92.466C275.075 92.3154 275.716 92.215 275.902 92.1815L292.27 90.4079C292.608 90.3744 292.945 90.4915 293.108 90.7007C293.272 90.9182 293.237 91.1776 293.015 91.37L282.239 100.372C282.193 100.406 282.146 100.439 282.1 100.464C281.832 100.69 281.552 100.857 281.237 100.975C280.737 101.175 280.177 101.276 279.572 101.276ZM275.483 93.4951C274.061 94.064 274.003 96.0133 275.354 97.7702C276.228 98.9081 277.556 99.7698 278.838 100.038C279.269 100.13 279.898 100.188 280.469 99.9622C280.643 99.8953 280.806 99.7865 280.981 99.6192C281.039 99.569 281.098 99.5272 281.168 99.4937L290.359 91.8134L276.205 93.3528C275.972 93.3696 275.599 93.4449 275.483 93.4951Z" fill="white"/>
<path d="M281.307 95.3942C282.903 97.4607 282.694 99.728 280.853 100.464C279.012 101.192 276.228 100.113 274.644 98.0463C273.048 95.9799 273.257 93.7126 275.098 92.9763C276.927 92.2485 279.711 93.3277 281.307 95.3942Z" fill="white"/>
<path d="M279.572 101.276C279.187 101.276 278.779 101.234 278.372 101.15C276.671 100.799 275.005 99.7448 273.921 98.3308C272.081 95.9464 272.419 93.3696 274.69 92.4661C275.832 92.0143 277.253 92.0645 278.675 92.625C279.979 93.1354 281.168 94.0222 282.018 95.1182C283.859 97.5026 283.521 100.079 281.249 100.983C280.737 101.175 280.177 101.276 279.572 101.276ZM276.368 93.3362C276.042 93.3362 275.739 93.3864 275.483 93.4951C274.061 94.0557 274.003 96.0134 275.343 97.7703C276.216 98.9081 277.545 99.7699 278.826 100.038C279.257 100.13 279.886 100.188 280.457 99.9623C281.878 99.4017 281.936 97.444 280.597 95.6871C279.898 94.7835 278.942 94.064 277.906 93.6624C277.358 93.4449 276.834 93.3362 276.368 93.3362Z" fill="white"/>
<path d="M157.856 44.3345L166.395 43.9078L171.172 49.0029L167.432 54.5247L158.893 54.9514L154.105 49.8563L157.856 44.3345Z" fill="white"/>
<path d="M158.893 55.5371C158.625 55.5371 158.369 55.4367 158.217 55.2777L153.429 50.1826C153.266 50.0069 153.243 49.7894 153.371 49.597L157.122 44.0752C157.25 43.8828 157.507 43.7657 157.798 43.7489L166.337 43.3222C166.64 43.3055 166.908 43.4059 167.071 43.5816L171.859 48.6767C172.022 48.8524 172.045 49.0699 171.917 49.2623L168.166 54.7841C168.038 54.9765 167.782 55.0936 167.49 55.1104L158.951 55.5371C158.928 55.5371 158.916 55.5371 158.893 55.5371ZM155.049 49.8061L159.312 54.3407L166.908 53.9558L170.251 49.0364L165.988 44.5019L158.392 44.8867L155.049 49.8061Z" fill="white"/>
<path d="M162.644 50.0153C162.376 50.0153 162.12 49.9149 161.968 49.756L157.18 44.6609C156.924 44.3931 157.029 44.025 157.402 43.8493C157.775 43.6736 158.287 43.7406 158.532 44.0083L163.052 48.8189L171.113 48.4173C171.568 48.3922 171.952 48.6349 171.987 48.9612C172.022 49.2874 171.684 49.5635 171.23 49.5886L162.691 50.0153C162.679 50.0153 162.656 50.0153 162.644 50.0153Z" fill="white"/>
<path d="M158.893 55.537C158.776 55.537 158.648 55.5203 158.532 55.4784C158.124 55.3362 157.961 54.9848 158.159 54.692L161.91 49.1702C162.108 48.8774 162.597 48.7603 163.005 48.9025C163.413 49.0447 163.576 49.3961 163.378 49.6889L159.627 55.2107C159.487 55.4199 159.196 55.537 158.893 55.537Z" fill="white"/>
<path d="M70.6935 76.0178L70.6702 76.0011C70.6236 76.0931 70.5653 76.1768 70.4954 76.2604C70.4022 76.3692 70.309 76.478 70.1809 76.57C70.0761 76.6453 69.9013 76.729 69.7499 76.7959C69.68 76.8294 69.6101 76.8628 69.5285 76.8879C69.4586 76.913 69.4004 76.9381 69.4004 76.9381L69.0509 77.005C68.9926 77.0134 68.946 77.0301 68.8761 77.0385L59.2535 78.8958L61.933 72.002C61.9446 71.9602 61.9679 71.9183 61.9796 71.8765L62.0728 71.6255L62.0961 71.6422C62.1427 71.5502 62.2009 71.4665 62.2708 71.3829C62.364 71.2741 62.4572 71.1654 62.5853 71.0733C62.6902 70.998 62.8649 70.9144 63.0164 70.8474C63.0863 70.814 63.1562 70.7805 63.2377 70.7554C63.3193 70.7303 63.3775 70.7136 63.3775 70.7136L63.727 70.6466C63.7852 70.6383 63.8318 70.6215 63.8901 70.6132L73.5127 68.7559L70.8333 75.6497C70.8216 75.6915 70.7983 75.7334 70.7867 75.7752L70.6935 76.0178Z" fill="white"/>
<path d="M59.2537 79.4814C59.044 79.4814 58.8343 79.4228 58.6712 79.3057C58.4615 79.1551 58.3916 78.9376 58.4615 78.7368L61.1409 71.843C61.1409 71.8346 61.1759 71.7593 61.1759 71.7509L61.2807 71.4665C61.3157 71.3912 61.3623 71.3243 61.4205 71.2657C61.4671 71.1988 61.5137 71.1402 61.5603 71.0816C61.6768 70.931 61.8166 70.7972 61.9681 70.68C61.9797 70.6717 61.9914 70.6633 61.9914 70.655C62.1311 70.5546 62.3175 70.4625 62.5738 70.3454C62.702 70.2868 62.7835 70.2534 62.8651 70.2283L62.9466 70.1948C63.0049 70.1697 63.0631 70.153 63.1214 70.1446L63.4709 70.0777C63.5757 70.0526 63.634 70.0442 63.7039 70.0358L73.2566 68.1869C73.5361 68.1367 73.839 68.1953 74.0487 68.3375C74.2584 68.4881 74.3283 68.7056 74.2584 68.9064L71.579 75.8002C71.579 75.8086 71.5441 75.8839 71.5441 75.8923L71.4276 76.1767C71.3926 76.252 71.346 76.3189 71.2878 76.3775C71.2412 76.4444 71.1946 76.503 71.148 76.5616C71.0315 76.7122 70.8917 76.846 70.7402 76.9548C70.7286 76.9632 70.7169 76.9715 70.7053 76.9799C70.5655 77.0719 70.3907 77.1723 70.1228 77.2894C69.9947 77.348 69.9131 77.3815 69.8316 77.4149L69.785 77.4568C69.7267 77.4819 69.6685 77.4986 69.6102 77.507L69.2607 77.5739C69.1559 77.599 69.0976 77.6074 69.0277 77.6157L59.475 79.4647C59.4051 79.473 59.3352 79.4814 59.2537 79.4814ZM62.6088 72.1023L62.7369 72.1274L60.4303 78.0675L68.6666 76.4779L69.051 77.0134L68.8413 76.4444L69.2607 76.3273C69.4821 76.2269 69.5753 76.1851 69.5986 76.1684L69.6102 76.16C69.6685 76.1182 69.7267 76.0596 69.7966 75.9759C69.8549 75.909 69.8898 75.8504 69.9248 75.7919C69.9364 75.7668 69.9481 75.75 69.9714 75.7249L70.018 75.6162L70.0762 75.6245C70.1111 75.5994 70.1344 75.5743 70.1694 75.5576L70.0413 75.5325L72.3479 69.5924L63.5175 71.3243C63.2845 71.4247 63.2029 71.4749 63.1796 71.4916L63.168 71.4999C63.1097 71.5418 63.0515 71.6003 62.9816 71.684C62.9233 71.7509 62.8884 71.8095 62.8534 71.8681C62.8418 71.8932 62.8301 71.9099 62.8068 71.935L62.7602 72.0438L62.702 72.0354C62.6787 72.0605 62.6437 72.0856 62.6088 72.1023Z" fill="white"/>
<path d="M70.1811 77.1641C69.9714 77.1641 69.7617 77.1055 69.5986 76.9884C69.2841 76.7625 69.2841 76.386 69.5986 76.1601C70.2044 75.7251 70.1112 75.039 69.9947 74.6625C69.7734 73.9263 69.1559 73.1566 68.2473 72.4957C67.3386 71.8431 66.2785 71.3829 65.2533 71.224C64.7291 71.1403 63.7738 71.065 63.168 71.5001C62.8418 71.726 62.3293 71.726 62.0147 71.5001C61.7002 71.2742 61.7002 70.8977 62.0147 70.6718C62.8768 70.0611 64.1466 69.8519 65.6145 70.0862C66.9425 70.3037 68.2939 70.8642 69.4122 71.6758C70.5306 72.4873 71.3111 73.4662 71.5907 74.4199C71.9053 75.4741 71.6024 76.386 70.7403 76.9967C70.5888 77.1055 70.3908 77.1641 70.1811 77.1641Z" fill="white"/>
<path d="M241.873 57.043L231.132 65.5181L237.563 66.0033L234.592 71.9518L245.298 63.6105L239.007 63.142L241.873 57.043Z" fill="white"/>
<path d="M234.592 72.5373C234.453 72.5373 234.301 72.5122 234.173 72.4537C233.835 72.3114 233.695 72.0186 233.823 71.7593L236.445 66.5136L231.051 66.1036C230.748 66.0785 230.48 65.9363 230.375 65.7272C230.27 65.518 230.329 65.2921 230.538 65.1248L241.279 56.6497C241.536 56.4405 241.967 56.3987 242.293 56.5409C242.631 56.6832 242.782 56.9676 242.654 57.2353L240.114 62.64L245.392 63.0416C245.694 63.0667 245.962 63.2089 246.067 63.4181C246.172 63.6272 246.114 63.8615 245.904 64.0204L235.198 72.3533C235.035 72.4704 234.814 72.5373 234.592 72.5373ZM232.822 65.0579L237.645 65.426C237.889 65.4427 238.122 65.5431 238.25 65.6937C238.378 65.8443 238.413 66.0367 238.332 66.204L236.724 69.4334L243.609 64.0706L238.938 63.7192C238.693 63.7025 238.472 63.6021 238.332 63.4515C238.192 63.3009 238.169 63.1169 238.25 62.9495L239.87 59.5026L232.822 65.0579Z" fill="white"/>
<path d="M139.881 164.224C139.881 164.224 137.225 163.078 133.369 161.48C129.349 159.815 129.151 157.205 130.91 155.707C132.879 154.017 135.908 154.636 137.865 155.966C139.089 154.235 141.64 152.921 144.284 154.034C146.649 155.021 147.698 157.523 144.704 160.066C141.838 162.501 139.881 164.224 139.881 164.224Z" fill="white"/>
<path d="M139.881 164.81C139.741 164.81 139.59 164.784 139.461 164.726C139.438 164.717 136.77 163.563 132.973 161.99C130.841 161.112 129.478 159.865 129.14 158.476C128.86 157.347 129.28 156.201 130.305 155.33C131.179 154.578 132.32 154.159 133.602 154.101C134.941 154.042 136.386 154.393 137.667 155.071C138.553 154.126 139.741 153.44 141.034 153.172C142.269 152.913 143.539 153.03 144.715 153.523C146.078 154.092 147.022 155.071 147.29 156.201C147.616 157.589 146.929 159.087 145.333 160.442C142.49 162.843 140.533 164.575 140.51 164.592C140.358 164.734 140.114 164.81 139.881 164.81ZM133.87 155.272C133.811 155.272 133.741 155.272 133.683 155.272C132.844 155.305 132.122 155.581 131.54 156.083C130.829 156.686 130.538 157.489 130.736 158.275C130.992 159.313 132.076 160.267 133.776 160.978C136.537 162.116 138.693 163.036 139.694 163.463C140.428 162.818 142.036 161.421 144.086 159.681C145.356 158.602 145.927 157.439 145.671 156.401C145.484 155.615 144.832 154.937 143.877 154.536C143.084 154.201 142.281 154.126 141.477 154.293C140.358 154.527 139.287 155.255 138.599 156.226C138.483 156.393 138.261 156.502 138.017 156.535C137.761 156.569 137.504 156.51 137.318 156.385C136.258 155.682 134.988 155.272 133.87 155.272Z" fill="white"/>
<path d="M51.763 51.6885C51.6931 51.6885 51.6115 51.6802 51.53 51.6634C51.0989 51.5714 50.8427 51.2451 50.9708 50.9356C51.1688 50.4503 51.0873 49.9483 50.7495 49.5049C50.4116 49.0615 49.8524 48.7436 49.1884 48.6097C48.5127 48.4675 47.8138 48.5261 47.1963 48.7687C46.5789 49.0113 46.1362 49.4129 45.9498 49.8898C45.8217 50.1993 45.3673 50.3834 44.9363 50.2914C44.5053 50.1993 44.2606 49.873 44.3771 49.5635C44.6916 48.777 45.4139 48.1328 46.4041 47.7396C47.3944 47.3464 48.5477 47.2544 49.6311 47.4803C50.7262 47.7062 51.6232 48.2249 52.1707 48.936C52.7182 49.6471 52.8464 50.4754 52.5319 51.2535C52.4387 51.5212 52.1125 51.6885 51.763 51.6885Z" fill="white"/>
<path d="M51.4485 56.7502C51.3786 56.7502 51.297 56.7419 51.2155 56.7251C48.8622 56.2315 46.8585 55.2694 45.5654 54.0061C44.1907 52.6508 43.7597 51.0779 44.3655 49.5719C44.4936 49.2624 44.948 49.0783 45.379 49.1704C45.81 49.2624 46.0663 49.5887 45.9382 49.8982C45.3441 51.3707 46.1246 52.5755 46.8818 53.3201C47.9652 54.3742 49.6544 55.1857 51.6698 55.6041C52.1008 55.6961 52.3571 56.0224 52.229 56.3319C52.1358 56.5829 51.8096 56.7502 51.4485 56.7502Z" fill="white"/>
<path d="M44.7149 55.0351C43.6548 55.0351 42.5481 54.9264 41.4297 54.6921C40.9987 54.6001 40.754 54.2738 40.8705 53.9642C40.9987 53.6547 41.453 53.4706 41.884 53.5626C46.1129 54.4411 50.0155 53.3117 50.9708 50.944C51.0989 50.6344 51.5532 50.4587 51.9843 50.5424C52.4153 50.6344 52.6716 50.9607 52.5435 51.2703C51.5882 53.6212 48.4777 55.0351 44.7149 55.0351Z" fill="white"/>
<path d="M41.6626 54.7088C41.5927 54.7088 41.5112 54.7005 41.4297 54.6837C40.2647 54.4411 39.1696 54.0479 38.2027 53.5208C37.8416 53.3284 37.7717 52.9603 38.0396 52.7009C38.3076 52.4416 38.8201 52.3914 39.1813 52.5838C39.9967 53.0272 40.9054 53.3535 41.884 53.5543C42.315 53.6463 42.5713 53.9726 42.4432 54.2822C42.3383 54.5415 42.0121 54.7088 41.6626 54.7088Z" fill="white"/>
<path d="M61.5485 53.7299C61.4786 53.7299 61.3971 53.7215 61.3155 53.7048C60.8845 53.6128 60.6398 53.2865 60.7563 52.9769C60.9544 52.4917 60.8728 51.9897 60.535 51.5463C60.1971 51.1029 59.638 50.785 58.9739 50.6511C58.2983 50.5089 57.5993 50.5674 56.9818 50.8101C56.3644 51.0527 55.9217 51.4543 55.7353 51.9311C55.6072 52.2407 55.1528 52.4248 54.7218 52.3327C54.2908 52.2407 54.0461 51.9144 54.1626 51.6049C54.4772 50.8184 55.1994 50.1742 56.1897 49.781C57.1799 49.3878 58.3332 49.2958 59.4166 49.5216C60.5117 49.7475 61.4087 50.2663 61.9562 50.9774C62.5038 51.6885 62.6319 52.5168 62.3174 53.2949C62.2358 53.5626 61.9096 53.7299 61.5485 53.7299Z" fill="white"/>
<path d="M61.2456 58.7832C61.1641 58.7832 61.0942 58.7748 61.0126 58.7581C55.8985 57.6956 52.9511 54.6168 54.1743 51.6049C54.3025 51.2953 54.7568 51.1196 55.1878 51.2033C55.6189 51.2953 55.8635 51.6216 55.747 51.9312C54.7917 54.3072 57.2498 56.7585 61.4786 57.637C61.9097 57.729 62.1543 58.0553 62.0378 58.3649C61.9213 58.6159 61.5951 58.7832 61.2456 58.7832Z" fill="white"/>
<path d="M54.4541 57.0597C53.394 57.0597 52.2989 56.9509 51.2271 56.7251C50.7961 56.633 50.5398 56.3067 50.668 55.9972C50.7961 55.6876 51.2504 55.5119 51.6815 55.5956C53.6852 56.0139 55.7239 55.9805 57.4248 55.5036C58.6247 55.1689 60.1741 54.4494 60.7682 52.9769C60.8963 52.6674 61.3507 52.4917 61.7817 52.5754C62.2128 52.6674 62.4574 52.9937 62.3409 53.3032C61.7351 54.8092 60.1974 55.9805 58.0305 56.5912C56.9238 56.9008 55.7123 57.0597 54.4541 57.0597Z" fill="white"/>
<path d="M63.7739 59.0425C62.8419 59.0425 61.9216 58.9505 61.0245 58.7581C60.5935 58.666 60.3489 58.3398 60.4654 58.0302C60.5935 57.7206 61.0362 57.5366 61.4789 57.6286C62.4575 57.8294 63.471 57.9047 64.4845 57.8378C64.9272 57.8127 65.3233 58.0469 65.3699 58.3732C65.4048 58.6995 65.0786 58.9756 64.6243 59.0091C64.333 59.0342 64.0535 59.0425 63.7739 59.0425Z" fill="white"/>
<path d="M43.2121 134.247C41.8957 134.247 40.5676 133.988 39.3794 133.453C36.001 131.93 34.9874 128.717 37.1077 126.299C39.2279 123.873 43.6897 123.137 47.0681 124.668C50.4465 126.191 51.46 129.403 49.3398 131.821C47.9768 133.386 45.6236 134.247 43.2121 134.247ZM43.2354 125.044C41.3714 125.044 39.5541 125.714 38.494 126.927C36.8514 128.801 37.6436 131.286 40.2531 132.465C41.5229 133.034 43.014 133.218 44.4702 132.984C45.9264 132.741 47.173 132.114 47.9651 131.202C49.6077 129.328 48.8156 126.843 46.206 125.664C45.2741 125.245 44.2489 125.044 43.2354 125.044Z" fill="white"/>
<path d="M339.544 159.639C339.311 159.639 339.089 159.564 338.926 159.438C338.74 159.288 338.682 159.07 338.763 158.878L342.037 151.356C342.13 151.147 342.375 150.988 342.677 150.955L353.5 149.658C353.78 149.625 354.059 149.7 354.245 149.851C354.432 150.001 354.49 150.219 354.409 150.411L351.135 157.932C351.042 158.142 350.797 158.301 350.494 158.334L339.672 159.631C339.625 159.639 339.59 159.639 339.544 159.639ZM343.446 152.051L340.72 158.317L349.737 157.238L352.463 150.972L343.446 152.051Z" fill="white"/>
<path d="M353.349 108.747L337.482 103.083C336.375 102.69 336.165 101.359 337.027 100.113C337.89 98.8662 339.486 98.1801 340.604 98.5733L356.471 104.237C357.577 104.631 357.787 105.961 356.925 107.207C356.051 108.454 354.455 109.148 353.349 108.747Z" fill="white"/>
<path d="M354.036 109.45C353.663 109.45 353.314 109.391 352.987 109.274L337.121 103.61C336.34 103.334 335.828 102.74 335.711 101.979C335.606 101.309 335.816 100.548 336.305 99.8535C336.794 99.1507 337.505 98.5735 338.309 98.2304C339.218 97.8372 340.185 97.7787 340.965 98.0547L356.832 103.719C357.612 103.995 358.125 104.589 358.241 105.35C358.346 106.019 358.137 106.781 357.647 107.475C357.018 108.387 356.005 109.082 354.933 109.341C354.63 109.408 354.327 109.45 354.036 109.45ZM339.917 99.0503C339.684 99.0503 339.416 99.1089 339.148 99.2344C338.612 99.4686 338.111 99.8786 337.761 100.381C337.424 100.874 337.26 101.418 337.33 101.861C337.389 102.213 337.575 102.472 337.843 102.564L353.71 108.228C353.896 108.295 354.141 108.295 354.409 108.228C355.073 108.069 355.748 107.584 356.179 106.957C356.517 106.463 356.68 105.919 356.611 105.476C356.564 105.124 356.366 104.865 356.098 104.773L340.231 99.1089C340.15 99.0671 340.033 99.0503 339.917 99.0503Z" fill="white"/>
<path d="M337.039 100.113C337.901 98.8663 339.497 98.1802 340.615 98.5735C341.722 98.9667 341.932 100.297 341.07 101.543C340.208 102.79 338.612 103.476 337.493 103.083C336.375 102.69 336.177 101.359 337.039 100.113Z" fill="white"/>
<path d="M338.169 103.777C337.808 103.777 337.459 103.719 337.121 103.602C336.34 103.326 335.828 102.732 335.711 101.97C335.606 101.301 335.816 100.54 336.305 99.8452C337.389 98.289 339.439 97.4942 340.965 98.0464C342.503 98.5986 342.864 100.247 341.781 101.803C340.942 103.033 339.486 103.777 338.169 103.777ZM339.928 99.0504C339.288 99.0504 338.344 99.5356 337.773 100.372C337.435 100.866 337.272 101.41 337.342 101.853C337.4 102.204 337.587 102.464 337.855 102.556C338.46 102.773 339.649 102.271 340.336 101.284C341.023 100.297 340.86 99.3097 340.254 99.1006C340.15 99.0671 340.045 99.0504 339.928 99.0504Z" fill="white"/>
<path d="M348.968 51.6635C348.898 51.6635 348.817 51.6551 348.747 51.6384C348.316 51.5463 348.06 51.22 348.188 50.9105C348.596 49.8982 347.78 48.8356 346.37 48.5428C344.961 48.25 343.481 48.8356 343.074 49.848C342.945 50.1575 342.503 50.3332 342.06 50.2495C341.629 50.1575 341.373 49.8312 341.501 49.5217C342.165 47.8902 344.553 46.9449 346.825 47.4217C349.096 47.8986 350.413 49.6053 349.749 51.2451C349.644 51.4961 349.318 51.6635 348.968 51.6635Z" fill="white"/>
<path d="M348.654 56.7837C348.584 56.7837 348.502 56.7753 348.421 56.7586C346.044 56.265 344.005 55.2861 342.701 54.0061C341.303 52.634 340.872 51.0444 341.489 49.5134C341.617 49.2038 342.06 49.0197 342.503 49.1118C342.934 49.2038 343.178 49.5301 343.062 49.8396C342.456 51.3372 343.248 52.5587 344.017 53.3117C345.112 54.3825 346.836 55.2108 348.875 55.6291C349.306 55.7212 349.562 56.0474 349.434 56.357C349.329 56.6247 349.003 56.7837 348.654 56.7837Z" fill="white"/>
<path d="M341.827 55.0518C340.756 55.0518 339.637 54.9346 338.496 54.7004C338.065 54.6084 337.82 54.2821 337.936 53.9725C338.065 53.663 338.507 53.4789 338.95 53.5709C343.237 54.4661 347.198 53.3199 348.176 50.9105C348.305 50.6009 348.747 50.4168 349.19 50.5089C349.621 50.6009 349.877 50.9272 349.749 51.2367C348.782 53.6211 345.625 55.0518 341.827 55.0518Z" fill="white"/>
<path d="M338.728 54.7256C338.658 54.7256 338.577 54.7172 338.495 54.7005C337.319 54.4579 336.212 54.0563 335.222 53.5208C334.861 53.3284 334.791 52.9603 335.059 52.7009C335.327 52.4416 335.839 52.3914 336.2 52.5838C337.027 53.0356 337.948 53.3619 338.938 53.571C339.369 53.6631 339.614 53.9893 339.497 54.2989C339.404 54.5583 339.078 54.7256 338.728 54.7256Z" fill="white"/>
<path d="M358.894 53.73C358.824 53.73 358.743 53.7216 358.661 53.7049C358.23 53.6129 357.985 53.2866 358.102 52.977C358.51 51.9647 357.694 50.9022 356.284 50.6093C354.875 50.3165 353.395 50.9022 352.988 51.9145C352.86 52.224 352.417 52.4081 351.974 52.3161C351.543 52.224 351.298 51.8978 351.415 51.5882C352.067 49.9568 354.467 49.0114 356.727 49.4883C357.834 49.7142 358.743 50.2412 359.29 50.9607C359.838 51.6802 359.966 52.5169 359.651 53.3033C359.57 53.5627 359.244 53.73 358.894 53.73Z" fill="white"/>
<path d="M358.579 58.8501C358.51 58.8501 358.428 58.8417 358.346 58.825C355.97 58.3314 353.931 57.3525 352.627 56.0725C351.229 54.7004 350.798 53.1108 351.415 51.5798C351.543 51.2702 351.986 51.0861 352.428 51.1782C352.86 51.2702 353.104 51.5965 352.988 51.906C352.382 53.4036 353.174 54.6251 353.943 55.3781C355.038 56.449 356.762 57.2772 358.801 57.6955C359.232 57.7876 359.477 58.1139 359.36 58.4234C359.255 58.6828 358.929 58.8501 358.579 58.8501Z" fill="white"/>
<path d="M351.694 57.1015C350.623 57.1015 349.516 56.9844 348.421 56.7585C347.99 56.6665 347.745 56.3402 347.862 56.0306C347.99 55.7211 348.432 55.537 348.875 55.629C350.914 56.0557 352.987 56.0223 354.7 55.537C355.912 55.194 357.496 54.4745 358.09 52.9686C358.218 52.659 358.672 52.4749 359.104 52.567C359.535 52.659 359.791 52.9853 359.663 53.2948C359.045 54.8175 357.496 56.0055 355.294 56.6246C354.199 56.9509 352.964 57.1015 351.694 57.1015Z" fill="white"/>
<path d="M361.142 59.1178C360.199 59.1178 359.267 59.0258 358.358 58.8334C357.927 58.7414 357.682 58.4151 357.799 58.1055C357.927 57.796 358.37 57.6119 358.812 57.7039C359.803 57.9131 360.828 57.9884 361.865 57.9215C362.307 57.8964 362.703 58.1306 362.75 58.4569C362.785 58.7832 362.459 59.0593 362.004 59.0927C361.713 59.1095 361.422 59.1178 361.142 59.1178Z" fill="white"/>
<path d="M340.417 133.996C339.171 133.996 337.901 133.754 336.771 133.243C333.567 131.796 332.589 128.742 334.604 126.433C336.62 124.124 340.872 123.43 344.087 124.877C347.302 126.324 348.269 129.378 346.254 131.687C344.949 133.177 342.701 133.996 340.417 133.996ZM337.633 132.248C340.08 133.352 343.33 132.817 344.868 131.06C345.613 130.206 345.846 129.194 345.543 128.215C345.229 127.236 344.402 126.4 343.213 125.864C342.025 125.329 340.615 125.162 339.252 125.379C337.889 125.605 336.724 126.199 335.979 127.052C334.441 128.818 335.187 131.143 337.633 132.248Z" fill="white"/>
<path d="M74.6546 42.7198C74.608 42.7198 74.5614 42.7198 74.5148 42.7115C71.1947 42.3015 68.2939 40.988 66.3484 39.0136C64.403 37.0391 63.6457 34.638 64.2166 32.2452C64.2981 31.9273 64.7175 31.7098 65.1602 31.7683C65.6029 31.8269 65.9058 32.1281 65.8242 32.446C65.3233 34.5208 65.9873 36.6124 67.6882 38.3359C69.389 40.0593 71.9053 41.1972 74.8061 41.5569C75.2488 41.6155 75.5517 41.9167 75.4701 42.2346C75.3886 42.519 75.0391 42.7198 74.6546 42.7198Z" fill="white"/>
<path d="M277.16 29.6266C276.822 29.6266 276.496 29.4676 276.391 29.225C276.251 28.9154 276.484 28.5892 276.904 28.4804C278.593 28.0788 279.956 27.2254 280.748 26.0876C281.54 24.9498 281.668 23.653 281.109 22.4399C280.55 21.2268 279.362 20.2479 277.777 19.679C276.193 19.1101 274.387 19.0181 272.698 19.4197C272.267 19.5201 271.813 19.3527 271.673 19.0516C271.533 18.742 271.766 18.4157 272.186 18.307C274.283 17.805 276.531 17.9221 278.511 18.6332C280.492 19.3444 281.96 20.5659 282.659 22.0718C283.358 23.5777 283.195 25.1924 282.204 26.6147C281.214 28.037 279.513 29.0911 277.416 29.5931C277.335 29.6182 277.242 29.6266 277.16 29.6266Z" fill="white"/>
<path d="M159.825 30.413C159.615 30.413 159.417 30.3544 159.254 30.2457C158.928 30.0198 158.928 29.6517 159.243 29.4174L171.638 20.2479C171.952 20.0137 172.465 20.0137 172.791 20.2396C173.117 20.4654 173.117 20.8336 172.803 21.0678L160.407 30.2373C160.256 30.3461 160.035 30.413 159.825 30.413Z" fill="white"/>
<path d="M89.5425 177.158C89.4027 176.932 89.3095 176.439 89.3095 176.439L88.0979 164.609L99.7592 173.008L99.7359 173.017C99.9922 173.184 100.225 173.377 100.365 173.602C101.239 174.975 99.5262 176.89 96.5322 177.869C93.5499 178.848 90.4162 178.53 89.5425 177.158Z" fill="white"/>
<path d="M93.0956 179.032C91.1151 179.032 89.4725 178.463 88.7969 177.401C88.6105 177.116 88.5173 176.648 88.494 176.514L87.2708 164.659C87.2475 164.416 87.4338 164.182 87.7484 164.082C88.0629 163.981 88.4241 164.031 88.6687 164.199L100.33 172.599C100.377 172.632 100.412 172.666 100.446 172.707C100.738 172.916 100.947 173.134 101.099 173.36C102.182 175.05 100.318 177.267 96.8701 178.405C95.5886 178.823 94.2838 179.032 93.0956 179.032ZM90.288 176.916C90.9637 177.978 93.6664 178.171 96.206 177.334C98.734 176.506 100.307 174.908 99.631 173.845C99.5495 173.72 99.4097 173.594 99.1883 173.452C99.1301 173.41 99.0718 173.36 99.0252 173.31L89.0648 166.14L90.1249 176.397C90.1599 176.556 90.2298 176.832 90.288 176.916Z" fill="white"/>
<path d="M93.3753 172.891C96.3693 171.913 99.4914 172.23 100.377 173.603C101.25 174.975 99.538 176.882 96.544 177.869C93.55 178.848 90.4279 178.53 89.5426 177.158C88.6688 175.786 90.3813 173.87 93.3753 172.891Z" fill="white"/>
<path d="M93.1073 179.024C92.7811 179.024 92.4549 179.007 92.1404 178.974C90.5327 178.815 89.3561 178.254 88.8086 177.401C88.261 176.547 88.4474 175.543 89.3328 174.556C90.1366 173.661 91.453 172.875 93.0374 172.356C96.4857 171.226 100.039 171.661 101.111 173.36C101.658 174.213 101.472 175.217 100.586 176.204C99.7825 177.1 98.4661 177.886 96.8818 178.405C95.6352 178.806 94.3305 179.024 93.1073 179.024ZM96.8235 172.908C95.8682 172.908 94.7732 173.075 93.7131 173.427C92.4083 173.853 91.3365 174.481 90.6958 175.2C90.125 175.836 89.9852 176.447 90.2881 176.924C90.591 177.401 91.3249 177.719 92.3617 177.827C93.5267 177.945 94.8897 177.777 96.1944 177.342C97.4992 176.916 98.571 176.288 99.2117 175.569C99.7825 174.941 99.9223 174.33 99.6194 173.853C99.235 173.234 98.1516 172.908 96.8235 172.908Z" fill="white"/>
<path d="M319.483 174.782C319.216 174.782 318.948 174.682 318.796 174.506L309.162 163.588C308.917 163.312 309.034 162.952 309.418 162.776C309.803 162.601 310.304 162.684 310.548 162.961L320.182 173.879C320.427 174.155 320.311 174.514 319.926 174.69C319.786 174.757 319.635 174.782 319.483 174.782Z" fill="white"/>
<path d="M277.148 172.289C276.81 172.289 276.484 172.13 276.379 171.887C276.24 171.578 276.473 171.252 276.892 171.151C280.643 170.256 282.682 167.328 281.435 164.634C280.83 163.329 279.548 162.266 277.836 161.655C276.123 161.036 274.178 160.936 272.36 161.371C271.929 161.471 271.475 161.304 271.335 161.003C271.195 160.693 271.428 160.367 271.848 160.267C274.073 159.731 276.461 159.857 278.57 160.61C280.678 161.363 282.239 162.668 282.985 164.266C283.73 165.872 283.556 167.579 282.507 169.093C281.459 170.607 279.641 171.728 277.416 172.264C277.323 172.281 277.23 172.289 277.148 172.289Z" fill="white"/>
<path d="M159.802 172.724C159.592 172.724 159.394 172.665 159.231 172.557C158.905 172.331 158.905 171.963 159.219 171.728L171.661 162.526C171.976 162.291 172.488 162.283 172.814 162.517C173.141 162.743 173.141 163.111 172.826 163.345L160.384 172.548C160.221 172.665 160.011 172.724 159.802 172.724Z" fill="white"/>
<path d="M206.656 43.5565C206.423 43.5565 206.202 43.4895 206.039 43.3473L203.418 41.1302C203.126 40.8876 203.173 40.5111 203.511 40.302C203.86 40.0928 204.373 40.1263 204.664 40.3689L207.285 42.586C207.576 42.8286 207.53 43.2051 207.192 43.4143C207.029 43.5063 206.843 43.5565 206.656 43.5565Z" fill="white"/>
<path d="M197.977 36.2192C197.744 36.2192 197.523 36.1523 197.36 36.01L194.739 33.793C194.447 33.5503 194.494 33.1739 194.832 32.9647C195.17 32.7555 195.694 32.789 195.985 33.0316L198.606 35.2487C198.898 35.4913 198.851 35.8678 198.513 36.077C198.35 36.1774 198.164 36.2192 197.977 36.2192Z" fill="white"/>
<path d="M198.071 44.6777C197.978 44.6777 197.884 44.6693 197.791 44.6442C197.372 44.5355 197.15 44.2008 197.302 43.8996L198.665 41.1639C198.816 40.8627 199.282 40.7037 199.702 40.8125C200.121 40.9212 200.342 41.2559 200.191 41.5571L198.828 44.2929C198.723 44.5355 198.409 44.6777 198.071 44.6777Z" fill="white"/>
<path d="M202.579 35.6169C202.486 35.6169 202.393 35.6086 202.3 35.5835C201.88 35.4747 201.659 35.14 201.811 34.8389L203.174 32.1031C203.325 31.8019 203.791 31.6429 204.21 31.7517C204.63 31.8604 204.851 32.1951 204.7 32.4963L203.337 35.2321C203.22 35.4663 202.906 35.6169 202.579 35.6169Z" fill="white"/>
<path d="M192.421 39.9088C192.036 39.9088 191.687 39.708 191.617 39.4319C191.535 39.114 191.827 38.8044 192.269 38.7542L196.253 38.2355C196.696 38.177 197.127 38.3861 197.197 38.704C197.279 39.022 196.987 39.3315 196.545 39.3817L192.56 39.9004C192.514 39.9004 192.467 39.9088 192.421 39.9088Z" fill="white"/>
<path d="M205.608 38.177C205.224 38.177 204.874 37.9762 204.804 37.7001C204.723 37.3822 205.014 37.0726 205.457 37.0224L209.441 36.5037C209.884 36.4452 210.315 36.6543 210.385 36.9722C210.466 37.2902 210.175 37.5997 209.732 37.6499L205.748 38.1686C205.701 38.177 205.655 38.177 205.608 38.177Z" fill="white"/>
<path d="M263.88 119.221C263.588 119.221 263.309 119.113 263.157 118.92L257.426 111.382C257.204 111.098 257.356 110.746 257.752 110.587C258.148 110.428 258.637 110.537 258.859 110.822L264.206 117.841L273.98 114.001C274.376 113.842 274.865 113.951 275.087 114.235C275.308 114.52 275.157 114.871 274.76 115.03L264.264 119.146C264.148 119.196 264.008 119.221 263.88 119.221Z" fill="white"/>
<path d="M233.497 160.283C233.486 160.283 233.486 160.283 233.497 160.283C233.043 160.283 232.682 160.016 232.682 159.689L232.775 152.419C232.775 152.218 232.915 152.034 233.148 151.934C233.381 151.825 233.672 151.817 233.928 151.892L241.244 154.26L241.326 147.885C241.326 147.567 241.699 147.307 242.141 147.307C242.141 147.307 242.141 147.307 242.153 147.307C242.607 147.307 242.968 147.575 242.957 147.901L242.864 155.18C242.864 155.381 242.724 155.565 242.491 155.665C242.258 155.774 241.967 155.791 241.71 155.707L234.394 153.339L234.313 159.715C234.301 160.024 233.94 160.283 233.497 160.283Z" fill="white"/>
<path d="M272.745 78.1679C272.558 78.1679 272.384 78.1261 272.232 78.0424L265.918 74.4114C265.569 74.2106 265.51 73.8425 265.79 73.5915C266.069 73.3406 266.582 73.2987 266.932 73.4995L272.605 76.7707L277.125 72.7131C277.265 72.5876 277.463 72.5123 277.673 72.4956C277.882 72.4788 278.104 72.5207 278.267 72.621L283.94 75.8923L288.46 71.8346C288.74 71.5836 289.252 71.5418 289.602 71.7426C289.951 71.9434 290.01 72.3115 289.73 72.5625L284.697 77.0803C284.557 77.1974 284.359 77.2811 284.15 77.2978C283.94 77.3146 283.719 77.2727 283.556 77.1723L277.882 73.9011L273.362 77.9588C273.222 78.0843 273.024 78.1596 272.815 78.1763C272.803 78.1679 272.768 78.1679 272.745 78.1679Z" fill="white"/>
<path d="M279.653 142.656C279.35 142.656 279.071 142.538 278.919 142.329L275.541 137.51L268.819 139.936C268.411 140.079 267.922 139.962 267.724 139.677L264.346 134.85L257.624 137.276C257.216 137.418 256.727 137.309 256.529 137.017L253.15 132.198L246.429 134.624C246.021 134.766 245.532 134.657 245.333 134.364C245.135 134.08 245.287 133.72 245.695 133.578L253.139 130.884C253.535 130.734 254.036 130.851 254.234 131.143L257.612 135.971L264.334 133.545C264.73 133.394 265.231 133.511 265.429 133.804L268.808 138.623L275.529 136.197C275.937 136.046 276.415 136.163 276.624 136.456L280.376 141.802C280.574 142.087 280.422 142.446 280.014 142.589C279.91 142.639 279.781 142.656 279.653 142.656Z" fill="white"/>
<path d="M98.6759 151.507C98.0468 151.507 97.4178 151.407 96.8236 151.206C95.7635 150.846 94.9713 150.219 94.5636 149.432C94.4121 149.131 94.6335 148.788 95.0529 148.679C95.4723 148.57 95.9383 148.729 96.1013 149.031C96.346 149.524 96.8469 149.917 97.5109 150.143C98.175 150.369 98.9206 150.394 99.6079 150.21C101.029 149.842 101.763 148.713 101.25 147.692C101.099 147.391 101.32 147.048 101.74 146.939C102.159 146.83 102.625 146.989 102.788 147.29C103.604 148.922 102.427 150.721 100.167 151.306C99.6778 151.44 99.1768 151.507 98.6759 151.507Z" fill="white"/>
<path d="M102.019 148.077C101.682 148.077 101.367 147.926 101.251 147.692C100.493 146.186 98.8158 145.525 97.5343 145.224C95.7286 144.806 93.6084 144.873 91.5697 145.4C91.1503 145.509 90.6843 145.35 90.5212 145.048C90.3698 144.747 90.5911 144.413 91.0105 144.295C93.387 143.676 95.8801 143.609 98.0353 144.103C100.33 144.63 102.019 145.76 102.788 147.282C102.94 147.583 102.718 147.926 102.299 148.035C102.206 148.069 102.113 148.077 102.019 148.077Z" fill="white"/>
<path d="M95.3326 149.817C94.9948 149.817 94.6803 149.666 94.5638 149.432C93.7949 147.91 94.0861 146.261 95.3792 144.806C96.5908 143.442 98.5712 142.346 100.948 141.735C101.367 141.626 101.833 141.785 101.996 142.087C102.148 142.388 101.926 142.731 101.507 142.84C99.4683 143.367 97.7791 144.295 96.7539 145.441C96.0316 146.253 95.3326 147.533 96.0899 149.039C96.2413 149.34 96.02 149.683 95.6006 149.792C95.519 149.8 95.4258 149.817 95.3326 149.817Z" fill="white"/>
<path d="M101.227 142.865C100.889 142.865 100.575 142.714 100.458 142.48C100.307 142.179 100.528 141.844 100.948 141.727C102.136 141.417 103.382 141.275 104.629 141.292C105.083 141.3 105.433 141.568 105.433 141.886C105.421 142.212 105.06 142.463 104.606 142.463C103.557 142.446 102.497 142.572 101.507 142.831C101.414 142.856 101.32 142.865 101.227 142.865Z" fill="white"/>
<path d="M88.7389 154.084C88.1098 154.084 87.4807 153.983 86.8866 153.783C85.8265 153.423 85.0343 152.795 84.6266 152.009C84.4751 151.708 84.6965 151.365 85.1159 151.256C85.5353 151.147 86.0012 151.306 86.1643 151.607C86.409 152.101 86.9099 152.494 87.5739 152.72C88.238 152.946 88.9835 152.971 89.6709 152.787C91.0921 152.419 91.8261 151.289 91.3135 150.269C91.162 149.968 91.3834 149.633 91.8028 149.516C92.2221 149.407 92.6998 149.566 92.8512 149.867C93.6667 151.499 92.4901 153.297 90.2301 153.883C89.7408 154.017 89.2398 154.084 88.7389 154.084Z" fill="white"/>
<path d="M92.0822 150.662C91.7443 150.662 91.4298 150.511 91.3133 150.277C90.5561 148.771 88.8785 148.11 87.5971 147.809C85.7914 147.391 83.6711 147.458 81.6324 147.985C81.2131 148.094 80.7471 147.935 80.584 147.633C80.4325 147.332 80.6539 146.998 81.0733 146.88C83.4498 146.261 85.9428 146.194 88.098 146.688C90.393 147.215 92.0822 148.345 92.851 149.867C93.0025 150.168 92.7811 150.511 92.3618 150.62C92.2686 150.645 92.1754 150.662 92.0822 150.662Z" fill="white"/>
<path d="M85.3955 152.394C85.0577 152.394 84.7431 152.243 84.6266 152.009C83.8577 150.486 84.149 148.838 85.4421 147.383C86.6537 146.019 88.6341 144.923 91.0106 144.312C91.43 144.203 91.896 144.362 92.0591 144.663C92.2105 144.965 91.9892 145.308 91.5698 145.416C89.5311 145.944 87.8419 146.872 86.8168 148.018C86.0945 148.83 85.3955 150.11 86.1527 151.616C86.3042 151.917 86.0828 152.26 85.6634 152.369C85.5819 152.386 85.4887 152.394 85.3955 152.394Z" fill="white"/>
<path d="M78.3942 149.273C78.1612 149.273 77.9398 149.206 77.7767 149.072C77.4855 148.83 77.5204 148.462 77.8583 148.244C78.8136 147.65 79.897 147.198 81.0852 146.889C81.5046 146.78 81.9823 146.939 82.1337 147.24C82.2851 147.541 82.0638 147.876 81.6444 147.993C80.6542 148.253 79.7455 148.637 78.9301 149.131C78.767 149.223 78.5806 149.273 78.3942 149.273Z" fill="white"/>
<path d="M213.239 75.1394C213.076 75.1394 212.924 75.1227 212.761 75.0892C211.922 74.8968 211.456 74.2526 211.724 73.6502C211.992 73.0478 212.877 72.7132 213.716 72.9056C214.555 73.098 215.021 73.7422 214.753 74.3446C214.543 74.8298 213.914 75.1394 213.239 75.1394ZM213.25 73.9681C213.239 73.9681 213.215 73.9765 213.215 73.9848L213.017 74.5286L213.25 73.9681Z" fill="white"/>
<path d="M67.4434 92.0142C67.2803 92.0142 67.1172 91.9975 66.9541 91.9557C66.092 91.7633 65.6144 91.094 65.8823 90.4748C66.0105 90.1737 66.3017 89.931 66.6862 89.7888C67.0706 89.6466 67.5133 89.6131 67.9327 89.7135C68.352 89.8055 68.6899 90.0147 68.8879 90.2908C69.086 90.5669 69.1209 90.8848 68.9928 91.186C68.7831 91.6963 68.1307 92.0142 67.4434 92.0142Z" fill="white"/>
<path d="M210.501 156.452C210.338 156.452 210.175 156.435 210.012 156.393C209.161 156.201 208.684 155.54 208.952 154.929C209.08 154.628 209.371 154.385 209.755 154.243C210.14 154.101 210.583 154.076 210.99 154.168C211.398 154.26 211.736 154.469 211.946 154.745C212.144 155.021 212.179 155.339 212.05 155.632C211.922 155.933 211.631 156.176 211.247 156.318C211.014 156.41 210.757 156.452 210.501 156.452ZM210.501 155.28L210.256 155.841L210.501 155.28Z" fill="white"/>
<path d="M127.311 64.6898C127.148 64.6898 126.985 64.6731 126.833 64.6396C126.426 64.5476 126.099 64.3468 125.901 64.0791C125.703 63.8114 125.668 63.5018 125.797 63.209C125.925 62.9162 126.204 62.6819 126.577 62.5397C126.95 62.3975 127.381 62.3724 127.789 62.4644C128.196 62.5564 128.523 62.7572 128.721 63.0249C128.919 63.2927 128.954 63.6022 128.825 63.895C128.697 64.1878 128.418 64.4221 128.045 64.5643C127.812 64.648 127.556 64.6898 127.311 64.6898ZM127.311 63.5185C127.288 63.5185 127.276 63.5269 127.264 63.5436L127.323 63.5269C127.311 63.5185 127.311 63.5185 127.311 63.5185Z" fill="white"/>
<path d="M331.587 65.6519C331.424 65.6519 331.261 65.6351 331.086 65.5933C330.667 65.5013 330.318 65.2921 330.12 65.0077C329.921 64.7232 329.875 64.4053 330.015 64.1041C330.143 63.8029 330.434 63.5603 330.83 63.4097C331.226 63.2591 331.669 63.234 332.088 63.3344C332.962 63.5352 333.44 64.1961 333.16 64.8236C332.939 65.3256 332.286 65.6519 331.587 65.6519ZM331.599 64.4639L331.576 64.4722C331.587 64.4806 331.599 64.4722 331.599 64.4639Z" fill="white"/>
<path d="M321.895 80.9204H308.055C307.601 80.9204 307.24 80.6611 307.24 80.3348C307.24 80.0085 307.601 79.7491 308.055 79.7491H321.895C322.349 79.7491 322.71 80.0085 322.71 80.3348C322.71 80.6611 322.337 80.9204 321.895 80.9204Z" fill="white"/>
<path d="M314.975 85.8901C314.52 85.8901 314.159 85.6308 314.159 85.3045V75.3653C314.159 75.039 314.52 74.7797 314.975 74.7797C315.429 74.7797 315.79 75.039 315.79 75.3653V85.3045C315.79 85.6308 315.417 85.8901 314.975 85.8901Z" fill="white"/>
<path d="M196.475 148.11H182.938C182.484 148.11 182.123 147.851 182.123 147.525C182.123 147.198 182.484 146.939 182.938 146.939H196.475C196.929 146.939 197.29 147.198 197.29 147.525C197.29 147.843 196.929 148.11 196.475 148.11Z" fill="white"/>
<path d="M189.706 152.971C189.252 152.971 188.891 152.712 188.891 152.386V142.664C188.891 142.338 189.252 142.078 189.706 142.078C190.161 142.078 190.522 142.338 190.522 142.664V152.386C190.522 152.712 190.149 152.971 189.706 152.971Z" fill="white"/>
<path d="M193.143 62.8409C192.933 62.8409 192.723 62.7823 192.56 62.6652C192.246 62.4393 192.246 62.0628 192.56 61.8369L202.241 54.8845C202.556 54.6586 203.08 54.6586 203.395 54.8845C203.709 55.1104 203.709 55.4869 203.395 55.7128L193.714 62.6652C193.562 62.7823 193.353 62.8409 193.143 62.8409Z" fill="white"/>
<path d="M202.824 62.8409C202.614 62.8409 202.404 62.7823 202.241 62.6652L192.56 55.7128C192.246 55.4869 192.246 55.1104 192.56 54.8845C192.875 54.6586 193.399 54.6586 193.714 54.8845L203.395 61.8369C203.709 62.0628 203.709 62.4393 203.395 62.6652C203.243 62.7823 203.033 62.8409 202.824 62.8409Z" fill="white"/>
<path d="M122.162 47.3548C121.94 47.3548 121.742 47.2962 121.579 47.1791L113.797 41.5904C113.483 41.3645 113.483 40.988 113.797 40.7621L121.579 35.1734C121.882 34.9559 122.43 34.9559 122.733 35.1734L130.515 40.7621C130.829 40.988 130.829 41.3645 130.515 41.5904L122.733 47.1791C122.581 47.2878 122.371 47.3548 122.162 47.3548ZM115.521 41.172L122.15 45.9325L128.779 41.172L122.162 36.4116L115.521 41.172Z" fill="white"/>
</g>
</g>
<defs>
<filter id="filter0_ddddd_8_6128" x="0.906807" y="0.0356274" width="397.186" height="226.186" filterUnits="userSpaceOnUse" color-interpolation-filters="sRGB">
<feFlood flood-opacity="0" result="BackgroundImageFix"/>
<feColorMatrix in="SourceAlpha" type="matrix" values="0 0 0 0 0 0 0 0 0 0 0 0 0 0 0 0 0 0 127 0" result="hardAlpha"/>
<feOffset dy="1.13458"/>
<feGaussianBlur stdDeviation="1.16225"/>
<feColorMatrix type="matrix" values="0 0 0 0 0.32549 0 0 0 0 0.52549 0 0 0 0 0.894118 0 0 0 0.0337375 0"/>
<feBlend mode="normal" in2="BackgroundImageFix" result="effect1_dropShadow_8_6128"/>
<feColorMatrix in="SourceAlpha" type="matrix" values="0 0 0 0 0 0 0 0 0 0 0 0 0 0 0 0 0 0 127 0" result="hardAlpha"/>
<feOffset dy="2.72654"/>
<feGaussianBlur stdDeviation="2.79304"/>
<feColorMatrix type="matrix" values="0 0 0 0 0.32549 0 0 0 0 0.52549 0 0 0 0 0.894118 0 0 0 0.0484671 0"/>
<feBlend mode="normal" in2="effect1_dropShadow_8_6128" result="effect2_dropShadow_8_6128"/>
<feColorMatrix in="SourceAlpha" type="matrix" values="0 0 0 0 0 0 0 0 0 0 0 0 0 0 0 0 0 0 127 0" result="hardAlpha"/>
<feOffset dy="5.13384"/>
<feGaussianBlur stdDeviation="5.25905"/>
<feColorMatrix type="matrix" values="0 0 0 0 0.32549 0 0 0 0 0.52549 0 0 0 0 0.894118 0 0 0 0.06 0"/>
<feBlend mode="normal" in2="effect2_dropShadow_8_6128" result="effect3_dropShadow_8_6128"/>
<feColorMatrix in="SourceAlpha" type="matrix" values="0 0 0 0 0 0 0 0 0 0 0 0 0 0 0 0 0 0 127 0" result="hardAlpha"/>
<feOffset dy="9.15789"/>
<feGaussianBlur stdDeviation="9.38125"/>
<feColorMatrix type="matrix" values="0 0 0 0 0.32549 0 0 0 0 0.52549 0 0 0 0 0.894118 0 0 0 0.0715329 0"/>
<feBlend mode="normal" in2="effect3_dropShadow_8_6128" result="effect4_dropShadow_8_6128"/>
<feColorMatrix in="SourceAlpha" type="matrix" values="0 0 0 0 0 0 0 0 0 0 0 0 0 0 0 0 0 0 127 0" result="hardAlpha"/>
<feOffset dy="17.1288"/>
<feGaussianBlur stdDeviation="17.5466"/>
<feColorMatrix type="matrix" values="0 0 0 0 0.32549 0 0 0 0 0.52549 0 0 0 0 0.894118 0 0 0 0.0862625 0"/>
<feBlend mode="normal" in2="effect4_dropShadow_8_6128" result="effect5_dropShadow_8_6128"/>
<feBlend mode="normal" in="SourceGraphic" in2="effect5_dropShadow_8_6128" result="shape"/>
</filter>
</defs>
</svg>
