<svg width="17" height="20" viewBox="0 0 17 20" fill="none" xmlns="http://www.w3.org/2000/svg">
<path d="M12.1405 8.96947L12.1406 8.96956C12.1997 9.02322 12.2464 9.0867 12.2781 9.15624C12.3099 9.22576 12.3261 9.30009 12.3261 9.37502C12.3261 9.44995 12.3099 9.52428 12.2781 9.5938C12.2464 9.66333 12.1997 9.72682 12.1406 9.78048L12.1405 9.78052L8.01551 13.5305L8.01547 13.5306C7.95643 13.5844 7.88605 13.6273 7.80825 13.6566C7.73044 13.686 7.64688 13.7011 7.5624 13.7011C7.47792 13.7011 7.39436 13.686 7.31655 13.6566C7.23874 13.6273 7.16836 13.5844 7.10933 13.5306L7.10928 13.5305L5.04678 11.6555C4.98769 11.6018 4.9411 11.5383 4.90942 11.4688C4.87775 11.3993 4.86152 11.3249 4.86152 11.25C4.86152 11.1751 4.87775 11.1008 4.90942 11.0313C4.9411 10.9617 4.98769 10.8982 5.04678 10.8445C5.16621 10.7359 5.32913 10.6742 5.49989 10.6742C5.58435 10.6742 5.66789 10.6894 5.7457 10.7187C5.82351 10.748 5.89392 10.7908 5.95301 10.8445L7.52875 12.2783L7.56239 12.3089L7.59604 12.2783L11.2343 8.96951L11.2343 8.96947C11.2934 8.91567 11.3637 8.87276 11.4416 8.84341C11.5194 8.81406 11.6029 8.7989 11.6874 8.7989C11.7719 8.7989 11.8554 8.81406 11.9333 8.84341C12.0111 8.87276 12.0814 8.91567 12.1405 8.96947Z" fill="#95969D" stroke="white" stroke-width="0.1"/>
<path d="M2.35715 1.71663H3.48572V2.881H2.35715C2.03013 2.881 1.71728 3.02039 1.4872 3.26723C1.25722 3.51395 1.12857 3.84786 1.12857 4.19537V17.4713C1.12857 17.8188 1.25722 18.1527 1.4872 18.3994C1.71728 18.6462 2.03013 18.7856 2.35715 18.7856H14.1429C14.4699 18.7856 14.7827 18.6462 15.0128 18.3994C15.2428 18.1527 15.3715 17.8188 15.3715 17.4713V4.19537C15.3715 3.84786 15.2428 3.51395 15.0128 3.26723C14.7827 3.02039 14.4699 2.881 14.1429 2.881H13.0143V1.71663H14.1429C14.7536 1.71663 15.3401 1.97686 15.7731 2.44137C16.2062 2.906 16.45 3.53687 16.45 4.19537V17.4713C16.45 18.1297 16.2062 18.7606 15.7731 19.2253C15.3401 19.6898 14.7536 19.95 14.1429 19.95H2.35715C1.74643 19.95 1.15996 19.6898 0.726967 19.2253C0.293867 18.7606 0.05 18.1297 0.05 17.4713V4.19537C0.05 3.53687 0.293867 2.906 0.726967 2.44137C1.15996 1.97686 1.74643 1.71663 2.35715 1.71663Z" fill="#95969D" stroke="white" stroke-width="0.1"/>
<path d="M10.8323 1.39606C10.6937 1.27007 10.5067 1.2 10.3125 1.2H6.1875C5.99336 1.2 5.80633 1.27007 5.66773 1.39606C5.52898 1.5222 5.45 1.69436 5.45 1.875V3.12501C5.45 3.30565 5.52898 3.47781 5.66773 3.60395C5.80633 3.72994 5.99336 3.80001 6.1875 3.80001H10.3125C10.5067 3.80001 10.6937 3.72994 10.8323 3.60395C10.971 3.47781 11.05 3.30565 11.05 3.12501V1.875C11.05 1.69436 10.971 1.5222 10.8323 1.39606ZM4.76273 0.586173C5.13986 0.243325 5.6523 0.05 6.1875 0.05H10.3125C10.8477 0.05 11.3602 0.243325 11.7373 0.586173C12.1143 0.928876 12.325 1.3926 12.325 1.875V3.12501C12.325 3.60741 12.1143 4.07113 11.7373 4.41384C11.3602 4.75668 10.8477 4.95001 10.3125 4.95001H6.1875C5.6523 4.95001 5.13986 4.75668 4.76273 4.41384C4.38575 4.07113 4.175 3.60741 4.175 3.12501V1.875C4.175 1.3926 4.38575 0.928876 4.76273 0.586173Z" fill="#95969D" stroke="white" stroke-width="0.1"/>
</svg>
