<svg width="85" height="72" viewBox="0 0 85 72" fill="none" xmlns="http://www.w3.org/2000/svg">
<path d="M0 9.62449C0 4.30903 4.30903 0 9.62449 0H75.3755C80.691 0 85 4.30903 85 9.62449V62.3755C85 67.691 80.691 72 75.3755 72H9.62449C4.30903 72 0 67.691 0 62.3755V9.62449Z" fill="#F0F5FA"/>
<path d="M43 25C40.8008 25 39 26.8008 39 29C39 30.4805 39.8281 31.7773 41.0312 32.4688C41.0117 32.6445 41 32.8164 41 33C41 35.75 43.25 38 46 38C48.75 38 51 35.75 51 33C51 30.5508 49.207 28.4805 46.875 28.0625C46.4531 26.3086 44.8789 25 43 25ZM43 27C43.8125 27 44.4961 27.4727 44.8125 28.1562C43.5039 28.4805 42.3945 29.3359 41.7188 30.4688C41.2891 30.1094 41 29.6094 41 29C41 27.8828 41.8828 27 43 27ZM46 30C47.668 30 49 31.332 49 33C49 34.668 47.668 36 46 36C44.332 36 43 34.668 43 33C43 31.332 44.332 30 46 30ZM37.4688 37C34.2734 37 30.0312 38.75 30.0312 38.75L30.7812 40.625C30.7812 40.625 35.0781 39 37.4688 39C38.4375 39 40.0898 39.5938 41.4375 40.2812C42.1094 40.625 42.7109 40.9844 43.1562 41.2812C43.3789 41.4297 43.5664 41.5625 43.6875 41.6562C43.7461 41.7031 43.7891 41.7578 43.8125 41.7812L43.9688 42C44.0469 42.2227 44.0234 42.4727 43.875 42.6875C43.6836 42.957 43.3438 43.0625 43.0312 42.9688H43L38.6562 40.875L37.8125 42.6875L42.25 44.8125H42.2812L42.3438 44.8438C43.5 45.25 44.793 44.8477 45.5 43.8438C45.8984 43.2773 46.0156 42.6133 45.9375 41.9688L50.75 41.1562C51.2812 41.0664 51.7695 41.3984 51.9375 41.9062C52.1172 42.4453 51.8633 42.9922 51.3438 43.2188C49.8789 43.8633 47.5234 44.8281 45.4062 45.625C44.3477 46.0234 43.3359 46.375 42.5625 46.625C42.1758 46.75 41.8398 46.8438 41.5938 46.9062C41.3477 46.9688 41.1484 47 41.25 47C41.3125 47 40.9102 46.9102 40.4375 46.6562C39.9648 46.4023 39.3711 46.0312 38.7812 45.6562C38.1914 45.2812 37.582 44.9023 37 44.5938C36.418 44.2852 35.8945 44 35.1875 44C33.5508 44 32.0938 44.625 32.0938 44.625L32.875 46.4688C32.875 46.4688 34.0977 46 35.1875 46C35.1602 46 35.5859 46.0898 36.0625 46.3438C36.5391 46.5977 37.1289 46.9688 37.7188 47.3438C38.3086 47.7188 38.8984 48.0977 39.4688 48.4062C40.0391 48.7148 40.5391 49 41.25 49C41.5898 49 41.7852 48.9258 42.0938 48.8438C42.4023 48.7617 42.7773 48.6641 43.1875 48.5312C44.0078 48.2656 45.0156 47.9062 46.0938 47.5C48.2461 46.6914 50.6328 45.7344 52.1562 45.0625C53.6016 44.4258 54.3438 42.7461 53.8438 41.25C53.3672 39.8203 51.8945 38.9414 50.4062 39.1875L44.9375 40.0938C44.9336 40.0898 44.9141 40.0977 44.9062 40.0938C44.875 40.0703 44.8438 40.0234 44.8125 40L44.5312 39.7812V39.8125C44.4453 39.75 44.3828 39.6914 44.2812 39.625C43.7617 39.2812 43.0859 38.8789 42.3438 38.5C40.8555 37.7422 39.1094 37 37.4688 37Z" fill="#FF7622"/>
</svg>
