<svg width="261" height="181" viewBox="0 0 261 181" fill="none" xmlns="http://www.w3.org/2000/svg">
<path d="M123.781 181C151.119 181 173.281 158.838 173.281 131.5C173.281 104.162 151.119 82 123.781 82C96.4427 82 74.2808 104.162 74.2808 131.5C74.2808 158.838 96.4427 181 123.781 181Z" fill="#FB6D3A"/>
<path d="M115.518 151.165L99.2808 134.581L104.156 129.601L115.518 141.205L144.114 112L148.99 116.98L115.518 151.165Z" fill="white"/>
<path d="M239.688 32.3L241.077 36.7811C241.287 37.4611 241.82 37.9937 242.5 38.204L246.981 39.5926C247.381 39.716 247.381 40.2828 246.981 40.4074L242.5 41.796C241.82 42.0063 241.287 42.5388 241.077 43.2188L239.688 47.7C239.565 48.1 238.998 48.1 238.873 47.7L237.485 43.2188C237.274 42.5388 236.742 42.0063 236.062 41.796L231.581 40.4074C231.181 40.284 231.181 39.7172 231.581 39.5926L236.062 38.204C236.742 37.9937 237.274 37.4611 237.485 36.7811L238.873 32.3C238.998 31.9 239.565 31.9 239.688 32.3Z" fill="#FB6D3A"/>
<path d="M68.6882 66.3L70.0768 70.7811C70.287 71.4611 70.8196 71.9937 71.4996 72.204L75.9808 73.5926C76.3808 73.716 76.3808 74.2828 75.9808 74.4074L71.4996 75.796C70.8196 76.0063 70.287 76.5388 70.0768 77.2188L68.6882 81.7C68.5647 82.1 67.9979 82.1 67.8734 81.7L66.4848 77.2188C66.2745 76.5388 65.7419 76.0063 65.0619 75.796L60.5808 74.4074C60.1808 74.284 60.1808 73.7172 60.5808 73.5926L65.0619 72.204C65.7419 71.9937 66.2745 71.4611 66.4848 70.7811L67.8734 66.3C67.9979 65.9 68.5647 65.9 68.6882 66.3Z" fill="#FB6D3A"/>
<path d="M202.841 81.496L203.577 86.1294C203.688 86.8324 204.139 87.4355 204.782 87.7406L209.019 89.7542C209.398 89.9334 209.317 90.4944 208.903 90.5607L204.27 91.2959C203.567 91.4071 202.964 91.8582 202.659 92.5013L200.645 96.7386C200.466 97.1169 199.905 97.0361 199.839 96.6224L199.103 91.989C198.992 91.2859 198.541 90.6829 197.898 90.3777L193.661 88.3643C193.282 88.185 193.363 87.624 193.777 87.5577L198.41 86.8225C199.113 86.7113 199.716 86.2602 200.021 85.6171L202.035 81.3798C202.215 81.0017 202.776 81.0825 202.841 81.496Z" fill="#FB6D3A"/>
<path d="M4.76546 128.094L5.55254 130.634C5.67173 131.019 5.9736 131.321 6.35903 131.44L8.89903 132.228C9.12576 132.298 9.12576 132.619 8.89903 132.689L6.35903 133.476C5.9736 133.596 5.67173 133.898 5.55254 134.283L4.76546 136.823C4.6955 137.05 4.37423 137.05 4.30362 136.823L3.51653 134.283C3.39734 133.898 3.09547 133.596 2.71004 133.476L0.170045 132.689C-0.0566816 132.619 -0.0566816 132.298 0.170045 132.228L2.71004 131.44C3.09547 131.321 3.39734 131.019 3.51653 130.634L4.30362 128.094C4.37423 127.867 4.6955 127.867 4.76546 128.094Z" fill="#FB6D3A"/>
<path opacity="0.4" d="M246.273 102.432L248.835 110.699C249.223 111.954 250.205 112.936 251.46 113.324L259.727 115.886C260.465 116.114 260.465 117.159 259.727 117.389L251.46 119.951C250.205 120.339 249.223 121.321 248.835 122.576L246.273 130.843C246.045 131.581 245 131.581 244.77 130.843L242.208 122.576C241.82 121.321 240.837 120.339 239.583 119.951L231.316 117.389C230.578 117.161 230.578 116.116 231.316 115.886L239.583 113.324C240.837 112.936 241.82 111.954 242.208 110.699L244.77 102.432C245 101.694 246.045 101.694 246.273 102.432Z" fill="#FB6D3A"/>
<path opacity="0.4" d="M83.7915 0.553467L86.3533 8.82066C86.7413 10.0752 87.7238 11.0577 88.9783 11.4457L97.2456 14.0075C97.9835 14.2352 97.9835 15.2809 97.2456 15.5108L88.9783 18.0725C87.7238 18.4605 86.7413 19.443 86.3533 20.6975L83.7915 28.9648C83.5638 29.7027 82.5181 29.7027 82.2883 28.9648L79.7265 20.6975C79.3385 19.443 78.356 18.4605 77.1015 18.0725L68.8342 15.5108C68.0963 15.2831 68.0963 14.2373 68.8342 14.0075L77.1015 11.4457C78.356 11.0577 79.3385 10.0752 79.7265 8.82066L82.2883 0.553467C82.5181 -0.184489 83.5638 -0.184489 83.7915 0.553467Z" fill="#FB6D3A"/>
</svg>
