<svg width="48" height="48" viewBox="0 0 48 48" fill="none" xmlns="http://www.w3.org/2000/svg">
<circle cx="24" cy="24" r="24" fill="white"/>
<path d="M19.2297 27.142V15.8309L20.4865 16.4593L21.7433 15.8309L22.9977 16.4593L24.2691 15.8309L25.5137 16.4593L26.7622 15.8309L28.0163 16.4593L29.284 15.8309L30.5412 16.4593L31.7976 15.8309V24.6285" stroke="#18CFE8" stroke-width="1.25679" stroke-linejoin="round"/>
<path d="M31.7975 24.6284V29.0272C31.7975 29.8605 31.4664 30.6597 30.8772 31.2489C30.288 31.8381 29.4888 32.1691 28.6555 32.1691V32.1691C27.8222 32.1691 27.023 31.8381 26.4338 31.2489C25.8445 30.6597 25.5135 29.8605 25.5135 29.0272V27.142H14.8308C14.7481 27.1413 14.666 27.157 14.5895 27.1883C14.5129 27.2197 14.4433 27.2659 14.3848 27.3244C14.3263 27.3829 14.2801 27.4525 14.2488 27.529C14.2174 27.6056 14.2017 27.6877 14.2024 27.7704C14.2024 30.284 14.4671 32.1691 17.3444 32.1691H28.6555" stroke="#18CFE8" stroke-width="1.25679" stroke-linejoin="round"/>
<path d="M24.2567 22.7432H29.2839M21.7432 19.6012H29.2839H21.7432Z" stroke="#18CFE8" stroke-width="1.25679" stroke-linecap="round" stroke-linejoin="round"/>
</svg>
