<svg width="40" height="40" viewBox="0 0 40 40" fill="none" xmlns="http://www.w3.org/2000/svg">
<circle cx="20" cy="20" r="19.5" fill="white" stroke="white"/>
<path fill-rule="evenodd" clip-rule="evenodd" d="M13.3613 14.748C13.5944 14.3621 15.0523 12.6161 15.9687 12.6585C16.2426 12.6812 16.4848 12.8469 16.6815 13.0391C17.1333 13.4803 18.4266 15.1488 18.5 15.4999C18.6786 16.3611 17.1859 17.1319 17.5 17.9999C18.3006 19.959 20.04 21.7 22 22.4999C22.8672 22.8139 23.6388 21.3207 24.5 21.5C24.8504 21.5734 26.5588 23.0482 27 23.5C27.1915 23.696 27.3579 23.9389 27.3806 24.2128C27.4147 25.1776 25.5427 26.4718 25.2521 26.6382C24.5665 27.1286 23.672 27.1203 22.5815 26.6133C19.5386 25.3473 14.6758 20.5762 13.3863 17.4185C12.8929 16.3341 12.8588 15.4336 13.3613 14.748Z" stroke="#369BFF" stroke-width="1.3" stroke-linecap="round" stroke-linejoin="round"/>
</svg>
