<svg width="24" height="24" viewBox="0 0 24 24" fill="none" xmlns="http://www.w3.org/2000/svg">
<g clip-path="url(#clip0_602_951)">
<path d="M22.7483 8.30574C22.1621 6.73039 21.1059 5.51359 19.6938 4.78674C19.4234 4.65067 19.194 4.44524 19.0291 4.19146C18.8641 3.93768 18.7695 3.64465 18.7549 3.34232L18.7488 3.11263C18.7466 3.02903 18.7165 2.94857 18.6634 2.88402C18.6102 2.81947 18.537 2.77455 18.4554 2.75638C18.3738 2.73821 18.2884 2.74785 18.2129 2.78376C18.1374 2.81967 18.076 2.87979 18.0386 2.95456L17.9358 3.1595C17.7943 3.42713 17.5843 3.6524 17.3272 3.81226C17.0701 3.97213 16.7752 4.06087 16.4726 4.0694C14.7855 4.13203 13.2447 4.87871 12.0476 6.12879C11.5194 4.91614 10.6931 3.85676 9.64555 3.04918C8.59802 2.24159 7.36328 1.71204 6.05615 1.50976L1.18233 0.754787C1.11948 0.74505 1.05519 0.751458 0.995497 0.773407C0.935807 0.795356 0.882679 0.832125 0.84111 0.880258C0.799541 0.92839 0.770896 0.986303 0.757868 1.04855C0.744841 1.1108 0.747859 1.17534 0.766638 1.23611L2.22356 5.9479C2.82598 7.89652 4.16337 9.53406 5.95237 10.5136C5.57262 10.681 5.20678 10.8783 4.85831 11.1037C3.44817 12.0184 2.49004 13.3138 2.08753 14.8502C2.01345 15.1437 1.86275 15.4123 1.65084 15.6285C1.43893 15.8447 1.17342 16.0007 0.881435 16.0807L0.658966 16.1364C0.577796 16.1567 0.50573 16.2035 0.45423 16.2694C0.402731 16.3354 0.374756 16.4166 0.374756 16.5003C0.374756 16.5839 0.402731 16.6652 0.45423 16.7311C0.50573 16.7971 0.577796 16.8439 0.658966 16.8641L0.881435 16.9199C1.17341 16.9998 1.43892 17.1559 1.65083 17.372C1.86274 17.5882 2.01344 17.8568 2.08753 18.1503C2.49004 19.6867 3.44817 20.9822 4.85831 21.8968C6.22364 22.7824 7.91512 23.2504 9.7499 23.2504C12.9021 23.2504 15.5158 21.9073 16.7846 19.6939C16.7915 19.6939 16.7986 19.6945 16.8053 19.6945C16.9297 19.6945 17.0538 19.6844 17.1766 19.6643C20.0114 19.2024 22.2451 16.7923 23.0062 13.3746C23.4051 11.5836 23.3159 9.83088 22.7483 8.30574ZM11.4988 6.7685C11.058 7.34608 10.691 7.97635 10.4062 8.64474L10.0987 8.37924L10.1768 4.56938C10.7472 5.21617 11.1952 5.96135 11.4988 6.7685ZM3.26175 6.56965L6.1305 5.9433L7.16845 6.83966L3.7207 7.41955C3.54859 7.147 3.39526 6.86305 3.26175 6.56965ZM3.97894 4.08525L2.51676 4.35713L1.86942 2.26357L3.97894 4.08525ZM2.35959 1.69591L4.52498 2.0314L4.46911 3.51763L2.35959 1.69591ZM2.94009 5.72632L2.73975 5.0784L4.70583 4.71305L5.42086 5.33059L2.98481 5.86249C2.96976 5.81735 2.9542 5.77202 2.94009 5.72632ZM7.7302 2.77667L7.65853 6.27204L6.62058 5.37569L6.82251 2.44639C7.13224 2.53571 7.4355 2.64606 7.7302 2.77667ZM8.47256 3.15857C8.81421 3.36132 9.13825 3.59237 9.44128 3.84928L9.36159 7.74267L8.39597 6.90861L8.47256 3.15857ZM6.08254 2.27534L5.91108 4.76293L5.196 4.14539L5.271 2.14704L5.94131 2.25091C5.98861 2.25823 6.03553 2.26704 6.08254 2.27534ZM4.20665 8.09841L7.90547 7.47627L8.87109 8.31028L5.0309 8.95623C4.73265 8.69384 4.45693 8.40689 4.20665 8.09841ZM5.85136 9.57883L9.60839 8.9469L10.1212 9.38978C10.0809 9.50956 10.0427 9.63097 10.0066 9.754C9.92133 9.75203 9.83597 9.75021 9.7499 9.75021C8.79432 9.7456 7.84324 9.88143 6.92714 10.1533C6.55267 9.99317 6.19274 9.80095 5.85136 9.57883ZM5.26645 11.733C5.80796 11.3848 6.3931 11.1097 7.00669 10.9147C7.01765 10.9117 7.0283 10.9079 7.03894 10.904C7.91655 10.6312 8.83089 10.495 9.7499 10.5002C12.9381 10.5002 15.5093 11.9761 16.4601 14.352C16.5842 14.6578 16.6065 14.9954 16.5236 15.3148C16.4407 15.6343 16.2571 15.9185 15.9999 16.1253H15.6219C15.721 15.8439 15.7633 15.5456 15.7462 15.2477C15.7291 14.9498 15.653 14.6583 15.5223 14.3901C15.3916 14.1219 15.2089 13.8823 14.9848 13.6853C14.7608 13.4883 14.4998 13.3378 14.2171 13.2424C13.8691 12.7704 13.3416 12.397 12.7163 12.1833C12.3408 12.0537 11.9452 11.9923 11.548 12.0021C11.0536 11.5283 10.3021 11.2502 9.49631 11.2502C8.67201 11.2502 7.90725 11.54 7.41347 12.0323C7.12222 12.0586 6.83562 12.1226 6.5609 12.2229C5.60864 12.568 4.91404 13.2735 4.73095 14.0597C4.3272 14.2329 3.98334 14.5212 3.74222 14.8885C3.50109 15.2558 3.37335 15.6859 3.3749 16.1253H2.21269C2.50052 15.8196 2.70696 15.4465 2.81306 15.0403C3.16739 13.6878 4.01573 12.544 5.26645 11.733ZM8.51489 19.2352L8.14833 18.8686C7.83527 18.5544 7.41354 18.3725 6.97022 18.3604L5.26223 18.3041C5.23591 18.3033 5.20958 18.3053 5.18367 18.31C5.18133 18.3092 5.17898 18.308 5.17678 18.3072C4.87121 18.2127 4.60408 18.0225 4.41472 17.7647C4.22535 17.5069 4.12376 17.1952 4.1249 16.8753H14.7996C14.9301 17.1018 14.9992 17.3586 14.9999 17.6201C15.0006 17.8815 14.9329 18.1387 14.8036 18.3659L12.462 18.3718C12.1402 18.3721 11.8249 18.4622 11.5515 18.6318C11.2781 18.8015 11.0575 19.0441 10.9145 19.3324C10.892 19.3765 10.8785 19.4246 10.8747 19.4739C10.8709 19.5233 10.8769 19.5729 10.8924 19.6199C10.9078 19.6669 10.9325 19.7104 10.9648 19.7478C10.9972 19.7853 11.0366 19.816 11.0809 19.8381C11.1251 19.8602 11.1733 19.8734 11.2227 19.8768C11.2721 19.8802 11.3217 19.8738 11.3685 19.858C11.4154 19.8422 11.4587 19.8172 11.4959 19.7846C11.5331 19.7519 11.5635 19.7122 11.5853 19.6678C11.6665 19.504 11.7918 19.3662 11.9471 19.2698C12.1024 19.1733 12.2815 19.1221 12.4643 19.1218L13.7858 19.1185C13.7393 19.1473 13.6997 19.1859 13.6697 19.2317C13.4202 19.6137 12.9843 19.9328 12.4736 20.1074C12.1397 20.2242 11.7849 20.2694 11.4324 20.2402C11.3732 20.2346 11.3135 20.2432 11.2582 20.2653C11.203 20.2874 11.1538 20.3223 11.1147 20.3671C10.7743 20.7576 10.1542 21 9.49631 21C8.83275 21 8.20992 20.7544 7.87087 20.3591C7.83724 20.3199 7.79587 20.288 7.74935 20.2656C7.70283 20.2431 7.65217 20.2305 7.60055 20.2285C7.33267 20.2172 7.06817 20.1645 6.81647 20.0722C6.2535 19.8681 5.79394 19.4849 5.57395 19.0643L6.94739 19.1095C7.19977 19.1162 7.43994 19.2196 7.61822 19.3984L7.98478 19.7649C8.01945 19.8004 8.06082 19.8286 8.10648 19.848C8.15214 19.8674 8.20119 19.8775 8.25079 19.8778C8.30038 19.8781 8.34955 19.8685 8.39542 19.8496C8.4413 19.8308 8.48299 19.803 8.51806 19.768C8.55313 19.7329 8.5809 19.6912 8.59976 19.6453C8.61862 19.5995 8.62819 19.5503 8.62791 19.5007C8.62764 19.4511 8.61753 19.4021 8.59817 19.3564C8.57881 19.3107 8.55058 19.2694 8.51512 19.2347L8.51489 19.2352ZM5.17678 14.6933C5.17922 14.6926 5.18147 14.6914 5.18386 14.6906C5.20551 14.6945 5.22747 14.6965 5.24948 14.6966H5.26204L6.9683 14.6404C7.41231 14.6286 7.83482 14.4466 8.14842 14.1321L8.51498 13.7655C8.55044 13.7308 8.57867 13.6894 8.59803 13.6438C8.61739 13.5981 8.6275 13.549 8.62777 13.4994C8.62805 13.4498 8.61848 13.4007 8.59962 13.3548C8.58076 13.3089 8.55299 13.2673 8.51792 13.2322C8.48284 13.1971 8.44116 13.1694 8.39528 13.1505C8.34941 13.1317 8.30024 13.1221 8.25065 13.1224C8.20105 13.1227 8.152 13.1328 8.10634 13.1521C8.06068 13.1715 8.01931 13.1998 7.98464 13.2352L7.61808 13.6017C7.43931 13.7809 7.19843 13.8844 6.94542 13.8907L5.57386 13.9358C5.79389 13.5153 6.25354 13.1322 6.81637 12.928C7.06807 12.8356 7.33258 12.7829 7.60045 12.7717C7.65208 12.7697 7.70274 12.7571 7.74925 12.7346C7.79577 12.7121 7.83715 12.6803 7.87078 12.6411C8.20992 12.2458 8.83275 12.0002 9.49631 12.0002C10.1542 12.0002 10.7743 12.2428 11.1147 12.6331C11.1538 12.6778 11.203 12.7127 11.2583 12.7348C11.3135 12.7568 11.3732 12.7655 11.4324 12.76C11.7849 12.7308 12.1397 12.776 12.4736 12.8928C12.9843 13.0674 13.4202 13.3865 13.6697 13.7685C13.6997 13.8143 13.7393 13.8529 13.7858 13.8817L12.4649 13.8783C12.282 13.8782 12.1028 13.827 11.9474 13.7306C11.792 13.6341 11.6666 13.4962 11.5853 13.3324C11.5403 13.2442 11.4624 13.1774 11.3684 13.1465C11.2744 13.1156 11.172 13.1231 11.0835 13.1673C10.995 13.2116 10.9276 13.289 10.8959 13.3828C10.8643 13.4765 10.8709 13.579 10.9145 13.6678C11.0576 13.9561 11.2783 14.1988 11.5518 14.3685C11.8252 14.5382 12.1406 14.6282 12.4625 14.6284L14.8036 14.6343C14.9329 14.8615 15.0006 15.1187 14.9999 15.3801C14.9992 15.6416 14.9301 15.8983 14.7996 16.1249L4.1249 16.1253C4.12376 15.8054 4.22535 15.4936 4.41472 15.2358C4.60408 14.9781 4.87121 14.7879 5.17678 14.6933ZM9.7499 22.5004C8.0603 22.5004 6.50995 22.0741 5.26645 21.2675C4.01573 20.4566 3.16739 19.3128 2.81306 17.9603C2.70696 17.554 2.50052 17.181 2.21269 16.8753H3.3749C3.37335 17.3147 3.50109 17.7448 3.74222 18.1121C3.98334 18.4794 4.3272 18.7676 4.73095 18.9409C4.91404 19.7271 5.60864 20.4325 6.5609 20.7777C6.83562 20.8779 7.12222 20.942 7.41347 20.9683C7.90701 21.4606 8.67201 21.7503 9.49631 21.7503C10.3021 21.7503 11.0536 21.4722 11.5478 20.9986C11.945 21.0085 12.3406 20.9471 12.7162 20.8175C13.3414 20.6038 13.869 20.2305 14.2169 19.7584C14.4997 19.6631 14.7607 19.5126 14.9848 19.3156C15.2089 19.1185 15.3916 18.8789 15.5223 18.6107C15.6531 18.3424 15.7292 18.0509 15.7463 17.753C15.7634 17.4551 15.7211 17.1567 15.6219 16.8753H15.9999C16.2571 17.0821 16.4407 17.3663 16.5236 17.6857C16.6065 18.0052 16.5842 18.3428 16.4601 18.6485C15.5093 21.0244 12.9381 22.5004 9.7499 22.5004ZM22.2742 13.2115C21.5912 16.2784 19.639 18.4475 17.1653 18.9038C17.2637 18.6513 17.317 18.3834 17.3226 18.1124L18.1939 17.105C18.4053 16.8603 18.6038 16.6048 18.7885 16.3394C18.8448 16.2577 18.8664 16.1571 18.8487 16.0596C18.8309 15.962 18.7752 15.8754 18.6938 15.8188C18.6124 15.7622 18.5119 15.7401 18.4143 15.7574C18.3166 15.7747 18.2298 15.83 18.1728 15.9112C18.0031 16.1549 17.8208 16.3896 17.6266 16.6143L17.1413 17.1753C17.0349 16.9257 16.8848 16.697 16.6979 16.5003C16.9992 16.1824 17.2026 15.7846 17.2839 15.3542C17.3652 14.9239 17.3209 14.4792 17.1564 14.0734C16.9994 13.6819 16.8022 13.3079 16.568 12.9572L17.264 9.83172C17.2751 9.78351 17.2765 9.73359 17.2682 9.68481C17.2599 9.63604 17.2421 9.58939 17.2157 9.54755C17.1893 9.50571 17.1549 9.4695 17.1145 9.44102C17.074 9.41253 17.0283 9.39233 16.98 9.38158C16.9318 9.37082 16.8818 9.36973 16.8331 9.37836C16.7844 9.38699 16.7379 9.40517 16.6962 9.43186C16.6546 9.45855 16.6186 9.49321 16.5904 9.53386C16.5622 9.5745 16.5423 9.62033 16.5319 9.66869L15.9694 12.1953C15.2298 11.3895 14.2709 10.7587 13.1553 10.34C13.376 9.67599 13.6783 9.04194 14.0553 8.45241C14.0818 8.41092 14.0999 8.36461 14.1086 8.31612C14.1172 8.26763 14.1162 8.21792 14.1056 8.16982C14.0951 8.12171 14.0751 8.07617 14.0469 8.03577C14.0188 7.99538 13.9829 7.96093 13.9414 7.93439C13.8999 7.90785 13.8536 7.88974 13.8051 7.8811C13.7566 7.87246 13.7069 7.87346 13.6588 7.88403C13.6107 7.89461 13.5652 7.91455 13.5248 7.94273C13.4844 7.9709 13.4499 8.00676 13.4234 8.04825C13.0124 8.69133 12.6829 9.383 12.4425 10.1074C11.8973 9.95606 11.3399 9.85318 10.7767 9.79989C11.7054 6.85405 13.9148 4.91504 16.5006 4.81904C17.1205 4.79759 17.71 4.54547 18.1537 4.11206C18.3716 4.69281 18.7985 5.17129 19.3507 5.45378C20.5938 6.09359 21.5257 7.17027 22.0456 8.56744C22.5623 9.95646 22.6414 11.5623 22.2742 13.2115Z" fill="#FB6D3A"/>
<path d="M17.7311 6.0092C17.634 5.9876 17.5323 6.00543 17.4484 6.05879C17.3645 6.11215 17.3052 6.19666 17.2836 6.29374L16.866 8.16874C16.8549 8.21695 16.8535 8.26688 16.8617 8.31565C16.87 8.36442 16.8879 8.41107 16.9143 8.45291C16.9407 8.49475 16.9751 8.53095 17.0155 8.55944C17.056 8.58792 17.1016 8.60813 17.1499 8.61888C17.1982 8.62963 17.2481 8.63073 17.2969 8.6221C17.3456 8.61347 17.3921 8.59529 17.4337 8.5686C17.4754 8.54191 17.5114 8.50725 17.5396 8.4666C17.5677 8.42596 17.5876 8.38013 17.598 8.33177L18.0156 6.45677C18.0263 6.4087 18.0274 6.35899 18.0189 6.31048C18.0104 6.26197 17.9925 6.21562 17.966 6.17406C17.9396 6.13249 17.9053 6.09655 17.8649 6.06826C17.8246 6.03998 17.7791 6.01991 17.7311 6.0092Z" fill="#FB6D3A"/>
<path d="M15.901 5.34964L14.9307 6.24682C14.7156 6.44572 14.5077 6.65717 14.313 6.87523C14.2799 6.91192 14.2544 6.95478 14.238 7.00135C14.2215 7.04792 14.2144 7.09729 14.2171 7.1466C14.2198 7.19592 14.2322 7.24423 14.2536 7.28874C14.275 7.33326 14.305 7.3731 14.3418 7.406C14.3786 7.43889 14.4216 7.46419 14.4683 7.48042C14.5149 7.49666 14.5643 7.50353 14.6136 7.50062C14.6629 7.49772 14.7112 7.4851 14.7556 7.46349C14.8 7.44189 14.8397 7.41173 14.8724 7.37473C15.0513 7.17448 15.2422 6.98023 15.4396 6.79751L16.4099 5.90032C16.4466 5.86704 16.4764 5.82681 16.4974 5.78196C16.5185 5.73712 16.5305 5.68854 16.5326 5.63904C16.5348 5.58954 16.5272 5.5401 16.5101 5.49358C16.4931 5.44706 16.467 5.40437 16.4334 5.36799C16.3997 5.33161 16.3592 5.30226 16.3142 5.28162C16.2691 5.26099 16.2204 5.24949 16.1709 5.24778C16.1214 5.24607 16.072 5.2542 16.0257 5.27168C15.9793 5.28916 15.9369 5.31566 15.9008 5.34964H15.901Z" fill="#FB6D3A"/>
<path d="M20.063 11.7335C20.0143 11.7262 19.9647 11.7286 19.9169 11.7406C19.8691 11.7525 19.8242 11.7737 19.7846 11.8031C19.745 11.8324 19.7116 11.8692 19.6863 11.9114C19.6609 11.9536 19.6442 12.0005 19.6369 12.0492L19.5958 12.3251C19.464 13.2119 19.1918 14.0721 18.7896 14.8733C18.7668 14.9174 18.7529 14.9656 18.7488 15.0151C18.7447 15.0646 18.7505 15.1144 18.7659 15.1616C18.7812 15.2089 18.8058 15.2526 18.8381 15.2902C18.8705 15.3279 18.91 15.3588 18.9544 15.381C18.9988 15.4033 19.0472 15.4165 19.0967 15.42C19.1462 15.4234 19.196 15.4169 19.243 15.401C19.29 15.385 19.3334 15.3599 19.3706 15.3271C19.4079 15.2942 19.4382 15.2543 19.4599 15.2096C19.8978 14.3374 20.1941 13.401 20.3375 12.4356L20.3787 12.1596C20.3933 12.0613 20.3683 11.9611 20.3091 11.8812C20.2499 11.8013 20.1614 11.7481 20.063 11.7335Z" fill="#FB6D3A"/>
<path d="M20.358 9.31394C20.3367 9.18363 20.3123 9.05224 20.2854 8.92338C20.2755 8.87502 20.2561 8.82908 20.2284 8.78821C20.2007 8.74734 20.1653 8.71234 20.124 8.68522C20.0828 8.65809 20.0366 8.63938 19.9881 8.63015C19.9396 8.62092 19.8897 8.62135 19.8414 8.63143C19.7931 8.64151 19.7472 8.66103 19.7065 8.68887C19.6657 8.71671 19.6308 8.75233 19.6039 8.79368C19.5769 8.83502 19.5584 8.88129 19.5493 8.92982C19.5403 8.97835 19.5409 9.02819 19.5512 9.07647C19.5759 9.19479 19.5983 9.31554 19.6179 9.4353C19.6762 9.79176 19.7117 10.1516 19.7242 10.5125C19.7275 10.6097 19.7684 10.7017 19.8383 10.7693C19.9081 10.8368 20.0015 10.8746 20.0987 10.8747H20.1118C20.2112 10.8713 20.3052 10.8285 20.373 10.7558C20.4409 10.6831 20.4771 10.5865 20.4737 10.4871C20.4601 10.0941 20.4215 9.70238 20.3581 9.31432L20.358 9.31394Z" fill="#FB6D3A"/>
<path d="M19.2514 7.99927C19.2677 8.04575 19.293 8.08856 19.3258 8.12525C19.3587 8.16195 19.3985 8.19181 19.4429 8.21314C19.4873 8.23447 19.5354 8.24684 19.5846 8.24956C19.6338 8.25227 19.683 8.24527 19.7295 8.22896C19.776 8.21265 19.8188 8.18734 19.8555 8.15449C19.8922 8.12163 19.922 8.08187 19.9434 8.03747C19.9647 7.99307 19.9771 7.94491 19.9798 7.89573C19.9825 7.84655 19.9755 7.79731 19.9592 7.75084C19.9099 7.61021 19.8564 7.46959 19.8002 7.33121L19.3537 6.23373C19.3159 6.1421 19.2433 6.06918 19.1519 6.03091C19.0604 5.99264 18.9576 5.99212 18.8657 6.02948C18.7739 6.06684 18.7006 6.13903 18.6619 6.23027C18.6232 6.32151 18.6221 6.42438 18.659 6.51638L19.1055 7.61387C19.1568 7.74076 19.2059 7.87037 19.2514 7.99927Z" fill="#FB6D3A"/>
<path d="M8.51494 15.6404L8.73464 15.4207C9.00388 15.1515 9.36904 15.0003 9.74979 15.0003C10.1305 15.0003 10.4957 15.1515 10.7649 15.4207L10.9846 15.6404C11.0194 15.6752 11.0608 15.7028 11.1063 15.7217C11.1518 15.7405 11.2005 15.7502 11.2498 15.7502C11.299 15.7502 11.3478 15.7405 11.3933 15.7217C11.4388 15.7028 11.4801 15.6752 11.5149 15.6404C11.5498 15.6056 11.5774 15.5642 11.5962 15.5187C11.6151 15.4732 11.6248 15.4245 11.6248 15.3752C11.6248 15.326 11.6151 15.2772 11.5962 15.2317C11.5774 15.1862 11.5498 15.1449 11.5149 15.1101L11.2953 14.8904C10.8854 14.4805 10.3295 14.2502 9.74979 14.2502C9.17012 14.2502 8.61419 14.4805 8.2043 14.8904L7.98459 15.1101C7.91427 15.1804 7.87476 15.2758 7.87476 15.3753C7.87476 15.4747 7.91427 15.5701 7.98459 15.6404C8.05492 15.7108 8.15031 15.7503 8.24977 15.7503C8.34922 15.7503 8.44461 15.7108 8.51494 15.6404Z" fill="#FB6D3A"/>
<path d="M11.2952 18.1101L11.5149 17.8904C11.5498 17.8556 11.5774 17.8143 11.5962 17.7688C11.6151 17.7233 11.6248 17.6745 11.6248 17.6253C11.6248 17.576 11.6151 17.5272 11.5962 17.4817C11.5774 17.4362 11.5498 17.3949 11.5149 17.3601C11.4801 17.3253 11.4388 17.2976 11.3933 17.2788C11.3478 17.2599 11.299 17.2502 11.2498 17.2502C11.2005 17.2502 11.1518 17.2599 11.1063 17.2788C11.0608 17.2976 11.0194 17.3253 10.9846 17.3601L10.7649 17.5798C10.4957 17.849 10.1305 18.0003 9.74974 18.0003C9.36899 18.0003 9.00383 17.849 8.73459 17.5798L8.51494 17.3601C8.44461 17.2898 8.34922 17.2503 8.24977 17.2503C8.15031 17.2503 8.05492 17.2898 7.98459 17.3601C7.91427 17.4305 7.87476 17.5258 7.87476 17.6253C7.87476 17.7248 7.91427 17.8201 7.98459 17.8905L8.20425 18.1101C8.61414 18.52 9.17007 18.7503 9.74974 18.7503C10.3294 18.7503 10.8853 18.52 11.2952 18.1101Z" fill="#FB6D3A"/>
</g>
<defs>
<clipPath id="clip0_602_951">
<rect width="24" height="24" fill="white"/>
</clipPath>
</defs>
</svg>
