<svg width="42" height="42" viewBox="0 0 42 42" fill="none" xmlns="http://www.w3.org/2000/svg">
<circle opacity="0.1" cx="20.7405" cy="20.7405" r="20.7405" fill="#523BB1"/>
<path d="M24.7407 24.7407L20.7407 20.7407L16.7407 24.7407" stroke="#523BB1" stroke-width="1.2" stroke-linecap="round" stroke-linejoin="round"/>
<path d="M20.7407 20.7407V29.7407" stroke="#523BB1" stroke-width="1.2" stroke-linecap="round" stroke-linejoin="round"/>
<path d="M29.1307 27.1307C30.106 26.599 30.8765 25.7576 31.3206 24.7393C31.7646 23.7211 31.8569 22.5839 31.5829 21.5074C31.3089 20.4309 30.6842 19.4762 29.8074 18.7942C28.9305 18.1121 27.8515 17.7414 26.7407 17.7407H25.4807C25.178 16.5699 24.6138 15.483 23.8306 14.5617C23.0474 13.6404 22.0655 12.9086 20.9588 12.4213C19.852 11.9341 18.6492 11.7041 17.4408 11.7486C16.2324 11.7931 15.0497 12.111 13.9819 12.6784C12.914 13.2457 11.9886 14.0478 11.2753 15.0243C10.562 16.0008 10.0794 17.1262 9.86366 18.3161C9.64795 19.506 9.70479 20.7292 10.0299 21.894C10.355 23.0587 10.9399 24.1346 11.7407 25.0407" stroke="#523BB1" stroke-width="1.2" stroke-linecap="round" stroke-linejoin="round"/>
<path d="M24.7407 24.7407L20.7407 20.7407L16.7407 24.7407" stroke="#523BB1" stroke-width="1.2" stroke-linecap="round" stroke-linejoin="round"/>
</svg>
