<svg width="40" height="40" viewBox="0 0 40 40" fill="none" xmlns="http://www.w3.org/2000/svg">
<circle cx="20" cy="20" r="19.5" fill="white" stroke="white"/>
<path d="M20 22C21.1046 22 22 21.1046 22 20C22 18.8954 21.1046 18 20 18C18.8954 18 18 18.8954 18 20C18 21.1046 18.8954 22 20 22Z" stroke="#413DFB" stroke-width="1.2" stroke-linecap="round" stroke-linejoin="round"/>
<path d="M24.9332 22.0003C24.8444 22.2014 24.818 22.4245 24.8572 22.6407C24.8964 22.857 24.9995 23.0565 25.1532 23.2137L25.1932 23.2537C25.3171 23.3775 25.4155 23.5245 25.4826 23.6864C25.5497 23.8483 25.5842 24.0218 25.5842 24.197C25.5842 24.3722 25.5497 24.5457 25.4826 24.7076C25.4155 24.8694 25.3171 25.0165 25.1932 25.1403C25.0693 25.2643 24.9223 25.3626 24.7604 25.4297C24.5986 25.4968 24.4251 25.5314 24.2498 25.5314C24.0746 25.5314 23.9011 25.4968 23.7392 25.4297C23.5774 25.3626 23.4303 25.2643 23.3065 25.1403L23.2665 25.1003C23.1094 24.9466 22.9098 24.8435 22.6936 24.8043C22.4773 24.7651 22.2542 24.7916 22.0532 24.8803C21.856 24.9648 21.6878 25.1052 21.5694 25.284C21.4509 25.4629 21.3874 25.6725 21.3865 25.887V26.0003C21.3865 26.3539 21.246 26.6931 20.996 26.9431C20.7459 27.1932 20.4068 27.3337 20.0532 27.3337C19.6995 27.3337 19.3604 27.1932 19.1104 26.9431C18.8603 26.6931 18.7198 26.3539 18.7198 26.0003V25.9403C18.7147 25.7197 18.6432 25.5057 18.5148 25.3261C18.3864 25.1466 18.207 25.0098 17.9998 24.9337C17.7988 24.8449 17.5757 24.8184 17.3594 24.8577C17.1432 24.8969 16.9436 25 16.7865 25.1537L16.7465 25.1937C16.6227 25.3176 16.4756 25.416 16.3138 25.4831C16.1519 25.5502 15.9784 25.5847 15.8032 25.5847C15.6279 25.5847 15.4544 25.5502 15.2926 25.4831C15.1307 25.416 14.9837 25.3176 14.8598 25.1937C14.7359 25.0698 14.6375 24.9228 14.5704 24.7609C14.5033 24.599 14.4688 24.4255 14.4688 24.2503C14.4688 24.0751 14.5033 23.9016 14.5704 23.7397C14.6375 23.5779 14.7359 23.4308 14.8598 23.307L14.8998 23.267C15.0535 23.1099 15.1566 22.9103 15.1958 22.6941C15.2351 22.4778 15.2086 22.2547 15.1198 22.0537C15.0353 21.8565 14.895 21.6883 14.7161 21.5699C14.5373 21.4514 14.3277 21.3878 14.1132 21.387H13.9998C13.6462 21.387 13.3071 21.2465 13.057 20.9965C12.807 20.7464 12.6665 20.4073 12.6665 20.0537C12.6665 19.7 12.807 19.3609 13.057 19.1108C13.3071 18.8608 13.6462 18.7203 13.9998 18.7203H14.0598C14.2805 18.7152 14.4945 18.6437 14.674 18.5153C14.8536 18.3869 14.9903 18.2075 15.0665 18.0003C15.1552 17.7992 15.1817 17.5762 15.1425 17.3599C15.1033 17.1437 15.0002 16.9441 14.8465 16.787L14.8065 16.747C14.6825 16.6232 14.5842 16.4761 14.5171 16.3142C14.45 16.1524 14.4155 15.9789 14.4155 15.8037C14.4155 15.6284 14.45 15.4549 14.5171 15.2931C14.5842 15.1312 14.6825 14.9842 14.8065 14.8603C14.9303 14.7364 15.0774 14.638 15.2392 14.5709C15.4011 14.5038 15.5746 14.4693 15.7498 14.4693C15.9251 14.4693 16.0986 14.5038 16.2604 14.5709C16.4223 14.638 16.5693 14.7364 16.6932 14.8603L16.7332 14.9003C16.8903 15.054 17.0898 15.1571 17.3061 15.1963C17.5224 15.2355 17.7454 15.2091 17.9465 15.1203H17.9998C18.197 15.0358 18.3652 14.8955 18.4836 14.7166C18.6021 14.5378 18.6656 14.3282 18.6665 14.1137V14.0003C18.6665 13.6467 18.807 13.3076 19.057 13.0575C19.3071 12.8075 19.6462 12.667 19.9998 12.667C20.3535 12.667 20.6926 12.8075 20.9426 13.0575C21.1927 13.3076 21.3332 13.6467 21.3332 14.0003V14.0603C21.334 14.2748 21.3976 14.4844 21.516 14.6633C21.6345 14.8422 21.8027 14.9825 21.9998 15.067C22.2009 15.1557 22.424 15.1822 22.6402 15.143C22.8565 15.1038 23.056 15.0007 23.2132 14.847L23.2532 14.807C23.377 14.683 23.5241 14.5847 23.6859 14.5176C23.8478 14.4505 24.0213 14.4159 24.1965 14.4159C24.3717 14.4159 24.5452 14.4505 24.7071 14.5176C24.869 14.5847 25.016 14.683 25.1398 14.807C25.2638 14.9308 25.3621 15.0779 25.4292 15.2397C25.4963 15.4016 25.5309 15.5751 25.5309 15.7503C25.5309 15.9255 25.4963 16.099 25.4292 16.2609C25.3621 16.4228 25.2638 16.5698 25.1398 16.6937L25.0998 16.7337C24.9461 16.8908 24.843 17.0903 24.8038 17.3066C24.7646 17.5229 24.7911 17.7459 24.8798 17.947V18.0003C24.9643 18.1975 25.1047 18.3657 25.2835 18.4841C25.4624 18.6026 25.672 18.6661 25.8865 18.667H25.9998C26.3535 18.667 26.6926 18.8075 26.9426 19.0575C27.1927 19.3076 27.3332 19.6467 27.3332 20.0003C27.3332 20.3539 27.1927 20.6931 26.9426 20.9431C26.6926 21.1932 26.3535 21.3337 25.9998 21.3337H25.9398C25.7253 21.3345 25.5157 21.3981 25.3369 21.5165C25.158 21.635 25.0177 21.8031 24.9332 22.0003V22.0003Z" stroke="#413DFB" stroke-width="1.2" stroke-linecap="round" stroke-linejoin="round"/>
</svg>
