<svg width="40" height="40" viewBox="0 0 40 40" fill="none" xmlns="http://www.w3.org/2000/svg">
<circle cx="20" cy="20" r="19.5" fill="white" stroke="white"/>
<path d="M24.147 16.943C24.147 15.7996 23.6928 14.703 22.8843 13.8945C22.0758 13.086 20.9793 12.6318 19.8359 12.6318C18.6925 12.6318 17.5959 13.086 16.7874 13.8945C15.9789 14.703 15.5247 15.7996 15.5247 16.943C15.5247 21.9727 13.3691 23.4097 13.3691 23.4097H26.3026C26.3026 23.4097 24.147 21.9727 24.147 16.943Z" stroke="#FFAA2A" stroke-width="1.5" stroke-linecap="round" stroke-linejoin="round"/>
<path d="M21.0789 26.2842C20.9525 26.5019 20.7712 26.6827 20.5531 26.8084C20.3349 26.934 20.0876 27.0002 19.8358 27.0002C19.5841 27.0002 19.3367 26.934 19.1186 26.8084C18.9004 26.6827 18.7191 26.5019 18.5928 26.2842" stroke="#FFAA2A" stroke-width="1.5" stroke-linecap="round" stroke-linejoin="round"/>
</svg>
