<svg width="24" height="24" viewBox="0 0 24 24" fill="none" xmlns="http://www.w3.org/2000/svg">
<path d="M12.7174 15.5491C12.7088 15.3533 12.5508 15.1937 12.3548 15.1937C12.1589 15.1937 11.9992 15.3532 12.0072 15.549C12.1147 18.1659 13.4229 20.0156 15.8115 20.9291C15.9944 20.9991 16.1961 20.898 16.258 20.7121C16.32 20.5262 16.2185 20.326 16.0357 20.2553C13.9342 19.4423 12.8196 17.8615 12.7174 15.5491Z" fill="#FB6D3A"/>
<path d="M8.23619 10.8303C8.26418 10.6364 8.13701 10.4517 7.94429 10.4164C7.75152 10.3811 7.56619 10.5087 7.53772 10.7026C7.43773 11.3837 7.38696 12.1763 7.38696 13.0646C7.38696 14.062 7.55151 14.9594 7.87655 15.7383C7.95206 15.9192 8.16622 15.9904 8.34175 15.9031C8.5172 15.8158 8.5875 15.6032 8.51377 15.4216C8.23689 14.7398 8.09664 13.9487 8.09664 13.0646C8.09664 12.2208 8.14365 11.4714 8.23619 10.8303Z" fill="#FB6D3A"/>
<path d="M21.3844 16.2208C22.4865 15.6694 23 14.5538 23 12.7097C23 10.0622 20.5353 8.85861 19.7798 8.55168C19.7263 8.26923 19.5868 7.99813 19.3842 7.74194H19.8065C21.1761 7.74194 22.2903 6.62774 22.2903 5.25806V4.90323H20.5161C19.3799 4.90323 18.4254 5.65868 18.1295 6.70403C17.1562 6.12281 15.9706 5.72929 15.1747 5.63526C15.0335 4.25884 14.0694 3.277 14.0251 3.23265L13.9211 3.12903H12L12.0007 4.38268L12.1568 4.48806C12.1661 4.49445 13.0645 5.11081 13.0645 5.96774C13.0645 6.16752 12.9144 6.35203 12.6951 6.54223C12.6224 5.91381 12.0646 5.44116 11.5174 4.98555C11.0568 4.60161 10.5806 4.2049 10.5806 3.83871C10.5806 2.29019 9.46006 1.15152 9.41216 1.10397L9.30819 1H7.3871L7.38781 2.25365L7.54394 2.35903C7.55068 2.36365 8.05242 2.70819 8.30684 3.23903C7.5631 3.40439 6.65081 3.75319 5.873 4.223C5.57813 3.17623 4.6229 2.41935 3.48565 2.41935H1.71145V2.77419C1.71145 4.14387 2.82565 5.25806 4.19532 5.25806H4.62929C4.42348 5.51532 4.28013 5.78606 4.22442 6.06603C3.47323 6.37048 1 7.5741 1 10.2258C1 12.0699 1.51345 13.1855 2.61558 13.7369L3.12903 13.9935V13.4194C3.12903 12.3499 3.55342 11.4049 3.84758 10.8787L4.49339 11.8471L4.79926 11.5408C4.84716 11.4936 5.96774 10.355 5.96774 8.80645C5.96774 7.30335 5.26658 6.48403 4.92594 6.17426C5.1211 5.26587 7.03474 4.25032 8.43636 3.93629C8.36326 4.27481 7.93461 4.63532 7.51448 4.98555C6.92864 5.47381 6.32258 5.9791 6.32258 6.67742V8.2341L6.78955 8.07868C6.80197 8.07442 6.82219 8.06768 6.84384 8.05987C6.357 9.0261 5.96774 10.521 5.96774 13.0645C5.96774 18.6181 10.1559 20.2088 12.7274 20.662C14.9892 22.7633 18.4126 23 19.8065 23H20.6737C21.174 23 21.5806 22.5934 21.5806 22.0742C21.5806 21.6424 21.2744 21.2755 20.8362 21.1822C19.276 20.8507 16.9677 18.6053 16.9677 14.8387C16.9677 11.9386 16.8006 11.0505 16.5817 10.1066C16.714 10.1591 16.8137 10.1939 16.8553 10.2077L17.3226 10.3631V8.80645C17.3226 7.86755 16.5895 7.32216 16.0005 6.88394C15.7638 6.70794 15.5473 6.54506 15.3972 6.38184C16.7942 6.64264 18.8665 7.7281 19.0734 8.65884C18.7327 8.96861 18.0323 9.78758 18.0323 11.2903C18.0323 12.8388 19.1528 13.9775 19.2007 14.0251L19.5066 14.3313L20.1531 13.3619C20.4473 13.886 20.871 14.8288 20.871 15.9032V16.4774L21.3844 16.2208ZM20.5161 5.6129H21.5448C21.3802 6.42158 20.663 7.03226 19.8065 7.03226H18.7771C18.9406 6.21684 19.6567 5.6129 20.5161 5.6129ZM2.45661 3.12903H3.48529C4.34471 3.12903 5.06077 3.73297 5.22435 4.54839H4.19497C3.33839 4.54839 2.62161 3.93771 2.45661 3.12903ZM5.25806 8.80645C5.25806 9.61229 4.86206 10.3039 4.57855 10.696L3.85574 9.61158L3.55484 10.0129C3.51368 10.0675 2.661 11.2215 2.46087 12.7775C2.05423 12.3903 1.70968 11.6831 1.70968 10.2258C1.70968 8.05135 3.84439 6.99535 4.48274 6.72852C4.73397 6.96768 5.25806 7.60994 5.25806 8.80645ZM7.03226 6.67742C7.03226 6.31123 7.50845 5.91452 7.96903 5.53058C8.55523 5.04232 9.16129 4.53703 9.16129 3.83871C9.16129 2.85829 8.42855 2.15535 8.09677 1.88745V1.70968H9.00445C9.2461 1.99177 9.87097 2.81926 9.87097 3.83871C9.87097 4.53703 10.477 5.04232 11.0632 5.53058C11.5238 5.91452 12 6.31123 12 6.67742V7.0791C11.9635 7.10748 11.9269 7.13729 11.8904 7.16674C11.0756 6.78493 10.5806 6.33855 10.5806 5.96774H9.87097C9.87097 6.18597 9.93484 6.38823 10.0392 6.57523C9.82945 7.16 9.61123 7.3871 9.51613 7.3871C9.42103 7.3871 9.20281 7.15965 8.99274 6.57381C9.09635 6.38752 9.16129 6.18597 9.16129 5.96774H8.45161C8.45161 6.44606 7.66706 6.9329 7.03226 7.21961V6.67742ZM6.67742 13.0645C6.67742 9.51826 7.4421 8.18903 8.12055 7.43748C8.24226 7.358 8.36184 7.27248 8.47397 7.17881C8.75571 7.78523 9.10416 8.09677 9.51613 8.09677C9.92845 8.09677 10.2776 7.78452 10.559 7.17632C10.8017 7.37858 11.0803 7.55032 11.3506 7.69155C11.1079 7.99352 10.9355 8.35368 10.9355 8.80645V10.3631L11.4025 10.2077C11.4149 10.2035 11.4351 10.1967 11.4567 10.1889C10.9699 11.1551 10.5806 12.6501 10.5806 15.1935C10.5806 17.1746 11.1111 18.6536 11.923 19.7603C9.33339 19.0812 6.67742 17.3432 6.67742 13.0645ZM15.8475 10.0839C16.0771 11.0611 16.2581 11.8332 16.2581 14.8387C16.2581 19.0435 18.8487 21.4855 20.6886 21.8762C20.7794 21.8957 20.871 21.9646 20.871 22.093C20.871 22.2016 20.7823 22.2903 20.6737 22.2903H19.8065C17.2459 22.2903 11.2903 21.5987 11.2903 15.1935C11.2903 11.6473 12.055 10.3181 12.7335 9.56652C12.8552 9.48703 12.9747 9.40152 13.0869 9.30784C13.3686 9.91426 13.7171 10.2258 14.129 10.2258C14.541 10.2258 14.8895 9.91426 15.1712 9.30784C15.3561 9.46219 15.5608 9.59703 15.7624 9.71342C15.7911 9.84152 15.8198 9.96535 15.8475 10.0839ZM15.5771 7.45345C16.1097 7.84981 16.6129 8.22416 16.6129 8.80645V9.34865C15.9781 9.06194 15.1935 8.5751 15.1935 8.09677H14.4839C14.4839 8.315 14.5488 8.51655 14.6524 8.70284C14.4424 9.28868 14.2245 9.51613 14.129 9.51613C14.0339 9.51613 13.8157 9.28868 13.6056 8.70284C13.7093 8.51655 13.7742 8.315 13.7742 8.09677H13.0645C13.0645 8.5751 12.28 9.06194 11.6452 9.34865V8.80645C11.6452 8.22416 12.1483 7.84981 12.6809 7.45345C13.2185 7.05355 13.7742 6.64016 13.7742 5.96774C13.7742 4.98732 13.0415 4.28439 12.7097 4.01648V3.83871H13.6174C13.859 4.12081 14.4839 4.94829 14.4839 5.96774C14.4839 6.64016 15.0395 7.05355 15.5771 7.45345ZM20.4452 12.4968L20.1443 12.0955L19.4207 13.1809C19.1372 12.7909 18.7419 12.1011 18.7419 11.2903C18.7419 10.0942 19.2646 9.45261 19.518 9.21203C20.1567 9.47745 22.2903 10.5274 22.2903 12.7097C22.2903 14.167 21.9458 14.8742 21.5388 15.2613C21.339 13.7054 20.4863 12.5514 20.4452 12.4968Z" fill="#FB6D3A"/>
</svg>
