<svg width="19" height="24" viewBox="0 0 19 24" fill="none" xmlns="http://www.w3.org/2000/svg">
<path d="M8.0569 12.5161L9.31434 11.5614L10.5601 12.5045C11.0142 12.8421 11.6313 12.4114 11.4683 11.8641L10.9793 10.2807L12.3764 9.17462C12.8072 8.84862 12.5627 8.15005 12.0039 8.15005H10.3738L9.8732 6.5899C9.83492 6.47343 9.76084 6.37202 9.66154 6.30012C9.56223 6.22823 9.44276 6.18952 9.32016 6.18952C9.19756 6.18952 9.07809 6.22823 8.97879 6.30012C8.87948 6.37202 8.8054 6.47343 8.76712 6.5899L8.25483 8.15005H6.61318C6.06596 8.15005 5.82146 8.84862 6.25225 9.18627L7.63776 10.2923L7.14876 11.8758C6.98575 12.423 7.60283 12.8538 8.0569 12.5161ZM2.32858 22.8318C2.32858 23.6235 3.10866 24.1824 3.86545 23.9379L9.31434 22.1216L14.7632 23.9379C14.9386 23.9976 15.1258 24.0146 15.3091 23.9874C15.4924 23.9601 15.6665 23.8894 15.8169 23.7811C15.9673 23.6729 16.0896 23.5302 16.1737 23.3651C16.2578 23.1999 16.3011 23.0171 16.3001 22.8318V15.4618C17.8014 13.766 18.6297 11.5792 18.6287 9.31434C18.6287 4.16817 14.4605 0 9.31434 0C4.16817 0 0 4.16817 0 9.31434C0 11.6779 0.884862 13.8202 2.32858 15.4618V22.8318ZM9.31434 2.32858C13.1681 2.32858 16.3001 5.46053 16.3001 9.31434C16.3001 13.1681 13.1681 16.3001 9.31434 16.3001C5.46053 16.3001 2.32858 13.1681 2.32858 9.31434C2.32858 5.46053 5.46053 2.32858 9.31434 2.32858Z" fill="white"/>
</svg>
