<svg width="375" height="110" viewBox="0 0 375 110" fill="none" xmlns="http://www.w3.org/2000/svg">
<g opacity="0.03">
<path d="M118.805 58.3729L124.808 54.351L127 57.7102L134.18 56.8548L135.45 59.9704L143.552 59.3643L137.562 63.3862L118.805 58.3729Z" fill="#0E9D57"/>
<path d="M137.562 63.7827C137.388 63.7827 137.215 63.76 137.067 63.7204L118.323 58.7071C117.882 58.5882 117.761 58.3446 118.029 58.1577L124.019 54.1357C124.219 54.0054 124.58 53.9318 124.941 53.9544C125.302 53.9771 125.61 54.0904 125.703 54.2433L127.642 57.223L133.926 56.4752C134.18 56.4469 134.46 56.4639 134.674 56.5206C134.902 56.5829 135.049 56.6792 135.102 56.7868L136.212 59.5115L143.391 58.9734C143.752 58.945 144.127 59.013 144.327 59.1433C144.528 59.2736 144.541 59.4435 144.341 59.5738L138.351 63.5958C138.177 63.7147 137.87 63.7827 137.562 63.7827ZM120.101 58.2483L137.268 62.8367L141.627 59.908L135.61 60.3612C135.369 60.3782 135.115 60.3556 134.915 60.2932C134.714 60.2309 134.567 60.1403 134.527 60.0383L133.431 57.3533L127.241 58.0897C127 58.118 126.746 58.1067 126.532 58.0557C126.318 58.0047 126.158 57.9197 126.091 57.8178L124.46 55.3196L120.101 58.2483Z" fill="#0E9D57"/>
<path d="M7.35405 95.8732C7.08666 95.8732 6.83263 95.8222 6.64545 95.7372C6.43154 95.6352 6.36469 95.488 6.45828 95.3577L10.1884 90.3104C10.2954 90.1688 10.5762 90.0612 10.9238 90.0385L23.2374 89.1718C23.5582 89.1492 23.8791 89.2001 24.093 89.3021C24.3069 89.4041 24.3738 89.5513 24.2802 89.6816L20.55 94.7289C20.4431 94.8705 20.1623 94.9781 19.8147 95.0008L7.50112 95.8675C7.44764 95.8731 7.39416 95.8732 7.35405 95.8732ZM11.7928 90.7806L8.69103 94.9781L18.9323 94.2531L22.0341 90.0555L11.7928 90.7806Z" fill="#0E9D57"/>
<path d="M23.5993 61.6698L4.19971 57.5799C2.83599 57.2966 2.59533 56.3336 3.65155 55.4329C4.70776 54.5323 6.65975 54.0394 8.02347 54.3227L27.423 58.4126C28.7867 58.7015 29.0274 59.6588 27.9712 60.5595C26.915 61.4602 24.963 61.9587 23.5993 61.6698Z" fill="#0E9D57"/>
<path d="M24.4415 62.1513C24.0136 62.1513 23.5858 62.1116 23.1847 62.0266L3.78514 57.9367C1.94011 57.5459 1.51228 56.3733 2.80914 55.263C4.11938 54.1527 6.57942 53.5862 8.43782 53.9771L27.8374 58.067C28.7733 58.2653 29.3883 58.6845 29.5353 59.2226C29.6557 59.7041 29.4016 60.2423 28.8134 60.7464C27.7839 61.6131 26.0325 62.1513 24.4415 62.1513ZM24.0136 61.3185C24.7757 61.4828 26.2464 61.1373 27.1288 60.3895C27.5566 60.027 27.7438 59.6305 27.6636 59.3076C27.5967 59.047 27.3561 58.8544 26.9951 58.7751L7.59553 54.6852C6.83345 54.5209 5.36277 54.8665 4.48037 55.6142C3.59796 56.3619 3.83862 57.0644 4.6007 57.2286L24.0136 61.3185Z" fill="#0E9D57"/>
<path d="M3.65057 55.4386C4.70678 54.5379 6.65877 54.0451 8.02249 54.3283C9.38621 54.6116 9.62687 55.5746 8.57065 56.4753C7.51444 57.3759 5.56245 57.8688 4.19873 57.5855C2.83501 57.2966 2.59436 56.3336 3.65057 55.4386Z" fill="#0E9D57"/>
<path d="M5.02725 58.0614C4.58605 58.0614 4.15821 58.0217 3.77049 57.9424C1.92546 57.5515 1.49763 56.3789 2.7945 55.2687C3.38277 54.7645 4.23843 54.3566 5.2278 54.1074C6.32412 53.8185 7.48729 53.7788 8.42318 53.9714C9.35906 54.1697 9.97407 54.5889 10.1211 55.127C10.2415 55.6085 9.98744 56.1467 9.39917 56.6508C8.8109 57.155 7.94186 57.5629 6.96587 57.8121C6.32412 57.9764 5.65563 58.0614 5.02725 58.0614ZM4.47909 55.6142C3.59668 56.3619 3.83734 57.0644 4.61279 57.2286C4.97377 57.3023 5.48182 57.2683 6.01661 57.1323C6.6851 56.9624 7.30011 56.6622 7.72795 56.2996C8.15578 55.9371 8.34296 55.5406 8.26274 55.2177C8.19589 54.9571 7.95523 54.7645 7.59425 54.6852C7.23326 54.6116 6.72521 54.6455 6.19042 54.7815C5.5353 54.9458 4.90692 55.2517 4.47909 55.6142Z" fill="#0E9D57"/>
<path d="M61.4232 11.4409C61.2494 11.288 61.1558 10.9538 61.1558 10.9538L59.752 2.89856L73.2153 8.61424L73.1886 8.6199C73.4827 8.7332 73.7501 8.86348 73.9239 9.01643C74.94 9.9511 72.9613 11.254 69.5119 11.9224C66.0491 12.5909 62.4259 12.3756 61.4232 11.4409Z" fill="#0E9D57"/>
<path d="M65.5273 12.7098C63.2411 12.7098 61.356 12.3246 60.5805 11.6052C60.3666 11.4069 60.2597 11.0953 60.2329 10.999L58.8157 2.92686C58.789 2.76258 59.0029 2.60397 59.3639 2.536C59.7249 2.46802 60.1393 2.49634 60.4201 2.6153L73.8835 8.33098C73.9369 8.35364 73.9771 8.3763 74.0172 8.40462C74.3514 8.54624 74.5921 8.69352 74.7659 8.85213C75.3943 9.42993 75.1803 10.1154 74.1642 10.7838C73.2417 11.3956 71.7176 11.9281 69.8859 12.2793C68.3885 12.5738 66.8911 12.7098 65.5273 12.7098ZM62.2785 11.271C63.0539 11.9904 66.1825 12.1263 69.1105 11.5599C70.6212 11.2653 71.8513 10.8404 72.5866 10.3533C73.2417 9.92276 73.4155 9.50357 73.0545 9.18068C72.961 9.09571 72.8005 9.00508 72.5465 8.90878C72.4796 8.88045 72.4128 8.84647 72.3593 8.81248L60.8613 3.92951L62.0779 10.9141C62.1181 11.0274 62.2116 11.2143 62.2785 11.271Z" fill="#0E9D57"/>
<path d="M65.8338 8.53496C69.2832 7.86653 72.8931 8.08179 73.9092 9.01646C74.9253 9.95113 72.9466 11.254 69.4972 11.9224C66.0478 12.5909 62.4379 12.3756 61.4218 11.4409C60.4057 10.5006 62.3844 9.2034 65.8338 8.53496Z" fill="#0E9D57"/>
<path d="M65.5268 12.7042C65.1391 12.7042 64.7647 12.6928 64.4037 12.6702C62.5587 12.5569 61.1816 12.1773 60.5666 11.5995C59.9382 11.0217 60.1521 10.3363 61.1682 9.66789C62.0908 9.0561 63.6149 8.52362 65.4466 8.17241C69.4308 7.40201 73.5219 7.70224 74.7653 8.85217C76.0087 10.0021 73.8695 11.5089 69.8853 12.2793C68.4414 12.5625 66.9306 12.7042 65.5268 12.7042ZM66.222 8.89749C64.7112 9.19205 63.4812 9.6169 62.7459 10.1041C62.0908 10.5346 61.9169 10.9538 62.2779 11.2767C62.6255 11.5995 63.4812 11.8205 64.6845 11.8941C66.0348 11.9734 67.6125 11.8601 69.1099 11.5656C72.0379 10.9991 73.8428 9.91147 73.0673 9.18639C72.2785 8.46131 69.15 8.33102 66.222 8.89749Z" fill="#0E9D57"/>
<path d="M319.739 91.2168L310.634 89.9139L308.749 85.926L315.942 83.2409L325.047 84.5381L326.945 88.5261L319.739 91.2168Z" fill="#0E9D57"/>
<path d="M319.739 91.6134C319.632 91.6134 319.539 91.6077 319.445 91.5907L310.34 90.2935C310.02 90.2482 309.792 90.1349 309.725 89.9933L307.827 86.0053C307.76 85.8637 307.88 85.7221 308.121 85.6315L315.327 82.9407C315.581 82.8444 315.929 82.8161 316.25 82.8614L325.355 84.1586C325.676 84.2039 325.903 84.3172 325.97 84.4589L327.868 88.4468C327.935 88.5884 327.815 88.73 327.574 88.8207L320.368 91.5114C320.181 91.5794 319.953 91.6134 319.739 91.6134ZM311.45 89.6137L319.525 90.7693L325.916 88.3845L324.232 84.8441L316.156 83.6885L309.766 86.0733L311.45 89.6137Z" fill="#0E9D57"/>
<path d="M319.739 91.6133C319.298 91.6133 318.91 91.4831 318.817 91.2961L317.025 87.5348L308.442 86.3112C307.947 86.2432 307.693 86.0166 307.854 85.807C308.014 85.5974 308.549 85.4898 309.043 85.5578L318.148 86.855C318.469 86.9003 318.696 87.0136 318.763 87.1552L320.662 91.1432C320.769 91.3584 320.435 91.568 319.927 91.6077C319.86 91.6077 319.793 91.6133 319.739 91.6133Z" fill="#0E9D57"/>
<path d="M317.841 87.6254C317.587 87.6254 317.319 87.58 317.132 87.4894C316.784 87.3251 316.825 87.0759 317.212 86.9286L324.419 84.2379C324.806 84.0963 325.395 84.1076 325.742 84.2719C326.09 84.4361 326.05 84.6854 325.662 84.8327L318.456 87.5234C318.282 87.5914 318.068 87.6254 317.841 87.6254Z" fill="#0E9D57"/>
<path d="M206.912 72.6027L206.925 72.614C207.032 72.563 207.139 72.5121 207.259 72.4667C207.42 72.4044 207.58 72.3478 207.781 72.3025C207.941 72.2685 208.168 72.2402 208.382 72.2175C208.476 72.2062 208.583 72.1948 208.677 72.1892C208.77 72.1778 208.85 72.1722 208.85 72.1722L209.292 72.1778C209.358 72.1778 209.425 72.1778 209.505 72.1835L221.512 72.3591L215.041 76.6473C215 76.6756 214.96 76.6983 214.92 76.7266L214.68 76.8852L214.666 76.8739C214.559 76.9249 214.452 76.9758 214.332 77.0212C214.172 77.0835 214.011 77.1401 213.811 77.1854C213.65 77.2194 213.409 77.2477 213.196 77.2704C213.102 77.2817 213.008 77.2931 212.901 77.2987C212.808 77.3101 212.728 77.3157 212.728 77.3157L212.286 77.3101C212.22 77.3101 212.153 77.3101 212.072 77.3044L200.066 77.1288L206.537 72.8406C206.577 72.8123 206.618 72.7896 206.658 72.7613L206.912 72.6027Z" fill="#0E9D57"/>
<path d="M212.741 77.7009C212.728 77.7009 212.714 77.7009 212.714 77.7009L212.273 77.6952C212.14 77.6952 212.059 77.6952 211.979 77.6896L200.067 77.5196C199.732 77.5139 199.425 77.4346 199.264 77.31C199.104 77.1854 199.117 77.0325 199.305 76.9135L205.775 72.6253C205.775 72.6197 205.856 72.5743 205.856 72.5743L206.123 72.3931C206.19 72.3477 206.284 72.3081 206.377 72.2798C206.457 72.2458 206.538 72.2061 206.631 72.1778C206.765 72.1212 207.006 72.0362 207.326 71.9625C207.326 71.9625 207.34 71.9625 207.34 71.9569C207.54 71.9116 207.794 71.8719 208.155 71.8379C208.329 71.8153 208.449 71.8039 208.556 71.7983L208.663 71.7869C208.73 71.7813 208.824 71.7756 208.877 71.7813L209.318 71.7869C209.452 71.7869 209.532 71.7869 209.599 71.7926L221.525 71.9682C221.859 71.9739 222.167 72.0532 222.327 72.1778C222.488 72.3024 222.474 72.4554 222.287 72.5743L215.816 76.8568C215.816 76.8568 215.776 76.8852 215.736 76.9135L215.469 77.0891C215.402 77.1344 215.308 77.1741 215.215 77.2024C215.134 77.242 215.054 77.276 214.961 77.31C214.76 77.395 214.546 77.463 214.305 77.5139C214.279 77.5196 214.252 77.5253 214.239 77.5309C214.051 77.5706 213.797 77.6103 213.45 77.6499C213.276 77.6726 213.169 77.6782 213.049 77.6896L212.928 77.7009C212.861 77.7009 212.795 77.7009 212.741 77.7009ZM201.765 76.7492L212.126 76.9022L212.3 77.3044L212.327 76.9078L212.661 76.9135L212.888 76.8908C213.196 76.8568 213.316 76.8398 213.356 76.8285C213.37 76.8229 213.383 76.8229 213.396 76.8172C213.476 76.8002 213.57 76.7662 213.69 76.7209C213.797 76.6812 213.864 76.6473 213.931 76.6133C213.958 76.6019 213.985 76.5849 214.011 76.5736L214.118 76.5056L214.198 76.517C214.239 76.5056 214.292 76.4943 214.346 76.4886L214.212 76.4547L219.827 72.7273L209.466 72.5743L209.292 72.1721L209.265 72.5687L208.931 72.563L208.703 72.5857C208.369 72.6197 208.249 72.6423 208.222 72.648C208.222 72.648 208.209 72.648 208.209 72.6536C208.115 72.6763 208.022 72.7046 207.901 72.7556C207.794 72.7953 207.727 72.8292 207.661 72.8632C207.634 72.8746 207.607 72.8916 207.58 72.9029L207.473 72.9709L207.407 72.9595C207.353 72.9709 207.313 72.9822 207.26 72.9879L207.407 73.0275L201.765 76.7492Z" fill="#0E9D57"/>
<path d="M212.473 77.7065C211.631 77.7065 210.749 77.5989 209.853 77.3836C208.436 77.0437 207.166 76.4603 206.27 75.7408C205.387 75.0214 204.973 74.251 205.107 73.5599C205.254 72.8065 206.043 72.2344 207.326 71.9512C207.781 71.8492 208.355 71.9228 208.596 72.1154C208.837 72.308 208.663 72.5516 208.208 72.6536C207.273 72.8632 207.045 73.356 206.992 73.6279C206.885 74.1661 207.219 74.7892 207.941 75.3726C208.663 75.9561 209.679 76.4263 210.789 76.6925C211.35 76.8285 212.447 77.0267 213.383 76.8171C213.837 76.7152 214.399 76.7888 214.653 76.9871C214.893 77.1797 214.72 77.4176 214.265 77.5252C213.703 77.6499 213.102 77.7065 212.473 77.7065Z" fill="#0E9D57"/>
<path d="M56.1943 78.7545L61.2481 71.0279L54.0952 72.1778L52.7984 67.7933L47.6777 75.4237L54.6835 74.2964L56.1943 78.7545Z" fill="#0E9D57"/>
<path d="M56.1945 79.151C56.1678 79.151 56.1544 79.151 56.1277 79.151C55.6865 79.1397 55.3255 78.998 55.2586 78.8111L53.9217 74.8458L47.9988 75.7975C47.6646 75.8541 47.2902 75.8201 47.0362 75.7182C46.7822 75.6162 46.6752 75.4633 46.7688 75.316L51.9028 67.6856C52.0231 67.5044 52.4376 67.3854 52.8788 67.3967C53.32 67.4137 53.681 67.5554 53.7345 67.7423L54.8709 71.6283L60.9141 70.6596C61.2483 70.6086 61.6227 70.6369 61.8767 70.7389C62.1307 70.8409 62.2377 70.9938 62.1441 71.1411L57.0903 78.8677C56.9833 79.032 56.609 79.151 56.1945 79.151ZM54.6837 73.8998C54.8442 73.8998 55.018 73.9168 55.165 73.9565C55.4057 74.0188 55.5795 74.1207 55.6196 74.2397L56.4887 76.8228L59.8578 71.6792L54.4163 72.5516C54.1489 72.5969 53.8414 72.5799 53.6008 72.5233C53.3601 72.461 53.1863 72.3533 53.1596 72.2344L52.4376 69.7872L49.0818 74.7778L54.3495 73.9338C54.4565 73.9111 54.5768 73.8998 54.6837 73.8998Z" fill="#0E9D57"/>
<path d="M175.587 63.0463C175.587 63.0463 174.397 61.7151 172.592 59.8118C170.707 57.8291 172.993 56.4583 175.894 56.2034C179.156 55.9145 181.162 57.0871 181.59 58.3106C184.25 57.7838 187.659 57.8518 188.889 59.166C189.986 60.3386 188.542 61.8964 183.608 62.3269C178.862 62.7348 175.587 63.0463 175.587 63.0463Z" fill="#0E9D57"/>
<path d="M175.586 63.4428C175.198 63.4428 174.851 63.3409 174.717 63.1879C174.717 63.1879 173.527 61.8567 171.722 59.959C170.719 58.8997 170.719 57.8801 171.735 57.0814C172.564 56.4243 174.008 55.9654 175.706 55.8125C177.164 55.6822 178.554 55.7955 179.717 56.1354C180.92 56.4866 181.816 57.0701 182.284 57.7725C183.915 57.5515 185.56 57.5515 186.924 57.7781C188.234 57.9991 189.223 58.4296 189.771 59.0187C190.413 59.7041 190.306 60.4689 189.464 61.1203C188.448 61.919 186.429 62.4798 183.795 62.7121C179.075 63.1199 175.8 63.4315 175.8 63.4372C175.72 63.4428 175.653 63.4428 175.586 63.4428ZM176.869 56.5546C176.615 56.5546 176.348 56.5659 176.081 56.5885C174.931 56.6905 173.941 57.0077 173.38 57.4552C172.631 58.0444 172.658 58.8318 173.46 59.6645C174.744 61.0127 175.72 62.0776 176.174 62.5875C177.418 62.4685 180.051 62.2249 183.421 61.936C185.506 61.7548 187.057 61.3356 187.819 60.7464C188.394 60.2989 188.461 59.7778 188.033 59.3133C187.672 58.9281 187.071 58.6618 186.228 58.5202C185.065 58.3219 183.487 58.3786 181.99 58.6732C181.723 58.7241 181.415 58.7241 181.148 58.6618C180.894 58.6052 180.707 58.4976 180.666 58.3729C180.426 57.6875 179.664 57.0927 178.634 56.7925C178.113 56.6339 177.525 56.5546 176.869 56.5546Z" fill="#0E9D57"/>
<path d="M136.855 41.1693C132.643 41.1693 129.167 39.7418 129.06 37.9461C128.953 36.122 132.376 34.6096 136.667 34.5643C138.767 34.5359 140.732 34.8645 142.229 35.4763C143.74 36.0824 144.596 36.9038 144.649 37.7875C144.756 39.6115 141.347 41.124 137.042 41.1693C136.988 41.1693 136.921 41.1693 136.855 41.1693ZM136.855 35.3573C136.801 35.3573 136.761 35.3573 136.708 35.3573C135.13 35.3743 133.646 35.6519 132.563 36.1334C131.467 36.6205 130.892 37.255 130.932 37.9291C131.012 39.3113 133.699 40.4159 137.002 40.3762C140.264 40.3422 142.858 39.1866 142.777 37.8045C142.711 36.4393 140.063 35.3573 136.855 35.3573Z" fill="#0E9D57"/>
<path d="M100.622 50.8219C100.462 50.8219 100.301 50.8049 100.154 50.7709C97.908 50.2271 96.2902 49.349 95.595 48.2897C94.9131 47.2304 95.234 46.1258 96.5041 45.1742C97.7876 44.2225 99.86 43.5371 102.36 43.2425C104.86 42.9479 107.467 43.0895 109.713 43.6277C110.168 43.7353 110.315 43.9789 110.061 44.1658C109.807 44.3584 109.232 44.4207 108.791 44.3131C106.973 43.8769 104.86 43.7636 102.855 44.0016C100.849 44.2395 99.1647 44.789 98.1353 45.5594C96.0095 47.1455 97.3197 49.1734 101.077 50.0741C101.531 50.1817 101.678 50.4253 101.424 50.6123C101.264 50.7482 100.943 50.8219 100.622 50.8219Z" fill="#0E9D57"/>
<path d="M153.7 78.0974C153.593 78.0974 153.486 78.0917 153.379 78.0747C152.898 78.0011 152.644 77.7745 152.817 77.5649C154.101 76.0524 156.708 74.8402 160.144 74.1547C163.58 73.4693 167.444 73.3957 171.014 73.9395C171.495 74.0131 171.749 74.2397 171.575 74.4493C171.401 74.6532 170.867 74.7609 170.372 74.6872C167.27 74.217 163.914 74.2794 160.933 74.8741C157.951 75.4689 155.692 76.5226 154.569 77.8368C154.435 77.9954 154.088 78.0974 153.7 78.0974Z" fill="#0E9D57"/>
<path d="M325.101 9.6452C324.794 9.6452 324.486 9.57723 324.312 9.45827L313.737 2.39439C313.456 2.20746 313.59 1.96388 314.031 1.84492C314.472 1.72596 315.047 1.78261 315.328 1.96954L325.903 9.03341C326.184 9.22035 326.051 9.46393 325.609 9.58289C325.449 9.62821 325.275 9.6452 325.101 9.6452Z" fill="#0E9D57"/>
<path d="M101.344 69.4078C101.197 69.4078 101.05 69.3908 100.903 69.3625L85.7412 65.924C85.2866 65.822 85.1128 65.5784 85.3534 65.3858C85.5941 65.1932 86.169 65.1196 86.6236 65.2216L101.785 68.66C102.239 68.762 102.413 69.0056 102.173 69.1982C101.999 69.3285 101.678 69.4078 101.344 69.4078Z" fill="#0E9D57"/>
<path d="M89.699 70.8976C89.5519 70.8976 89.4048 70.8806 89.2578 70.8523C88.8032 70.7503 88.6294 70.5067 88.87 70.3141L96.9855 63.8903C97.2262 63.6978 97.8011 63.6241 98.2556 63.7261C98.7102 63.828 98.884 64.0716 98.6434 64.2642L90.5279 70.688C90.3541 70.8183 90.0332 70.8976 89.699 70.8976Z" fill="#0E9D57"/>
<path d="M124.033 78.1766C123.805 78.1766 123.591 78.1427 123.404 78.0747C123.016 77.9274 122.99 77.6782 123.324 77.5139L126.479 76.0184C126.827 75.8541 127.415 75.8371 127.803 75.9844C128.191 76.1317 128.217 76.3809 127.883 76.5452L124.728 78.0407C124.554 78.1313 124.287 78.1766 124.033 78.1766Z" fill="#0E9D57"/>
<path d="M113.591 83.1332C113.364 83.1332 113.15 83.0992 112.963 83.0313C112.575 82.884 112.548 82.6347 112.883 82.4705L116.038 80.975C116.385 80.8107 116.974 80.7994 117.361 80.941C117.749 81.0883 117.776 81.3375 117.442 81.5018L114.286 82.9973C114.099 83.0879 113.845 83.1332 113.591 83.1332Z" fill="#0E9D57"/>
<path d="M130.382 80.7881C130.316 80.7881 130.249 80.7881 130.195 80.7824L125.556 80.3746C125.048 80.3292 124.727 80.1196 124.834 79.9044C124.941 79.6891 125.436 79.5532 125.944 79.5985L130.583 80.0063C131.091 80.0517 131.412 80.2613 131.305 80.4765C131.211 80.6578 130.824 80.7881 130.382 80.7881Z" fill="#0E9D57"/>
<path d="M115.034 79.4342C114.967 79.4342 114.9 79.4342 114.847 79.4285L110.207 79.0207C109.699 78.9754 109.378 78.7658 109.485 78.5505C109.592 78.3352 110.087 78.1993 110.595 78.2446L115.234 78.6525C115.742 78.6978 116.063 78.9074 115.956 79.1226C115.863 79.3039 115.475 79.4342 115.034 79.4342Z" fill="#0E9D57"/>
<path d="M123.591 84.017C123.204 84.017 122.829 83.9094 122.696 83.7451L121.212 81.8361C121.051 81.6265 121.319 81.4056 121.813 81.3376C122.308 81.2696 122.829 81.3829 122.99 81.5925L124.474 83.5015C124.634 83.7111 124.367 83.932 123.872 84C123.779 84.0057 123.685 84.017 123.591 84.017Z" fill="#0E9D57"/>
<path d="M118.684 77.7066C118.296 77.7066 117.922 77.5989 117.788 77.4347L116.304 75.5257C116.144 75.3161 116.411 75.0951 116.906 75.0272C117.401 74.9592 117.922 75.0725 118.083 75.2821L119.567 77.1911C119.727 77.4007 119.46 77.6216 118.965 77.6896C118.871 77.7009 118.778 77.7066 118.684 77.7066Z" fill="#0E9D57"/>
<path d="M79.8054 34.7625C79.7787 34.7625 79.7519 34.7625 79.7252 34.7625C79.2171 34.7398 78.8294 34.5472 78.8829 34.3319L80.1129 28.6616L66.7164 28.1404C66.2083 28.1178 65.8206 27.9252 65.8741 27.7099C65.9276 27.489 66.3688 27.3304 66.8902 27.353L81.2092 27.9082C81.7173 27.9308 82.105 28.1234 82.0515 28.3387L80.7413 34.4056C80.7012 34.6095 80.2867 34.7625 79.8054 34.7625Z" fill="#0E9D57"/>
<path d="M277.57 24.3791C277.49 24.3791 277.41 24.3734 277.33 24.3678L266.634 23.1669C266.326 23.1329 266.086 23.0366 265.979 22.9063C265.885 22.7817 265.939 22.64 266.139 22.5324L271.567 19.6491L262.249 18.6011C261.754 18.5445 261.446 18.3292 261.58 18.114C261.714 17.9044 262.209 17.7741 262.73 17.8307L273.426 19.0316C273.733 19.0656 273.974 19.1619 274.081 19.2922C274.175 19.4168 274.121 19.5585 273.92 19.6661L268.492 22.5494L277.811 23.5974C278.306 23.654 278.613 23.8693 278.48 24.0845C278.359 24.2601 277.985 24.3791 277.57 24.3791Z" fill="#0E9D57"/>
<path d="M171.348 47.0832C171.135 47.0832 170.921 47.0549 170.747 46.9926L163.22 44.3358C162.819 44.1942 162.765 43.945 163.099 43.775C163.434 43.6051 164.022 43.5824 164.423 43.7241L171.228 46.1316L176.91 43.2482C177.245 43.0783 177.833 43.0556 178.234 43.1972L185.039 45.6047L190.721 42.7214C191.056 42.5515 191.644 42.5288 192.045 42.6704C192.446 42.812 192.499 43.0613 192.165 43.2312L185.895 46.4205C185.561 46.5904 184.972 46.6131 184.571 46.4714L177.766 44.0639L172.084 46.9473C171.883 47.0379 171.616 47.0832 171.348 47.0832Z" fill="#0E9D57"/>
<path d="M49.0811 59.5568C48.6399 59.5568 48.2522 59.4265 48.1586 59.2396C48.0517 59.0244 48.3859 58.8148 48.894 58.7751L57.5442 58.0444L55.8195 54.3793C55.7126 54.164 56.0468 53.9545 56.5548 53.9148L65.2051 53.1841L63.4804 49.519C63.3734 49.3037 63.7077 49.0941 64.2157 49.0545L72.866 48.3237L71.1413 44.6587C71.0343 44.4434 71.3686 44.2338 71.8766 44.1942C72.3847 44.1489 72.8794 44.2905 72.9729 44.5057L74.8848 48.5617C74.9918 48.7769 74.6575 48.9865 74.1495 49.0262L65.4992 49.7569L67.2239 53.422C67.3309 53.6372 66.9966 53.8468 66.4886 53.8865L57.8383 54.6172L59.563 58.2823C59.67 58.4975 59.3358 58.7071 58.8277 58.7468L49.2549 59.5568C49.2015 59.5568 49.148 59.5568 49.0811 59.5568Z" fill="#0E9D57"/>
<path d="M233.077 58.2426C232.997 58.2426 232.916 58.237 232.836 58.2313L219.854 56.7698C219.359 56.7132 219.052 56.4979 219.186 56.2826L222.635 50.7822C222.702 50.6803 222.862 50.5953 223.076 50.5386C223.29 50.4877 223.544 50.4707 223.785 50.499L236.767 51.9605C237.262 52.0171 237.569 52.2324 237.435 52.4477L233.986 57.9481C233.866 58.1293 233.491 58.2426 233.077 58.2426ZM221.245 56.1014L232.422 57.3589L235.39 52.6233L224.213 51.3657L221.245 56.1014Z" fill="#0E9D57"/>
<path d="M296.17 76.9758C295.876 76.9758 295.581 76.9474 295.314 76.8851C294.405 76.6812 294.057 76.2054 294.525 75.8202C294.752 75.6332 295.14 75.4973 295.622 75.435C296.103 75.3727 296.598 75.3897 297.039 75.486C297.48 75.5823 297.801 75.7465 297.948 75.9505C298.095 76.1487 298.055 76.364 297.828 76.5509C297.493 76.8228 296.852 76.9758 296.17 76.9758ZM296.17 76.1827V76.1884L296.999 76.364L296.17 76.1827Z" fill="#0E9D57"/>
<path d="M307.372 27.1491L299.029 23.9486L307.225 23.603L306.45 20.4421H313.91L313.856 16.9357L322.199 20.1362L307.372 27.1491Z" fill="#0E9D57"/>
<path d="M307.372 27.5457C307.145 27.5457 306.918 27.5117 306.744 27.4437L298.401 24.2431C298.12 24.1355 298.027 23.9712 298.134 23.824C298.254 23.6767 298.562 23.569 298.936 23.5521L306.182 23.2462L305.501 20.4818C305.474 20.3685 305.554 20.2609 305.741 20.1759C305.915 20.0909 306.169 20.0456 306.436 20.0456H312.961L312.921 16.9357C312.921 16.7771 313.135 16.6355 313.482 16.5732C313.817 16.5108 314.218 16.5335 314.485 16.6411L322.828 19.8417C323.216 19.989 323.242 20.2382 322.895 20.4025L308.068 27.4154C307.907 27.4947 307.667 27.54 307.412 27.5457C307.412 27.5457 307.399 27.5457 307.372 27.5457ZM301.222 24.2545L307.306 26.5883L320.876 20.1646L314.806 17.8307L314.846 20.4365C314.846 20.5441 314.752 20.6461 314.579 20.7197C314.405 20.7933 314.164 20.8387 313.91 20.8387H307.493L308.161 23.5634C308.188 23.671 308.108 23.773 307.961 23.8579C307.8 23.9373 307.573 23.9939 307.332 23.9996L301.222 24.2545Z" fill="#0E9D57"/>
<path d="M326.438 65.9466C326.385 65.9466 326.345 65.9466 326.291 65.9409L313.857 65.0912C313.51 65.0686 313.215 64.9609 313.109 64.8193L309.298 59.7324C309.205 59.6021 309.271 59.4548 309.485 59.3529C309.699 59.2509 310.02 59.1999 310.341 59.2226L322.775 60.078C323.122 60.1006 323.403 60.2083 323.51 60.3499L327.321 65.4368C327.414 65.5671 327.347 65.7143 327.133 65.8163C326.973 65.8956 326.706 65.9466 326.438 65.9466ZM314.726 64.3491L325.088 65.0572L321.906 60.8144L311.544 60.1063L314.726 64.3491Z" fill="#0E9D57"/>
<path d="M227.889 10.5572L248.131 9.45262C249.548 9.37332 250.926 10.0701 251.206 11.0104C251.487 11.9451 250.578 12.7721 249.161 12.8458L228.919 13.9504C227.502 14.0297 226.125 13.3329 225.844 12.3926C225.563 11.4579 226.472 10.6365 227.889 10.5572Z" fill="#0E9D57"/>
<path d="M228.705 14.3582C226.873 14.3582 225.256 13.5538 224.908 12.4492C224.748 11.9224 224.908 11.4012 225.376 10.9877C225.897 10.5232 226.766 10.223 227.769 10.1663L248.011 9.06172C249.976 8.95975 251.781 9.7868 252.142 10.9594C252.303 11.4862 252.142 12.0074 251.674 12.4209C251.153 12.8854 250.284 13.1856 249.281 13.2423L229.039 14.3469C228.932 14.3525 228.812 14.3582 228.705 14.3582ZM248.345 9.84344C248.319 9.84344 248.278 9.84344 248.252 9.84344L228.01 10.9481C227.662 10.9651 227.315 11.101 227.074 11.3219C226.766 11.5995 226.659 11.9677 226.766 12.3416C226.994 13.0893 228.023 13.5935 228.799 13.5595L249.04 12.4549C249.388 12.4379 249.736 12.3019 249.976 12.081C250.284 11.8034 250.391 11.4352 250.284 11.0614C250.07 10.3419 249.107 9.84344 248.345 9.84344Z" fill="#0E9D57"/>
<path d="M251.219 11.0103C251.5 11.9507 250.591 12.7721 249.174 12.8457C247.757 12.925 246.379 12.2282 246.099 11.2879C245.818 10.3476 246.727 9.52618 248.144 9.45254C249.561 9.3789 250.939 10.0757 251.219 11.0103Z" fill="#0E9D57"/>
<path d="M248.959 13.2536C248.063 13.2536 247.181 13.061 246.486 12.7098C245.79 12.3586 245.322 11.8714 245.162 11.3446C245.001 10.8178 245.162 10.2966 245.63 9.8831C246.151 9.41859 247.02 9.11836 248.023 9.06172C249.988 8.95975 251.793 9.7868 252.154 10.9594C252.315 11.4862 252.154 12.0074 251.686 12.4209C251.165 12.8854 250.296 13.1856 249.293 13.2423C249.186 13.2479 249.066 13.2536 248.959 13.2536ZM248.344 9.84344C248.317 9.84344 248.277 9.84344 248.25 9.84344C247.903 9.86044 247.555 9.99639 247.314 10.2173C247.007 10.4949 246.9 10.8631 247.007 11.237C247.127 11.6108 247.448 11.9564 247.916 12.1943C248.277 12.3812 248.705 12.4775 249.039 12.4549C249.387 12.4379 249.734 12.3019 249.975 12.081C250.283 11.8034 250.39 11.4352 250.283 11.0614C250.069 10.3419 249.106 9.84344 248.344 9.84344Z" fill="#0E9D57"/>
<path d="M274.389 50.7651C274.736 50.6802 275.512 50.6178 275.512 50.6178L294.256 49.4169L281.889 55.5121L281.876 55.5008C281.635 55.6368 281.354 55.7557 280.993 55.835C278.881 56.3279 275.686 55.5971 273.867 54.1979C272.049 52.7988 272.276 51.2636 274.389 50.7651Z" fill="#0E9D57"/>
<path d="M279.536 56.3845C279.095 56.3845 278.627 56.3562 278.159 56.2996C276.207 56.0617 274.295 55.3479 273.052 54.3906C270.94 52.7761 271.327 51.0314 273.934 50.4196C274.376 50.3177 275.111 50.2497 275.325 50.227L294.109 49.0261C294.497 49.0035 294.885 49.0828 295.072 49.2244C295.259 49.3717 295.219 49.5473 294.965 49.6776L282.598 55.7728C282.545 55.7954 282.491 55.8181 282.438 55.8351C282.13 55.988 281.809 56.1013 281.448 56.1806C280.873 56.3166 280.232 56.3845 279.536 56.3845ZM274.844 51.1164C273.212 51.5016 273.146 52.8215 274.696 54.011C275.699 54.7814 277.223 55.3649 278.694 55.5462C279.189 55.6085 279.911 55.6481 280.566 55.4952C280.766 55.4499 280.954 55.3762 281.154 55.2629C281.221 55.229 281.288 55.2006 281.368 55.178L291.917 49.9778L275.672 51.0201C275.405 51.0314 274.977 51.0824 274.844 51.1164Z" fill="#0E9D57"/>
<path d="M281.528 52.4024C283.36 53.8015 283.119 55.3367 281.007 55.8352C278.894 56.328 275.699 55.5972 273.881 54.1981C272.049 52.7989 272.29 51.2638 274.402 50.7653C276.501 50.2724 279.696 51.0032 281.528 52.4024Z" fill="#0E9D57"/>
<path d="M279.536 56.3846C279.095 56.3846 278.627 56.3563 278.159 56.2997C276.207 56.0617 274.295 55.348 273.052 54.3907C270.94 52.7762 271.327 51.0315 273.934 50.4197C275.245 50.1138 276.876 50.1478 278.507 50.5273C280.004 50.8729 281.368 51.4733 282.344 52.2154C284.456 53.8299 284.069 55.5746 281.462 56.1864C280.873 56.3167 280.232 56.3846 279.536 56.3846ZM275.86 51.0088C275.485 51.0088 275.138 51.0428 274.844 51.1165C273.212 51.496 273.146 52.8215 274.683 54.0111C275.686 54.7815 277.21 55.365 278.681 55.5463C279.175 55.6086 279.897 55.6482 280.552 55.4953C282.184 55.1157 282.25 53.7902 280.713 52.6006C279.911 51.9888 278.814 51.5017 277.624 51.2298C276.996 51.0825 276.394 51.0088 275.86 51.0088Z" fill="#0E9D57"/>
<path d="M139.849 17.8307L149.649 17.5418L155.131 20.9916L150.839 24.7303L141.039 25.0192L135.544 21.5694L139.849 17.8307Z" fill="#0E9D57"/>
<path d="M141.039 25.4157C140.732 25.4157 140.437 25.3477 140.264 25.2401L134.769 21.7903C134.581 21.6714 134.555 21.5241 134.702 21.3938L139.007 17.6551C139.154 17.5248 139.448 17.4455 139.782 17.4342L149.582 17.1453C149.93 17.1339 150.237 17.2019 150.425 17.3209L155.92 20.7707C156.107 20.8896 156.134 21.0369 155.986 21.1672L151.681 24.9059C151.534 25.0362 151.24 25.1155 150.906 25.1268L141.106 25.4157C141.079 25.4157 141.066 25.4157 141.039 25.4157ZM136.627 21.5354L141.52 24.6057L150.237 24.3451L154.075 21.0143L149.181 17.944L140.464 18.2046L136.627 21.5354Z" fill="#0E9D57"/>
<path d="M145.343 21.677C145.036 21.677 144.742 21.609 144.568 21.5014L139.073 18.0516C138.779 17.8703 138.899 17.6211 139.327 17.5021C139.755 17.3832 140.343 17.4285 140.624 17.6097L145.811 20.8669L155.063 20.595C155.585 20.578 156.026 20.7423 156.066 20.9632C156.106 21.1842 155.718 21.3711 155.197 21.3881L145.397 21.677C145.383 21.677 145.357 21.677 145.343 21.677Z" fill="#0E9D57"/>
<path d="M141.039 25.4157C140.906 25.4157 140.759 25.4044 140.625 25.3761C140.157 25.2798 139.97 25.0418 140.197 24.8436L144.502 21.1049C144.729 20.9066 145.291 20.8273 145.759 20.9236C146.227 21.0199 146.414 21.2578 146.187 21.4561L141.882 25.1948C141.721 25.3364 141.387 25.4157 141.039 25.4157Z" fill="#0E9D57"/>
<path d="M39.8176 39.2829L39.7909 39.2716C39.7374 39.3339 39.6705 39.3905 39.5903 39.4472C39.4834 39.5208 39.3764 39.5945 39.2293 39.6568C39.109 39.7078 38.9085 39.7644 38.7347 39.8097C38.6544 39.8324 38.5742 39.8551 38.4806 39.872C38.4004 39.889 38.3336 39.906 38.3336 39.906L37.9325 39.9514C37.8656 39.957 37.8121 39.9683 37.7319 39.974L26.6885 41.2316L29.7635 36.5639C29.7769 36.5355 29.8036 36.5072 29.817 36.4789L29.924 36.309L29.9507 36.3203C30.0042 36.258 30.071 36.2013 30.1513 36.1447C30.2582 36.071 30.3652 35.9974 30.5122 35.9351C30.6326 35.8841 30.8331 35.8275 31.0069 35.7821C31.0871 35.7595 31.1674 35.7368 31.2609 35.7198C31.3545 35.7028 31.4214 35.6915 31.4214 35.6915L31.8225 35.6462C31.8893 35.6405 31.9428 35.6292 32.0097 35.6235L43.0531 34.366L39.978 39.0337C39.9647 39.062 39.9379 39.0903 39.9246 39.1186L39.8176 39.2829Z" fill="#0E9D57"/>
<path d="M26.6882 41.6281C26.4476 41.6281 26.2069 41.5884 26.0198 41.5091C25.7791 41.4071 25.6989 41.2599 25.7791 41.1239L28.8542 36.4562C28.8542 36.4505 28.8943 36.3996 28.8943 36.3939L29.0146 36.2013C29.0547 36.1503 29.1082 36.105 29.175 36.0653C29.2285 36.02 29.282 35.9804 29.3355 35.9407C29.4692 35.8388 29.6296 35.7481 29.8034 35.6688C29.8168 35.6631 29.8301 35.6575 29.8301 35.6518C29.9906 35.5838 30.2045 35.5215 30.4986 35.4422C30.6457 35.4026 30.7393 35.3799 30.8329 35.3629L30.9265 35.3403C30.9933 35.3233 31.0602 35.3119 31.127 35.3063L31.5281 35.261C31.6484 35.244 31.7153 35.2383 31.7955 35.2326L42.7587 33.9807C43.0796 33.9467 43.4272 33.9864 43.6679 34.0827C43.9085 34.1847 43.9888 34.3319 43.9085 34.4679L40.8335 39.1356C40.8335 39.1413 40.7934 39.1923 40.7934 39.1979L40.6597 39.3905C40.6196 39.4415 40.5661 39.4868 40.4992 39.5265C40.4458 39.5718 40.3923 39.6114 40.3388 39.6511C40.2051 39.7531 40.0447 39.8437 39.8709 39.9173C39.8575 39.923 39.8441 39.9287 39.8308 39.9343C39.6703 39.9966 39.4698 40.0646 39.1623 40.1439C39.0152 40.1836 38.9216 40.2062 38.828 40.2289L38.7745 40.2572C38.7077 40.2742 38.6408 40.2855 38.574 40.2912L38.1729 40.3365C38.0526 40.3535 37.9857 40.3592 37.9055 40.3648L26.9423 41.6167C26.8621 41.6224 26.7818 41.6281 26.6882 41.6281ZM30.5387 36.6318L30.6858 36.6488L28.0386 40.6707L37.491 39.5944L37.9322 39.957L37.6916 39.5718L38.1729 39.4925C38.4269 39.4245 38.5339 39.3962 38.5606 39.3848L38.574 39.3792C38.6408 39.3509 38.7077 39.3112 38.7879 39.2546C38.8548 39.2092 38.8949 39.1696 38.935 39.1299C38.9483 39.1129 38.9617 39.1016 38.9885 39.0846L39.0419 39.011L39.1088 39.0166C39.1489 38.9997 39.1756 38.9827 39.2157 38.9713L39.0687 38.9543L41.7159 34.9324L31.5816 36.105C31.3142 36.173 31.2206 36.207 31.1939 36.2183L31.1805 36.224C31.1136 36.2523 31.0468 36.2919 30.9666 36.3486C30.8997 36.3939 30.8596 36.4335 30.8195 36.4732C30.8061 36.4902 30.7928 36.5015 30.766 36.5185L30.7126 36.5922L30.6457 36.5865C30.619 36.6035 30.5789 36.6205 30.5387 36.6318Z" fill="#0E9D57"/>
<path d="M39.2289 40.059C38.9882 40.059 38.7476 40.0193 38.5604 39.94C38.1994 39.7871 38.1994 39.5321 38.5604 39.3792C39.2556 39.0846 39.1487 38.6201 39.015 38.3652C38.761 37.8667 38.0524 37.3456 37.0095 36.8981C35.9667 36.4562 34.75 36.1447 33.5735 36.037C32.9718 35.9804 31.8755 35.9294 31.1803 36.224C30.8059 36.3769 30.2177 36.3769 29.8567 36.224C29.4957 36.071 29.4957 35.8161 29.8567 35.6632C30.846 35.2496 32.3033 35.108 33.9879 35.2666C35.5121 35.4139 37.063 35.7934 38.3465 36.3429C39.63 36.8924 40.5258 37.5552 40.8466 38.2009C41.2076 38.9147 40.86 39.5321 39.8706 39.9457C39.6968 40.0193 39.4696 40.059 39.2289 40.059Z" fill="#0E9D57"/>
<path d="M236.272 26.4354L223.945 32.1737L231.325 32.5023L227.916 36.5299L240.203 30.8821L232.983 30.5649L236.272 26.4354Z" fill="#0E9D57"/>
<path d="M227.916 36.9264C227.755 36.9264 227.582 36.9094 227.435 36.8697C227.047 36.7734 226.886 36.5752 227.033 36.3996L230.042 32.8478L223.851 32.5702C223.504 32.5532 223.196 32.4569 223.076 32.3153C222.956 32.1737 223.023 32.0208 223.263 31.9075L235.59 26.1691C235.884 26.0275 236.379 25.9992 236.753 26.0955C237.141 26.1918 237.315 26.3844 237.168 26.5657L234.253 30.225L240.31 30.497C240.657 30.5139 240.965 30.6102 241.085 30.7519C241.205 30.8935 241.139 31.0521 240.898 31.1597L228.611 36.8018C228.424 36.8811 228.17 36.9264 227.916 36.9264ZM225.884 31.8621L231.419 32.1114C231.7 32.1227 231.967 32.1907 232.114 32.2927C232.261 32.3946 232.301 32.5249 232.208 32.6382L230.363 34.8248L238.264 31.1937L232.903 30.9558C232.622 30.9445 232.368 30.8765 232.208 30.7745C232.047 30.6726 232.02 30.5479 232.114 30.4346L233.972 28.1008L225.884 31.8621Z" fill="#0E9D57"/>
<path d="M119.22 99.0058C119.22 99.0058 116.171 98.2297 111.746 97.1478C107.133 96.0205 106.906 94.2531 108.925 93.2391C111.184 92.0949 114.661 92.5141 116.907 93.4147C118.311 92.2422 121.239 91.3528 124.273 92.1062C126.988 92.7746 128.191 94.4684 124.755 96.1905C121.466 97.8389 119.22 99.0058 119.22 99.0058Z" fill="#0E9D57"/>
<path d="M119.219 99.4023C119.059 99.4023 118.885 99.3853 118.738 99.3457C118.711 99.34 115.649 98.5583 111.291 97.4933C108.844 96.8985 107.28 96.0545 106.892 95.1142C106.571 94.3494 107.052 93.5734 108.229 92.9842C109.232 92.4744 110.542 92.1912 112.013 92.1515C113.55 92.1119 115.208 92.3498 116.679 92.8086C117.695 92.1685 119.059 91.704 120.543 91.5227C121.96 91.3471 123.417 91.4264 124.767 91.7607C126.332 92.1459 127.415 92.8086 127.722 93.5734C128.097 94.5137 127.308 95.5277 125.476 96.4454C122.214 98.0711 119.968 99.2437 119.941 99.2551C119.767 99.3513 119.486 99.4023 119.219 99.4023ZM112.32 92.9446C112.253 92.9446 112.173 92.9446 112.106 92.9446C111.144 92.9672 110.315 93.1542 109.646 93.494C108.831 93.9019 108.496 94.4457 108.724 94.9782C109.018 95.6806 110.261 96.3264 112.213 96.8079C115.382 97.5783 117.855 98.2014 119.005 98.4903C119.847 98.0541 121.692 97.1081 124.045 95.9299C125.503 95.1991 126.158 94.4117 125.864 93.7093C125.65 93.1768 124.901 92.718 123.805 92.4461C122.896 92.2195 121.973 92.1685 121.051 92.2818C119.767 92.4404 118.537 92.9333 117.748 93.5904C117.615 93.7036 117.361 93.7773 117.08 93.7999C116.786 93.8226 116.492 93.7829 116.278 93.698C115.061 93.2221 113.604 92.9446 112.32 92.9446Z" fill="#0E9D57"/>
<path d="M18.0898 22.81C18.0095 22.81 17.916 22.8043 17.8224 22.793C17.3277 22.7307 17.0335 22.5097 17.1806 22.3001C17.4079 21.9716 17.3143 21.6317 16.9266 21.3315C16.5389 21.0312 15.8971 20.816 15.135 20.7254C14.3596 20.6291 13.5574 20.6687 12.8488 20.833C12.1402 20.9973 11.6322 21.2692 11.4182 21.5921C11.2712 21.8016 10.7498 21.9263 10.2551 21.864C9.76039 21.8016 9.47962 21.5807 9.61332 21.3711C9.9743 20.8386 10.8032 20.4025 11.9397 20.1362C13.0761 19.87 14.3997 19.8077 15.6431 19.9606C16.8999 20.1136 17.9293 20.4648 18.5577 20.9463C19.1861 21.4278 19.3332 21.9886 18.9722 22.5154C18.8652 22.6967 18.4909 22.81 18.0898 22.81Z" fill="#0E9D57"/>
<path d="M17.7301 26.2371C17.6499 26.2371 17.5563 26.2314 17.4628 26.2201C14.7621 25.8859 12.4625 25.2345 10.9784 24.3791C9.40077 23.4614 8.90609 22.3964 9.60132 21.3768C9.74838 21.1672 10.2698 21.0426 10.7645 21.1049C11.2592 21.1672 11.5533 21.3881 11.4062 21.5977C10.7244 22.5947 11.6202 23.4104 12.4892 23.9146C13.7326 24.6283 15.6712 25.1778 17.9842 25.461C18.4789 25.5234 18.773 25.7443 18.6259 25.9539C18.519 26.1238 18.1446 26.2371 17.7301 26.2371Z" fill="#0E9D57"/>
<path d="M10.0019 25.0759C8.78526 25.0759 7.51513 25.0022 6.23163 24.8436C5.73695 24.7813 5.45618 24.5604 5.58988 24.3508C5.73695 24.1412 6.25837 24.0166 6.75305 24.0789C11.6063 24.6737 16.0852 23.9089 17.1815 22.3058C17.3286 22.0962 17.85 21.9773 18.3447 22.0339C18.8393 22.0962 19.1335 22.3172 18.9864 22.5267C17.8901 24.1185 14.3204 25.0759 10.0019 25.0759Z" fill="#0E9D57"/>
<path d="M6.49869 24.8549C6.41847 24.8549 6.32488 24.8492 6.2313 24.8379C4.89432 24.6736 3.63756 24.4074 2.52787 24.0505C2.1134 23.9202 2.03318 23.671 2.34069 23.4954C2.64819 23.3198 3.23646 23.2858 3.65093 23.4161C4.58681 23.7163 5.62966 23.9372 6.75272 24.0732C7.2474 24.1355 7.54154 24.3564 7.39447 24.566C7.27414 24.7416 6.89979 24.8549 6.49869 24.8549Z" fill="#0E9D57"/>
<path d="M29.3212 24.1922C29.241 24.1922 29.1474 24.1865 29.0538 24.1752C28.5591 24.1129 28.2784 23.8919 28.4121 23.6823C28.6393 23.3538 28.5458 23.0139 28.158 22.7137C27.7703 22.4135 27.1286 22.1982 26.3665 22.1076C25.591 22.0113 24.7889 22.0509 24.0803 22.2152C23.3717 22.3795 22.8636 22.6514 22.6497 22.9743C22.5026 23.1838 21.9812 23.3085 21.4865 23.2462C20.9918 23.1838 20.7111 22.9629 20.8448 22.7533C21.2057 22.2209 22.0347 21.7847 23.1711 21.5184C24.3075 21.2522 25.6311 21.1899 26.8745 21.3428C28.1313 21.4958 29.1608 21.847 29.7892 22.3285C30.4175 22.81 30.5646 23.3708 30.2036 23.8976C30.11 24.0789 29.7357 24.1922 29.3212 24.1922Z" fill="#0E9D57"/>
<path d="M28.9739 27.6136C28.8803 27.6136 28.8001 27.608 28.7065 27.5966C22.8372 26.8772 19.4546 24.7926 20.8585 22.7533C21.0055 22.5437 21.5269 22.4248 22.0216 22.4814C22.5163 22.5437 22.7971 22.7647 22.6634 22.9743C21.5671 24.583 24.3881 26.2428 29.2413 26.8376C29.736 26.8999 30.0168 27.1208 29.8831 27.3304C29.7494 27.5004 29.375 27.6136 28.9739 27.6136Z" fill="#0E9D57"/>
<path d="M21.179 26.4467C19.9624 26.4467 18.7056 26.3731 17.4756 26.2201C16.9809 26.1578 16.6868 25.9369 16.8339 25.7273C16.9809 25.5177 17.5024 25.3988 17.997 25.4554C20.2966 25.7386 22.6363 25.716 24.5883 25.3931C25.9654 25.1665 27.7436 24.6793 28.4255 23.6824C28.5725 23.4728 29.094 23.3538 29.5886 23.4104C30.0833 23.4728 30.3641 23.6937 30.2304 23.9033C29.5352 24.9229 27.7703 25.716 25.2836 26.1295C24.0134 26.3391 22.623 26.4467 21.179 26.4467Z" fill="#0E9D57"/>
<path d="M31.8752 27.7892C30.8056 27.7892 29.7494 27.7269 28.7199 27.5966C28.2252 27.5343 27.9445 27.3134 28.0782 27.1038C28.2252 26.8942 28.7333 26.7696 29.2413 26.8319C30.3644 26.9678 31.5276 27.0188 32.6907 26.9735C33.1988 26.9565 33.6534 27.1151 33.7068 27.336C33.747 27.557 33.3726 27.7439 32.8512 27.7666C32.5169 27.7835 32.1961 27.7892 31.8752 27.7892Z" fill="#0E9D57"/>
<path d="M8.27699 78.7091C6.76621 78.7091 5.24205 78.5335 3.87833 78.171C0.0010959 77.14 -1.16208 74.9648 1.27123 73.3277C3.70453 71.6849 8.82516 71.1864 12.7024 72.2231C16.5796 73.254 17.7428 75.4293 15.3095 77.0664C13.7452 78.1257 11.0445 78.7091 8.27699 78.7091ZM8.30373 72.478C6.16457 72.478 4.07888 72.9312 2.86223 73.7525C0.977091 75.0214 1.88624 76.7038 4.88107 77.5026C6.33838 77.8878 8.04971 78.0124 9.72093 77.8538C11.3922 77.6895 12.8227 77.2646 13.7319 76.6472C15.617 75.3783 14.7079 73.6959 11.713 72.8972C10.6434 72.6139 9.46691 72.478 8.30373 72.478Z" fill="#0E9D57"/>
<path d="M348.365 95.9015C348.097 95.9015 347.843 95.8505 347.656 95.7655C347.442 95.6636 347.375 95.5163 347.469 95.386L351.226 90.2934C351.333 90.1518 351.614 90.0442 351.961 90.0215L364.382 89.1435C364.703 89.1208 365.024 89.1718 365.237 89.2738C365.451 89.3757 365.518 89.523 365.425 89.6533L361.668 94.7459C361.561 94.8875 361.28 94.9951 360.932 95.0178L348.512 95.8958C348.458 95.9015 348.418 95.9015 348.365 95.9015ZM352.844 90.7636L349.715 95.0065L360.063 94.2757L363.192 90.0329L352.844 90.7636Z" fill="#0E9D57"/>
<path d="M364.207 61.4432L345.997 57.6082C344.727 57.3419 344.486 56.4412 345.476 55.5972C346.465 54.7531 348.297 54.2886 349.58 54.5549L367.79 58.3899C369.06 58.6561 369.301 59.5568 368.311 60.4009C367.309 61.2449 365.477 61.7151 364.207 61.4432Z" fill="#0E9D57"/>
<path d="M364.996 61.9191C364.568 61.9191 364.167 61.8794 363.792 61.8001L345.583 57.9651C344.687 57.7782 344.099 57.376 343.965 56.8605C343.845 56.4073 344.085 55.8918 344.647 55.4216C345.208 54.9458 346.024 54.555 346.946 54.3227C347.989 54.0565 349.099 54.0168 349.995 54.2037L368.204 58.0387C369.1 58.2257 369.688 58.6279 369.822 59.1434C369.942 59.5965 369.702 60.112 369.14 60.5822C368.418 61.1996 367.255 61.6698 366.025 61.8454C365.677 61.8907 365.33 61.9191 364.996 61.9191ZM348.791 54.8778C348.524 54.8778 348.216 54.9175 347.909 55.0025C347.294 55.1611 346.719 55.4386 346.318 55.7785C345.93 56.1127 345.743 56.4809 345.823 56.7812C345.89 57.0191 346.104 57.1947 346.412 57.257L364.621 61.092C364.835 61.1373 365.116 61.1373 365.423 61.092C366.185 60.9844 366.961 60.6558 367.456 60.231C367.843 59.8968 368.03 59.5286 367.95 59.2283C367.897 58.9904 367.669 58.8148 367.362 58.7525L349.152 54.9175C349.059 54.8892 348.925 54.8778 348.791 54.8778Z" fill="#0E9D57"/>
<path d="M345.489 55.5972C346.478 54.7531 348.31 54.2886 349.593 54.5549C350.863 54.8211 351.104 55.7218 350.115 56.5659C349.125 57.4099 347.294 57.8744 346.01 57.6082C344.727 57.3419 344.499 56.4412 345.489 55.5972Z" fill="#0E9D57"/>
<path d="M346.786 58.0783C346.371 58.0783 345.97 58.0387 345.583 57.9594C344.687 57.7724 344.099 57.3702 343.965 56.8548C343.845 56.4016 344.085 55.8861 344.647 55.4159C345.89 54.3623 348.243 53.8241 349.995 54.198C351.759 54.5719 352.174 55.6878 350.931 56.7415C349.968 57.5742 348.297 58.0783 346.786 58.0783ZM348.805 54.8778C348.069 54.8778 346.986 55.2063 346.331 55.7728C345.944 56.107 345.756 56.4752 345.837 56.7755C345.903 57.0134 346.117 57.189 346.425 57.2513C347.12 57.3986 348.484 57.0587 349.273 56.3903C350.061 55.7218 349.874 55.0534 349.179 54.9118C349.059 54.8891 348.938 54.8778 348.805 54.8778Z" fill="#0E9D57"/>
<path d="M359.18 22.793C359.1 22.793 359.006 22.7873 358.926 22.776C358.432 22.7137 358.137 22.4928 358.285 22.2832C358.752 21.5977 357.817 20.8783 356.199 20.6801C354.581 20.4818 352.883 20.8783 352.415 21.5638C352.268 21.7733 351.76 21.8923 351.252 21.8357C350.757 21.7733 350.463 21.5524 350.61 21.3428C351.372 20.2382 354.113 19.5981 356.72 19.921C359.327 20.2439 360.838 21.3995 360.076 22.5098C359.956 22.6797 359.581 22.793 359.18 22.793Z" fill="#0E9D57"/>
<path d="M358.819 26.2597C358.739 26.2597 358.645 26.2541 358.552 26.2427C355.824 25.9085 353.484 25.2458 351.987 24.3791C350.383 23.4501 349.888 22.3738 350.597 21.3371C350.744 21.1275 351.252 21.0029 351.76 21.0652C352.254 21.1275 352.535 21.3485 352.402 21.558C351.706 22.572 352.615 23.3991 353.498 23.9089C354.755 24.634 356.733 25.1948 359.073 25.478C359.568 25.5403 359.862 25.7612 359.715 25.9708C359.594 26.1521 359.22 26.2597 358.819 26.2597Z" fill="#0E9D57"/>
<path d="M350.984 25.0872C349.754 25.0872 348.471 25.0079 347.16 24.8493C346.666 24.787 346.385 24.566 346.519 24.3564C346.666 24.1469 347.174 24.0222 347.682 24.0845C352.602 24.6907 357.148 23.9146 358.271 22.2832C358.418 22.0736 358.926 21.949 359.434 22.0113C359.928 22.0736 360.223 22.2945 360.076 22.5041C358.966 24.1185 355.343 25.0872 350.984 25.0872Z" fill="#0E9D57"/>
<path d="M347.429 24.8662C347.349 24.8662 347.255 24.8606 347.162 24.8492C345.811 24.685 344.541 24.4131 343.405 24.0505C342.99 23.9202 342.91 23.671 343.218 23.4954C343.525 23.3198 344.113 23.2858 344.528 23.4161C345.477 23.722 346.533 23.9429 347.67 24.0845C348.164 24.1468 348.445 24.3677 348.312 24.5773C348.205 24.7529 347.83 24.8662 347.429 24.8662Z" fill="#0E9D57"/>
<path d="M370.571 24.1922C370.491 24.1922 370.397 24.1865 370.303 24.1752C369.809 24.1129 369.528 23.8919 369.662 23.6823C370.13 22.9969 369.194 22.2775 367.576 22.0792C365.958 21.881 364.26 22.2775 363.792 22.9629C363.645 23.1725 363.137 23.2971 362.629 23.2348C362.134 23.1725 361.854 22.9516 361.987 22.742C362.736 21.6374 365.49 20.9973 368.084 21.3202C369.354 21.4731 370.397 21.83 371.025 22.3171C371.654 22.8043 371.801 23.3708 371.44 23.9033C371.346 24.0789 370.972 24.1922 370.571 24.1922Z" fill="#0E9D57"/>
<path d="M370.212 27.659C370.131 27.659 370.038 27.6533 369.944 27.642C367.217 27.3078 364.877 26.645 363.38 25.7783C361.775 24.8493 361.281 23.773 361.989 22.7364C362.136 22.5268 362.644 22.4021 363.152 22.4644C363.647 22.5268 363.928 22.7477 363.794 22.9573C363.099 23.9713 364.008 24.7983 364.89 25.3081C366.147 26.0332 368.126 26.594 370.466 26.8772C370.96 26.9396 371.241 27.1605 371.107 27.3701C370.987 27.5457 370.613 27.659 370.212 27.659Z" fill="#0E9D57"/>
<path d="M362.31 26.475C361.08 26.475 359.81 26.3957 358.553 26.2428C358.058 26.1805 357.777 25.9595 357.911 25.7499C358.058 25.5403 358.566 25.4157 359.074 25.478C361.414 25.7669 363.794 25.7443 365.759 25.4157C367.15 25.1835 368.968 24.6963 369.65 23.6767C369.797 23.4671 370.318 23.3424 370.813 23.4048C371.308 23.4671 371.602 23.688 371.455 23.8976C370.746 24.9286 368.968 25.7329 366.441 26.1521C365.184 26.3731 363.767 26.475 362.31 26.475Z" fill="#0E9D57"/>
<path d="M373.152 27.8402C372.069 27.8402 370.999 27.7779 369.956 27.6476C369.462 27.5853 369.181 27.3643 369.314 27.1548C369.462 26.9452 369.97 26.8205 370.478 26.8828C371.614 27.0245 372.791 27.0754 373.981 27.0301C374.489 27.0131 374.943 27.1717 374.997 27.3927C375.037 27.6136 374.662 27.8005 374.141 27.8232C373.807 27.8345 373.472 27.8402 373.152 27.8402Z" fill="#0E9D57"/>
<path d="M349.367 78.5392C347.937 78.5392 346.48 78.375 345.183 78.0294C341.506 77.0494 340.383 74.9818 342.696 73.4184C345.009 71.8549 349.889 71.3847 353.579 72.3647C357.269 73.3447 358.379 75.4123 356.066 76.9758C354.568 77.9841 351.988 78.5392 349.367 78.5392ZM346.172 77.3553C348.98 78.1031 352.71 77.7405 354.475 76.5509C355.33 75.9731 355.598 75.2877 355.25 74.6249C354.889 73.9622 353.94 73.3957 352.576 73.0332C351.212 72.6706 349.595 72.5573 348.03 72.7046C346.466 72.8576 345.129 73.2598 344.274 73.8376C342.509 75.0328 343.364 76.6076 346.172 77.3553Z" fill="#0E9D57"/>
<path d="M44.3621 16.7374C44.3086 16.7374 44.2551 16.7374 44.2016 16.7317C40.3912 16.4542 37.0622 15.5648 34.8294 14.2279C32.5966 12.8911 31.7276 11.2653 32.3827 9.6452C32.4763 9.42994 32.9576 9.28266 33.4657 9.32231C33.9737 9.36197 34.3214 9.5659 34.2278 9.78115C33.6529 11.186 34.4149 12.6022 36.3669 13.7691C38.3189 14.936 41.2068 15.7064 44.5359 15.95C45.0439 15.9897 45.3915 16.1936 45.2979 16.4088C45.2044 16.6014 44.8033 16.7374 44.3621 16.7374Z" fill="#0E9D57"/>
<path d="M276.77 7.87216C276.382 7.87216 276.008 7.76453 275.887 7.60026C275.727 7.39066 275.994 7.16974 276.475 7.0961C278.414 6.82419 279.978 6.2464 280.887 5.476C281.797 4.7056 281.944 3.82757 281.302 3.00619C280.66 2.18481 279.296 1.52204 277.478 1.13684C275.66 0.751642 273.588 0.68933 271.649 0.961236C271.154 1.02921 270.633 0.915918 270.472 0.711989C270.312 0.502395 270.579 0.281472 271.061 0.207831C273.467 -0.13205 276.048 -0.0527447 278.32 0.428754C280.593 0.910253 282.278 1.7373 283.08 2.75694C283.882 3.77659 283.695 4.86987 282.559 5.83287C281.422 6.79587 279.47 7.50962 277.064 7.8495C276.97 7.8665 276.863 7.87216 276.77 7.87216Z" fill="#0E9D57"/>
<path d="M142.108 8.40469C141.868 8.40469 141.641 8.36503 141.453 8.29139C141.079 8.13844 141.079 7.8892 141.44 7.73059L155.665 1.52208C156.026 1.36347 156.615 1.36347 156.989 1.51642C157.363 1.66936 157.363 1.91861 157.002 2.07722L142.777 8.28573C142.603 8.35937 142.349 8.40469 142.108 8.40469Z" fill="#0E9D57"/>
<path d="M61.4479 107.763C61.2875 107.61 61.1805 107.276 61.1805 107.276L59.79 99.2663L73.1732 104.954L73.1465 104.959C73.4406 105.073 73.708 105.203 73.8684 105.356C74.8712 106.285 72.9058 107.582 69.4698 108.245C66.0471 108.908 62.4506 108.692 61.4479 107.763Z" fill="#0E9D57"/>
<path d="M65.526 109.032C63.2531 109.032 61.368 108.647 60.5926 107.928C60.3786 107.735 60.2717 107.418 60.2449 107.327L58.8411 99.3003C58.8144 99.136 59.0283 98.9774 59.3893 98.9095C59.7503 98.8415 60.1647 98.8755 60.4455 98.9888L73.8286 104.676C73.8821 104.699 73.9222 104.721 73.9623 104.75C74.2966 104.891 74.5372 105.039 74.7111 105.192C75.9544 106.336 73.8153 107.837 69.8578 108.607C68.3871 108.891 66.8897 109.032 65.526 109.032ZM62.3039 107.599C63.0793 108.319 66.1811 108.449 69.0957 107.882C71.997 107.322 73.8019 106.24 73.0265 105.52C72.9329 105.435 72.7724 105.35 72.5184 105.254C72.4516 105.226 72.3847 105.192 72.3312 105.158L60.9001 100.303L62.1167 107.248C62.1568 107.356 62.237 107.542 62.3039 107.599Z" fill="#0E9D57"/>
<path d="M65.847 104.874C69.283 104.212 72.8661 104.427 73.8822 105.356C74.8849 106.285 72.9196 107.576 69.4836 108.245C66.0475 108.908 62.4644 108.692 61.4483 107.763C60.4456 106.834 62.4109 105.537 65.847 104.874Z" fill="#0E9D57"/>
<path d="M65.5391 109.027C65.1648 109.027 64.7904 109.015 64.4294 108.993C62.5844 108.885 61.234 108.505 60.6057 107.928C59.9773 107.35 60.1912 106.67 61.2073 106.002C62.1298 105.396 63.6406 104.863 65.4589 104.512C69.4163 103.747 73.4941 104.042 74.7241 105.192C75.3525 105.769 75.1386 106.449 74.1225 107.118C73.2 107.724 71.6892 108.256 69.8709 108.607C68.4403 108.879 66.9429 109.027 65.5391 109.027ZM69.8041 104.886C68.7077 104.886 67.451 104.999 66.2343 105.237C64.7369 105.526 63.5069 105.951 62.7716 106.438C62.1164 106.868 61.956 107.282 62.3036 107.605C62.6512 107.928 63.4935 108.143 64.6834 108.217C66.0204 108.296 67.5847 108.183 69.0821 107.888C70.5795 107.599 71.8095 107.174 72.5449 106.687C73.2 106.262 73.3604 105.849 73.0128 105.526C72.5716 105.107 71.3282 104.886 69.8041 104.886Z" fill="#0E9D57"/>
<path d="M325.341 106.155C325.034 106.155 324.726 106.087 324.553 105.968L313.496 98.5752C313.215 98.3882 313.349 98.1447 313.79 98.0257C314.231 97.9067 314.806 97.9634 315.087 98.1503L326.144 105.543C326.424 105.73 326.291 105.973 325.849 106.092C325.689 106.138 325.515 106.155 325.341 106.155Z" fill="#0E9D57"/>
<path d="M276.756 104.467C276.369 104.467 275.994 104.359 275.874 104.195C275.713 103.985 275.981 103.764 276.462 103.696C280.767 103.09 283.107 101.107 281.676 99.2833C280.981 98.3996 279.51 97.6802 277.545 97.2667C275.58 96.8475 273.347 96.7795 271.261 97.0741C270.767 97.1421 270.245 97.0288 270.085 96.8249C269.924 96.6153 270.192 96.3943 270.673 96.3264C273.227 95.9638 275.967 96.0488 278.387 96.5586C280.807 97.0684 282.599 97.9521 283.455 99.0341C284.31 100.122 284.11 101.277 282.906 102.303C281.703 103.328 279.617 104.087 277.064 104.45C276.957 104.461 276.85 104.467 276.756 104.467Z" fill="#0E9D57"/>
<path d="M142.081 104.761C141.84 104.761 141.613 104.721 141.426 104.648C141.052 104.495 141.052 104.246 141.413 104.087L155.692 97.8558C156.053 97.6972 156.641 97.6916 157.015 97.8502C157.39 98.0031 157.39 98.2524 157.029 98.411L142.75 104.642C142.562 104.721 142.322 104.761 142.081 104.761Z" fill="#0E9D57"/>
<path d="M195.854 17.3039C195.587 17.3039 195.333 17.2586 195.146 17.1623L192.138 15.6612C191.803 15.4969 191.857 15.242 192.245 15.1004C192.646 14.9587 193.234 14.9814 193.568 15.1457L196.576 16.6468C196.911 16.8111 196.857 17.066 196.469 17.2076C196.282 17.2699 196.068 17.3039 195.854 17.3039Z" fill="#0E9D57"/>
<path d="M185.895 12.336C185.628 12.336 185.374 12.2907 185.187 12.1944L182.179 10.6932C181.844 10.5289 181.898 10.274 182.286 10.1324C182.673 9.99079 183.275 10.0134 183.609 10.1777L186.617 11.6789C186.952 11.8431 186.898 12.0981 186.51 12.2397C186.323 12.3076 186.109 12.336 185.895 12.336Z" fill="#0E9D57"/>
<path d="M186.001 18.063C185.894 18.063 185.787 18.0573 185.68 18.0403C185.198 17.9667 184.944 17.7401 185.118 17.5361L186.683 15.6838C186.856 15.4799 187.391 15.3722 187.872 15.4459C188.354 15.5195 188.608 15.7461 188.434 15.95L186.87 17.8024C186.749 17.9667 186.388 18.063 186.001 18.063Z" fill="#0E9D57"/>
<path d="M191.175 11.9281C191.069 11.9281 190.962 11.9224 190.855 11.9054C190.373 11.8318 190.119 11.6052 190.293 11.4013L191.857 9.5489C192.031 9.34497 192.566 9.23735 193.047 9.31099C193.529 9.38463 193.783 9.61122 193.609 9.81514L192.044 11.6675C191.911 11.8261 191.55 11.9281 191.175 11.9281Z" fill="#0E9D57"/>
<path d="M179.518 14.8341C179.077 14.8341 178.676 14.6982 178.596 14.5112C178.502 14.296 178.836 14.0864 179.344 14.0524L183.917 13.7012C184.425 13.6615 184.92 13.8031 185 14.0184C185.093 14.2337 184.759 14.4432 184.251 14.4772L179.679 14.8284C179.625 14.8284 179.572 14.8341 179.518 14.8341Z" fill="#0E9D57"/>
<path d="M194.653 13.6615C194.212 13.6615 193.811 13.5256 193.73 13.3386C193.637 13.1234 193.971 12.9138 194.479 12.8798L199.052 12.5286C199.56 12.4889 200.054 12.6305 200.135 12.8458C200.228 13.061 199.894 13.2706 199.386 13.3046L194.813 13.6558C194.76 13.6615 194.706 13.6615 194.653 13.6615Z" fill="#0E9D57"/>
<path d="M261.527 68.5354C261.193 68.5354 260.872 68.4617 260.698 68.3314L254.12 63.2276C253.866 63.035 254.04 62.797 254.495 62.6894C254.949 62.5818 255.511 62.6554 255.765 62.848L261.901 67.6007L273.119 65.0006C273.573 64.893 274.135 64.9666 274.389 65.1592C274.643 65.3518 274.469 65.5897 274.014 65.6974L261.968 68.4844C261.835 68.5184 261.674 68.5354 261.527 68.5354Z" fill="#0E9D57"/>
<path d="M226.659 96.3377C226.645 96.3377 226.645 96.3377 226.659 96.3377C226.137 96.3377 225.723 96.1564 225.723 95.9355L225.83 91.0129C225.83 90.8769 225.99 90.7523 226.257 90.6843C226.525 90.6107 226.859 90.605 227.153 90.656L235.549 92.2591L235.643 87.9426C235.643 87.7274 236.071 87.5518 236.579 87.5518C236.579 87.5518 236.579 87.5518 236.592 87.5518C237.114 87.5518 237.528 87.733 237.515 87.9539L237.408 92.8822C237.408 93.0182 237.247 93.1428 236.98 93.2108C236.713 93.2844 236.378 93.2958 236.084 93.2391L227.688 91.636L227.594 95.9525C227.581 96.1621 227.167 96.3377 226.659 96.3377Z" fill="#0E9D57"/>
<path d="M271.702 40.7387C271.489 40.7387 271.288 40.7104 271.114 40.6538L263.868 38.1953C263.467 38.0593 263.4 37.8101 263.721 37.6401C264.042 37.4702 264.63 37.4419 265.031 37.5778L271.542 39.7927L276.729 37.0454C276.89 36.9604 277.117 36.9094 277.358 36.8981C277.599 36.8867 277.853 36.9151 278.04 36.983L284.551 39.1979L289.738 36.4506C290.059 36.2806 290.647 36.2523 291.049 36.3882C291.45 36.5242 291.516 36.7734 291.196 36.9434L285.42 40.0023C285.259 40.0816 285.032 40.1383 284.791 40.1496C284.551 40.1609 284.297 40.1326 284.11 40.0646L277.599 37.8497L272.411 40.5971C272.251 40.6821 272.023 40.7331 271.783 40.7444C271.769 40.7387 271.729 40.7387 271.702 40.7387Z" fill="#0E9D57"/>
<path d="M279.63 84.4021C279.283 84.4021 278.962 84.3228 278.788 84.1812L274.911 80.9183L267.196 82.5611C266.728 82.6574 266.167 82.5781 265.939 82.3855L262.062 79.117L254.348 80.7597C253.88 80.856 253.318 80.7824 253.091 80.5841L249.214 77.3213L241.499 78.964C241.032 79.0603 240.47 78.9867 240.243 78.7884C240.015 78.5958 240.189 78.3522 240.657 78.2559L249.2 76.4319C249.655 76.3299 250.23 76.4092 250.457 76.6075L254.334 79.876L262.049 78.2333C262.503 78.1313 263.078 78.2106 263.306 78.4089L267.183 81.6717L274.897 80.029C275.365 79.927 275.913 80.0063 276.154 80.2046L280.459 83.8243C280.686 84.0169 280.513 84.2605 280.045 84.3568C279.924 84.3908 279.777 84.4021 279.63 84.4021Z" fill="#0E9D57"/>
<path d="M71.9296 90.3954C71.2076 90.3954 70.4856 90.3275 69.8038 90.1915C68.5871 89.9479 67.678 89.5231 67.21 88.9906C67.0362 88.7867 67.2903 88.5544 67.7716 88.4808C68.2529 88.4071 68.7877 88.5147 68.9749 88.7187C69.2556 89.0529 69.8305 89.3191 70.5926 89.4721C71.3547 89.625 72.2103 89.642 72.9992 89.5174C74.6303 89.2682 75.4726 88.5034 74.8843 87.8123C74.7105 87.6084 74.9645 87.3761 75.4458 87.3025C75.9271 87.2289 76.4619 87.3365 76.6491 87.5404C77.585 88.645 76.2347 89.8629 73.6409 90.2595C73.0794 90.3501 72.5045 90.3954 71.9296 90.3954Z" fill="#0E9D57"/>
<path d="M75.7683 88.0729C75.3806 88.0729 75.0196 87.9709 74.8859 87.8123C74.0169 86.7927 72.0916 86.3452 70.621 86.1412C68.5486 85.858 66.1153 85.9033 63.7756 86.2602C63.2943 86.3338 62.7595 86.2262 62.5723 86.0223C62.3985 85.8184 62.6526 85.5918 63.1339 85.5125C65.8613 85.0933 68.7225 85.048 71.1959 85.3822C73.8297 85.739 75.7683 86.5038 76.6507 87.5348C76.8245 87.7387 76.5705 87.9709 76.0892 88.0446C75.9822 88.0672 75.8753 88.0729 75.7683 88.0729Z" fill="#0E9D57"/>
<path d="M68.0932 89.2512C67.7054 89.2512 67.3445 89.1492 67.2108 88.9906C66.3284 87.9596 66.6626 86.8437 68.1467 85.858C69.5371 84.9347 71.81 84.1926 74.5374 83.7791C75.0187 83.7054 75.5535 83.8131 75.7407 84.017C75.9145 84.2209 75.6605 84.4532 75.1792 84.5268C72.8394 84.8837 70.9008 85.5125 69.7243 86.2885C68.8954 86.838 68.0932 87.7047 68.9622 88.7243C69.136 88.9283 68.882 89.1605 68.4007 89.2342C68.3071 89.2398 68.2001 89.2512 68.0932 89.2512Z" fill="#0E9D57"/>
<path d="M74.8581 84.5438C74.4704 84.5438 74.1094 84.4418 73.9757 84.2832C73.8019 84.0793 74.0559 83.8527 74.5372 83.7734C75.9009 83.5638 77.3315 83.4675 78.762 83.4788C79.2835 83.4845 79.6846 83.6657 79.6846 83.881C79.6712 84.1019 79.2567 84.2719 78.7353 84.2719C77.532 84.2605 76.3154 84.3455 75.1789 84.5211C75.072 84.5381 74.965 84.5438 74.8581 84.5438Z" fill="#0E9D57"/>
<path d="M60.5263 92.1401C59.8043 92.1401 59.0823 92.0721 58.4005 91.9362C57.1838 91.6926 56.2747 91.2678 55.8067 90.7353C55.6329 90.5313 55.8869 90.2991 56.3683 90.2255C56.8496 90.1518 57.3844 90.2594 57.5715 90.4634C57.8523 90.7976 58.4272 91.0638 59.1893 91.2168C59.9514 91.3697 60.807 91.3867 61.5958 91.2621C63.227 91.0128 64.0692 90.2481 63.481 89.557C63.3072 89.3531 63.5612 89.1265 64.0425 89.0472C64.5238 88.9736 65.072 89.0812 65.2458 89.2851C66.1817 90.3897 64.8313 91.6076 62.2376 92.0042C61.6761 92.0948 61.1012 92.1401 60.5263 92.1401Z" fill="#0E9D57"/>
<path d="M64.3631 89.8233C63.9753 89.8233 63.6143 89.7214 63.4806 89.5628C62.6116 88.5431 60.6864 88.0956 59.2157 87.8917C57.1434 87.6084 54.7101 87.6538 52.3704 88.0106C51.889 88.0843 51.3543 87.9766 51.1671 87.7727C50.9933 87.5688 51.2473 87.3422 51.7286 87.2629C54.456 86.8437 57.3172 86.7984 59.7906 87.1326C62.4244 87.4895 64.3631 88.2542 65.2455 89.2852C65.4193 89.4891 65.1652 89.7214 64.6839 89.795C64.577 89.812 64.47 89.8233 64.3631 89.8233Z" fill="#0E9D57"/>
<path d="M56.6879 90.9959C56.3002 90.9959 55.9392 90.8939 55.8055 90.7353C54.9231 89.7044 55.2573 88.5884 56.7414 87.6028C58.1318 86.6794 60.4047 85.9373 63.1321 85.5238C63.6134 85.4502 64.1482 85.5578 64.3354 85.7617C64.5092 85.9657 64.2552 86.1979 63.7739 86.2716C61.4342 86.6284 59.4956 87.2572 58.319 88.0333C57.4901 88.5827 56.6879 89.4494 57.5569 90.4691C57.7307 90.673 57.4767 90.9053 56.9954 90.9789C56.9018 90.9902 56.7949 90.9959 56.6879 90.9959Z" fill="#0E9D57"/>
<path d="M48.6546 88.883C48.3872 88.883 48.1332 88.8377 47.946 88.7471C47.6117 88.5828 47.6519 88.3335 48.0396 88.1862C49.1359 87.7841 50.3793 87.4782 51.743 87.2686C52.2243 87.1949 52.7725 87.3026 52.9463 87.5065C53.1201 87.7104 52.8661 87.937 52.3848 88.0163C51.2483 88.1919 50.2055 88.4525 49.2696 88.7867C49.0824 88.849 48.8685 88.883 48.6546 88.883Z" fill="#0E9D57"/>
<path d="M203.409 38.6881C203.222 38.6881 203.048 38.6768 202.861 38.6541C201.898 38.5238 201.363 38.0876 201.671 37.6798C201.978 37.2719 202.995 37.0453 203.957 37.1756C204.92 37.3059 205.455 37.7421 205.147 38.1499C204.906 38.4785 204.184 38.6881 203.409 38.6881ZM203.422 37.895C203.409 37.895 203.382 37.9007 203.382 37.9064L203.155 38.2746L203.422 37.895Z" fill="#0E9D57"/>
<path d="M36.086 50.1138C35.8988 50.1138 35.7116 50.1025 35.5245 50.0742C34.5351 49.9439 33.9869 49.4907 34.2944 49.0715C34.4415 48.8676 34.7758 48.7033 35.217 48.607C35.6582 48.5107 36.1662 48.4881 36.6475 48.556C37.1288 48.6183 37.5166 48.76 37.7438 48.9469C37.9711 49.1338 38.0112 49.3491 37.8642 49.553C37.6235 49.8986 36.8748 50.1138 36.086 50.1138Z" fill="#0E9D57"/>
<path d="M200.267 93.7433C200.08 93.7433 199.893 93.7319 199.706 93.7036C198.73 93.5733 198.181 93.1258 198.489 92.7123C198.636 92.5084 198.97 92.3441 199.411 92.2478C199.853 92.1515 200.361 92.1345 200.829 92.1968C201.297 92.2591 201.684 92.4007 201.925 92.5877C202.152 92.7746 202.192 92.9899 202.045 93.1881C201.898 93.3921 201.564 93.5563 201.123 93.6526C200.855 93.715 200.561 93.7433 200.267 93.7433ZM200.267 92.9502L199.986 93.3298L200.267 92.9502Z" fill="#0E9D57"/>
<path d="M104.793 31.6129C104.606 31.6129 104.419 31.6016 104.245 31.5789C103.777 31.5166 103.403 31.3807 103.176 31.1994C102.948 31.0181 102.908 30.8085 103.055 30.6103C103.202 30.412 103.523 30.2534 103.951 30.1571C104.379 30.0608 104.874 30.0438 105.342 30.1061C105.81 30.1684 106.184 30.3044 106.411 30.4857C106.639 30.6669 106.679 30.8765 106.532 31.0748C106.384 31.273 106.064 31.4317 105.636 31.528C105.368 31.5846 105.074 31.6129 104.793 31.6129ZM104.793 30.8199C104.767 30.8199 104.753 30.8255 104.74 30.8369L104.807 30.8255C104.793 30.8199 104.793 30.8199 104.793 30.8199Z" fill="#0E9D57"/>
<path d="M339.232 32.2643C339.045 32.2643 338.858 32.253 338.657 32.2247C338.176 32.1624 337.775 32.0207 337.548 31.8281C337.32 31.6355 337.267 31.4203 337.427 31.2164C337.575 31.0124 337.909 30.8482 338.363 30.7462C338.818 30.6442 339.326 30.6272 339.807 30.6952C340.81 30.8312 341.358 31.2787 341.037 31.7035C340.783 32.0434 340.035 32.2643 339.232 32.2643ZM339.246 31.4599L339.219 31.4656C339.232 31.4713 339.246 31.4656 339.246 31.4599Z" fill="#0E9D57"/>
<path d="M328.108 42.6024H312.225C311.704 42.6024 311.289 42.4268 311.289 42.2059C311.289 41.9849 311.704 41.8093 312.225 41.8093H328.108C328.63 41.8093 329.044 41.9849 329.044 42.2059C329.044 42.4268 328.616 42.6024 328.108 42.6024Z" fill="#0E9D57"/>
<path d="M320.167 45.9672C319.646 45.9672 319.231 45.7916 319.231 45.5707V38.841C319.231 38.6201 319.646 38.4445 320.167 38.4445C320.689 38.4445 321.103 38.6201 321.103 38.841V45.5707C321.103 45.7916 320.675 45.9672 320.167 45.9672Z" fill="#0E9D57"/>
<path d="M184.171 88.0956H168.635C168.114 88.0956 167.699 87.92 167.699 87.6991C167.699 87.4782 168.114 87.3026 168.635 87.3026H184.171C184.692 87.3026 185.107 87.4782 185.107 87.6991C185.107 87.9143 184.692 88.0956 184.171 88.0956Z" fill="#0E9D57"/>
<path d="M176.402 91.3867C175.88 91.3867 175.466 91.2111 175.466 90.9902V84.4078C175.466 84.1869 175.88 84.0113 176.402 84.0113C176.923 84.0113 177.338 84.1869 177.338 84.4078V90.9902C177.338 91.2111 176.91 91.3867 176.402 91.3867Z" fill="#0E9D57"/>
<path d="M180.346 30.361C180.106 30.361 179.865 30.3214 179.678 30.2421C179.317 30.0891 179.317 29.8342 179.678 29.6813L190.788 24.9739C191.149 24.821 191.751 24.821 192.112 24.9739C192.473 25.1268 192.473 25.3818 192.112 25.5347L181.002 30.2421C180.828 30.3214 180.587 30.361 180.346 30.361Z" fill="#0E9D57"/>
<path d="M191.457 30.361C191.216 30.361 190.975 30.3214 190.788 30.2421L179.678 25.5347C179.317 25.3818 179.317 25.1268 179.678 24.9739C180.039 24.821 180.641 24.821 181.002 24.9739L192.112 29.6813C192.473 29.8342 192.473 30.0891 192.112 30.2421C191.938 30.3214 191.697 30.361 191.457 30.361Z" fill="#0E9D57"/>
<path d="M98.8839 19.8757C98.6299 19.8757 98.4026 19.836 98.2154 19.7567L89.2844 15.9727C88.9234 15.8197 88.9234 15.5648 89.2844 15.4119L98.2154 11.6279C98.563 11.4806 99.1914 11.4806 99.539 11.6279L108.47 15.4119C108.831 15.5648 108.831 15.8197 108.47 15.9727L99.539 19.7567C99.3652 19.8303 99.1246 19.8757 98.8839 19.8757ZM91.2631 15.6894L98.8705 18.9127L106.478 15.6894L98.8839 12.4662L91.2631 15.6894Z" fill="#0E9D57"/>
</g>
</svg>
