<svg width="21" height="22" viewBox="0 0 21 22" fill="none" xmlns="http://www.w3.org/2000/svg">
<path fill-rule="evenodd" clip-rule="evenodd" d="M4.67575 17.065L4.24413 13.5692C3.10137 12.7566 2.22099 12.0878 1.16291 11.3176C0.663359 7.63524 1.58609 5.63755 2.94044 3.74144C4.62496 1.59984 7.33366 0 10.5757 0C13.8178 0.0337682 16.535 1.66751 18.1349 3.80911C19.6331 5.8407 20.4373 8.39703 19.8531 11.4192L16.9328 13.5692L16.5009 17.065H11.8709C11.5831 17.2938 11.1938 17.5052 10.5757 17.5222C9.96624 17.5052 9.58528 17.2938 9.27212 17.065H4.67575Z" fill="#CC2229"/>
<path fill-rule="evenodd" clip-rule="evenodd" d="M10.5757 12.2147C10.3302 8.95569 10.2626 4.93486 10.0594 1.70986C9.71236 1.62517 9.22138 1.65063 8.81509 1.7183C8.4088 1.84533 8.11252 1.95535 7.76546 2.15005C8.40036 5.24815 9.13683 9.19274 9.76328 12.2655C8.90835 9.27743 7.76546 5.53599 6.91911 2.55634C6.51282 2.64103 6.11497 2.8695 5.82727 3.10655C5.52255 3.3436 5.34473 3.52142 5.06534 3.94459C6.29266 6.56873 7.76546 9.91233 9.00149 12.5194C7.57076 10.1492 5.83545 7.02581 4.39641 4.67262C4.11715 4.91811 3.90543 5.09593 3.62604 5.56989C3.38899 5.95086 3.27053 6.39949 3.21975 6.83124C4.79426 8.75282 6.67335 11.0552 8.25631 12.9681C6.60582 11.3767 4.57409 9.32822 2.94049 7.73682C2.77969 8.05842 2.67812 8.32937 2.62733 8.86256C2.5681 9.37887 2.66967 9.99675 2.77969 10.3693L5.97092 12.7395L6.30954 15.3721L9.82251 15.3974C10.0764 15.6937 10.161 15.846 10.5759 15.8713C10.9736 15.846 11.2023 15.6005 11.3039 15.3974H14.8081L15.1635 12.7564L18.3296 10.403C18.4479 10.0138 18.524 9.41264 18.4819 8.89633C18.4311 8.33768 18.3296 8.05829 18.1941 7.76201C16.552 9.34497 14.5119 11.3936 12.8783 12.9848C14.4695 11.0887 16.3319 8.77774 17.9231 6.83942C17.8386 6.4078 17.737 5.96747 17.4829 5.58664C17.1867 5.11255 17.0173 4.93486 16.7465 4.68093C15.2991 7.02568 13.5384 10.1747 12.1078 12.5278C13.3777 9.91219 14.8166 6.5686 16.0611 3.9785C15.7902 3.56363 15.5954 3.35204 15.3246 3.13201C15.003 2.88652 14.6051 2.65805 14.2157 2.56492C13.3269 5.53599 12.2351 9.31133 11.3716 12.274C11.9724 9.20118 12.7259 5.2905 13.3269 2.20097C13.0223 1.98081 12.726 1.87079 12.3279 1.75234C11.871 1.66765 11.4223 1.65077 11.0667 1.70999C10.8298 4.96032 10.8211 8.97271 10.5757 12.2147Z" fill="#F6D330"/>
<path fill-rule="evenodd" clip-rule="evenodd" d="M0.875 20.7895H2.51718C2.49186 21.1536 2.66967 21.2382 2.75436 21.2975C2.84736 21.3313 3.53318 21.3651 3.87166 21.3058C4.00714 21.2805 4.13404 21.2297 4.13404 20.8149C4.13404 20.6372 4.09169 20.4425 3.88855 20.4C3.16896 20.3409 2.4664 20.417 1.74694 20.3492C1.02736 20.1885 0.917478 20.0022 0.875 19.4351C0.925786 18.6478 1.20518 18.4193 2.00932 18.3939C2.84717 18.3685 3.68559 18.3685 4.52344 18.3939C5.37837 18.3939 5.64074 18.7242 5.64074 19.4436H4.13404C4.13404 19.088 4.06637 18.9527 3.88855 18.9356C3.52218 18.9103 3.1545 18.9103 2.78813 18.9356C2.65266 18.9356 2.47497 19.0034 2.47497 19.325C2.47497 19.6296 2.55108 19.7059 2.75436 19.7315C3.37224 19.7567 3.9987 19.7652 4.60813 19.8073C5.62386 19.8667 5.65776 20.3153 5.69153 20.7893C5.70841 21.4666 5.46292 21.7034 5.28524 21.8137C5.116 21.8898 4.29484 21.9831 4.13404 21.9831H2.50887C2.14479 21.9831 1.68772 21.9407 1.28987 21.8222C0.917344 21.7207 0.875 21.2213 0.875 20.7895ZM16.3065 22H17.7454V18.411H16.3065V22ZM18.7104 22H20.1325V18.411H18.7104V22ZM15.4685 20.1207C15.4423 20.0085 15.4083 19.8982 15.3667 19.7907C15.1212 19.3928 14.2748 19.3928 13.4538 19.3758C12.8359 19.3758 11.9133 19.3928 11.6424 19.6551C11.5322 19.7737 11.473 19.9429 11.4392 20.1207C11.3969 20.3325 11.4052 20.5524 11.4052 20.6541C11.4052 20.8402 11.4222 21.5596 11.7693 21.7459C12.0909 21.9576 13.0643 21.9831 13.4367 21.9831C13.8345 21.9831 14.935 21.9407 15.096 21.7543C15.3835 21.6528 15.4514 21.2974 15.5106 21.0181H14.097C14.097 21.2974 13.8768 21.4668 13.4367 21.4411C13.0388 21.4666 12.8103 21.3735 12.8103 20.8742L15.5104 20.8825C15.5106 20.6372 15.5193 20.3747 15.4685 20.1207ZM14.097 20.3662H12.8103C12.8103 20.2647 12.8273 20.1798 12.8527 20.1207C12.9455 19.8923 13.1827 19.8838 13.4365 19.8668C13.8259 19.8668 13.9953 19.9599 14.0631 20.1207C14.097 20.1885 14.1054 20.2731 14.097 20.3662ZM6.53801 22H7.94315V20.4762C7.97705 20.2648 8.02784 20.0954 8.54414 20.0954C9.03499 20.0871 9.17046 20.2223 9.17046 20.4762V22H10.5756V20.4762C10.5756 19.9768 10.5673 19.706 10.2456 19.5624C9.95772 19.376 9.54285 19.4014 9.15358 19.4014C8.74729 19.4014 8.29021 19.4522 7.94315 19.6216V18.4112H6.53801V22Z" fill="#CC2229"/>
</svg>
