<svg width="18" height="22" viewBox="0 0 18 22" fill="none" xmlns="http://www.w3.org/2000/svg">
<rect x="0.5" y="0.5" width="16.3334" height="20.6667" rx="1.5" stroke="#95969D"/>
<g clip-path="url(#clip0_8_6664)">
<path fill-rule="evenodd" clip-rule="evenodd" d="M9.66659 5.62492C9.66659 5.93434 9.54367 6.23108 9.32488 6.44988C9.10608 6.66867 8.80934 6.79159 8.49992 6.79159C8.1905 6.79159 7.89375 6.66867 7.67496 6.44988C7.45617 6.23108 7.33325 5.93434 7.33325 5.62492C7.33325 5.3155 7.45617 5.01875 7.67496 4.79996C7.89375 4.58117 8.1905 4.45825 8.49992 4.45825C8.80934 4.45825 9.10608 4.58117 9.32488 4.79996C9.54367 5.01875 9.66659 5.3155 9.66659 5.62492ZM9.08325 5.62492C9.08325 5.77963 9.02179 5.928 8.9124 6.0374C8.803 6.14679 8.65463 6.20825 8.49992 6.20825C8.34521 6.20825 8.19684 6.14679 8.08744 6.0374C7.97804 5.928 7.91659 5.77963 7.91659 5.62492C7.91659 5.47021 7.97804 5.32184 8.08744 5.21244C8.19684 5.10304 8.34521 5.04159 8.49992 5.04159C8.65463 5.04159 8.803 5.10304 8.9124 5.21244C9.02179 5.32184 9.08325 5.47021 9.08325 5.62492Z" fill="#95969D"/>
<path d="M6.43194 8.03454C6.67536 7.73061 6.98248 7.48336 7.33195 7.3104C7.70097 7.12778 8.10722 7.03294 8.51896 7.03329L8.51892 7.08329L8.51887 7.03329C8.92528 7.03291 9.32642 7.12529 9.69173 7.30341C10.0374 7.47196 10.3424 7.71307 10.586 8.01001C10.8128 7.6966 10.9662 7.33584 11.0346 6.95448C11.1067 6.55203 11.0819 6.13819 10.9624 5.7472C10.8428 5.35622 10.6318 4.99933 10.3469 4.70606C10.0621 4.41279 9.71143 4.19158 9.32407 4.06073C8.93671 3.92987 8.52376 3.89314 8.11939 3.95357C7.71502 4.014 7.33085 4.16985 6.99867 4.40822C6.66649 4.6466 6.39584 4.96065 6.20913 5.32439C6.02242 5.68813 5.92501 6.0911 5.92496 6.49996L6.43194 8.03454ZM6.43194 8.03454C6.11351 7.6059 5.92496 7.07494 5.92496 6.49997L6.43194 8.03454ZM8.50003 9.07496L8.49988 9.07496C7.92448 9.07582 7.36599 8.88315 6.9139 8.52867C7.09403 8.28332 7.3282 8.08238 7.59853 7.94159C7.88272 7.79357 8.19846 7.7164 8.51888 7.71663H8.51896C8.83538 7.71637 9.1473 7.79162 9.42881 7.93611C9.69642 8.07346 9.92921 8.26963 10.1098 8.50965C9.65386 8.876 9.08588 9.07578 8.50003 9.07496ZM8.51892 7.66663C8.8433 7.66637 9.16306 7.7435 9.45165 7.89162C9.74023 8.03975 9.98932 8.25458 10.1782 8.51829C9.70725 8.91108 9.11321 9.12582 8.49996 9.12496L8.51892 7.66663ZM8.49996 3.24163C6.70047 3.24163 5.24163 4.70047 5.24163 6.49996C5.24163 8.29945 6.70047 9.75829 8.49996 9.75829C10.2994 9.75829 11.7583 8.29945 11.7583 6.49996C11.7583 4.70047 10.2994 3.24163 8.49996 3.24163Z" fill="#95969D" stroke="#95969D" stroke-width="0.1"/>
</g>
<rect x="4.33301" y="12.9167" width="8.6667" height="1.08334" rx="0.541669" fill="#95969D"/>
<rect x="4.33301" y="15.6833" width="8.6667" height="1.08334" rx="0.541669" fill="#95969D"/>
<defs>
<clipPath id="clip0_8_6664">
<rect width="7" height="7" fill="white" transform="translate(5 3)"/>
</clipPath>
</defs>
</svg>
