<svg width="85" height="72" viewBox="0 0 85 72" fill="none" xmlns="http://www.w3.org/2000/svg">
<path d="M0 9.62449C0 4.30903 4.30903 0 9.62449 0H75.3755C80.691 0 85 4.30903 85 9.62449V62.3755C85 67.691 80.691 72 75.3755 72H9.62449C4.30903 72 0 67.691 0 62.3755V9.62449Z" fill="#F0F5FA"/>
<path d="M51.0554 24.4799C49.7041 22.9396 47.2614 22.2793 44.1364 22.2793H35.067C34.7578 22.2793 34.4587 22.3896 34.2236 22.5904C33.9885 22.7912 33.8327 23.0692 33.7842 23.3746L30.0078 47.3252C29.9328 47.7975 30.2985 48.2252 30.7772 48.2252H36.3764L37.7826 39.3059L37.7389 39.5852C37.8391 38.9548 38.3783 38.4898 39.0168 38.4898H41.6775C46.9045 38.4898 50.9973 36.3667 52.1929 30.2251C52.2284 30.0434 52.2591 29.8667 52.2857 29.6939C52.1348 29.614 52.1348 29.614 52.2857 29.6939C52.6417 27.4239 52.2833 25.8788 51.0554 24.4799Z" fill="#27346A"/>
<path d="M39.925 28.8762C40.0781 28.8033 40.2455 28.7655 40.4151 28.7657H47.5254C48.3674 28.7657 49.1527 28.8204 49.8703 28.9359C50.0712 28.968 50.2709 29.0062 50.4694 29.0506C50.7507 29.1126 51.0287 29.1886 51.3024 29.2782C51.6552 29.396 51.9838 29.5332 52.2858 29.6939C52.6417 27.4231 52.2833 25.8788 51.0554 24.4799C49.7033 22.9396 47.2614 22.2793 44.1364 22.2793H35.0662C34.4276 22.2793 33.8843 22.7442 33.7842 23.3746L30.0078 47.3244C29.9328 47.7974 30.2985 48.2245 30.7764 48.2245H36.3764L39.2938 29.7238C39.3225 29.542 39.3949 29.3698 39.5049 29.2222C39.6148 29.0745 39.759 28.9558 39.925 28.8762Z" fill="#E0D03C"/>
<path d="M52.1927 30.2248C50.9972 36.3655 46.9045 38.4894 41.6774 38.4894H39.0159C38.3774 38.4894 37.8381 38.9544 37.7389 39.5849L35.9895 50.6749C35.9241 51.0883 36.2437 51.4628 36.6619 51.4628H41.3819C41.6523 51.4627 41.9137 51.3662 42.1193 51.1906C42.3249 51.0149 42.461 50.7717 42.5033 50.5047L42.5492 50.2641L43.4388 44.6262L43.4961 44.3146C43.5384 44.0475 43.6745 43.8043 43.8801 43.6287C44.0856 43.4531 44.347 43.3565 44.6174 43.3564H45.3238C49.8961 43.3564 53.4763 41.4989 54.5225 36.1266C54.9592 33.8816 54.7332 32.0071 53.578 30.6905C53.2276 30.2918 52.7925 29.9624 52.2855 29.6936C52.2581 29.8672 52.2283 30.0431 52.1927 30.2248Z" fill="#2790C3"/>
<path d="M51.0345 29.1951C50.8481 29.1407 50.6599 29.0925 50.4703 29.0506C50.2717 29.007 50.072 28.969 49.8713 28.9368C49.1528 28.8205 48.3681 28.7656 47.5253 28.7656H40.4159C40.2462 28.7652 40.0787 28.8033 39.9259 28.8771C39.7597 28.9564 39.6153 29.075 39.5053 29.2227C39.3953 29.3704 39.3229 29.5427 39.2945 29.7247L37.7834 39.306L37.7397 39.5853C37.8391 38.9548 38.3784 38.4898 39.017 38.4898H41.6785C46.9054 38.4898 50.9982 36.3668 52.1937 30.2252C52.2293 30.0435 52.2592 29.8675 52.2866 29.694C51.9839 29.5342 51.6562 29.3961 51.3033 29.279C51.2142 29.2495 51.1246 29.2215 51.0346 29.1951" fill="#1F264F"/>
</svg>
