<svg width="40" height="40" viewBox="0 0 40 40" fill="none" xmlns="http://www.w3.org/2000/svg">
<circle cx="20" cy="20" r="19.5" fill="white" stroke="white"/>
<path d="M25.9205 15.0609C25.5784 14.7246 25.1722 14.4578 24.7252 14.2757C24.2782 14.0937 23.799 14 23.3151 14C22.8312 14 22.3521 14.0937 21.905 14.2757C21.458 14.4578 21.0518 14.7246 20.7098 15.0609L19.9998 15.7586L19.2899 15.0609C18.5989 14.3818 17.6617 14.0004 16.6845 14.0004C15.7073 14.0004 14.7702 14.3818 14.0792 15.0609C13.3882 15.7399 13 16.6609 13 17.6212C13 18.5816 13.3882 19.5026 14.0792 20.1816L14.7891 20.8793L19.9998 26L25.2105 20.8793L25.9205 20.1816C26.2627 19.8454 26.5342 19.4463 26.7194 19.007C26.9047 18.5677 27 18.0968 27 17.6212C27 17.1457 26.9047 16.6748 26.7194 16.2355C26.5342 15.7962 26.2627 15.3971 25.9205 15.0609V15.0609Z" stroke="#B33DFB" stroke-width="1.5" stroke-linecap="round" stroke-linejoin="round"/>
</svg>
