<svg width="87" height="74" viewBox="0 0 87 74" fill="none" xmlns="http://www.w3.org/2000/svg">
<path d="M1 10.62C1 5.30702 5.30702 1 10.62 1H76.38C81.693 1 86 5.30702 86 10.62V63.38C86 68.693 81.693 73 76.38 73H10.62C5.30703 73 1 68.693 1 63.38V10.62Z" stroke="#FF7622" stroke-width="2"/>
<path d="M58.5823 49.4467V49.5104H58.6424C58.6536 49.5106 58.6648 49.5077 58.6746 49.5023C58.6785 49.4995 58.6816 49.4958 58.6838 49.4916C58.6859 49.4873 58.6869 49.4826 58.6867 49.4779C58.6869 49.4732 58.6859 49.4686 58.6837 49.4645C58.6816 49.4603 58.6785 49.4568 58.6746 49.4542C58.6649 49.4484 58.6537 49.4456 58.6424 49.446L58.5823 49.4467ZM58.643 49.4016C58.6688 49.4 58.6943 49.4073 58.7152 49.4223C58.7236 49.4291 58.7302 49.4377 58.7346 49.4475C58.739 49.4573 58.741 49.468 58.7405 49.4787C58.7408 49.4879 58.7392 49.4971 58.7357 49.5056C58.7322 49.5142 58.7269 49.5219 58.7202 49.5282C58.704 49.5421 58.6838 49.5504 58.6625 49.5519L58.743 49.6427H58.681L58.6069 49.5526H58.5829V49.6427H58.5311V49.4018L58.643 49.4016ZM58.6269 49.7259C58.6541 49.7261 58.6811 49.7207 58.706 49.7099C58.73 49.6997 58.7519 49.6851 58.7704 49.6668C58.789 49.6485 58.8038 49.6269 58.8141 49.6031C58.8352 49.5526 58.8352 49.4959 58.8141 49.4454C58.8037 49.4217 58.7889 49.4001 58.7704 49.3817C58.7519 49.3634 58.73 49.3488 58.706 49.3385C58.6809 49.3284 58.654 49.3233 58.6269 49.3236C58.5993 49.3233 58.572 49.3284 58.5464 49.3385C58.5218 49.3486 58.4994 49.3632 58.4805 49.3817C58.452 49.4106 58.4327 49.4471 58.4251 49.4868C58.4174 49.5264 58.4217 49.5674 58.4375 49.6047C58.4473 49.6286 58.4619 49.6502 58.4805 49.6684C58.4994 49.6868 58.5218 49.7015 58.5464 49.7115C58.5718 49.7223 58.5992 49.7277 58.6269 49.7275V49.7259ZM58.6269 49.2656C58.6977 49.2655 58.7657 49.293 58.8162 49.342C58.8405 49.3656 58.8599 49.3937 58.8732 49.4247C58.887 49.4565 58.8941 49.4908 58.8941 49.5254C58.8941 49.5601 58.887 49.5943 58.8732 49.6262C58.8596 49.657 58.8402 49.685 58.8162 49.7088C58.7915 49.7323 58.7627 49.7511 58.7313 49.7646C58.6983 49.7784 58.6628 49.7855 58.6269 49.7853C58.5906 49.7855 58.5547 49.7785 58.5212 49.7646C58.4894 49.7514 58.4604 49.7325 58.4357 49.7088C58.4116 49.6842 58.3925 49.6552 58.3795 49.6235C58.3657 49.5916 58.3586 49.5573 58.3586 49.5227C58.3586 49.4881 58.3657 49.4538 58.3795 49.422C58.3928 49.391 58.4121 49.3629 58.4365 49.3393C58.4609 49.3152 58.49 49.2962 58.522 49.2836C58.5555 49.2697 58.5914 49.2626 58.6277 49.2629L58.6269 49.2656ZM33.9617 48.335C33.9617 47.8755 34.2661 47.498 34.7637 47.498C35.2392 47.498 35.5601 47.8592 35.5601 48.335C35.5601 48.8107 35.2392 49.1719 34.7637 49.1719C34.2661 49.1719 33.9617 48.7945 33.9617 48.335ZM36.1022 48.335V47.0274H35.5273V47.3459C35.3449 47.1105 35.0683 46.9629 34.6922 46.9629C33.9512 46.9629 33.3697 47.5375 33.3697 48.3356C33.3697 49.1337 33.9509 49.7083 34.6922 49.7083C35.0682 49.7083 35.3449 49.5605 35.5273 49.3253V49.6427H36.1015L36.1022 48.335ZM55.5276 48.335C55.5276 47.8755 55.8321 47.498 56.3298 47.498C56.8058 47.498 57.1262 47.8592 57.1262 48.335C57.1262 48.8107 56.8058 49.1719 56.3298 49.1719C55.8322 49.1719 55.5276 48.7945 55.5276 48.335ZM57.6688 48.335V45.9778H57.0934V47.3459C56.911 47.1105 56.6344 46.9629 56.2583 46.9629C55.5173 46.9629 54.9358 47.5375 54.9358 48.3356C54.9358 49.1337 55.517 49.7083 56.2583 49.7083C56.6344 49.7083 56.911 49.5605 57.0934 49.3253V49.6427H57.6688V48.335ZM43.2376 47.4711C43.6081 47.4711 43.846 47.7008 43.9067 48.1051H42.5349C42.5963 47.7277 42.8279 47.4711 43.2376 47.4711ZM43.2492 46.9614C42.4743 46.9614 41.9323 47.5189 41.9323 48.3342C41.9323 49.1654 42.4961 49.7069 43.2877 49.7069C43.6859 49.7069 44.0505 49.6086 44.3714 49.3406L44.0897 48.9193C43.868 49.0945 43.5858 49.1928 43.3205 49.1928C42.95 49.1928 42.6127 49.0232 42.5298 48.5525H44.4929C44.4985 48.4818 44.5043 48.4105 44.5043 48.334C44.4985 47.519 43.9892 46.9614 43.2492 46.9614ZM50.19 48.334C50.19 47.8745 50.4944 47.4971 50.992 47.4971C51.4675 47.4971 51.7884 47.8583 51.7884 48.334C51.7884 48.8097 51.4675 49.171 50.992 49.171C50.4944 49.171 50.19 48.7935 50.19 48.334ZM52.3303 48.334V47.0274H51.7557V47.3459C51.5727 47.1105 51.2968 46.9629 50.9206 46.9629C50.1796 46.9629 49.5981 47.5375 49.5981 48.3356C49.5981 49.1337 50.1793 49.7083 50.9206 49.7083C51.2968 49.7083 51.5727 49.5605 51.7557 49.3253V49.6427H52.3304L52.3303 48.334ZM46.9433 48.334C46.9433 49.127 47.5016 49.7068 48.3538 49.7068C48.752 49.7068 49.0173 49.6192 49.3041 49.3951L49.028 48.9356C48.8122 49.0889 48.5856 49.171 48.3354 49.171C47.8765 49.1654 47.539 48.8373 47.539 48.334C47.539 47.8307 47.8765 47.5028 48.3354 47.4971C48.5849 47.4971 48.8116 47.5791 49.028 47.7325L49.3041 47.273C49.0168 47.0489 48.7515 46.9613 48.3538 46.9613C47.5016 46.9613 46.9433 47.5409 46.9433 48.334ZM54.3548 46.9613C54.0231 46.9613 53.8071 47.1146 53.6578 47.3443V47.0274H53.088V49.6413H53.6636V48.176C53.6636 47.7434 53.8516 47.5031 54.2274 47.5031C54.3504 47.5013 54.4726 47.5237 54.5869 47.5689L54.7641 47.0331C54.6368 46.9836 54.4712 46.9613 54.3548 46.9613ZM38.9445 47.2352C38.6679 47.0549 38.2868 46.9617 37.8664 46.9617C37.1966 46.9617 36.7654 47.2792 36.7654 47.7985C36.7654 48.2248 37.0864 48.4877 37.6776 48.5697L37.9492 48.608C38.2644 48.6518 38.4132 48.7338 38.4132 48.8814C38.4132 49.0835 38.2038 49.1988 37.8106 49.1988C37.4124 49.1988 37.1251 49.073 36.9313 48.9254L36.6611 49.3686C36.9764 49.5983 37.3746 49.7079 37.8058 49.7079C38.5693 49.7079 39.0118 49.3524 39.0118 48.8547C39.0118 48.3952 38.6636 48.1548 38.0882 48.0728L37.8172 48.0339C37.5684 48.0021 37.3689 47.9526 37.3689 47.7774C37.3689 47.5862 37.5569 47.4713 37.8723 47.4713C38.2098 47.4713 38.5365 47.5971 38.6966 47.6953L38.9455 47.2359L38.9445 47.2352ZM46.3626 46.9622C46.0309 46.9622 45.8149 47.1156 45.6662 47.3453V47.0274H45.0965V49.6413H45.6714V48.176C45.6714 47.7434 45.8594 47.5031 46.2352 47.5031C46.3582 47.5013 46.4804 47.5237 46.5947 47.5689L46.7719 47.0331C46.6446 46.9836 46.4791 46.9622 46.3626 46.9622ZM41.4566 47.0274H40.5165V46.2344H39.9353V47.0274H39.3991V47.5469H39.9353V48.7394C39.9353 49.3458 40.1734 49.7071 40.8535 49.7071C41.103 49.7071 41.3904 49.6306 41.5728 49.505L41.4067 49.0182C41.2351 49.1165 41.0471 49.166 40.8976 49.166C40.6103 49.166 40.5165 48.9908 40.5165 48.7285V47.5474H41.4566V47.0274ZM32.8613 49.6419V48.0015C32.8613 47.3837 32.4631 46.968 31.8212 46.9624C31.4837 46.9568 31.1356 47.0607 30.8919 47.4275C30.7096 47.1376 30.4222 46.9624 30.0182 46.9624C29.7358 46.9624 29.4599 47.0444 29.2438 47.3505V47.0274H28.6685V49.6413H29.2484V48.1919C29.2484 47.7382 29.5029 47.4971 29.8959 47.4971C30.2777 47.4971 30.4708 47.7431 30.4708 48.1862V49.641H31.052V48.1916C31.052 47.7379 31.3173 47.4967 31.6989 47.4967C32.0915 47.4967 32.2788 47.7428 32.2788 48.1859V49.6407L32.8613 49.6419Z" fill="#231F20"/>
<path d="M47.4673 42.5859H38.7549V27.105H47.4674L47.4673 42.5859Z" fill="#FF5F00"/>
<path d="M39.3068 34.8455C39.3068 31.7052 40.794 28.9078 43.1097 27.1051C41.3568 25.7385 39.1887 24.9967 36.9565 25C31.4575 25 27 29.4079 27 34.8455C27 40.2831 31.4575 44.691 36.9565 44.691C39.1888 44.6943 41.3569 43.9526 43.1099 42.586C40.7943 40.7835 39.3068 37.986 39.3068 34.8455Z" fill="#EB001B"/>
<path d="M59.221 34.8457C59.221 40.2833 54.7635 44.6912 49.2646 44.6912C47.032 44.6945 44.8636 43.9528 43.1104 42.5862C45.4267 40.7834 46.9139 37.9862 46.9139 34.8457C46.9139 31.7053 45.4267 28.9081 43.1104 27.1053C44.8636 25.7387 47.0319 24.9971 49.2644 25.0003C54.7634 25.0003 59.221 29.4082 59.221 34.8457Z" fill="#F79E1B"/>
</svg>
