<svg width="19" height="19" viewBox="0 0 19 19" fill="none" xmlns="http://www.w3.org/2000/svg">
<path d="M9.55118 17.9998C14.2172 17.9998 17.9998 14.2172 17.9998 9.55118C17.9998 4.88512 14.2172 1.10254 9.55118 1.10254C4.88512 1.10254 1.10254 4.88512 1.10254 9.55118C1.10254 14.2172 4.88512 17.9998 9.55118 17.9998Z" stroke="#FB6D3A" stroke-width="1.67823" stroke-linecap="round" stroke-linejoin="round"/>
<path d="M7.09277 7.01626C7.2914 6.45161 7.68346 5.97548 8.19951 5.6722C8.71555 5.36891 9.32228 5.25805 9.91223 5.35924C10.5022 5.46043 11.0373 5.76715 11.4228 6.22507C11.8082 6.68299 12.0192 7.26256 12.0183 7.86113C12.0183 9.55085 9.48374 10.3957 9.48374 10.3957" stroke="#FB6D3A" stroke-width="1.67823" stroke-linecap="round" stroke-linejoin="round"/>
<path d="M9.55176 13.7339H9.55977" stroke="#FB6D3A" stroke-width="1.67823" stroke-linecap="round" stroke-linejoin="round"/>
</svg>
