<svg width="48" height="48" viewBox="0 0 48 48" fill="none" xmlns="http://www.w3.org/2000/svg">
<circle cx="24" cy="24" r="24" fill="white"/>
<circle cx="24" cy="24" r="24" stroke="white"/>
<g clip-path="url(#clip0_602_827)">
<path d="M34.8811 12.2535H13.1189C12.501 12.2535 12 12.7545 12 13.3725V16.6796C12 17.2975 12.501 17.7985 13.1189 17.7985H16.4459V22.2743C15.8591 22.9456 13.3925 25.8598 13.0941 27.7894C13.0922 27.8142 13.0922 27.8392 13.0941 27.864V35.249C13.0941 35.5236 13.3167 35.7463 13.5914 35.7463H19.6187C19.7815 35.746 19.9338 35.6662 20.0265 35.5324L22.5727 31.8673C22.6046 31.8202 22.6281 31.7681 22.6424 31.7131C22.6424 31.6336 22.9059 30.7484 23.1993 29.5349H31.0568C31.3314 29.5349 31.5541 29.3123 31.5541 29.0376V17.7985H34.8811C35.499 17.7985 36 17.2975 36 16.6796V13.3725C36 12.7545 35.499 12.2535 34.8811 12.2535ZM23.2242 24.2486C22.8576 26.6482 22.3511 29.0244 21.7074 31.365L19.3552 34.7467H14.0837V27.9237C14.2777 26.7898 15.4911 25.0492 16.4459 23.8507V29.0376C16.4459 29.3123 16.6686 29.5349 16.9432 29.5349H18.7385C18.7998 29.5344 18.8605 29.5227 18.9175 29.5001L18.9722 29.4703C19.0079 29.4528 19.0412 29.4311 19.0717 29.4056L19.1165 29.3559C19.1395 29.3283 19.1595 29.2983 19.1761 29.2664L19.206 29.2017C19.206 29.2017 19.206 29.2017 19.206 29.1669C19.7033 27.3269 20.7874 24.1491 21.608 23.4429C22.1649 22.9456 22.4882 22.8909 22.6274 22.8909C22.7325 22.8886 22.8323 22.9366 22.896 23.0202C23.1396 23.3815 23.2552 23.8139 23.2242 24.2486ZM30.5595 28.5403H23.438C23.7464 27.1926 24.0597 25.641 24.2138 24.3679C24.2745 23.6586 24.0747 22.9515 23.6519 22.3787C23.4029 22.0879 23.0401 21.9192 22.6573 21.9162C22.0238 21.972 21.4312 22.2524 20.9863 22.7069C19.8326 23.7015 18.7286 27.3269 18.3755 28.5602H17.4405V15.5457H30.5595V28.5403ZM35.0054 16.6746C35.0054 16.7433 34.9498 16.7989 34.8811 16.7989H31.5541V15.5457H32.4542C32.7288 15.5457 32.9515 15.323 32.9515 15.0484C32.9515 14.7738 32.7288 14.5511 32.4542 14.5511H15.5458C15.2712 14.5511 15.0485 14.7738 15.0485 15.0484C15.0485 15.323 15.2712 15.5457 15.5458 15.5457H16.4509V16.8238H13.1189C13.0502 16.8238 12.9946 16.7681 12.9946 16.6995V13.3725C12.9946 13.3038 13.0502 13.2482 13.1189 13.2482H34.8811C34.9498 13.2482 35.0054 13.3038 35.0054 13.3725V16.6746Z" fill="#FF7622"/>
</g>
<defs>
<clipPath id="clip0_602_827">
<rect width="24" height="24" fill="white" transform="translate(12 12)"/>
</clipPath>
</defs>
</svg>
