<svg width="62" height="62" viewBox="0 0 62 62" fill="none" xmlns="http://www.w3.org/2000/svg">
<path d="M0 31C0 13.8792 13.8792 0 31 0C48.1208 0 62 13.8792 62 31C62 48.1208 48.1208 62 31 62C13.8792 62 0 48.1208 0 31Z" fill="#1B1F2F"/>
<path d="M35.125 20C33.972 20.067 32.6483 20.7093 31.8613 21.5273C31.1503 22.2713 30.5894 23.3763 30.8184 24.4453C32.0714 24.4783 33.329 23.8193 34.082 22.9863C34.785 22.2073 35.318 21.12 35.125 20ZM35.1934 24.4434C33.3844 24.4434 32.628 25.5547 31.375 25.5547C30.086 25.5547 28.9077 24.5137 27.3477 24.5137C25.2257 24.5147 22 26.4803 22 31.1113C22 35.3243 25.8177 40 27.9727 40C29.2817 40.013 29.599 39.177 31.375 39.168C33.153 39.155 33.5367 40.011 34.8477 40C36.3237 39.989 37.4764 38.367 38.3184 37.082C38.9224 36.162 39.1707 35.6923 39.6387 34.6523C36.1657 33.7723 35.4747 28.1717 39.6387 27.0137C38.8527 25.6727 36.5584 24.4434 35.1934 24.4434Z" fill="white"/>
</svg>
