<svg width="85" height="72" viewBox="0 0 85 72" fill="none" xmlns="http://www.w3.org/2000/svg">
<path d="M0 9.62449C0 4.30903 4.30903 0 9.62449 0H75.3755C80.691 0 85 4.30903 85 9.62449V62.3755C85 67.691 80.691 72 75.3755 72H9.62449C4.30903 72 0 67.691 0 62.3755V9.62449Z" fill="#F0F5FA"/>
<path d="M51.0554 24.4799C49.7041 22.9396 47.2614 22.2793 44.1364 22.2793H35.067C34.7578 22.2793 34.4587 22.3896 34.2236 22.5904C33.9885 22.7912 33.8327 23.0692 33.7842 23.3746L30.0078 47.3252C29.9328 47.7975 30.2985 48.2252 30.7772 48.2252H36.3764L37.7826 39.3059L37.7389 39.5852C37.8391 38.9548 38.3783 38.4898 39.0168 38.4898H41.6775C46.9045 38.4898 50.9973 36.3667 52.1929 30.2251C52.2284 30.0434 52.2591 29.8667 52.2857 29.6939C52.1348 29.614 52.1348 29.614 52.2857 29.6939C52.6417 27.4239 52.2833 25.8788 51.0554 24.4799Z" fill="#27346A"/>
<path d="M39.925 28.8762C40.0781 28.8033 40.2455 28.7655 40.4151 28.7657H47.5254C48.3674 28.7657 49.1527 28.8204 49.8703 28.9359C50.0712 28.968 50.2709 29.0062 50.4694 29.0506C50.7507 29.1126 51.0287 29.1886 51.3024 29.2782C51.6552 29.396 51.9838 29.5332 52.2858 29.6939C52.6417 27.4231 52.2833 25.8788 51.0554 24.4799C49.7033 22.9396 47.2614 22.2793 44.1364 22.2793H35.0662C34.4276 22.2793 33.8843 22.7442 33.7842 23.3746L30.0078 47.3244C29.9328 47.7974 30.2985 48.2245 30.7764 48.2245H36.3764L39.2938 29.7238C39.3225 29.542 39.3949 29.3698 39.5049 29.2222C39.6148 29.0745 39.759 28.9558 39.925 28.8762Z" fill="#E0D03C"/>
<path d="M52.193 30.2248C50.9974 36.3655 46.9047 38.4894 41.6776 38.4894H39.0161C38.3776 38.4894 37.8383 38.9544 37.7391 39.5849L35.9897 50.6749C35.9243 51.0883 36.244 51.4628 36.6622 51.4628H41.3821C41.6525 51.4627 41.914 51.3662 42.1195 51.1906C42.3251 51.0149 42.4613 50.7717 42.5035 50.5047L42.5495 50.2641L43.4391 44.6262L43.4964 44.3146C43.5386 44.0475 43.6748 43.8043 43.8803 43.6287C44.0858 43.4531 44.3473 43.3565 44.6177 43.3564H45.324C49.8963 43.3564 53.4765 41.4989 54.5227 36.1266C54.9594 33.8816 54.7334 32.0071 53.5782 30.6905C53.2278 30.2918 52.7927 29.9624 52.2858 29.6936C52.2583 29.8672 52.2286 30.0431 52.193 30.2248Z" fill="#2790C3"/>
<path d="M51.0348 29.1951C50.8484 29.1407 50.6602 29.0925 50.4705 29.0506C50.272 29.007 50.0722 28.969 49.8715 28.9368C49.1531 28.8205 48.3683 28.7656 47.5256 28.7656H40.4161C40.2465 28.7652 40.0789 28.8033 39.9261 28.8771C39.7599 28.9564 39.6156 29.075 39.5055 29.2227C39.3955 29.3704 39.3232 29.5427 39.2948 29.7247L37.7836 39.306L37.74 39.5853C37.8394 38.9548 38.3786 38.4898 39.0172 38.4898H41.6787C46.9057 38.4898 50.9984 36.3668 52.194 30.2252C52.2295 30.0435 52.2594 29.8675 52.2869 29.694C51.9841 29.5342 51.6564 29.3961 51.3035 29.279C51.2144 29.2495 51.1249 29.2215 51.0349 29.1951" fill="#1F264F"/>
</svg>
