<svg width="62" height="62" viewBox="0 0 62 62" fill="none" xmlns="http://www.w3.org/2000/svg">
<path d="M0 31C0 13.8792 13.8792 0 31 0C48.1208 0 62 13.8792 62 31C62 48.1208 48.1208 62 31 62C13.8792 62 0 48.1208 0 31Z" fill="#395998"/>
<path d="M32.065 39.9972V31.8012H34.83L35.241 28.5922H32.065V26.5482C32.065 25.6222 32.323 24.9882 33.652 24.9882H35.336V22.1272C34.5166 22.0394 33.693 21.997 32.869 22.0002C30.425 22.0002 28.747 23.4922 28.747 26.2312V28.5862H26V31.7952H28.753V39.9972H32.065Z" fill="white"/>
</svg>
