<svg width="62" height="62" viewBox="0 0 62 62" fill="none" xmlns="http://www.w3.org/2000/svg">
<path d="M0 31C0 13.8792 13.8792 0 31 0C48.1208 0 62 13.8792 62 31C62 48.1208 48.1208 62 31 62C13.8792 62 0 48.1208 0 31Z" fill="#169CE8"/>
<path d="M41.3999 24.5496C40.6343 24.8896 39.8119 25.1184 38.9487 25.2216C39.8303 24.6936 40.5063 23.8576 40.8247 22.8608C40.0007 23.3496 39.0871 23.7048 38.1143 23.8968C37.3359 23.0672 36.2271 22.5488 34.9999 22.5488C32.6431 22.5488 30.7327 24.46 30.7327 26.816C30.7327 27.1504 30.7711 27.4768 30.8431 27.788C27.2967 27.6104 24.1527 25.9112 22.0471 23.3288C21.6807 23.9592 21.4703 24.692 21.4703 25.4752C21.4703 26.9552 22.2231 28.2616 23.3679 29.0264C22.6687 29.004 22.0103 28.812 21.4351 28.4928C21.4351 28.5112 21.4351 28.528 21.4351 28.5464C21.4351 30.6144 22.9055 32.3392 24.8583 32.7304C24.5007 32.828 24.1231 32.88 23.7335 32.88C23.4591 32.88 23.1911 32.8528 22.9311 32.804C23.4743 34.4992 25.0503 35.7336 26.9175 35.768C25.4575 36.9128 23.6175 37.5952 21.6175 37.5952C21.2735 37.5952 20.9335 37.5752 20.5991 37.5352C22.4879 38.7456 24.7303 39.452 27.1407 39.452C34.9903 39.452 39.2815 32.9496 39.2815 27.3104C39.2815 27.1256 39.2775 26.9416 39.2695 26.7584C40.1039 26.156 40.8279 25.4048 41.3999 24.5496Z" fill="white"/>
</svg>
