<svg width="12" height="12" viewBox="0 0 12 12" fill="none" xmlns="http://www.w3.org/2000/svg">
<path d="M8.15159 2.15159C8.26228 2.03698 8.3947 1.94556 8.5411 1.88267C8.68751 1.81978 8.84497 1.78668 9.00431 1.78529C9.16364 1.78391 9.32166 1.81427 9.46913 1.87461C9.61661 1.93494 9.75059 2.02405 9.86326 2.13672C9.97593 2.24939 10.065 2.38337 10.1254 2.53085C10.1857 2.67832 10.2161 2.83634 10.2147 2.99568C10.2133 3.15501 10.1802 3.31247 10.1173 3.45888C10.0544 3.60528 9.963 3.7377 9.84839 3.84839L9.37259 4.32419L7.67579 2.62739L8.15159 2.15159ZM6.82739 3.47579L1.79999 8.50319V10.2H3.49679L8.52479 5.17259L6.82679 3.47579H6.82739Z" fill="#5386E4"/>
</svg>
