<svg width="20" height="20" viewBox="0 0 20 20" fill="none" xmlns="http://www.w3.org/2000/svg">
<path d="M3.50001 1.997L3.59001 2.005C3.68991 2.02325 3.78189 2.0715 3.8537 2.14331C3.92551 2.21512 3.97376 2.3071 3.99201 2.407L4.00001 2.497V4.708C5.19665 3.35074 6.81806 2.43924 8.59953 2.12231C10.381 1.80538 12.2173 2.10173 13.8086 2.963C15.4 3.82426 16.6523 5.19955 17.3612 6.86435C18.0701 8.52914 18.1937 10.3851 17.7119 12.1292C17.23 13.8733 16.1711 15.4025 14.708 16.4672C13.2449 17.5319 11.4642 18.0691 9.65639 17.9912C7.84862 17.9133 6.12065 17.2249 4.75459 16.0383C3.38854 14.8517 2.46509 13.2371 2.13501 11.458C2.02814 10.8037 1.98461 10.1406 2.00501 9.478C2.01649 9.34992 2.07688 9.23118 2.17363 9.14647C2.27038 9.06176 2.39605 9.01758 2.52453 9.02311C2.65301 9.02865 2.77442 9.08347 2.86352 9.17619C2.95263 9.26892 3.00258 9.39241 3.00301 9.521C2.98584 10.1083 3.02401 10.6959 3.11701 11.276C3.41183 12.8663 4.24828 14.3055 5.48417 15.3489C6.72007 16.3922 8.27916 16.9754 9.89641 16.9993C11.5137 17.0232 13.0893 16.4863 14.3554 15.4798C15.6216 14.4734 16.5002 13.0596 16.8418 11.4786C17.1834 9.89769 16.9671 8.24723 16.2295 6.80779C15.4918 5.36834 14.2785 4.22874 12.7957 3.5827C11.3129 2.93666 9.65214 2.82405 8.0957 3.264C6.53925 3.70395 5.18319 4.66931 4.25801 5.996H6.99801L7.08801 6.005C7.20329 6.02588 7.30758 6.08657 7.38268 6.17649C7.45778 6.26641 7.49892 6.37984 7.49892 6.497C7.49892 6.61416 7.45778 6.7276 7.38268 6.81752C7.30758 6.90744 7.20329 6.96813 7.08801 6.989L6.99801 6.997H3.50001L3.41001 6.989C3.30997 6.97069 3.21789 6.9223 3.14606 6.85029C3.07424 6.77829 3.02607 6.68609 3.00801 6.586L3.00001 6.496V2.496L3.00801 2.406C3.02644 2.30628 3.07477 2.21452 3.14656 2.1429C3.21836 2.07128 3.31024 2.02319 3.41001 2.005L3.50001 1.997ZM9.50001 5.997L9.59001 6.005C9.68991 6.02325 9.78189 6.0715 9.8537 6.14331C9.92551 6.21512 9.97375 6.3071 9.99201 6.407L10 6.497V10H12L12.09 10.008C12.2047 10.0294 12.3083 10.0903 12.3828 10.18C12.4574 10.2698 12.4982 10.3828 12.4982 10.4995C12.4982 10.6162 12.4574 10.7292 12.3828 10.819C12.3083 10.9087 12.2047 10.9696 12.09 10.991L12 11H9.50001L9.41001 10.992C9.3101 10.9738 9.21813 10.9255 9.14631 10.8537C9.0745 10.7819 9.02626 10.6899 9.00801 10.59L9.00001 10.5V6.498L9.00801 6.408C9.02626 6.3081 9.0745 6.21612 9.14631 6.14431C9.21813 6.07249 9.3101 6.02425 9.41001 6.006L9.50001 5.998V5.997Z" fill="#95969D"/>
</svg>
