<svg width="15" height="25" viewBox="0 0 15 25" fill="none" xmlns="http://www.w3.org/2000/svg">
<path fill-rule="evenodd" clip-rule="evenodd" d="M0.833339 10.3318C1.29358 10.3318 1.66667 10.7049 1.66667 11.1652C1.66667 11.193 1.66532 11.2204 1.66267 11.2474V13.5421H1.65834V13.5488C1.65834 13.5645 1.65943 13.5801 1.66052 13.5958C1.66151 13.6101 1.66251 13.6245 1.66267 13.6388V13.9522H1.67834C1.92604 16.9162 4.35142 19.2264 7.32367 19.3294H7.66034C10.6335 19.2281 13.0603 16.9172 13.307 13.9522H13.327V11.1752L13.3334 11.1752L13.3333 11.1652C13.3333 10.7049 13.7064 10.3318 14.1667 10.3318C14.6269 10.3318 15 10.7049 15 11.1652C15 11.1892 14.999 11.213 14.997 11.2364V13.2821H14.987C14.9896 17.1107 12.128 20.3362 8.32667 20.7896V23.3232H11.4667V23.3338C11.4777 23.3334 11.4888 23.3332 11.5 23.3332C11.9602 23.3332 12.3333 23.7063 12.3333 24.1666C12.3333 24.6269 11.9602 25 11.5 25C11.4888 25 11.4777 24.9998 11.4667 24.9993L3.53 25C3.52005 25.0004 3.51005 25 3.5 25C3.03977 25 2.66667 24.6269 2.66667 24.1666C2.66667 23.7063 3.03977 23.3332 3.5 23.3332C3.51005 23.3332 3.52005 23.3333 3.53 23.3337V23.3232H6.67667V20.7896C2.86727 20.3468 -0.00463201 17.1175 5.60866e-06 13.2821C5.60866e-06 13.2622 0.00168168 13.2432 0.00331798 13.2247C0.00469037 13.2092 0.00603485 13.194 0.00633894 13.1788V11.2685C0.0021585 11.2347 5.60867e-06 11.2002 5.60867e-06 11.1652C5.60867e-06 10.7049 0.373102 10.3318 0.833339 10.3318ZM11.9667 13.4155C11.9934 12.9121 11.9934 12.382 11.9934 11.8786L11.9941 7.66486C11.9941 7.53421 11.9961 7.29569 11.9986 7.0056C12.0056 6.18543 12.0162 4.95307 11.9941 4.58121C11.9643 4.12636 11.886 3.67599 11.7607 3.23773C11.2271 1.32384 9.48377 0 7.49706 0C5.51036 0 3.76704 1.32384 3.2334 3.23773C3.09182 3.6721 3.01324 4.12453 3.00006 4.58121C3.00203 4.85702 3.00109 6.13524 3.00047 6.98594C3.00025 7.28681 3.00006 7.53421 3.00006 7.66486V11.8786C3.00006 11.9176 3.00005 11.9567 3.00003 11.996C2.99984 12.4639 2.99964 12.951 3.0264 13.4155C3.0461 13.8695 3.11529 14.32 3.23273 14.7589C3.49159 15.6817 4.04855 16.4929 4.81673 17.0658C6.38827 18.3059 8.60519 18.3059 10.1767 17.0658C10.9429 16.4911 11.4992 15.6806 11.7601 14.7589C11.877 14.3198 11.9463 13.8694 11.9667 13.4155ZM10.2999 13.4121C10.3199 13.0921 10.3265 12.9854 10.3265 12.6654C10.3265 10.8081 10.3312 9.16016 10.3349 7.84295C10.3401 6.00619 10.3435 4.81254 10.3299 4.59122C10.3082 4.29952 10.2546 4.0111 10.1699 3.73113C10.0102 3.14108 9.6627 2.61912 9.17988 2.24431C8.19061 1.47533 6.80583 1.47533 5.81655 2.24431C5.33186 2.61802 4.98295 3.14027 4.82322 3.73113C4.74718 4.01239 4.69916 4.30049 4.67988 4.59122C4.66242 4.82259 4.66497 6.31165 4.66881 8.55683C4.67083 9.74065 4.67322 11.1347 4.67322 12.6654C4.67322 12.9854 4.67655 13.0921 4.69322 13.4121C4.70636 13.7026 4.74993 13.9909 4.82322 14.2722C4.98295 14.8631 5.33186 15.3853 5.81655 15.759C6.80583 16.528 8.19061 16.528 9.17988 15.759C9.6627 15.3842 10.0102 14.8623 10.1699 14.2722C10.2448 13.9912 10.2884 13.7027 10.2999 13.4121Z" fill="#50555C"/>
</svg>
