<svg width="24" height="24" viewBox="0 0 24 24" fill="none" xmlns="http://www.w3.org/2000/svg">
<g clip-path="url(#clip0_602_1041)">
<path d="M22.7482 8.30574C22.162 6.73039 21.1058 5.51359 19.6937 4.78674C19.4233 4.65067 19.1939 4.44524 19.029 4.19146C18.864 3.93768 18.7694 3.64465 18.7548 3.34232L18.7487 3.11263C18.7465 3.02903 18.7164 2.94857 18.6632 2.88402C18.6101 2.81947 18.5369 2.77455 18.4553 2.75638C18.3736 2.73821 18.2883 2.74785 18.2128 2.78376C18.1372 2.81967 18.0759 2.87979 18.0385 2.95456L17.9357 3.1595C17.7942 3.42713 17.5841 3.6524 17.3271 3.81226C17.07 3.97213 16.7751 4.06087 16.4725 4.0694C14.7854 4.13203 13.2446 4.87871 12.0475 6.12879C11.5193 4.91614 10.693 3.85676 9.64543 3.04918C8.5979 2.24159 7.36316 1.71204 6.05603 1.50976L1.1822 0.754787C1.11936 0.74505 1.05506 0.751458 0.995375 0.773407C0.935685 0.795356 0.882557 0.832125 0.840988 0.880258C0.799419 0.92839 0.770774 0.986303 0.757746 1.04855C0.744719 1.1108 0.747737 1.17534 0.766516 1.23611L2.22344 5.9479C2.82586 7.89652 4.16325 9.53406 5.95225 10.5136C5.5725 10.681 5.20666 10.8783 4.85819 11.1037C3.44805 12.0184 2.48992 13.3138 2.08741 14.8502C2.01333 15.1437 1.86263 15.4123 1.65072 15.6285C1.43881 15.8447 1.17329 16.0007 0.881313 16.0807L0.658844 16.1364C0.577674 16.1567 0.505607 16.2035 0.454108 16.2694C0.402608 16.3354 0.374634 16.4166 0.374634 16.5003C0.374634 16.5839 0.402608 16.6652 0.454108 16.7311C0.505607 16.7971 0.577674 16.8439 0.658844 16.8641L0.881313 16.9199C1.17329 16.9998 1.4388 17.1559 1.65071 17.372C1.86262 17.5882 2.01332 17.8568 2.08741 18.1503C2.48992 19.6867 3.44805 20.9822 4.85819 21.8968C6.22352 22.7824 7.915 23.2504 9.74978 23.2504C12.9019 23.2504 15.5157 21.9073 16.7845 19.6939C16.7914 19.6939 16.7985 19.6945 16.8052 19.6945C16.9296 19.6945 17.0537 19.6844 17.1765 19.6643C20.0112 19.2024 22.245 16.7923 23.0061 13.3746C23.4049 11.5836 23.3157 9.83088 22.7482 8.30574ZM11.4986 6.7685C11.0579 7.34608 10.6908 7.97635 10.406 8.64474L10.0986 8.37924L10.1767 4.56938C10.7471 5.21617 11.195 5.96135 11.4986 6.7685ZM3.26163 6.56965L6.13038 5.9433L7.16833 6.83966L3.72058 7.41955C3.54847 7.147 3.39513 6.86305 3.26163 6.56965ZM3.97881 4.08525L2.51664 4.35713L1.8693 2.26357L3.97881 4.08525ZM2.35947 1.69591L4.52486 2.0314L4.46899 3.51763L2.35947 1.69591ZM2.93997 5.72632L2.73963 5.0784L4.7057 4.71305L5.42074 5.33059L2.98469 5.86249C2.96964 5.81735 2.95408 5.77202 2.93997 5.72632ZM7.73008 2.77667L7.65841 6.27204L6.62045 5.37569L6.82239 2.44639C7.13211 2.53571 7.43538 2.64606 7.73008 2.77667ZM8.47244 3.15857C8.81408 3.36132 9.13813 3.59237 9.44116 3.84928L9.36147 7.74267L8.39584 6.90861L8.47244 3.15857ZM6.08242 2.27534L5.91095 4.76293L5.19588 4.14539L5.27088 2.14704L5.94119 2.25091C5.98849 2.25823 6.03541 2.26704 6.08242 2.27534ZM4.20653 8.09841L7.90534 7.47627L8.87097 8.31028L5.03078 8.95623C4.73253 8.69384 4.45681 8.40689 4.20653 8.09841ZM5.85124 9.57883L9.60827 8.9469L10.1211 9.38978C10.0808 9.50956 10.0426 9.63097 10.0065 9.754C9.9212 9.75203 9.83584 9.75021 9.74978 9.75021C8.7942 9.7456 7.84312 9.88143 6.92702 10.1533C6.55255 9.99317 6.19262 9.80095 5.85124 9.57883ZM5.26633 11.733C5.80784 11.3848 6.39298 11.1097 7.00656 10.9147C7.01753 10.9117 7.02817 10.9079 7.03881 10.904C7.91643 10.6312 8.83077 10.495 9.74978 10.5002C12.938 10.5002 15.5092 11.9761 16.4599 14.352C16.5841 14.6578 16.6063 14.9954 16.5235 15.3148C16.4406 15.6343 16.2569 15.9185 15.9998 16.1253H15.6218C15.7209 15.8439 15.7632 15.5456 15.7461 15.2477C15.729 14.9498 15.6529 14.6583 15.5222 14.3901C15.3915 14.1219 15.2088 13.8823 14.9847 13.6853C14.7607 13.4883 14.4997 13.3378 14.217 13.2424C13.869 12.7704 13.3414 12.397 12.7162 12.1833C12.3407 12.0537 11.945 11.9923 11.5479 12.0021C11.0535 11.5283 10.302 11.2502 9.49619 11.2502C8.67189 11.2502 7.90713 11.54 7.41335 12.0323C7.12209 12.0586 6.8355 12.1226 6.56078 12.2229C5.60852 12.568 4.91392 13.2735 4.73083 14.0597C4.32707 14.2329 3.98322 14.5212 3.74209 14.8885C3.50097 15.2558 3.37323 15.6859 3.37478 16.1253H2.21256C2.5004 15.8196 2.70684 15.4465 2.81294 15.0403C3.16727 13.6878 4.01561 12.544 5.26633 11.733ZM8.51477 19.2352L8.1482 18.8686C7.83515 18.5544 7.41342 18.3725 6.97009 18.3604L5.26211 18.3041C5.23579 18.3033 5.20946 18.3053 5.18355 18.31C5.1812 18.3092 5.17886 18.308 5.17666 18.3072C4.87109 18.2127 4.60396 18.0225 4.41459 17.7647C4.22523 17.5069 4.12364 17.1952 4.12478 16.8753H14.7994C14.93 17.1018 14.999 17.3586 14.9997 17.6201C15.0005 17.8815 14.9328 18.1387 14.8035 18.3659L12.4618 18.3718C12.1401 18.3721 11.8248 18.4622 11.5514 18.6318C11.278 18.8015 11.0574 19.0441 10.9144 19.3324C10.8919 19.3765 10.8784 19.4246 10.8746 19.4739C10.8708 19.5233 10.8768 19.5729 10.8923 19.6199C10.9077 19.6669 10.9323 19.7104 10.9647 19.7478C10.997 19.7853 11.0365 19.816 11.0808 19.8381C11.125 19.8602 11.1732 19.8734 11.2226 19.8768C11.272 19.8802 11.3215 19.8738 11.3684 19.858C11.4153 19.8422 11.4586 19.8172 11.4958 19.7846C11.533 19.7519 11.5634 19.7122 11.5852 19.6678C11.6664 19.504 11.7917 19.3662 11.947 19.2698C12.1023 19.1733 12.2814 19.1221 12.4642 19.1218L13.7857 19.1185C13.7392 19.1473 13.6996 19.1859 13.6696 19.2317C13.4201 19.6137 12.9842 19.9328 12.4735 20.1074C12.1396 20.2242 11.7848 20.2694 11.4323 20.2402C11.373 20.2346 11.3133 20.2432 11.2581 20.2653C11.2029 20.2874 11.1537 20.3223 11.1146 20.3671C10.7742 20.7576 10.154 21 9.49619 21C8.83263 21 8.2098 20.7544 7.87075 20.3591C7.83712 20.3199 7.79574 20.288 7.74923 20.2656C7.70271 20.2431 7.65205 20.2305 7.60042 20.2285C7.33255 20.2172 7.06805 20.1645 6.81634 20.0722C6.25338 19.8681 5.79381 19.4849 5.57383 19.0643L6.94727 19.1095C7.19965 19.1162 7.43982 19.2196 7.61809 19.3984L7.98466 19.7649C8.01933 19.8004 8.0607 19.8286 8.10636 19.848C8.15202 19.8674 8.20107 19.8775 8.25067 19.8778C8.30026 19.8781 8.34942 19.8685 8.3953 19.8496C8.44118 19.8308 8.48286 19.803 8.51794 19.768C8.55301 19.7329 8.58078 19.6912 8.59964 19.6453C8.6185 19.5995 8.62806 19.5503 8.62779 19.5007C8.62752 19.4511 8.61741 19.4021 8.59805 19.3564C8.57869 19.3107 8.55046 19.2694 8.515 19.2347L8.51477 19.2352ZM5.17666 14.6933C5.17909 14.6926 5.18134 14.6914 5.18374 14.6906C5.20539 14.6945 5.22735 14.6965 5.24936 14.6966H5.26192L6.96817 14.6404C7.41219 14.6286 7.83469 14.4466 8.1483 14.1321L8.51486 13.7655C8.55032 13.7308 8.57855 13.6894 8.59791 13.6438C8.61727 13.5981 8.62738 13.549 8.62765 13.4994C8.62792 13.4498 8.61835 13.4007 8.5995 13.3548C8.58064 13.3089 8.55287 13.2673 8.5178 13.2322C8.48272 13.1971 8.44104 13.1694 8.39516 13.1505C8.34928 13.1317 8.30012 13.1221 8.25052 13.1224C8.20093 13.1227 8.15188 13.1328 8.10622 13.1521C8.06056 13.1715 8.01919 13.1998 7.98452 13.2352L7.61795 13.6017C7.43919 13.7809 7.19831 13.8844 6.9453 13.8907L5.57374 13.9358C5.79377 13.5153 6.25342 13.1322 6.81625 12.928C7.06795 12.8356 7.33246 12.7829 7.60033 12.7717C7.65195 12.7697 7.70261 12.7571 7.74913 12.7346C7.79565 12.7121 7.83702 12.6803 7.87066 12.6411C8.2098 12.2458 8.83263 12.0002 9.49619 12.0002C10.154 12.0002 10.7742 12.2428 11.1146 12.6331C11.1537 12.6778 11.2029 12.7127 11.2581 12.7348C11.3134 12.7568 11.373 12.7655 11.4323 12.76C11.7848 12.7308 12.1396 12.776 12.4735 12.8928C12.9842 13.0674 13.4201 13.3865 13.6696 13.7685C13.6996 13.8143 13.7392 13.8529 13.7857 13.8817L12.4647 13.8783C12.2818 13.8782 12.1026 13.827 11.9473 13.7306C11.7919 13.6341 11.6665 13.4962 11.5852 13.3324C11.5402 13.2442 11.4623 13.1774 11.3683 13.1465C11.2743 13.1156 11.1719 13.1231 11.0834 13.1673C10.9949 13.2116 10.9274 13.289 10.8958 13.3828C10.8641 13.4765 10.8708 13.579 10.9144 13.6678C11.0575 13.9561 11.2782 14.1988 11.5516 14.3685C11.8251 14.5382 12.1405 14.6282 12.4623 14.6284L14.8035 14.6343C14.9328 14.8615 15.0005 15.1187 14.9997 15.3801C14.999 15.6416 14.93 15.8983 14.7994 16.1249L4.12478 16.1253C4.12364 15.8054 4.22523 15.4936 4.41459 15.2358C4.60396 14.9781 4.87109 14.7879 5.17666 14.6933ZM9.74978 22.5004C8.06017 22.5004 6.50983 22.0741 5.26633 21.2675C4.01561 20.4566 3.16727 19.3128 2.81294 17.9603C2.70684 17.554 2.5004 17.181 2.21256 16.8753H3.37478C3.37323 17.3147 3.50097 17.7448 3.74209 18.1121C3.98322 18.4794 4.32707 18.7676 4.73083 18.9409C4.91392 19.7271 5.60852 20.4325 6.56078 20.7777C6.8355 20.8779 7.12209 20.942 7.41335 20.9683C7.90689 21.4606 8.67189 21.7503 9.49619 21.7503C10.302 21.7503 11.0535 21.4722 11.5477 20.9986C11.9448 21.0085 12.3405 20.9471 12.716 20.8175C13.3413 20.6038 13.8688 20.2305 14.2168 19.7584C14.4996 19.6631 14.7606 19.5126 14.9847 19.3156C15.2088 19.1185 15.3915 18.8789 15.5222 18.6107C15.6529 18.3424 15.7291 18.0509 15.7461 17.753C15.7632 17.4551 15.721 17.1567 15.6218 16.8753H15.9998C16.2569 17.0821 16.4406 17.3663 16.5235 17.6857C16.6063 18.0052 16.5841 18.3428 16.4599 18.6485C15.5092 21.0244 12.938 22.5004 9.74978 22.5004ZM22.274 13.2115C21.5911 16.2784 19.6389 18.4475 17.1652 18.9038C17.2636 18.6513 17.3168 18.3834 17.3225 18.1124L18.1938 17.105C18.4052 16.8603 18.6037 16.6048 18.7884 16.3394C18.8447 16.2577 18.8663 16.1571 18.8485 16.0596C18.8308 15.962 18.7751 15.8754 18.6937 15.8188C18.6123 15.7622 18.5118 15.7401 18.4141 15.7574C18.3165 15.7747 18.2297 15.83 18.1727 15.9112C18.003 16.1549 17.8207 16.3896 17.6265 16.6143L17.1412 17.1753C17.0348 16.9257 16.8846 16.697 16.6978 16.5003C16.9991 16.1824 17.2025 15.7846 17.2838 15.3542C17.3651 14.9239 17.3208 14.4792 17.1563 14.0734C16.9993 13.6819 16.8021 13.3079 16.5679 12.9572L17.2638 9.83172C17.2749 9.78351 17.2764 9.73359 17.2681 9.68481C17.2598 9.63604 17.242 9.58939 17.2156 9.54755C17.1892 9.50571 17.1548 9.4695 17.1143 9.44102C17.0739 9.41253 17.0282 9.39233 16.9799 9.38158C16.9316 9.37082 16.8817 9.36973 16.833 9.37836C16.7843 9.38699 16.7378 9.40517 16.6961 9.43186C16.6544 9.45855 16.6185 9.49321 16.5903 9.53386C16.5621 9.5745 16.5422 9.62033 16.5318 9.66869L15.9693 12.1953C15.2297 11.3895 14.2708 10.7587 13.1552 10.34C13.3759 9.67599 13.6782 9.04194 14.0552 8.45241C14.0817 8.41092 14.0998 8.36461 14.1084 8.31612C14.1171 8.26763 14.1161 8.21792 14.1055 8.16982C14.0949 8.12171 14.075 8.07617 14.0468 8.03577C14.0186 7.99538 13.9828 7.96093 13.9413 7.93439C13.8998 7.90785 13.8535 7.88974 13.805 7.8811C13.7565 7.87246 13.7068 7.87346 13.6587 7.88403C13.6106 7.89461 13.5651 7.91455 13.5247 7.94273C13.4843 7.9709 13.4498 8.00676 13.4233 8.04825C13.0123 8.69133 12.6828 9.383 12.4423 10.1074C11.8972 9.95606 11.3398 9.85318 10.7766 9.79989C11.7053 6.85405 13.9147 4.91504 16.5005 4.81904C17.1204 4.79759 17.7099 4.54547 18.1536 4.11206C18.3715 4.69281 18.7984 5.17129 19.3506 5.45378C20.5937 6.09359 21.5256 7.17027 22.0455 8.56744C22.5622 9.95646 22.6413 11.5623 22.274 13.2115Z" fill="#32343E"/>
<path d="M17.7309 6.0092C17.6339 5.9876 17.5322 6.00543 17.4483 6.05879C17.3643 6.11215 17.3051 6.19666 17.2834 6.29374L16.8659 8.16874C16.8548 8.21695 16.8533 8.26688 16.8616 8.31565C16.8699 8.36442 16.8878 8.41107 16.9141 8.45291C16.9405 8.49475 16.9749 8.53095 17.0154 8.55944C17.0558 8.58792 17.1015 8.60813 17.1498 8.61888C17.1981 8.62963 17.248 8.63073 17.2967 8.6221C17.3454 8.61347 17.392 8.59529 17.4336 8.5686C17.4753 8.54191 17.5112 8.50725 17.5394 8.4666C17.5676 8.42596 17.5875 8.38013 17.5979 8.33177L18.0155 6.45677C18.0262 6.4087 18.0273 6.35899 18.0188 6.31048C18.0103 6.26197 17.9923 6.21562 17.9659 6.17406C17.9395 6.13249 17.9051 6.09655 17.8648 6.06826C17.8245 6.03998 17.779 6.01991 17.7309 6.0092Z" fill="#32343E"/>
<path d="M15.901 5.34964L14.9307 6.24682C14.7156 6.44572 14.5077 6.65717 14.313 6.87523C14.2799 6.91192 14.2544 6.95478 14.238 7.00135C14.2215 7.04792 14.2144 7.09729 14.2171 7.1466C14.2198 7.19592 14.2322 7.24423 14.2536 7.28874C14.275 7.33326 14.305 7.3731 14.3418 7.406C14.3786 7.43889 14.4216 7.46419 14.4683 7.48042C14.5149 7.49666 14.5643 7.50353 14.6136 7.50062C14.6629 7.49772 14.7112 7.4851 14.7556 7.46349C14.8 7.44189 14.8397 7.41173 14.8724 7.37473C15.0513 7.17448 15.2422 6.98023 15.4396 6.79751L16.4099 5.90032C16.4466 5.86704 16.4764 5.82681 16.4974 5.78196C16.5185 5.73712 16.5305 5.68854 16.5326 5.63904C16.5348 5.58954 16.5272 5.5401 16.5101 5.49358C16.4931 5.44706 16.467 5.40437 16.4334 5.36799C16.3997 5.33161 16.3592 5.30226 16.3142 5.28162C16.2691 5.26099 16.2204 5.24949 16.1709 5.24778C16.1214 5.24607 16.072 5.2542 16.0257 5.27168C15.9793 5.28916 15.9369 5.31566 15.9008 5.34964H15.901Z" fill="#32343E"/>
<path d="M20.0629 11.7335C20.0142 11.7262 19.9646 11.7286 19.9168 11.7406C19.869 11.7525 19.824 11.7737 19.7845 11.8031C19.7449 11.8324 19.7115 11.8692 19.6861 11.9114C19.6608 11.9536 19.644 12.0005 19.6368 12.0492L19.5957 12.3251C19.4639 13.2119 19.1917 14.0721 18.7895 14.8733C18.7666 14.9174 18.7528 14.9656 18.7487 15.0151C18.7446 15.0646 18.7504 15.1144 18.7658 15.1616C18.7811 15.2089 18.8056 15.2526 18.838 15.2902C18.8704 15.3279 18.9099 15.3588 18.9543 15.381C18.9987 15.4033 19.047 15.4165 19.0966 15.42C19.1461 15.4234 19.1958 15.4169 19.2429 15.401C19.2899 15.385 19.3333 15.3599 19.3705 15.3271C19.4078 15.2942 19.4381 15.2543 19.4598 15.2096C19.8977 14.3374 20.1939 13.401 20.3374 12.4356L20.3785 12.1596C20.3932 12.0613 20.3682 11.9611 20.309 11.8812C20.2498 11.8013 20.1613 11.7481 20.0629 11.7335Z" fill="#32343E"/>
<path d="M20.3579 9.31394C20.3366 9.18363 20.3121 9.05224 20.2852 8.92338C20.2753 8.87502 20.256 8.82908 20.2283 8.78821C20.2006 8.74734 20.1651 8.71234 20.1239 8.68522C20.0826 8.65809 20.0364 8.63938 19.988 8.63015C19.9395 8.62092 19.8896 8.62135 19.8413 8.63143C19.793 8.64151 19.7471 8.66103 19.7063 8.68887C19.6656 8.71671 19.6307 8.75233 19.6037 8.79368C19.5768 8.83502 19.5582 8.88129 19.5492 8.92982C19.5402 8.97835 19.5408 9.02819 19.551 9.07647C19.5757 9.19479 19.5982 9.31554 19.6178 9.4353C19.6761 9.79176 19.7116 10.1516 19.724 10.5125C19.7274 10.6097 19.7683 10.7017 19.8382 10.7693C19.908 10.8368 20.0014 10.8746 20.0986 10.8747H20.1117C20.2111 10.8713 20.305 10.8285 20.3729 10.7558C20.4408 10.6831 20.477 10.5865 20.4736 10.4871C20.46 10.0941 20.4214 9.70238 20.3579 9.31432L20.3579 9.31394Z" fill="#32343E"/>
<path d="M19.2514 7.99927C19.2677 8.04575 19.293 8.08856 19.3258 8.12525C19.3587 8.16195 19.3985 8.19181 19.4429 8.21314C19.4873 8.23447 19.5354 8.24684 19.5846 8.24956C19.6338 8.25227 19.683 8.24527 19.7295 8.22896C19.776 8.21265 19.8188 8.18734 19.8555 8.15449C19.8922 8.12163 19.922 8.08187 19.9434 8.03747C19.9647 7.99307 19.9771 7.94491 19.9798 7.89573C19.9825 7.84655 19.9755 7.79731 19.9592 7.75084C19.9099 7.61021 19.8564 7.46959 19.8002 7.33121L19.3537 6.23373C19.3159 6.1421 19.2433 6.06918 19.1519 6.03091C19.0604 5.99264 18.9576 5.99212 18.8657 6.02948C18.7739 6.06684 18.7006 6.13903 18.6619 6.23027C18.6232 6.32151 18.6221 6.42438 18.659 6.51638L19.1055 7.61387C19.1568 7.74076 19.2059 7.87037 19.2514 7.99927Z" fill="#32343E"/>
<path d="M8.51494 15.6404L8.73464 15.4207C9.00388 15.1515 9.36904 15.0003 9.74979 15.0003C10.1305 15.0003 10.4957 15.1515 10.7649 15.4207L10.9846 15.6404C11.0194 15.6752 11.0608 15.7028 11.1063 15.7217C11.1518 15.7405 11.2005 15.7502 11.2498 15.7502C11.299 15.7502 11.3478 15.7405 11.3933 15.7217C11.4388 15.7028 11.4801 15.6752 11.5149 15.6404C11.5498 15.6056 11.5774 15.5642 11.5962 15.5187C11.6151 15.4732 11.6248 15.4245 11.6248 15.3752C11.6248 15.326 11.6151 15.2772 11.5962 15.2317C11.5774 15.1862 11.5498 15.1449 11.5149 15.1101L11.2953 14.8904C10.8854 14.4805 10.3295 14.2502 9.74979 14.2502C9.17012 14.2502 8.61419 14.4805 8.2043 14.8904L7.98459 15.1101C7.91427 15.1804 7.87476 15.2758 7.87476 15.3753C7.87476 15.4747 7.91427 15.5701 7.98459 15.6404C8.05492 15.7108 8.15031 15.7503 8.24977 15.7503C8.34922 15.7503 8.44461 15.7108 8.51494 15.6404Z" fill="#32343E"/>
<path d="M11.2952 18.1101L11.5149 17.8904C11.5498 17.8556 11.5774 17.8143 11.5962 17.7688C11.6151 17.7233 11.6248 17.6745 11.6248 17.6253C11.6248 17.576 11.6151 17.5272 11.5962 17.4817C11.5774 17.4362 11.5498 17.3949 11.5149 17.3601C11.4801 17.3253 11.4388 17.2976 11.3933 17.2788C11.3478 17.2599 11.299 17.2502 11.2498 17.2502C11.2005 17.2502 11.1518 17.2599 11.1063 17.2788C11.0608 17.2976 11.0194 17.3253 10.9846 17.3601L10.7649 17.5798C10.4957 17.849 10.1305 18.0003 9.74974 18.0003C9.36899 18.0003 9.00383 17.849 8.73459 17.5798L8.51494 17.3601C8.44461 17.2898 8.34922 17.2503 8.24977 17.2503C8.15031 17.2503 8.05492 17.2898 7.98459 17.3601C7.91427 17.4305 7.87476 17.5258 7.87476 17.6253C7.87476 17.7248 7.91427 17.8201 7.98459 17.8905L8.20425 18.1101C8.61414 18.52 9.17007 18.7503 9.74974 18.7503C10.3294 18.7503 10.8853 18.52 11.2952 18.1101Z" fill="#32343E"/>
</g>
<defs>
<clipPath id="clip0_602_1041">
<rect width="24" height="24" fill="white"/>
</clipPath>
</defs>
</svg>
