<svg width="24" height="24" viewBox="0 0 24 24" fill="none" xmlns="http://www.w3.org/2000/svg">
<path d="M22.2753 5.325C21.6917 4.55124 20.8927 3.96701 19.9784 3.64556C19.6002 2.74917 18.9172 2.01537 18.0502 1.57392C17.1831 1.13247 16.188 1.01179 15.2406 1.23323C14.3481 0.438869 13.1949 0 12.0001 0C10.8053 0 9.65218 0.438869 8.75972 1.23323C7.81224 1.01179 6.81697 1.13244 5.94985 1.57386C5.08273 2.01529 4.3996 2.74906 4.0212 3.64547C3.10701 3.96695 2.30811 4.55123 1.72471 5.325C1.07972 6.18547 0.737303 7.23503 0.750748 8.31032C0.764192 9.3856 1.13275 10.4263 1.79905 11.2703C2.46535 12.1144 3.39201 12.7146 4.4348 12.9773C5.47758 13.2401 6.57798 13.1507 7.56472 12.7232C8.26676 14.475 8.62671 16.3451 8.62509 18.2323V21.4687C8.6254 21.7422 8.73415 22.0043 8.92748 22.1976C9.12082 22.3909 9.38294 22.4997 9.65636 22.5H14.3439C14.6173 22.4997 14.8795 22.3909 15.0728 22.1976C15.2661 22.0043 15.3749 21.7422 15.3752 21.4687V18.2323C15.3736 16.3451 15.7335 14.475 16.4356 12.7232C17.4223 13.151 18.5228 13.2405 19.5658 12.9779C20.6087 12.7152 21.5355 12.115 22.2018 11.2708C22.8682 10.4266 23.2367 9.38581 23.25 8.31041C23.2633 7.235 22.9206 6.18539 22.2753 5.325ZM14.6252 18.2323V21.4687C14.6251 21.5433 14.5954 21.6148 14.5427 21.6675C14.49 21.7203 14.4185 21.7499 14.3439 21.75H9.65636C9.58179 21.7499 9.51029 21.7203 9.45756 21.6675C9.40483 21.6148 9.37518 21.5433 9.3751 21.4687V18.2323C9.37681 16.2229 8.98837 14.2322 8.23134 12.3708C8.50013 12.2005 8.75158 12.0042 8.9821 11.7848L9.77898 13.6445L10.2483 14.8179C10.415 15.2335 10.5005 15.6772 10.5001 16.125C10.5001 16.2245 10.5396 16.3198 10.61 16.3902C10.6803 16.4605 10.7757 16.5 10.8751 16.5C10.9746 16.5 11.07 16.4605 11.1403 16.3902C11.2106 16.3198 11.2501 16.2245 11.2501 16.125C11.2506 15.5818 11.147 15.0436 10.9447 14.5394L10.5157 13.4668L11.0254 11.0883C11.6574 11.3039 12.3429 11.3039 12.9749 11.0883L13.4846 13.4668L13.0555 14.5394C12.8533 15.0435 12.7497 15.5818 12.7501 16.125C12.7501 16.2245 12.7897 16.3198 12.86 16.3902C12.9303 16.4605 13.0257 16.5 13.1252 16.5C13.2246 16.5 13.32 16.4605 13.3903 16.3902C13.4607 16.3198 13.5002 16.2245 13.5002 16.125C13.4998 15.6772 13.5852 15.2335 13.7519 14.8179L14.2212 13.6445L15.0181 11.7849C15.2486 12.0043 15.5001 12.2005 15.7689 12.3708C15.0119 14.2322 14.6235 16.2229 14.6252 18.2323ZM10.321 10.7964L10.0054 12.2687L9.53237 11.165C9.5589 11.1295 9.58501 11.0935 9.6107 11.0572C9.8551 10.9858 10.0935 10.8952 10.3236 10.7863C10.3228 10.7899 10.3217 10.7931 10.321 10.7964ZM14.3898 11.0574C14.4154 11.0937 14.4415 11.1296 14.4681 11.1652L13.995 12.269L13.6795 10.7967C13.6788 10.7933 13.6777 10.7901 13.6769 10.7867C13.9069 10.8956 14.1453 10.9861 14.3896 11.0574H14.3898ZM18.3752 12.375C17.6933 12.3756 17.022 12.2068 16.4214 11.884C15.8208 11.5611 15.3097 11.0942 14.9341 10.5251C14.9334 10.524 14.9326 10.5231 14.9319 10.5221C14.6144 10.0439 14.4016 9.50396 14.3072 8.93775C14.2994 8.88892 14.2819 8.84213 14.2559 8.80007C14.2299 8.75802 14.1958 8.72152 14.1556 8.69269C14.1154 8.66385 14.07 8.64325 14.0218 8.63207C13.9736 8.62089 13.9237 8.61934 13.8749 8.62753C13.8261 8.63571 13.7795 8.65347 13.7376 8.67976C13.6957 8.70606 13.6594 8.74038 13.6309 8.78075C13.6023 8.82112 13.582 8.86674 13.5711 8.91499C13.5603 8.96324 13.5591 9.01315 13.5676 9.06187C13.6227 9.392 13.712 9.71552 13.834 10.0272C13.8164 10.0178 13.7987 10.009 13.7812 9.99951C13.7173 9.96472 13.6447 9.94926 13.5722 9.95502C13.4997 9.96078 13.4304 9.98751 13.3728 10.0319C12.9795 10.3353 12.4968 10.4998 12.0001 10.4998C11.5035 10.4998 11.0208 10.3353 10.6275 10.0319C10.5699 9.98751 10.5006 9.96078 10.4281 9.95502C10.3556 9.94926 10.2829 9.96472 10.2191 9.99951C10.2016 10.0089 10.1838 10.018 10.1663 10.0272C10.2882 9.71552 10.3775 9.392 10.4327 9.06187C10.4412 9.01315 10.44 8.96324 10.4291 8.91499C10.4183 8.86674 10.398 8.82112 10.3694 8.78075C10.3408 8.74038 10.3046 8.70606 10.2627 8.67976C10.2208 8.65347 10.1741 8.63571 10.1254 8.62753C10.0766 8.61934 10.0267 8.62089 9.9785 8.63207C9.93033 8.64325 9.88484 8.66385 9.84466 8.69269C9.80448 8.72152 9.7704 8.75802 9.74438 8.80007C9.71836 8.84213 9.70092 8.88892 9.69306 8.93775C9.5987 9.50396 9.38583 10.0439 9.06839 10.5221C9.06769 10.5231 9.06689 10.524 9.06619 10.5251C8.7614 10.9847 8.36754 11.3785 7.90791 11.6833C7.44827 11.988 6.93219 12.1975 6.39018 12.2994C5.84818 12.4012 5.29125 12.3934 4.75233 12.2762C4.21342 12.1591 3.70346 11.9351 3.25261 11.6175C2.80177 11.2999 2.41919 10.8951 2.1275 10.4271C1.83581 9.95905 1.64093 9.43728 1.55439 8.89262C1.46785 8.34797 1.49141 7.79149 1.62367 7.2561C1.75592 6.72071 1.99419 6.21727 2.32439 5.77556C2.70903 5.26572 3.20563 4.85105 3.7759 4.56351C3.74261 4.65149 3.72287 4.74402 3.71735 4.83792C3.71248 4.88693 3.71731 4.93641 3.73156 4.98355C3.74582 5.03069 3.76922 5.07456 3.80043 5.11265C3.83164 5.15075 3.87005 5.18232 3.91346 5.20558C3.95687 5.22883 4.00444 5.2433 4.05345 5.24817C4.06606 5.24939 4.07857 5.25004 4.09095 5.25004C4.18392 5.24994 4.27354 5.2153 4.34242 5.15285C4.4113 5.0904 4.45452 5.00459 4.4637 4.91208C4.49253 4.6226 4.5589 4.3381 4.66114 4.06575C4.67329 4.03336 4.70614 3.95208 4.70975 3.94345C5.03012 3.18028 5.61978 2.56147 6.36662 2.20466C7.11345 1.84786 7.96537 1.77797 8.76038 2.00826C8.78597 2.01567 8.86313 2.03845 8.88225 2.04483C9.39278 2.21457 9.85555 2.50345 10.2323 2.88754C10.2667 2.923 10.3077 2.95131 10.3531 2.97084C10.3985 2.99038 10.4473 3.00075 10.4967 3.00137C10.5461 3.00199 10.5951 2.99284 10.641 2.97444C10.6869 2.95605 10.7286 2.92878 10.7639 2.8942C10.7992 2.85961 10.8273 2.8184 10.8466 2.77292C10.8659 2.72744 10.876 2.6786 10.8764 2.6292C10.8768 2.57979 10.8674 2.5308 10.8487 2.48504C10.8301 2.43928 10.8026 2.39765 10.7679 2.36254C10.4284 2.01686 10.031 1.73327 9.59368 1.52461C10.295 1.02098 11.1367 0.750086 12.0001 0.750086C12.8635 0.750086 13.7052 1.02098 14.4065 1.52461C13.9692 1.73326 13.5719 2.01684 13.2324 2.3625C13.1633 2.43364 13.1253 2.52922 13.1265 2.62834C13.1278 2.72746 13.1682 2.82206 13.239 2.89145C13.3098 2.96084 13.4052 2.99938 13.5043 2.99864C13.6034 2.9979 13.6982 2.95794 13.768 2.8875C14.1447 2.5034 14.6075 2.21453 15.118 2.04478C15.1372 2.0384 15.2144 2.01562 15.2399 2.00822C16.0587 1.77099 16.937 1.85252 17.6982 2.2364C18.4594 2.62029 19.0471 3.27809 19.3431 4.07756C19.3532 4.10479 19.3858 4.19606 19.3988 4.23731C19.4676 4.45689 19.5138 4.68297 19.5365 4.91198C19.5457 5.00452 19.5889 5.09034 19.6578 5.15281C19.7267 5.21527 19.8163 5.2499 19.9093 5.25C19.9217 5.25 19.9342 5.24934 19.9468 5.24812C19.9958 5.24326 20.0434 5.22879 20.0868 5.20555C20.1302 5.1823 20.1686 5.15073 20.1999 5.11264C20.2311 5.07455 20.2545 5.03068 20.2687 4.98355C20.283 4.93641 20.2878 4.88693 20.283 4.83792C20.2744 4.74899 20.2609 4.66062 20.2424 4.57322C20.8051 4.8603 21.2952 5.27144 21.6757 5.77561C22.2134 6.48823 22.503 7.35729 22.5003 8.25C22.499 9.34363 22.064 10.3921 21.2907 11.1654C20.5174 11.9388 19.4689 12.3738 18.3752 12.375Z" fill="#32343E"/>
<path d="M5.297 7.96875C5.52999 7.96875 5.71887 7.77987 5.71887 7.54688C5.71887 7.31388 5.52999 7.125 5.297 7.125C5.064 7.125 4.87512 7.31388 4.87512 7.54688C4.87512 7.77987 5.064 7.96875 5.297 7.96875Z" fill="#32343E"/>
<path d="M19.4534 10.5C19.6864 10.5 19.8752 10.3111 19.8752 10.0781C19.8752 9.84513 19.6864 9.65625 19.4534 9.65625C19.2204 9.65625 19.0315 9.84513 19.0315 10.0781C19.0315 10.3111 19.2204 10.5 19.4534 10.5Z" fill="#32343E"/>
<path d="M13.0782 6.46875C13.3112 6.46875 13.5001 6.27987 13.5001 6.04688C13.5001 5.81388 13.3112 5.625 13.0782 5.625C12.8453 5.625 12.6564 5.81388 12.6564 6.04688C12.6564 6.27987 12.8453 6.46875 13.0782 6.46875Z" fill="#32343E"/>
<path d="M18.0471 5.25C18.2801 5.25 18.469 5.06112 18.469 4.82812C18.469 4.59513 18.2801 4.40625 18.0471 4.40625C17.8141 4.40625 17.6252 4.59513 17.6252 4.82812C17.6252 5.06112 17.8141 5.25 18.0471 5.25Z" fill="#32343E"/>
<path d="M6.047 9.75C6.27999 9.75 6.46887 9.56112 6.46887 9.32812C6.46887 9.09513 6.27999 8.90625 6.047 8.90625C5.814 8.90625 5.62512 9.09513 5.62512 9.32812C5.62512 9.56112 5.814 9.75 6.047 9.75Z" fill="#32343E"/>
<path d="M16.0786 4.96875C16.3116 4.96875 16.5005 4.77987 16.5005 4.54688C16.5005 4.31388 16.3116 4.125 16.0786 4.125C15.8456 4.125 15.6567 4.31388 15.6567 4.54688C15.6567 4.77987 15.8456 4.96875 16.0786 4.96875Z" fill="#32343E"/>
<path d="M8.20325 3.84375C8.43624 3.84375 8.62512 3.65487 8.62512 3.42188C8.62512 3.18888 8.43624 3 8.20325 3C7.97025 3 7.78137 3.18888 7.78137 3.42188C7.78137 3.65487 7.97025 3.84375 8.20325 3.84375Z" fill="#32343E"/>
<path d="M4.59387 9.375C4.85276 9.375 5.06262 9.16513 5.06262 8.90625C5.06262 8.64737 4.85276 8.4375 4.59387 8.4375C4.33499 8.4375 4.12512 8.64737 4.12512 8.90625C4.12512 9.16513 4.33499 9.375 4.59387 9.375Z" fill="#32343E"/>
<path d="M9.28137 5.25C9.54026 5.25 9.75012 5.04013 9.75012 4.78125C9.75012 4.52237 9.54026 4.3125 9.28137 4.3125C9.02249 4.3125 8.81262 4.52237 8.81262 4.78125C8.81262 5.04013 9.02249 5.25 9.28137 5.25Z" fill="#32343E"/>
<path d="M16.7815 6.75C17.0404 6.75 17.2502 6.54013 17.2502 6.28125C17.2502 6.02237 17.0404 5.8125 16.7815 5.8125C16.5226 5.8125 16.3127 6.02237 16.3127 6.28125C16.3127 6.54013 16.5226 6.75 16.7815 6.75Z" fill="#32343E"/>
<path d="M11.719 7.875C11.9779 7.875 12.1877 7.66513 12.1877 7.40625C12.1877 7.14737 11.9779 6.9375 11.719 6.9375C11.4601 6.9375 11.2502 7.14737 11.2502 7.40625C11.2502 7.66513 11.4601 7.875 11.719 7.875Z" fill="#32343E"/>
<path d="M20.1565 9.375C20.4154 9.375 20.6252 9.16513 20.6252 8.90625C20.6252 8.64737 20.4154 8.4375 20.1565 8.4375C19.8976 8.4375 19.6877 8.64737 19.6877 8.90625C19.6877 9.16513 19.8976 9.375 20.1565 9.375Z" fill="#32343E"/>
<path d="M13.1251 17.25C13.0257 17.25 12.9303 17.2895 12.86 17.3598C12.7896 17.4302 12.7501 17.5255 12.7501 17.625V18.375C12.7501 18.4745 12.7896 18.5698 12.86 18.6402C12.9303 18.7105 13.0257 18.75 13.1251 18.75C13.2246 18.75 13.32 18.7105 13.3903 18.6402C13.4606 18.5698 13.5001 18.4745 13.5001 18.375V17.625C13.5001 17.5255 13.4606 17.4302 13.3903 17.3598C13.32 17.2895 13.2246 17.25 13.1251 17.25Z" fill="#32343E"/>
</svg>
