<svg width="24" height="24" viewBox="0 0 24 24" fill="none" xmlns="http://www.w3.org/2000/svg">
<path d="M19.6735 7.46934C18.7579 6.28092 17.381 5.53762 15.7963 5.37618C15.6656 5.36317 15.5343 5.35751 15.403 5.35922C15.3783 5.35735 15.3535 5.35796 15.3289 5.36104C15.0069 5.37164 14.6876 5.42437 14.3792 5.51789C13.935 5.65184 13.4796 5.74562 13.0186 5.79811C13.2181 4.74739 13.7301 3.78134 14.4875 3.02629L15.286 2.22806C15.3384 2.17561 15.3741 2.1088 15.3886 2.03606C15.403 1.96332 15.3956 1.88793 15.3672 1.81942C15.3388 1.7509 15.2908 1.69234 15.2291 1.65114C15.1675 1.60994 15.095 1.58794 15.0208 1.58793H12.926C12.8266 1.58794 12.7312 1.62745 12.6609 1.69776C12.2356 2.12208 11.8752 2.60672 11.5912 3.13608L10.947 2.23434C10.5838 1.72725 10.0934 1.32474 9.52528 1.0673C8.95711 0.80985 8.33118 0.706543 7.71042 0.767763L5.34848 1.00401C5.28028 1.01083 5.21525 1.03621 5.16046 1.07739C5.10568 1.11857 5.06322 1.17398 5.03771 1.23759C5.01221 1.30121 5.00462 1.3706 5.01578 1.43823C5.02695 1.50585 5.05643 1.56912 5.10103 1.62117L6.52373 3.28139C6.85622 3.66953 7.26877 3.9811 7.73307 4.19472C8.19736 4.40833 8.70239 4.51892 9.21347 4.51889C9.34464 4.51888 9.47571 4.51163 9.60609 4.49718L11.1084 4.33022C10.9777 4.79015 10.9015 5.26385 10.8814 5.74157C10.5557 5.68759 10.2337 5.61287 9.91743 5.51789C9.45913 5.37722 8.97744 5.32905 8.50036 5.37618C6.87684 5.54156 5.46356 6.30651 4.52067 7.53014C3.33511 9.069 2.92664 11.2661 3.33942 13.8838C3.75604 16.5257 4.698 18.9369 5.9917 20.6729C7.23933 22.347 8.71045 23.2502 10.1712 23.2501C10.2906 23.2501 10.4099 23.2441 10.5286 23.232C10.611 23.2236 10.6945 23.2121 10.7771 23.1977C11.6843 23.0387 12.6123 23.0387 13.5195 23.1977C13.6017 23.2121 13.6852 23.2237 13.768 23.232C15.3393 23.3914 16.9301 22.482 18.2474 20.6692C19.4989 18.9476 20.4183 16.5378 20.8368 13.8838C21.2568 11.2203 20.8547 9.00225 19.6735 7.46934ZM7.78504 1.5142C8.27444 1.46603 8.76789 1.54752 9.21581 1.75049C9.66373 1.95345 10.0503 2.27074 10.3368 2.67047L10.6202 3.06726L6.94692 1.59783L7.78504 1.5142ZM9.52322 3.75192C9.07069 3.80232 8.61271 3.7413 8.18916 3.57418C7.76561 3.40706 7.38936 3.13891 7.09317 2.79309L6.66398 2.29233L10.1409 3.68311L9.52322 3.75192ZM13.0844 2.33812H14.1153L13.9573 2.49614C13.057 3.39315 12.4614 4.55046 12.2548 5.80443L12.2477 5.84639C12.0413 5.84907 11.8349 5.84359 11.6286 5.82993C11.6682 4.52659 12.1865 3.28348 13.0844 2.33793V2.33812ZM10.6482 22.4589C10.5832 22.4702 10.5175 22.4793 10.4527 22.4858C9.14962 22.6188 7.77867 21.8155 6.59315 20.2247C5.37079 18.5844 4.47839 16.291 4.08037 13.7669C3.70045 11.3578 4.0582 9.35943 5.1149 7.98787C5.93053 6.92911 7.15987 6.26662 8.57634 6.12225C8.66882 6.11284 8.76173 6.10815 8.85468 6.10818C9.14146 6.10903 9.42656 6.15204 9.70083 6.23582C10.8453 6.58214 12.0503 6.68156 13.236 6.52753C13.126 6.6224 13.0191 6.72084 12.9164 6.8235C12.5133 7.22447 12.1936 7.70141 11.976 8.22674C11.7584 8.75206 11.6472 9.31532 11.6488 9.88392V20.5462C11.6478 21.2072 11.8957 21.8442 12.3432 22.3306C11.7754 22.3179 11.2076 22.3609 10.6482 22.4589ZM20.096 13.7669C19.6956 16.306 18.8236 18.6007 17.6407 20.2283C16.5981 21.6627 15.396 22.4554 14.2197 22.4978L13.7577 22.3619C13.3655 22.2466 13.0211 22.0074 12.7761 21.6801C12.5311 21.3528 12.3988 20.9549 12.3988 20.5461V9.88401C12.3975 9.41395 12.4894 8.9483 12.6693 8.51402C12.8492 8.07974 13.1134 7.68545 13.4467 7.35398C14.0083 6.79401 14.6891 6.36817 15.4384 6.10828C15.5325 6.10813 15.6266 6.11282 15.7203 6.12234C17.118 6.2647 18.2797 6.88875 19.0794 7.92703C20.1315 9.29268 20.4831 11.3121 20.096 13.7669Z" fill="#32343E"/>
<path d="M6.24471 7.97923C5.98724 8.23327 5.78263 8.53578 5.64268 8.86931C5.50273 9.20284 5.43021 9.56078 5.42932 9.92248C5.42932 10.0219 5.46883 10.1173 5.53916 10.1876C5.60948 10.258 5.70486 10.2975 5.80432 10.2975C5.90378 10.2975 5.99916 10.258 6.06949 10.1876C6.13981 10.1173 6.17932 10.0219 6.17932 9.92248C6.17994 9.66042 6.23245 9.40107 6.33382 9.1594C6.43519 8.91773 6.58342 8.69853 6.76994 8.51445C6.84092 8.44477 6.88131 8.34975 6.88223 8.2503C6.88315 8.15085 6.84452 8.0551 6.77484 7.98412C6.70517 7.91315 6.61015 7.87276 6.5107 7.87184C6.41124 7.87092 6.3155 7.90955 6.24452 7.97923H6.24471Z" fill="#32343E"/>
<path d="M5.80432 10.8042C5.70486 10.8042 5.60948 10.8437 5.53915 10.914C5.46883 10.9844 5.42932 11.0797 5.42932 11.1792V11.5981C5.42932 11.6976 5.46883 11.793 5.53915 11.8633C5.60948 11.9336 5.70486 11.9731 5.80432 11.9731C5.90377 11.9731 5.99915 11.9336 6.06948 11.8633C6.13981 11.793 6.17931 11.6976 6.17931 11.5981V11.1792C6.17931 11.0797 6.13981 10.9844 6.06948 10.914C5.99915 10.8437 5.90377 10.8042 5.80432 10.8042Z" fill="#32343E"/>
<path d="M15.56 13.3636L14.4574 13.9149C14.3951 13.9461 14.3427 13.994 14.3061 14.0532C14.2695 14.1124 14.2501 14.1807 14.2501 14.2503C14.2501 14.32 14.2695 14.3882 14.3061 14.4475C14.3427 14.5067 14.3951 14.5546 14.4574 14.5857L15.56 15.1371C15.7111 15.2126 15.8791 15.2483 16.0479 15.2407C16.2167 15.2331 16.3808 15.1825 16.5246 15.0937C16.6683 15.0048 16.787 14.8807 16.8693 14.7331C16.9516 14.5855 16.9948 14.4193 16.9948 14.2503C16.9948 14.0813 16.9516 13.9151 16.8693 13.7675C16.787 13.6199 16.6683 13.4958 16.5246 13.407C16.3808 13.3181 16.2167 13.2675 16.0479 13.2599C15.8791 13.2523 15.7111 13.288 15.56 13.3636ZM16.174 14.421C16.1382 14.4569 16.092 14.4805 16.042 14.4886C15.992 14.4968 15.9407 14.4889 15.8954 14.4662L15.4636 14.2503L15.8955 14.0344C15.9467 14.0088 16.0054 14.0022 16.0611 14.0159C16.1168 14.0296 16.1658 14.0626 16.1993 14.1091C16.2328 14.1556 16.2487 14.2126 16.2441 14.2697C16.2395 14.3268 16.2146 14.3805 16.1741 14.421H16.174Z" fill="#32343E"/>
<path d="M13.3128 12.6265C13.3731 12.6614 13.442 12.6787 13.5116 12.6766C13.5812 12.6746 13.6489 12.6531 13.707 12.6147L14.7357 11.9355C14.8768 11.8424 14.9917 11.7148 15.0695 11.5648C15.1474 11.4148 15.1856 11.2474 15.1805 11.0784C15.1755 10.9095 15.1273 10.7447 15.0406 10.5996C14.9539 10.4545 14.8316 10.334 14.6852 10.2495C14.5389 10.165 14.3734 10.1193 14.2044 10.1168C14.0354 10.1143 13.8686 10.155 13.7197 10.2351C13.5709 10.3152 13.445 10.432 13.3541 10.5744C13.2631 10.7168 13.21 10.8801 13.1999 11.0488L13.126 12.2794C13.1219 12.3489 13.1371 12.4181 13.1701 12.4795C13.2031 12.5408 13.2525 12.5917 13.3128 12.6265ZM13.9486 11.0937C13.951 11.0526 13.964 11.0129 13.9861 10.9783C14.0083 10.9436 14.039 10.9152 14.0752 10.8957C14.1114 10.8762 14.152 10.8663 14.1932 10.867C14.2343 10.8676 14.2746 10.8787 14.3102 10.8993C14.3458 10.9199 14.3756 10.9492 14.3967 10.9845C14.4178 11.0199 14.4295 11.06 14.4307 11.1011C14.432 11.1422 14.4227 11.183 14.4037 11.2195C14.3848 11.256 14.3568 11.287 14.3225 11.3097L13.9196 11.5756L13.9486 11.0937Z" fill="#32343E"/>
<path d="M14.7357 16.5652L13.707 15.886C13.6488 15.8477 13.5812 15.8262 13.5116 15.8241C13.442 15.8221 13.3732 15.8394 13.3129 15.8742C13.2526 15.909 13.2031 15.96 13.1701 16.0213C13.1371 16.0826 13.1219 16.1519 13.126 16.2214L13.1999 17.452C13.21 17.6206 13.2631 17.7839 13.3541 17.9263C13.4451 18.0687 13.571 18.1855 13.7198 18.2655C13.8686 18.3456 14.0354 18.3863 14.2044 18.3838C14.3733 18.3812 14.5388 18.3355 14.6852 18.251C14.8315 18.1666 14.9538 18.0461 15.0405 17.901C15.1272 17.7559 15.1753 17.5911 15.1804 17.4222C15.1855 17.2533 15.1473 17.0859 15.0694 16.9359C14.9916 16.7859 14.8767 16.6583 14.7357 16.5652ZM14.4226 17.455C14.4078 17.5104 14.3738 17.5587 14.3266 17.5913C14.2794 17.6238 14.2222 17.6385 14.1652 17.6328C14.1081 17.627 14.055 17.6011 14.0153 17.5597C13.9756 17.5184 13.952 17.4642 13.9485 17.407L13.9196 16.9251L14.3225 17.1911C14.3648 17.2189 14.3972 17.2595 14.4152 17.3068C14.4332 17.3542 14.4358 17.4061 14.4226 17.455Z" fill="#32343E"/>
</svg>
