<svg width="17" height="17" viewBox="0 0 17 17" fill="none" xmlns="http://www.w3.org/2000/svg">
<mask id="path-1-inside-1_602_983" fill="white">
<path d="M8.50008 1.41663L10.6888 5.85079L15.5834 6.56621L12.0417 10.0158L12.8776 14.8891L8.50008 12.587L4.12258 14.8891L4.95842 10.0158L1.41675 6.56621L6.31133 5.85079L8.50008 1.41663Z"/>
</mask>
<path d="M8.50008 1.41663L16.5704 -2.56699C15.0542 -5.63872 11.9257 -7.58337 8.50008 -7.58337C5.07451 -7.58337 1.94596 -5.63872 0.429716 -2.56699L8.50008 1.41663ZM10.6888 5.85079L2.61847 9.83441C3.92832 12.488 6.45899 14.3282 9.38718 14.7562L10.6888 5.85079ZM15.5834 6.56621L21.863 13.0134C24.3166 10.6237 25.201 7.04838 24.1446 3.79031C23.0882 0.532246 20.2741 -1.84381 16.8851 -2.33917L15.5834 6.56621ZM12.0417 10.0158L5.76215 3.56857C3.63929 5.63624 2.67033 8.61642 3.17127 11.5372L12.0417 10.0158ZM12.8776 14.8891L8.68852 22.8548C11.7208 24.4494 15.3954 24.1842 18.1672 22.1706C20.939 20.157 22.3272 16.7444 21.7481 13.3677L12.8776 14.8891ZM8.50008 12.587L12.6891 4.62138C10.0667 3.24226 6.93347 3.24226 4.31102 4.62138L8.50008 12.587ZM4.12258 14.8891L-4.7479 13.3677C-5.32703 16.7444 -3.93883 20.157 -1.16703 22.1706C1.60478 24.1842 5.2794 24.4494 8.31164 22.8548L4.12258 14.8891ZM4.95842 10.0158L13.8289 11.5372C14.3298 8.61642 13.3609 5.63624 11.238 3.56857L4.95842 10.0158ZM1.41675 6.56621L0.115094 -2.33917C-3.27395 -1.84381 -6.08807 0.532246 -7.14447 3.79031C-8.20087 7.04838 -7.31641 10.6237 -4.86285 13.0134L1.41675 6.56621ZM6.31133 5.85079L7.61299 14.7562C10.5412 14.3282 13.0718 12.488 14.3817 9.83441L6.31133 5.85079ZM0.429716 5.40024L2.61847 9.83441L18.7592 1.86718L16.5704 -2.56699L0.429716 5.40024ZM9.38718 14.7562L14.2818 15.4716L16.8851 -2.33917L11.9905 -3.05458L9.38718 14.7562ZM9.30382 0.118986L5.76215 3.56857L18.3213 16.463L21.863 13.0134L9.30382 0.118986ZM3.17127 11.5372L4.0071 16.4105L21.7481 13.3677L20.9122 8.4944L3.17127 11.5372ZM17.0666 6.92346L12.6891 4.62138L4.31102 20.5527L8.68852 22.8548L17.0666 6.92346ZM4.31102 4.62138L-0.0664797 6.92346L8.31164 22.8548L12.6891 20.5527L4.31102 4.62138ZM12.9931 16.4105L13.8289 11.5372L-3.91206 8.4944L-4.7479 13.3677L12.9931 16.4105ZM11.238 3.56857L7.69634 0.118986L-4.86285 13.0134L-1.32118 16.463L11.238 3.56857ZM2.7184 15.4716L7.61299 14.7562L5.00968 -3.05458L0.115094 -2.33917L2.7184 15.4716ZM14.3817 9.83441L16.5704 5.40024L0.429716 -2.56699L-1.75903 1.86718L14.3817 9.83441Z" fill="#FB6D3A" mask="url(#path-1-inside-1_602_983)"/>
</svg>
