<svg width="24" height="24" viewBox="0 0 24 24" fill="none" xmlns="http://www.w3.org/2000/svg">
<g clip-path="url(#clip0_602_878)">
<path d="M21 16.4001C20.9952 14.2805 20.006 12.2855 18.3271 11.01L15.6001 8.94751C14.8808 8.40069 14.457 7.54583 14.4547 6.63751V6.22501H13.6365V5.8418C13.6339 4.87536 14.0148 3.94801 14.6944 3.26656C15.3288 2.63038 15.6844 1.7647 15.6819 0.862512V0.450012H15.2729C14.3782 0.447537 13.5196 0.806103 12.8887 1.44579C12.6486 1.68963 12.4306 1.95466 12.2375 2.23779C11.9553 1.63863 11.5747 1.09191 11.1117 0.620787C10.4808 -0.0188969 9.62228 -0.377462 8.72757 -0.374987H8.31849V0.0375125C8.31603 0.939701 8.67163 1.80538 9.30601 2.44156C9.98559 3.12301 10.3666 4.05036 10.3639 5.0168V6.22501H9.54573V6.63751C9.54348 7.54583 9.11962 8.40069 8.4003 8.94751L5.67337 11.01C2.72216 13.2403 2.12275 17.4608 4.3346 20.4367C5.57064 22.0997 7.49894 23.094 9.55964 23.1309C9.28647 23.4872 9.13772 23.9246 9.13665 24.375H9.95481C9.9568 23.8301 10.3127 23.3509 10.8307 23.1957C10.7942 23.3102 10.7748 23.4297 10.773 23.55V24.375H11.5911V23.55C11.5911 23.3222 11.7743 23.1375 12.0002 23.1375C12.2261 23.1375 12.4093 23.3222 12.4093 23.55V24.375H13.2275V23.55C13.2257 23.4297 13.2062 23.3102 13.1698 23.1957C13.6878 23.3509 14.0436 23.8301 14.0456 24.375H14.8638C14.8621 23.9245 14.7128 23.4873 14.4392 23.1313C18.0787 23.0626 20.9949 20.0707 21 16.4001ZM13.4672 2.02906C13.836 1.65554 14.3101 1.40588 14.8249 1.3142C14.734 1.83328 14.4864 2.31137 14.116 2.68329C13.2824 3.51906 12.8151 4.65643 12.8184 5.8418V4.77507C12.8184 4.63482 12.8127 4.49499 12.8028 4.35556C12.7996 4.3106 12.7934 4.26605 12.7893 4.2215C12.7803 4.12662 12.7709 4.03216 12.7574 3.9377C12.7497 3.88449 12.7394 3.83169 12.7304 3.77889C12.7157 3.69391 12.701 3.60935 12.6826 3.52479C12.6703 3.46745 12.6556 3.41052 12.6417 3.35319C12.6294 3.30369 12.6196 3.25377 12.6061 3.20427C12.8347 2.77223 13.1248 2.37633 13.4672 2.02906ZM9.88445 1.85829C9.51387 1.48652 9.26628 1.00833 9.17551 0.4892C9.69029 0.580878 10.1644 0.830543 10.5333 1.20406C11.4711 2.15209 11.9986 3.43599 12.0002 4.77507V6.22501H11.1821V5.0168C11.1854 3.83143 10.7181 2.69406 9.88445 1.85829ZM3.81859 16.4001C3.82279 14.5401 4.69076 12.7895 6.16386 11.67L8.89079 9.60751C9.70144 8.99159 10.2256 8.06692 10.3406 7.05001H10.3438C10.2511 8.37934 9.68441 9.62989 8.74843 10.5707L6.86052 12.4744C4.44423 14.9064 4.4406 18.8531 6.85244 21.2896C7.07406 21.5134 7.31225 21.72 7.56496 21.9074C5.31 21.0256 3.82253 18.839 3.81859 16.4001ZM6.4652 14.399C6.71939 13.9041 7.04788 13.4516 7.43896 13.0577L9.32687 11.154C10.413 10.0645 11.0674 8.61261 11.1669 7.07105C11.0947 9.00067 10.5234 10.8777 9.50973 12.516L8.73575 13.7663C7.66135 15.4939 7.28505 17.5712 7.68441 19.5702C7.84339 20.3666 8.21724 21.1033 8.76479 21.6991C6.13062 20.3236 5.10106 17.0552 6.4652 14.399ZM11.2965 22.2423C9.8779 21.9563 8.76904 20.8381 8.48539 19.4077L8.48662 19.4081C8.12821 17.6159 8.46494 15.7533 9.42751 14.204L10.2019 12.9549C11.1562 11.417 11.7491 9.67944 11.9352 7.87501H12.0657C12.2513 9.67913 12.8436 11.4166 13.7973 12.9545L14.5717 14.2036C15.5343 15.7529 15.871 17.6155 15.5126 19.4077C15.1246 21.3644 13.237 22.6335 11.2965 22.2423ZM16.316 19.5702C16.7154 17.5712 16.3391 15.4939 15.2647 13.7663L14.4903 12.5173C13.62 11.1099 13.0742 9.52351 12.8932 7.87501H12.9411C13.1804 9.11777 13.7832 10.2598 14.6719 11.154L16.5598 13.0577C18.6584 15.1718 18.66 18.6011 16.5634 20.7172C16.1728 21.1114 15.7243 21.4425 15.2336 21.6987C15.7819 21.1032 16.1564 20.3666 16.316 19.5702ZM16.4355 21.9074C19.1857 19.8677 19.7754 15.9661 17.7527 13.1929C17.5668 12.938 17.3619 12.6979 17.1399 12.4744L15.252 10.5707C14.316 9.62989 13.7493 8.37934 13.6566 7.05001H13.6599C13.7747 8.06687 14.2987 8.99149 15.1092 9.60751L17.8362 11.67C20.4254 13.6264 20.9515 17.329 19.0113 19.9399C18.3526 20.8263 17.46 21.5081 16.4355 21.9074Z" fill="#FB6D3A"/>
</g>
<defs>
<clipPath id="clip0_602_878">
<rect width="24" height="24" fill="white"/>
</clipPath>
</defs>
</svg>
