<svg width="82" height="14" viewBox="0 0 82 14" fill="none" xmlns="http://www.w3.org/2000/svg">
<path d="M6.54154 1.09021L8.22597 4.50267L11.9928 5.05324L9.26715 7.70798L9.91039 11.4584L6.54154 9.68677L3.17269 11.4584L3.81594 7.70798L1.09033 5.05324L4.85712 4.50267L6.54154 1.09021Z" fill="#FB6D3A"/>
<path d="M23.6033 1.09021L25.2877 4.50267L29.0545 5.05324L26.3289 7.70798L26.9722 11.4584L23.6033 9.68677L20.2345 11.4584L20.8777 7.70798L18.1521 5.05324L21.9189 4.50267L23.6033 1.09021Z" fill="#FB6D3A"/>
<path d="M40.6651 1.09021L42.3495 4.50267L46.1163 5.05324L43.3907 7.70798L44.0339 11.4584L40.6651 9.68677L37.2962 11.4584L37.9395 7.70798L35.2139 5.05324L38.9807 4.50267L40.6651 1.09021Z" fill="#FB6D3A"/>
<path d="M57.7266 1.09021L59.411 4.50267L63.1778 5.05324L60.4522 7.70798L61.0955 11.4584L57.7266 9.68677L54.3578 11.4584L55.001 7.70798L52.2754 5.05324L56.0422 4.50267L57.7266 1.09021Z" fill="#FB6D3A"/>
<path d="M74.7881 1.09021L76.4725 4.50267L80.2393 5.05324L77.5137 7.70798L78.157 11.4584L74.7881 9.68677L71.4193 11.4584L72.0625 7.70798L69.3369 5.05324L73.1037 4.50267L74.7881 1.09021Z" stroke="#FB6D3A" stroke-width="0.563795" stroke-linecap="round" stroke-linejoin="round"/>
</svg>
