<svg width="24" height="24" viewBox="0 0 24 24" fill="none" xmlns="http://www.w3.org/2000/svg">
<path d="M23.1014 16.9747C23.2726 16.2243 23.2937 15.4473 23.1635 14.6887C23.0333 13.93 22.7544 13.2046 22.3428 12.5541C21.4236 11.109 20.657 9.57237 20.0554 7.96886L19.5136 6.52413C19.2547 5.83381 18.7913 5.23894 18.1854 4.81901C17.5794 4.39907 16.8597 4.17407 16.1224 4.17407C15.3852 4.17407 14.6655 4.39907 14.0595 4.81901C13.4535 5.23894 12.9902 5.83381 12.7313 6.52413L12.1895 7.96886C12.1314 8.12383 12.0715 8.27819 12.0099 8.43194C11.9416 8.2615 11.8746 8.0906 11.8106 7.91974L11.2688 6.47519C11.0335 5.85409 10.6327 5.30919 10.11 4.89946C9.58724 4.48972 8.96239 4.23077 8.30305 4.15061C8.35847 3.97032 8.45617 3.80588 8.588 3.67099C8.71984 3.53609 8.882 3.43465 9.06097 3.37511L9.11872 3.35585C9.21268 3.32408 9.29023 3.25637 9.33438 3.16756C9.37854 3.07875 9.38571 2.97606 9.35433 2.88197C9.32295 2.78788 9.25558 2.71005 9.16695 2.66553C9.07832 2.621 8.97566 2.61339 8.88144 2.64438L8.82379 2.6636C8.49629 2.77245 8.20391 2.96701 7.97701 3.22705C7.75011 3.48709 7.59698 3.80314 7.5335 4.14236C6.8588 4.20895 6.21608 4.46261 5.67777 4.87477C5.13945 5.28693 4.72691 5.84122 4.48663 6.47519L3.94471 7.91993C3.34306 9.52338 2.57644 11.06 1.65721 12.505C1.20753 13.2116 0.916137 14.0072 0.803034 14.837C0.689932 15.6669 0.757805 16.5114 1.00199 17.3126C1.24617 18.1137 1.66089 18.8525 2.21763 19.4783C2.77438 20.104 3.45998 20.6017 4.22732 20.9374C5.3788 21.4395 6.62148 21.6986 7.87766 21.6986C9.13384 21.6986 10.3765 21.4395 11.528 20.9374C11.6729 20.874 11.8161 20.8038 11.956 20.7284C12.1236 20.823 12.2958 20.9092 12.4721 20.9865C13.6236 21.4886 14.8662 21.7477 16.1224 21.7477C17.3786 21.7477 18.6213 21.4886 19.7728 20.9865C20.6009 20.6221 21.3329 20.0699 21.9106 19.3735C22.4884 18.6772 22.8961 17.8559 23.1014 16.9747ZM11.2274 20.2501C10.1708 20.7108 9.03047 20.9486 7.87778 20.9486C6.72509 20.9486 5.58479 20.7108 4.52816 20.2501C3.86002 19.9578 3.26306 19.5244 2.77828 18.9795C2.2935 18.4347 1.93239 17.7914 1.71976 17.0938C1.50712 16.3962 1.44799 15.6609 1.54644 14.9382C1.64488 14.2156 1.89857 13.5229 2.29007 12.9076C3.23715 11.4187 4.02703 9.8354 4.64699 8.18327L5.18877 6.73854C5.39402 6.19116 5.76143 5.71946 6.24192 5.38647C6.7224 5.05349 7.29307 4.87507 7.87766 4.87507C8.46225 4.87507 9.03292 5.05349 9.5134 5.38647C9.99389 5.71946 10.3613 6.19116 10.5666 6.73854L11.1083 8.18327C11.2612 8.59085 11.4271 8.9989 11.601 9.39897C11.1118 10.4904 10.544 11.5449 9.90215 12.5541C9.12646 13.7721 8.83314 15.2356 9.07955 16.6584C9.32596 18.0812 10.0944 19.3609 11.2345 20.2471C11.2321 20.2481 11.2297 20.2493 11.2274 20.2501ZM19.4721 20.2992C18.4155 20.76 17.2751 20.9977 16.1224 20.9977C14.9697 20.9977 13.8293 20.76 12.7727 20.2992C12.1045 20.007 11.5075 19.5735 11.0227 19.0286C10.538 18.4838 10.1769 17.8405 9.96424 17.1428C9.75163 16.4452 9.69254 15.7098 9.79104 14.9872C9.88954 14.2646 10.1433 13.5719 10.5349 12.9566C11.4819 11.4677 12.2718 9.88436 12.8917 8.23221L13.4335 6.78761C13.6388 6.24024 14.0062 5.76854 14.4867 5.43555C14.9672 5.10257 15.5378 4.92415 16.1224 4.92415C16.707 4.92415 17.2777 5.10257 17.7582 5.43555C18.2386 5.76854 18.6061 6.24024 18.8113 6.78761L19.3531 8.23235C19.973 9.88449 20.7629 11.4678 21.71 12.9567C22.1016 13.572 22.3553 14.2647 22.4538 14.9874C22.5523 15.71 22.4932 16.4454 22.2806 17.143C22.068 17.8406 21.7069 18.4839 21.2221 19.0288C20.7373 19.5736 20.1403 20.0071 19.4721 20.2994V20.2992Z" fill="#32343E"/>
<path d="M16.1224 10.1251C14.0202 10.1251 12.4412 11.8994 12.0018 14.7556C11.8233 15.916 12.161 17.0632 12.9526 17.986C13.766 18.9341 14.951 19.5 16.1224 19.5C17.2939 19.5 18.4789 18.934 19.2923 17.986C20.0839 17.0632 20.4216 15.916 20.2431 14.7556C19.8037 11.8994 18.2247 10.1251 16.1224 10.1251ZM18.7231 17.4976C18.0502 18.2819 17.078 18.7501 16.1224 18.7501C15.1668 18.7501 14.1947 18.2819 13.5218 17.4976C12.8749 16.7436 12.5984 15.8101 12.7431 14.8696C12.9256 13.6837 13.3262 12.6843 13.9019 11.9795C14.5004 11.2467 15.2476 10.8751 16.1224 10.8751C16.9973 10.8751 17.7443 11.2467 18.343 11.9795C18.9187 12.6843 19.3194 13.6836 19.5018 14.8696C19.6465 15.8103 19.37 16.7436 18.7231 17.4976Z" fill="#32343E"/>
<path d="M6.37519 6.37512C6.27573 6.37512 6.18035 6.41463 6.11002 6.48496C6.0397 6.55528 6.00019 6.65067 6.00019 6.75012C6.00032 7.20657 5.92674 7.66005 5.78227 8.09304L5.64445 8.50652C5.62832 8.55338 5.62163 8.60297 5.62478 8.65242C5.62793 8.70188 5.64084 8.75022 5.66279 8.79465C5.68473 8.83909 5.71526 8.87873 5.75262 8.91129C5.78997 8.94385 5.83341 8.96869 5.88042 8.98436C5.92744 9.00003 5.97709 9.00623 6.02651 9.0026C6.07593 8.99897 6.12414 8.98558 6.16836 8.9632C6.21258 8.94082 6.25192 8.9099 6.28411 8.87223C6.3163 8.83455 6.34071 8.79087 6.35592 8.74371L6.49378 8.33018C6.66377 7.82073 6.75035 7.28718 6.75019 6.75012C6.75019 6.65067 6.71068 6.55528 6.64035 6.48496C6.57003 6.41463 6.47464 6.37512 6.37519 6.37512Z" fill="#32343E"/>
<path d="M5.45795 18.4385L4.912 18.0746C4.564 17.8428 4.25806 17.5534 4.00731 17.2188C3.61478 16.6954 3.39424 16.0632 3.37609 15.4092C3.35794 14.7553 3.54307 14.1118 3.90596 13.5674C4.52246 12.6422 5.04145 11.6556 5.45462 10.6234L5.59806 10.2648C5.61635 10.219 5.62545 10.1702 5.62485 10.1209C5.62425 10.0717 5.61395 10.023 5.59455 9.97776C5.57515 9.9325 5.54703 9.8915 5.51178 9.85711C5.47654 9.82271 5.43486 9.7956 5.38914 9.77731C5.34341 9.75902 5.29453 9.74991 5.24529 9.75052C5.19605 9.75112 5.1474 9.76141 5.10214 9.78081C5.05688 9.80021 5.01588 9.82834 4.98148 9.86358C4.94709 9.89883 4.91997 9.9405 4.90168 9.98623L4.75825 10.3448C4.36433 11.3288 3.8695 12.2694 3.28168 13.1514C2.83272 13.8249 2.60368 14.621 2.62614 15.43C2.6486 16.2391 2.92144 17.0213 3.40707 17.6688C3.70878 18.0714 4.07693 18.4197 4.4957 18.6986L5.0416 19.0625C5.12436 19.117 5.22534 19.1366 5.32247 19.1169C5.41961 19.0972 5.505 19.0399 5.55998 18.9574C5.61496 18.875 5.63506 18.7741 5.61589 18.6768C5.59672 18.5796 5.53983 18.4939 5.45767 18.4385H5.45795Z" fill="#32343E"/>
<path d="M10.547 9.93762C10.7282 9.93762 10.8751 9.79072 10.8751 9.6095C10.8751 9.42828 10.7282 9.28137 10.547 9.28137C10.3658 9.28137 10.2189 9.42828 10.2189 9.6095C10.2189 9.79072 10.3658 9.93762 10.547 9.93762Z" fill="#32343E"/>
<path d="M9.797 10.8751C9.97822 10.8751 10.1251 10.7282 10.1251 10.547C10.1251 10.3658 9.97822 10.2189 9.797 10.2189C9.61578 10.2189 9.46887 10.3658 9.46887 10.547C9.46887 10.7282 9.61578 10.8751 9.797 10.8751Z" fill="#32343E"/>
<path d="M10.172 8.53137C10.3532 8.53137 10.5001 8.38447 10.5001 8.20325C10.5001 8.02203 10.3532 7.87512 10.172 7.87512C9.99078 7.87512 9.84387 8.02203 9.84387 8.20325C9.84387 8.38447 9.99078 8.53137 10.172 8.53137Z" fill="#32343E"/>
<path d="M9.51575 7.40637C9.69697 7.40637 9.84387 7.25947 9.84387 7.07825C9.84387 6.89703 9.69697 6.75012 9.51575 6.75012C9.33453 6.75012 9.18762 6.89703 9.18762 7.07825C9.18762 7.25947 9.33453 7.40637 9.51575 7.40637Z" fill="#32343E"/>
<path d="M9.422 9.65637C9.60322 9.65637 9.75012 9.50947 9.75012 9.32825C9.75012 9.14703 9.60322 9.00012 9.422 9.00012C9.24078 9.00012 9.09387 9.14703 9.09387 9.32825C9.09387 9.50947 9.24078 9.65637 9.422 9.65637Z" fill="#32343E"/>
<path d="M15.3009 16.6334C15.2691 16.5957 15.2303 16.5647 15.1865 16.5421C15.1428 16.5194 15.095 16.5056 15.046 16.5015C14.9969 16.4973 14.9475 16.5028 14.9005 16.5178C14.8536 16.5327 14.8101 16.5567 14.7724 16.5884C14.7348 16.6202 14.7038 16.659 14.6811 16.7028C14.6585 16.7465 14.6447 16.7943 14.6405 16.8433C14.6363 16.8924 14.6419 16.9418 14.6568 16.9888C14.6717 17.0357 14.6957 17.0792 14.7275 17.1169C14.7931 17.195 14.8634 17.2716 14.9358 17.3437C15.0062 17.4141 15.1016 17.4536 15.201 17.4536C15.3005 17.4536 15.3959 17.4141 15.4662 17.3437C15.5365 17.2734 15.576 17.178 15.576 17.0786C15.576 16.9791 15.5365 16.8837 15.4662 16.8134C15.4088 16.756 15.3531 16.6954 15.3009 16.6334Z" fill="#32343E"/>
<path d="M14.7543 15.6382C14.5884 15.1088 14.579 14.5427 14.7271 14.0081C14.7536 13.9122 14.741 13.8098 14.692 13.7232C14.643 13.6367 14.5616 13.5731 14.4658 13.5466C14.3699 13.52 14.2675 13.5326 14.1809 13.5816C14.0944 13.6306 14.0308 13.712 14.0043 13.8079C13.8176 14.4817 13.8296 15.1952 14.0386 15.8624C14.0686 15.9571 14.1348 16.036 14.2229 16.0819C14.3109 16.1278 14.4136 16.1369 14.5083 16.1073C14.6031 16.0776 14.6822 16.0115 14.7283 15.9236C14.7744 15.8356 14.7838 15.733 14.7543 15.6382Z" fill="#32343E"/>
</svg>
