<svg width="24" height="24" viewBox="0 0 24 24" fill="none" xmlns="http://www.w3.org/2000/svg">
<path d="M18.3289 20.5406C18.172 20.5406 18.0449 20.4134 18.0449 20.2566V19.6839C18.0449 19.527 18.1721 19.3999 18.3289 19.3999C18.4857 19.3999 18.6129 19.5271 18.6129 19.6839V20.2566C18.6129 20.4135 18.4857 20.5406 18.3289 20.5406Z" fill="#32343E"/>
<path d="M19.9475 19.5308C19.7906 19.5308 19.6635 19.4036 19.6635 19.2468V18.6742C19.6635 18.5173 19.7906 18.3901 19.9475 18.3901C20.1043 18.3901 20.2315 18.5173 20.2315 18.6742V19.2468C20.2314 19.4037 20.1043 19.5308 19.9475 19.5308Z" fill="#32343E"/>
<path d="M20.967 15.305C20.9784 15.2666 20.9905 15.2286 21.0009 15.1899C21.3721 13.8066 21.1497 12.2418 20.3578 10.6646C19.6342 9.22327 18.1798 7.86263 16.3676 6.93151C15.6381 6.55665 14.7273 6.20026 13.9182 6.06076C13.4454 5.65965 13.1535 5.06429 13.1535 4.41822V2.49522C13.1535 1.69896 12.5057 1.05115 11.7095 1.05115H10.0652C9.26891 1.05115 8.6211 1.69896 8.6211 2.49522V4.41822C8.6211 5.03209 8.35734 5.59984 7.92553 5.99903C6.98906 5.99607 5.7481 6.44856 4.80816 6.93151C2.99598 7.86263 1.54159 9.22327 0.817936 10.6646C0.0260323 12.2418 -0.196342 13.8066 0.174813 15.1899C0.528343 16.5074 1.4124 17.5792 2.6642 18.2077C3.36277 18.5584 4.1034 18.7349 4.8421 18.7348C5.42714 18.7348 6.01111 18.6241 6.57145 18.4016C6.78703 18.316 6.99698 18.2147 7.20108 18.0989C8.16815 19.1299 9.49199 19.6957 10.9463 19.6957C11.3634 19.6957 11.7695 19.6482 12.1598 19.5574C13.0582 21.5836 15.2777 23.0207 17.8667 23.0207C21.2486 23.0207 24 20.5686 24 17.5545C24 16.3625 22.6657 15.6594 20.967 15.305ZM15.935 7.77352C17.5726 8.61493 18.8762 9.8235 19.5119 11.0894C20.2479 12.5553 20.4024 13.9802 20.0254 15.1473C19.3157 15.055 18.5763 15.0131 17.8668 15.0131C17.3141 15.0131 16.7434 15.0386 16.1828 15.0935C16.2996 14.5299 16.3593 13.9283 16.3593 13.2948C16.3593 11.5466 15.616 9.51989 14.3199 7.73429C14.1424 7.48988 13.9437 7.23737 13.7309 6.98959C14.2845 7.08095 15.0513 7.31945 15.935 7.77352ZM9.56774 4.41822V2.49522C9.56774 2.22096 9.79091 1.99779 10.0652 1.99779H11.7095C11.9837 1.99779 12.2069 2.22096 12.2069 2.49522V4.41822C12.2069 4.91922 12.3292 5.39875 12.5477 5.82498C11.9975 5.38468 11.436 5.08614 10.9463 5.08614C10.3907 5.08614 9.74263 5.47018 9.12365 6.00995C9.40668 5.53975 9.56774 4.99318 9.56774 4.41822ZM6.22209 17.5218C5.20875 17.9242 4.09604 17.8675 3.08898 17.3617C0.903811 16.2645 0.331141 13.7439 1.66393 11.0894C2.29951 9.82345 3.60319 8.61488 5.24077 7.77352C6.42206 7.16659 7.39429 6.94468 7.92806 6.94468C8.02846 6.94468 8.11312 6.95265 8.18095 6.96723C7.96092 7.22213 7.75546 7.48252 7.5727 7.73429C6.27661 9.51989 5.53331 11.5466 5.53331 13.2948C5.53331 14.8749 5.90334 16.2569 6.60966 17.3425C6.48276 17.4091 6.35372 17.4695 6.22209 17.5218ZM10.9463 18.7491C8.27484 18.7491 6.47995 16.5572 6.47995 13.2948C6.47995 11.7419 7.15748 9.91786 8.33882 8.29036C9.45665 6.75034 10.5556 6.03282 10.9463 6.03282C11.337 6.03282 12.436 6.75034 13.5538 8.29036C14.7351 9.91786 15.4127 11.7419 15.4127 13.2948C15.4127 13.9916 15.3304 14.6393 15.1754 15.2274C13.2868 15.5512 11.7335 16.2683 11.7335 17.5546C11.7335 17.9325 11.7768 18.3016 11.8591 18.6581C11.5682 18.718 11.2634 18.7491 10.9463 18.7491ZM17.8667 22.0741C15.0068 22.0741 12.6801 20.0467 12.6801 17.5545C12.6801 17.1524 13.2056 16.7512 14.1217 16.4536C15.0881 16.1398 16.4531 15.9598 17.8667 15.9598C19.2804 15.9598 20.6454 16.1398 21.6117 16.4536C22.5278 16.7512 23.0533 17.1525 23.0533 17.5545C23.0533 20.0466 20.7266 22.0741 17.8667 22.0741Z" fill="#32343E"/>
<path d="M8.05775 13.2777C8.04472 13.2777 8.03155 13.2771 8.01833 13.276C7.7578 13.2546 7.56402 13.026 7.58549 12.7655C7.68814 11.5201 8.00572 10.4088 8.52936 9.46248C8.65592 9.23373 8.94392 9.151 9.17267 9.27751C9.40142 9.40412 9.4842 9.69212 9.35764 9.92082C8.89929 10.7491 8.62048 11.7323 8.52894 12.8432C8.50855 13.0905 8.3015 13.2777 8.05775 13.2777Z" fill="#32343E"/>
<path d="M10.0842 8.64022C9.96555 8.64022 9.84677 8.59588 9.75485 8.50677C9.56716 8.32485 9.56248 8.02518 9.7444 7.83749C9.87129 7.70657 10.0421 7.53702 10.2382 7.38669C10.4455 7.2276 10.7427 7.26683 10.9018 7.4743C11.0609 7.68172 11.0216 7.97886 10.8142 8.13791C10.6671 8.25074 10.5285 8.38874 10.4241 8.49636C10.3314 8.59208 10.2078 8.64022 10.0842 8.64022Z" fill="#32343E"/>
<path d="M2.28729 13.2547C2.25682 13.2547 2.22588 13.2517 2.19485 13.2455C1.93878 13.1947 1.77214 12.9466 1.82243 12.6905C1.83856 12.6084 2.23395 10.668 3.70052 9.52337C3.90658 9.36245 4.20405 9.39915 4.36483 9.60521C4.5257 9.81132 4.489 10.1087 4.28294 10.2696C3.09954 11.1932 2.75444 12.8572 2.75107 12.8738C2.70607 13.0988 2.50835 13.2547 2.28729 13.2547Z" fill="#32343E"/>
</svg>
