<svg width="24" height="24" viewBox="0 0 24 24" fill="none" xmlns="http://www.w3.org/2000/svg">
<path d="M20.216 3.78305C19.0822 2.64906 17.6224 2.01588 16.1054 2.00014C14.54 1.98487 13.0155 2.63706 11.8116 3.8393C10.7189 4.9306 9.9132 6.41896 9.60117 7.9227C9.25918 9.57002 8.47175 11.0475 7.3239 12.1955L7.27406 12.2453C7.16277 12.3566 7.10015 12.5075 7.10015 12.6649C7.10015 12.8224 7.16265 12.9733 7.27398 13.0847L7.53683 13.3475L5.28281 15.6017C4.93558 15.4068 4.53745 15.3066 4.13413 15.3192C3.52015 15.3383 2.95741 15.6033 2.54952 16.0652C1.81753 16.8944 1.8169 18.1455 2.54816 18.9752C2.9414 19.4216 3.48386 19.6862 4.07562 19.7203C4.18195 19.7264 4.27343 19.8179 4.27952 19.9243C4.31359 20.516 4.57816 21.0585 5.02449 21.4518C5.43906 21.8172 5.95878 21.9999 6.47859 21.9999C6.99898 21.9999 7.51949 21.8167 7.93429 21.4505C8.39629 21.0425 8.66125 20.4797 8.68031 19.8657C8.69281 19.4622 8.59273 19.0643 8.39777 18.7169L10.6518 16.4627L10.9148 16.7258C11.0307 16.8417 11.1826 16.8996 11.3345 16.8996C11.4862 16.8996 11.6381 16.8417 11.7539 16.726L11.8041 16.6759C12.9514 15.5285 14.4294 14.7409 16.0783 14.3981C17.5795 14.086 19.0658 13.2817 20.1559 12.1915C21.3605 10.9868 22.0154 9.46142 21.9999 7.89634C21.9848 6.37923 21.3513 4.91845 20.216 3.78305ZM7.19691 18.2392C6.96515 18.4709 6.96515 18.8467 7.19691 19.0785C7.39726 19.2789 7.50277 19.5454 7.49398 19.8288C7.48515 20.1119 7.36253 20.3718 7.14871 20.5606C6.77328 20.8921 6.1848 20.8924 5.80906 20.5613C5.60245 20.3792 5.48007 20.1288 5.46437 19.8561C5.42343 19.1441 4.85566 18.5763 4.1437 18.5353C3.87097 18.5196 3.62054 18.3971 3.43851 18.1906C3.10741 17.8148 3.10773 17.2263 3.43921 16.8508C3.62796 16.637 3.88784 16.5144 4.17093 16.5056C4.18191 16.5052 4.19284 16.505 4.20374 16.505C4.47491 16.505 4.72859 16.61 4.9212 16.8026C5.15288 17.0343 5.52863 17.0344 5.76042 16.8026L8.37605 14.1868L9.81258 15.6234L7.19691 18.2392ZM19.3167 11.352C18.3995 12.2692 17.0986 12.9735 15.8367 13.2358C14.1373 13.5891 12.5948 14.3604 11.3449 15.4772L8.52242 12.6546C9.63972 11.404 10.4107 9.86199 10.7632 8.1639C11.0255 6.89997 11.731 5.59725 12.6503 4.67917C14.617 2.71504 17.4459 2.69117 19.3767 4.62233C21.3088 6.55467 21.2836 9.38497 19.3167 11.352Z" fill="#32343E"/>
<ellipse cx="15.4091" cy="4.95452" rx="0.681819" ry="0.681818" fill="#32343E"/>
<ellipse cx="17.2274" cy="6.31805" rx="0.681819" ry="0.681818" fill="#32343E"/>
<ellipse cx="14.5002" cy="7.22723" rx="0.681818" ry="0.681818" fill="#32343E"/>
</svg>
