<svg width="24" height="24" viewBox="0 0 24 24" fill="none" xmlns="http://www.w3.org/2000/svg">
<path d="M16.078 8.59509L15.8434 8.68052L15.8594 8.92965C15.9375 10.1468 16.3265 11.6478 16.8214 13.1804C17.2919 14.6375 17.8661 16.1467 18.3808 17.4991C18.409 17.5735 18.4372 17.6474 18.4651 17.7208C19.2226 19.7137 17.7478 21.8528 15.6152 21.8528H8.38467C6.25269 21.8528 4.77711 19.7143 5.53481 17.7208C5.56856 17.632 5.60269 17.5424 5.63714 17.4518C6.13529 16.1431 6.70054 14.658 7.16783 13.214C7.66587 11.675 8.06178 10.1559 8.14049 8.92965L8.15648 8.68051L7.9219 8.59509C7.36161 8.39105 6.96165 7.8531 6.96165 7.22524C6.96165 6.56229 7.40788 5.99998 8.01715 5.82486L8.34495 5.73063L8.24323 5.40508C7.99307 4.60446 8.27949 3.81103 8.96796 3.19248C9.66053 2.57023 10.7453 2.14718 11.9999 2.14718C13.2543 2.14718 14.3392 2.57016 15.0319 3.19238C15.7204 3.8109 16.0069 4.60431 15.7567 5.40507L15.6549 5.73061L15.9827 5.82485C16.592 6.00001 17.0382 6.56229 17.0382 7.22524C17.0382 7.85311 16.6382 8.39105 16.078 8.59509ZM15.3353 8.99337L15.3144 8.68244H15.0028H8.99716H8.68552L8.66458 8.99337C8.55238 10.659 7.91378 12.7654 7.14507 14.9146L6.86312 15.7028L7.60972 15.3241L11.8808 13.1576L11.8808 13.1576C11.9556 13.1197 12.0442 13.1197 12.1191 13.1576L12.1191 13.1576L16.3902 15.3241L17.1368 15.7028L16.8549 14.9146C16.0861 12.7654 15.4475 10.659 15.3353 8.99337ZM10.5427 3.39636V2.86807L10.0659 3.09549C9.57837 3.32802 9.13548 3.67265 8.88673 4.1039C8.62673 4.55468 8.58928 5.08911 8.91319 5.61058L9.01099 5.76804H9.19634H14.8034H14.9888L15.0866 5.61057C15.3958 5.11275 15.3787 4.58897 15.1308 4.13503C14.8927 3.69903 14.4534 3.34321 13.9339 3.09549L13.4571 2.86808V3.39636V3.64417C13.4571 3.78969 13.3391 3.90768 13.1936 3.90768C13.0481 3.90768 12.9301 3.78969 12.9301 3.64417V3.048V2.75686L12.6416 2.71769C12.2144 2.6597 11.7853 2.6597 11.3582 2.7177L11.0697 2.75687V3.048V3.64417C11.0697 3.78969 10.9518 3.90768 10.8062 3.90768C10.6607 3.90768 10.5427 3.78969 10.5427 3.64417V3.39636ZM6.02747 17.908L6.33905 18.0265L6.02746 17.908C5.39961 19.5598 6.6159 21.3258 8.38467 21.3258H15.6152C17.3822 21.3258 18.6009 19.5614 17.9724 17.9081L17.6608 18.0265L17.9724 17.9081C17.9461 17.8389 17.9201 17.7705 17.8944 17.7028C17.7443 17.3082 17.6025 16.9352 17.4595 16.5555L17.4139 16.4343L17.2983 16.3757L12.1507 13.7646L11.9999 13.6881L11.8491 13.7646L6.70154 16.3757L6.58603 16.4343L6.54038 16.5555C6.39942 16.9298 6.2631 17.2883 6.10854 17.6948C6.08209 17.7644 6.0551 17.8353 6.02747 17.908ZM15.581 6.29506H8.41885C7.90566 6.29506 7.48867 6.71204 7.48867 7.22524C7.48867 7.73843 7.90566 8.15542 8.41885 8.15542H15.581C16.0942 8.15542 16.5112 7.73843 16.5112 7.22524C16.5112 6.71204 16.0942 6.29506 15.581 6.29506Z" fill="#FB6D3A" stroke="#FB6D3A" stroke-width="0.666667"/>
<path d="M9.61271 18.565C9.94234 18.565 10.2096 18.2978 10.2096 17.9682C10.2096 17.6386 9.94234 17.3713 9.61271 17.3713C9.28309 17.3713 9.01587 17.6386 9.01587 17.9682C9.01587 18.2978 9.28309 18.565 9.61271 18.565Z" fill="#FB6D3A"/>
<path d="M11.4032 16.7746C11.7329 16.7746 12.0001 16.5074 12.0001 16.1778C12.0001 15.8481 11.7329 15.5809 11.4032 15.5809C11.0736 15.5809 10.8064 15.8481 10.8064 16.1778C10.8064 16.5074 11.0736 16.7746 11.4032 16.7746Z" fill="#FB6D3A"/>
<path d="M12.597 19.162C12.9266 19.162 13.1938 18.8947 13.1938 18.5651C13.1938 18.2355 12.9266 17.9683 12.597 17.9683C12.2673 17.9683 12.0001 18.2355 12.0001 18.5651C12.0001 18.8947 12.2673 19.162 12.597 19.162Z" fill="#FB6D3A"/>
</svg>
