<svg width="26" height="26" viewBox="0 0 26 26" fill="none" xmlns="http://www.w3.org/2000/svg">
<mask id="path-1-inside-1_602_1336" fill="white">
<path d="M12.7878 2.14319L16.0807 8.81414L23.4443 9.89044L18.116 15.0801L19.3735 22.4118L12.7878 18.9484L6.20212 22.4118L7.45958 15.0801L2.13135 9.89044L9.49497 8.81414L12.7878 2.14319Z"/>
</mask>
<path d="M12.7878 2.14319L25.688 -4.2245C23.2644 -9.13457 18.2635 -12.243 12.7878 -12.243C7.31214 -12.243 2.31124 -9.13457 -0.112422 -4.2245L12.7878 2.14319ZM16.0807 8.81414L3.18043 15.1818C5.27419 19.4236 9.31939 22.365 14 23.0491L16.0807 8.81414ZM23.4443 9.89044L33.482 20.1961C37.404 16.3762 38.8177 10.6612 37.1291 5.45325C35.4405 0.245331 30.9422 -3.55272 25.5249 -4.34453L23.4443 9.89044ZM18.116 15.0801L8.0783 4.77445C4.68497 8.07955 3.13611 12.8433 3.93686 17.512L18.116 15.0801ZM19.3735 22.4118L12.6774 35.1447C17.5244 37.6936 23.3981 37.2696 27.8288 34.051C32.2594 30.8324 34.4784 25.3774 33.5527 19.9799L19.3735 22.4118ZM12.7878 18.9484L19.4839 6.21556C15.292 4.01109 10.2836 4.01109 6.09173 6.21556L12.7878 18.9484ZM6.20212 22.4118L-7.97707 19.9799C-8.90281 25.3774 -6.6838 30.8324 -2.25316 34.051C2.17748 37.2696 8.05126 37.6936 12.8982 35.1447L6.20212 22.4118ZM7.45958 15.0801L21.6388 17.512C22.4395 12.8433 20.8907 8.07955 17.4973 4.77445L7.45958 15.0801ZM2.13135 9.89044L0.0506933 -4.34453C-5.36659 -3.55272 -9.86487 0.245331 -11.5535 5.45325C-13.2421 10.6612 -11.8283 16.3762 -7.90639 20.1961L2.13135 9.89044ZM9.49497 8.81414L11.5756 23.0491C16.2562 22.365 20.3014 19.4236 22.3952 15.1818L9.49497 8.81414ZM-0.112422 8.51088L3.18043 15.1818L28.9809 2.44645L25.688 -4.2245L-0.112422 8.51088ZM14 23.0491L21.3636 24.1254L25.5249 -4.34453L18.1613 -5.42084L14 23.0491ZM13.4065 -0.415252L8.0783 4.77445L28.1538 25.3858L33.482 20.1961L13.4065 -0.415252ZM3.93686 17.512L5.19432 24.8437L33.5527 19.9799L32.2952 12.6482L3.93686 17.512ZM26.0696 9.67892L19.4839 6.21556L6.09173 31.6813L12.6774 35.1447L26.0696 9.67892ZM6.09173 6.21556L-0.493969 9.67892L12.8982 35.1447L19.4839 31.6813L6.09173 6.21556ZM20.3813 24.8437L21.6388 17.512L-6.71961 12.6482L-7.97707 19.9799L20.3813 24.8437ZM17.4973 4.77445L12.1691 -0.415252L-7.90639 20.1961L-2.57816 25.3858L17.4973 4.77445ZM4.212 24.1254L11.5756 23.0491L7.41431 -5.42084L0.0506933 -4.34453L4.212 24.1254ZM22.3952 15.1818L25.688 8.51088L-0.112422 -4.2245L-3.40527 2.44645L22.3952 15.1818Z" fill="#FB6D3A" mask="url(#path-1-inside-1_602_1336)"/>
</svg>
