<svg width="73" height="14" viewBox="0 0 73 14" fill="none" xmlns="http://www.w3.org/2000/svg">
<path d="M6.54154 1.09021L8.22597 4.50267L11.9928 5.05324L9.26715 7.70798L9.91039 11.4584L6.54154 9.68677L3.17269 11.4584L3.81594 7.70798L1.09033 5.05324L4.85712 4.50267L6.54154 1.09021Z" fill="#FB6D3A"/>
<path d="M21.3645 1.09021L23.049 4.50267L26.8158 5.05324L24.0901 7.70798L24.7334 11.4584L21.3645 9.68677L17.9957 11.4584L18.6389 7.70798L15.9133 5.05324L19.6801 4.50267L21.3645 1.09021Z" fill="#FB6D3A"/>
<path d="M36.1875 1.09021L37.872 4.50267L41.6388 5.05324L38.9131 7.70798L39.5564 11.4584L36.1875 9.68677L32.8187 11.4584L33.4619 7.70798L30.7363 5.05324L34.5031 4.50267L36.1875 1.09021Z" fill="#FB6D3A"/>
<path d="M51.0103 1.09021L52.6947 4.50267L56.4615 5.05324L53.7359 7.70798L54.3791 11.4584L51.0103 9.68677L47.6414 11.4584L48.2847 7.70798L45.5591 5.05324L49.3259 4.50267L51.0103 1.09021Z" fill="#FB6D3A"/>
<mask id="path-5-inside-1_602_443" fill="white">
<path d="M65.8335 1.09021L67.518 4.50267L71.2847 5.05324L68.5591 7.70798L69.2024 11.4584L65.8335 9.68677L62.4647 11.4584L63.1079 7.70798L60.3823 5.05324L64.1491 4.50267L65.8335 1.09021Z"/>
</mask>
<path d="M65.8335 1.09021L73.0072 -2.45078C71.6594 -5.18121 68.8785 -6.90979 65.8335 -6.90979C62.7886 -6.90979 60.0076 -5.18121 58.6599 -2.45078L65.8335 1.09021ZM67.518 4.50267L60.3443 8.04366C61.5086 10.4024 63.7581 12.0381 66.3609 12.4186L67.518 4.50267ZM71.2847 5.05324L76.8666 10.7841C79.0476 8.65986 79.8337 5.48184 78.8947 2.58578C77.9557 -0.310282 75.4543 -2.42233 72.4418 -2.86265L71.2847 5.05324ZM68.5591 7.70798L62.9773 1.97712C61.0903 3.81504 60.229 6.46409 60.6743 9.06033L68.5591 7.70798ZM69.2024 11.4584L65.4788 18.539C68.1741 19.9564 71.4404 19.7207 73.9043 17.9308C76.3681 16.141 77.602 13.1076 77.0873 10.1061L69.2024 11.4584ZM65.8335 9.68677L69.5571 2.60618C67.2261 1.3803 64.441 1.3803 62.1099 2.60618L65.8335 9.68677ZM62.4647 11.4584L54.5798 10.1061C54.065 13.1076 55.299 16.141 57.7628 17.9308C60.2266 19.7207 63.493 19.9564 66.1883 18.539L62.4647 11.4584ZM63.1079 7.70798L70.9928 9.06033C71.4381 6.46409 70.5768 3.81504 68.6898 1.97712L63.1079 7.70798ZM60.3823 5.05324L59.2253 -2.86265C56.2128 -2.42233 53.7114 -0.310282 52.7724 2.58578C51.8333 5.48184 52.6195 8.65986 54.8005 10.7841L60.3823 5.05324ZM64.1491 4.50267L65.3061 12.4186C67.909 12.0381 70.1585 10.4024 71.3228 8.04366L64.1491 4.50267ZM58.6599 4.6312L60.3443 8.04366L74.6916 0.961677L73.0072 -2.45078L58.6599 4.6312ZM66.3609 12.4186L70.1277 12.9691L72.4418 -2.86265L68.675 -3.41322L66.3609 12.4186ZM65.7029 -0.677624L62.9773 1.97712L74.141 13.4388L76.8666 10.7841L65.7029 -0.677624ZM60.6743 9.06033L61.3175 12.8108L77.0873 10.1061L76.444 6.35563L60.6743 9.06033ZM72.926 4.37783L69.5571 2.60618L62.1099 16.7674L65.4788 18.539L72.926 4.37783ZM62.1099 2.60618L58.7411 4.37783L66.1883 18.539L69.5571 16.7674L62.1099 2.60618ZM70.3496 12.8108L70.9928 9.06033L55.2231 6.35563L54.5798 10.1061L70.3496 12.8108ZM68.6898 1.97712L65.9642 -0.677624L54.8005 10.7841L57.5261 13.4388L68.6898 1.97712ZM61.5394 12.9691L65.3061 12.4186L62.9921 -3.41322L59.2253 -2.86265L61.5394 12.9691ZM71.3228 8.04366L73.0072 4.6312L58.6599 -2.45078L56.9755 0.961677L71.3228 8.04366Z" fill="#FB6D3A" mask="url(#path-5-inside-1_602_443)"/>
</svg>
