<svg width="17" height="18" viewBox="0 0 17 18" fill="none" xmlns="http://www.w3.org/2000/svg">
<mask id="path-1-inside-1_602_1239" fill="white">
<path d="M8.29663 1.93884L10.4331 6.26712L15.2108 6.96545L11.7537 10.3327L12.5696 15.0896L8.29663 12.8425L4.02366 15.0896L4.83954 10.3327L1.38245 6.96545L6.16014 6.26712L8.29663 1.93884Z"/>
</mask>
<path d="M8.29663 1.93884L16.1743 -1.94964C14.6942 -4.94802 11.6404 -6.84623 8.29663 -6.84623C4.95286 -6.84623 1.89901 -4.94802 0.418984 -1.94964L8.29663 1.93884ZM10.4331 6.26712L2.55547 10.1556C3.83404 12.7459 6.30428 14.5421 9.16254 14.9598L10.4331 6.26712ZM15.2108 6.96545L21.3404 13.2587C23.7354 10.926 24.5987 7.43611 23.5676 4.25584C22.5364 1.07558 19.7895 -1.24373 16.4814 -1.72726L15.2108 6.96545ZM11.7537 10.3327L5.62408 4.0394C3.55191 6.05769 2.60609 8.9667 3.09507 11.8177L11.7537 10.3327ZM12.5696 15.0896L8.48056 22.865C11.4404 24.4216 15.0273 24.1627 17.7329 22.1972C20.4385 20.2317 21.7935 16.9006 21.2282 13.6046L12.5696 15.0896ZM8.29663 12.8425L12.3856 5.06707C9.82583 3.72088 6.76742 3.72088 4.2076 5.06707L8.29663 12.8425ZM4.02366 15.0896L-4.63498 13.6046C-5.20029 16.9006 -3.84524 20.2317 -1.13963 22.1972C1.56598 24.1627 5.15285 24.4216 8.11269 22.865L4.02366 15.0896ZM4.83954 10.3327L13.4982 11.8177C13.9872 8.9667 13.0413 6.05769 10.9692 4.0394L4.83954 10.3327ZM1.38245 6.96545L0.111876 -1.72726C-3.19623 -1.24373 -5.94315 1.07558 -6.97432 4.25584C-8.00549 7.43611 -7.14216 10.926 -4.74719 13.2587L1.38245 6.96545ZM6.16014 6.26712L7.43071 14.9598C10.289 14.5421 12.7592 12.7459 14.0378 10.1556L6.16014 6.26712ZM0.418984 5.82733L2.55547 10.1556L18.3107 2.37863L16.1743 -1.94964L0.418984 5.82733ZM9.16254 14.9598L13.9402 15.6582L16.4814 -1.72726L11.7037 -2.42559L9.16254 14.9598ZM9.08117 0.672191L5.62408 4.0394L17.8834 16.6259L21.3404 13.2587L9.08117 0.672191ZM3.09507 11.8177L3.91094 16.5747L21.2282 13.6046L20.4124 8.8476L3.09507 11.8177ZM16.6586 7.31417L12.3856 5.06707L4.2076 20.6179L8.48056 22.865L16.6586 7.31417ZM4.2076 5.06707L-0.0653614 7.31417L8.11269 22.865L12.3856 20.6179L4.2076 5.06707ZM12.6823 16.5747L13.4982 11.8177L-3.81911 8.8476L-4.63498 13.6046L12.6823 16.5747ZM10.9692 4.0394L7.51208 0.672191L-4.74719 13.2587L-1.2901 16.6259L10.9692 4.0394ZM2.65302 15.6582L7.43071 14.9598L4.88957 -2.42559L0.111876 -1.72726L2.65302 15.6582ZM14.0378 10.1556L16.1743 5.82733L0.418984 -1.94964L-1.7175 2.37863L14.0378 10.1556Z" fill="#FB6D3A" mask="url(#path-1-inside-1_602_1239)"/>
</svg>
