<svg width="24" height="24" viewBox="0 0 24 24" fill="none" xmlns="http://www.w3.org/2000/svg">
<path d="M4.87608 11.9897C4.87335 11.8903 4.83123 11.796 4.759 11.7276C4.68676 11.6593 4.59033 11.6224 4.49091 11.6251C4.39149 11.6279 4.29723 11.67 4.22886 11.7422C4.1605 11.8145 4.12363 11.9109 4.12636 12.0103C4.14084 12.5901 4.28786 13.1589 4.55616 13.6731C4.57874 13.717 4.60977 13.7561 4.64749 13.788C4.68521 13.8199 4.72886 13.844 4.77594 13.859C4.82302 13.874 4.8726 13.8796 4.92183 13.8753C4.97106 13.8711 5.01896 13.8572 5.0628 13.8344C5.10663 13.8116 5.14552 13.7804 5.17725 13.7425C5.20897 13.7046 5.23289 13.6608 5.24764 13.6137C5.26239 13.5665 5.26767 13.5169 5.26318 13.4677C5.2587 13.4185 5.24454 13.3706 5.22151 13.3269C5.00582 12.9134 4.88767 12.456 4.87608 11.9897Z" fill="#32343E"/>
<path d="M4.54411 11.233C4.59115 11.2476 4.6406 11.2529 4.68965 11.2484C4.7387 11.2439 4.78638 11.2297 4.82997 11.2068C4.87355 11.1838 4.91219 11.1525 4.94366 11.1146C4.97513 11.0768 4.99882 11.033 5.01338 10.986C5.04869 10.8723 5.09057 10.7607 5.13882 10.6518C5.15952 10.6067 5.17105 10.5579 5.17275 10.5083C5.17445 10.4587 5.16628 10.4092 5.14872 10.3628C5.13115 10.3164 5.10454 10.2739 5.07043 10.2378C5.03632 10.2017 4.99538 10.1728 4.95 10.1527C4.90462 10.1326 4.85569 10.1216 4.80605 10.1206C4.75642 10.1195 4.70707 10.1283 4.66086 10.1464C4.61465 10.1646 4.57251 10.1917 4.53687 10.2263C4.50124 10.2609 4.47282 10.3022 4.45327 10.3478C4.39321 10.4833 4.34108 10.6222 4.29713 10.7637C4.28253 10.8107 4.27734 10.8602 4.28185 10.9092C4.28636 10.9583 4.30049 11.0059 4.32342 11.0495C4.34636 11.0931 4.37765 11.1317 4.41552 11.1632C4.45338 11.1947 4.49708 11.2184 4.54411 11.233Z" fill="#32343E"/>
<path d="M18.4011 7.82122C18.6774 7.14488 18.7922 6.41341 18.7363 5.68494L18.6238 4.22159C18.6169 4.13234 18.5783 4.0485 18.515 3.98521C18.4517 3.92193 18.3678 3.88339 18.2785 3.87655L16.8151 3.76405C15.8847 3.69341 14.9542 3.9006 14.1416 4.35936C13.9234 3.36053 13.3851 2.46024 12.6085 1.7953L11.4941 0.840266C11.4262 0.782017 11.3396 0.75 11.2501 0.75C11.1606 0.75 11.074 0.782017 11.0061 0.840266L9.89166 1.7953C9.20622 2.38284 8.70445 3.15533 8.44633 4.02044C8.18822 4.88555 8.18466 5.80669 8.4361 6.67377C8.28028 6.6597 8.12325 6.65155 7.965 6.65155C6.85131 6.65153 5.76645 7.00557 4.86717 7.66252C3.96788 8.31947 3.30073 9.24531 2.96212 10.3063C2.6235 11.3672 2.63096 12.5084 2.9834 13.5648C3.33584 14.6213 4.01502 15.5383 4.92282 16.1835C4.72681 16.9466 4.69234 17.7422 4.82161 18.5193C4.95087 19.2965 5.24102 20.0381 5.67348 20.6967C6.10594 21.3552 6.67117 21.9162 7.33297 22.3437C7.99477 22.7711 8.73855 23.0557 9.51668 23.179C10.2948 23.3024 11.0901 23.2619 11.8517 23.0602C12.6133 22.8584 13.3243 22.4998 13.9393 22.0073C14.5543 21.5149 15.0596 20.8994 15.4229 20.2004C15.7863 19.5013 15.9996 18.734 16.0493 17.9478C16.1986 17.9604 16.3486 17.9671 16.4986 17.9671C17.7234 17.9671 18.9098 17.539 19.8523 16.7568C20.7949 15.9745 21.4344 14.8874 21.6601 13.6835C21.8858 12.4796 21.6836 11.2347 21.0885 10.1641C20.4933 9.09359 19.5426 8.26477 18.4009 7.82108L18.4011 7.82122ZM16.4987 7.46445C16.151 7.46449 15.8042 7.49889 15.4633 7.56716L15.9784 7.05209L17.7268 7.4892C17.7124 7.52595 17.6974 7.5625 17.6819 7.59884C17.2938 7.50932 16.8969 7.46423 16.4987 7.46445ZM9.32944 3.78477L10.8751 4.71233V6.10381L9.01341 5.03975C9.04899 4.60694 9.15577 4.18298 9.32944 3.78495V3.78477ZM13.4868 5.03975L11.6251 6.10381V4.71233L13.1708 3.78495C13.3444 4.18304 13.4512 4.60707 13.4868 5.03994V5.03975ZM11.6251 6.96763L13.4607 5.9187C13.3161 6.94098 12.7769 7.86598 11.9586 8.49547C11.8527 8.37184 11.7415 8.25356 11.6251 8.14063V6.96763ZM12.5194 9.28897C12.4824 9.22456 12.444 9.16108 12.4044 9.09852C12.9428 8.68722 13.3857 8.16432 13.7029 7.5657L13.8529 8.11653C13.8529 8.11653 13.7005 8.26925 13.6957 8.27422C13.2556 8.55253 12.8591 8.89449 12.5191 9.28897H12.5194ZM17.9384 5.09202L17.9884 5.74245C18.0146 6.08516 17.996 6.42982 17.933 6.7677L16.5968 6.43363L17.9384 5.09202ZM16.7576 4.51166L17.4081 4.56167L16.0665 5.90328L15.7325 4.56734C16.0703 4.50419 16.4149 4.48547 16.7576 4.51166ZM15.0112 4.77458L15.448 6.52175L14.4641 7.5057L14.147 6.3432C14.2155 6.02149 14.2501 5.69347 14.2501 5.36455C14.2501 5.30155 14.2485 5.23873 14.246 5.17602C14.4856 5.01457 14.7422 4.87995 15.0112 4.77458ZM12.8066 3.12875L11.6251 3.83769V1.94033L12.1204 2.36488C12.3814 2.5886 12.612 2.84539 12.8066 3.12875ZM10.3798 2.36469L10.8751 1.94028V3.83769L9.69385 3.12875C9.88832 2.8454 10.1189 2.58861 10.3798 2.36488V2.36469ZM9.03943 5.91847L10.8751 6.96763V7.53613C10.3866 7.21042 9.84721 6.96849 9.2791 6.8203C9.16366 6.53034 9.0832 6.22766 9.03943 5.91866V5.91847ZM3.46364 11.9031C3.46371 10.8823 3.81077 9.89174 4.44787 9.09407C5.08497 8.29639 5.97427 7.73896 6.96987 7.51321C7.96547 7.28746 9.00823 7.40682 9.92707 7.85169C10.8459 8.29656 11.5863 9.04053 12.0266 9.96153C11.6424 10.584 11.3933 11.2803 11.2954 12.0053C10.038 11.8048 8.74972 12.0343 7.63885 12.6565C6.52797 13.2788 5.65939 14.2575 5.1735 15.4344C4.6403 15.0131 4.20945 14.4766 3.91331 13.865C3.61717 13.2534 3.46343 12.5827 3.46364 11.9031ZM10.4032 22.5C9.43253 22.5 8.48366 22.2121 7.67657 21.6729C6.86949 21.1336 6.24044 20.3671 5.86898 19.4703C5.49752 18.5735 5.40033 17.5867 5.5897 16.6347C5.77907 15.6827 6.24649 14.8082 6.93286 14.1218C7.61923 13.4355 8.49372 12.968 9.44574 12.7787C10.3978 12.5893 11.3846 12.6865 12.2813 13.0579C13.1781 13.4294 13.9446 14.0585 14.4839 14.8655C15.0232 15.6726 15.311 16.6215 15.311 17.5922C15.3096 18.8934 14.792 20.1408 13.8719 21.0609C12.9519 21.981 11.7044 22.4985 10.4032 22.5ZM16.4987 17.2172C16.3477 17.2172 16.1966 17.2087 16.0467 17.1937C15.9642 16.0487 15.536 14.9558 14.8189 14.0593C14.1017 13.1629 13.1294 12.5053 12.0304 12.1734C12.1349 11.3126 12.4858 10.5003 13.041 9.83418C13.5961 9.16804 14.3319 8.67644 15.1597 8.41846C15.9876 8.16048 16.8724 8.14712 17.7076 8.37997C18.5429 8.61283 19.2932 9.08199 19.8682 9.73106C20.4432 10.3801 20.8185 11.1815 20.9489 12.0387C21.0794 12.896 20.9594 13.7727 20.6035 14.5634C20.2476 15.3541 19.6709 16.0252 18.9427 16.496C18.2145 16.9668 17.3658 17.2172 16.4987 17.2172Z" fill="#32343E"/>
<path d="M7.14462 11.3203C7.2005 11.2795 7.26788 11.2576 7.33704 11.2576C7.4062 11.2576 7.47358 11.2795 7.52946 11.3203C7.65722 11.4153 7.81219 11.4666 7.9714 11.4666C8.13061 11.4666 8.28558 11.4153 8.41334 11.3203C8.54316 11.2281 8.63983 11.0966 8.68902 10.9452C8.73821 10.7938 8.7373 10.6305 8.68643 10.4797C8.66494 10.414 8.66487 10.3431 8.68625 10.2773C8.70762 10.2116 8.74933 10.1543 8.80535 10.1137C8.93381 10.0204 9.02943 9.8888 9.0785 9.73779C9.12757 9.58678 9.12757 9.42411 9.07851 9.2731C9.02944 9.12208 8.93383 8.99048 8.80537 8.89715C8.67691 8.80382 8.5222 8.75355 8.36341 8.75356C8.29426 8.75369 8.22685 8.73185 8.17091 8.6912C8.11496 8.65056 8.07336 8.59319 8.05212 8.52739C8.00307 8.37637 7.90746 8.24476 7.77901 8.15142C7.65055 8.05808 7.49585 8.00781 7.33706 8.00781C7.17828 8.00781 7.02357 8.05808 6.89512 8.15142C6.76667 8.24476 6.67106 8.37637 6.62201 8.52739C6.60075 8.5932 6.55915 8.65056 6.5032 8.69121C6.44724 8.73186 6.37983 8.75369 6.31067 8.75356C6.1519 8.75357 5.9972 8.80384 5.86875 8.89717C5.74031 8.99049 5.6447 9.12209 5.59564 9.27309C5.54657 9.42409 5.54657 9.58675 5.59563 9.73775C5.64469 9.88875 5.74029 10.0204 5.86873 10.1137C5.92475 10.1542 5.96646 10.2115 5.98783 10.2773C6.0092 10.3431 6.00914 10.4139 5.98765 10.4797C5.93857 10.6307 5.93856 10.7934 5.98761 10.9444C6.03667 11.0954 6.13228 11.227 6.26074 11.3203C6.38919 11.4137 6.5439 11.4639 6.70268 11.4639C6.86146 11.4639 7.01617 11.4136 7.14462 11.3203ZM6.30935 9.5067L6.30837 9.50595C6.30856 9.50505 6.30883 9.50418 6.30917 9.50332H6.31048C6.53809 9.50374 6.75995 9.43188 6.94409 9.29809C7.12823 9.1643 7.26514 8.9755 7.33507 8.7589L7.33554 8.75768H7.33821L7.33863 8.7589C7.40858 8.97549 7.54549 9.16427 7.72963 9.29805C7.91377 9.43183 8.13562 9.50369 8.36323 9.50328H8.36454C8.36487 9.50414 8.36515 9.50501 8.36538 9.5059L8.36435 9.5067C8.17996 9.64013 8.0427 9.82867 7.97235 10.0451C7.90201 10.2616 7.90222 10.4948 7.97295 10.7112L7.97337 10.7124C7.97266 10.713 7.97193 10.7135 7.97116 10.714L7.97009 10.7133C7.78621 10.5792 7.56449 10.5069 7.33688 10.5069C7.10927 10.5069 6.88754 10.5792 6.70367 10.7133L6.70259 10.7141C6.7018 10.7136 6.70105 10.713 6.70034 10.7125L6.70076 10.7112C6.77149 10.4949 6.7717 10.2617 6.70135 10.0452C6.63101 9.82871 6.49375 9.64015 6.30935 9.5067Z" fill="#32343E"/>
<path d="M19.4788 11.9287C19.3822 11.8881 19.3011 11.8179 19.2471 11.7282C19.193 11.6385 19.1688 11.5339 19.178 11.4296C19.1933 11.2524 19.1521 11.0749 19.0603 10.9226C18.9685 10.7702 18.8308 10.6508 18.667 10.5816C18.5032 10.5123 18.3217 10.4966 18.1484 10.5368C17.9752 10.5771 17.8191 10.6711 17.7026 10.8055C17.6341 10.8847 17.5422 10.9402 17.4402 10.9639C17.3382 10.9875 17.2313 10.9782 17.135 10.9373C16.9712 10.868 16.7896 10.8523 16.6164 10.8926C16.4431 10.9328 16.287 11.0268 16.1705 11.1612C16.054 11.2956 15.983 11.4634 15.9677 11.6406C15.9525 11.8178 15.9937 11.9953 16.0855 12.1477C16.1397 12.2373 16.164 12.3418 16.155 12.4461C16.146 12.5504 16.1042 12.6492 16.0354 12.7282C15.9189 12.8626 15.8479 13.0304 15.8326 13.2076C15.8173 13.3849 15.8585 13.5623 15.9503 13.7147C16.0421 13.867 16.1798 13.9864 16.3436 14.0557C16.5074 14.125 16.6889 14.1407 16.8622 14.1004C16.9642 14.0765 17.0711 14.0857 17.1676 14.1265C17.264 14.1673 17.345 14.2376 17.3989 14.3274C17.472 14.4519 17.5763 14.5551 17.7016 14.6267C17.8268 14.6984 17.9687 14.7361 18.113 14.736C18.1796 14.736 18.2459 14.7283 18.3108 14.7131C18.4849 14.6747 18.642 14.5812 18.7589 14.4465C18.8757 14.3117 18.946 14.143 18.9594 13.9651C18.9682 13.8608 19.0099 13.7619 19.0785 13.6827C19.1471 13.6036 19.2391 13.5483 19.3412 13.5248C19.5144 13.4846 19.6705 13.3905 19.787 13.2561C19.9035 13.1218 19.9745 12.9539 19.9898 12.7767C20.005 12.5995 19.9638 12.4221 19.872 12.2697C19.7802 12.1174 19.6426 11.998 19.4788 11.9287ZM19.1715 12.7942C18.9151 12.8533 18.684 12.9923 18.5116 13.1911C18.3392 13.39 18.2343 13.6384 18.2122 13.9007C18.2105 13.9201 18.2027 13.9384 18.19 13.9531C18.1772 13.9678 18.1601 13.9781 18.1412 13.9825C18.1222 13.9869 18.1023 13.9852 18.0844 13.9777C18.0665 13.9701 18.0514 13.957 18.0413 13.9404C17.931 13.7564 17.7749 13.6042 17.5882 13.4985C17.4016 13.3928 17.1907 13.3372 16.9762 13.3372C16.8807 13.3373 16.7855 13.3483 16.6926 13.37C16.6736 13.3744 16.6538 13.3726 16.6359 13.365C16.6181 13.3574 16.603 13.3444 16.593 13.3278C16.583 13.3112 16.5784 13.2918 16.5801 13.2724C16.5817 13.2531 16.5894 13.2347 16.602 13.22C16.7748 13.0215 16.8801 12.7732 16.9027 12.511C16.9253 12.2488 16.8641 11.9862 16.7279 11.761C16.7178 11.7443 16.7133 11.7249 16.715 11.7055C16.7166 11.686 16.7244 11.6677 16.7372 11.653C16.7499 11.6382 16.767 11.6279 16.786 11.6235C16.805 11.6191 16.8249 11.6208 16.8428 11.6284C17.085 11.7314 17.3537 11.7547 17.6101 11.6952C17.8664 11.6356 18.0973 11.4961 18.2693 11.2969C18.282 11.2822 18.2991 11.2719 18.3181 11.2675C18.3371 11.2631 18.357 11.2648 18.3749 11.2724C18.3928 11.28 18.4079 11.2931 18.4179 11.3097C18.428 11.3264 18.4325 11.3459 18.4308 11.3653C18.4077 11.6274 18.4685 11.8902 18.6043 12.1156C18.7401 12.341 18.944 12.5175 19.1866 12.6196C19.2045 12.6272 19.2196 12.6402 19.2297 12.6569C19.2397 12.6736 19.2443 12.693 19.2426 12.7124C19.2409 12.7318 19.2332 12.7502 19.2204 12.7649C19.2076 12.7796 19.1905 12.7899 19.1715 12.7943V12.7942Z" fill="#32343E"/>
<path d="M11.8703 15.0813C11.7277 15.0816 11.5886 15.0365 11.4732 14.9527C11.3578 14.8688 11.272 14.7505 11.2281 14.6148C11.1669 14.4262 11.0475 14.262 10.8872 14.1455C10.7268 14.0289 10.5337 13.9662 10.3355 13.9662C10.1373 13.9662 9.94419 14.0289 9.78384 14.1455C9.62349 14.262 9.50414 14.4262 9.4429 14.6148C9.39905 14.7505 9.31324 14.8688 9.19783 14.9527C9.08242 15.0365 8.94337 15.0816 8.80072 15.0813C8.60251 15.0813 8.4094 15.1441 8.24906 15.2606C8.08871 15.3771 7.96936 15.5414 7.90812 15.7299C7.84687 15.9184 7.84687 16.1215 7.90811 16.31C7.96936 16.4985 8.0887 16.6627 8.24905 16.7793C8.36463 16.8629 8.45066 16.9811 8.49475 17.1167C8.53884 17.2524 8.53869 17.3986 8.49434 17.5342C8.4331 17.7227 8.43311 17.9257 8.49436 18.1142C8.55561 18.3027 8.67497 18.467 8.83532 18.5835C8.99567 18.7 9.18878 18.7628 9.38698 18.7628C9.58518 18.7628 9.7783 18.7 9.93865 18.5835C10.0539 18.4994 10.1929 18.4541 10.3356 18.4541C10.4783 18.4541 10.6173 18.4994 10.7325 18.5835C10.892 18.7021 11.0854 18.7662 11.2842 18.7662C11.4829 18.7662 11.6764 18.7021 11.8359 18.5835C11.9979 18.4685 12.1186 18.3043 12.18 18.1153C12.2414 17.9263 12.2403 17.7225 12.1768 17.5342C12.1324 17.3986 12.1323 17.2525 12.1763 17.1168C12.2204 16.9811 12.3064 16.8629 12.4219 16.7792C12.5822 16.6627 12.7016 16.4984 12.7629 16.3099C12.8241 16.1214 12.8241 15.9184 12.7629 15.7299C12.7016 15.5413 12.5823 15.3771 12.4219 15.2606C12.2616 15.1441 12.0684 15.0813 11.8702 15.0813H11.8703ZM11.9812 16.1725C11.7372 16.349 11.5556 16.5985 11.4625 16.8849C11.3695 17.1714 11.3698 17.48 11.4634 17.7662C11.4757 17.8041 11.4757 17.8449 11.4635 17.8828C11.4512 17.9207 11.4272 17.9537 11.395 17.9771C11.3627 18.0005 11.3239 18.0132 11.2841 18.0132C11.2443 18.0132 11.2055 18.0006 11.1732 17.9772C10.93 17.7997 10.6366 17.7041 10.3355 17.7041C10.0344 17.7041 9.74102 17.7997 9.49775 17.9772C9.46552 18.0005 9.42671 18.0131 9.38688 18.0131C9.34705 18.0131 9.30825 18.0005 9.27603 17.9771C9.24382 17.9537 9.21984 17.9207 9.20754 17.8828C9.19523 17.8449 9.19524 17.8041 9.20754 17.7662C9.30112 17.48 9.3014 17.1715 9.20835 16.8851C9.11529 16.5987 8.9337 16.3493 8.68976 16.1727C8.65755 16.1493 8.63357 16.1163 8.62127 16.0784C8.60897 16.0406 8.60897 15.9998 8.62127 15.9619C8.63358 15.924 8.65756 15.891 8.68978 15.8676C8.722 15.8442 8.7608 15.8316 8.80062 15.8315C9.10174 15.8321 9.39525 15.737 9.63886 15.56C9.88248 15.383 10.0636 15.1333 10.1562 14.8467C10.1684 14.8089 10.1924 14.7759 10.2246 14.7524C10.2568 14.729 10.2956 14.7164 10.3355 14.7164C10.3753 14.7164 10.4141 14.729 10.4463 14.7524C10.4785 14.7759 10.5025 14.8089 10.5148 14.8467C10.6073 15.1333 10.7885 15.383 11.0321 15.56C11.2757 15.737 11.5692 15.8321 11.8703 15.8315C11.9101 15.8315 11.949 15.8441 11.9812 15.8675C12.0134 15.891 12.0374 15.924 12.0497 15.9618C12.062 15.9997 12.062 16.0405 12.0497 16.0784C12.0374 16.1163 12.0134 16.1493 11.9812 16.1727V16.1725Z" fill="#32343E"/>
<path d="M10.3525 16.0176C10.2621 16.0176 10.1737 16.0444 10.0985 16.0946C10.0233 16.1448 9.96469 16.2162 9.93008 16.2998C9.89547 16.3833 9.88641 16.4752 9.90404 16.5639C9.92168 16.6526 9.96522 16.7341 10.0291 16.798C10.0931 16.862 10.1745 16.9055 10.2632 16.9231C10.3519 16.9408 10.4438 16.9317 10.5274 16.8971C10.6109 16.8625 10.6823 16.8039 10.7326 16.7288C10.7828 16.6536 10.8096 16.5652 10.8096 16.4748C10.8096 16.3535 10.7614 16.2372 10.6757 16.1515C10.59 16.0658 10.4737 16.0176 10.3525 16.0176Z" fill="#32343E"/>
<path d="M17.8595 12.208C17.7892 12.208 17.7205 12.2288 17.662 12.2679C17.6035 12.307 17.5579 12.3625 17.531 12.4275C17.5041 12.4925 17.497 12.564 17.5107 12.6329C17.5244 12.7019 17.5583 12.7653 17.608 12.815C17.6578 12.8648 17.7211 12.8986 17.7901 12.9124C17.8591 12.9261 17.9306 12.919 17.9956 12.8921C18.0605 12.8652 18.1161 12.8196 18.1552 12.7612C18.1942 12.7027 18.2151 12.6339 18.2151 12.5636C18.2151 12.4693 18.1776 12.3789 18.111 12.3122C18.0443 12.2455 17.9538 12.208 17.8595 12.208Z" fill="#32343E"/>
<path d="M7.29883 10.1429C7.35909 10.1429 7.418 10.1251 7.46811 10.0916C7.51821 10.0581 7.55727 10.0105 7.58033 9.95486C7.60339 9.89918 7.60942 9.83792 7.59767 9.77882C7.58591 9.71971 7.55689 9.66542 7.51428 9.62281C7.47167 9.5802 7.41738 9.55118 7.35827 9.53942C7.29917 9.52767 7.23791 9.5337 7.18223 9.55676C7.12656 9.57982 7.07897 9.61888 7.04549 9.66898C7.01201 9.71909 6.99414 9.778 6.99414 9.83826C6.99414 9.91907 7.02624 9.99657 7.08338 10.0537C7.14052 10.1108 7.21802 10.1429 7.29883 10.1429Z" fill="#32343E"/>
</svg>
