<svg width="12" height="12" viewBox="0 0 12 12" fill="none" xmlns="http://www.w3.org/2000/svg">
<path d="M6 1C4.06778 1 2.5 2.43996 2.5 4.21429C2.5 7.07143 6 11 6 11C6 11 9.5 7.07143 9.5 4.21429C9.5 2.43996 7.93222 1 6 1ZM6 6C5.72311 6 5.45243 5.91622 5.2222 5.75924C4.99197 5.60227 4.81253 5.37916 4.70657 5.11812C4.60061 4.85708 4.57288 4.56984 4.6269 4.29273C4.68092 4.01561 4.81426 3.76107 5.01005 3.56128C5.20584 3.36149 5.4553 3.22543 5.72687 3.17031C5.99845 3.11519 6.27994 3.14348 6.53576 3.2516C6.79157 3.35973 7.01022 3.54283 7.16406 3.77776C7.31789 4.01268 7.4 4.28888 7.4 4.57143C7.39959 4.95018 7.25197 5.3133 6.9895 5.58112C6.72704 5.84894 6.37118 5.99959 6 6Z" fill="#AFAFAF"/>
</svg>
