<svg width="24" height="24" viewBox="0 0 24 24" fill="none" xmlns="http://www.w3.org/2000/svg">
<path d="M19.8011 5.8258C20.07 5.01956 20.0663 4.14798 19.7905 3.34405C19.5146 2.54011 18.9819 1.84796 18.2734 1.37317C17.0595 0.558971 15.7575 0.363371 14.6075 0.82258C13.4427 1.28773 12.5919 2.39178 12.2734 3.8516C12.1699 4.32652 12.074 4.83305 11.9882 5.3572C11.9358 5.67752 11.8736 6.00952 11.8034 6.34401C11.7947 6.39098 11.7712 6.434 11.7364 6.46693C11.7016 6.49985 11.6572 6.521 11.6096 6.52735C11.5607 6.53589 11.5104 6.52919 11.4656 6.50816C11.4207 6.48713 11.3835 6.45281 11.3591 6.40991C11.0531 5.88729 10.7883 5.38823 10.5723 4.92634C10.4532 4.67354 10.2831 4.44773 10.0726 4.2629C9.86215 4.07807 9.61578 3.93815 9.34873 3.85179C9.09281 3.7667 8.82188 3.7355 8.55317 3.76017C8.28446 3.78484 8.02385 3.86484 7.78793 3.99509C7.32951 4.24551 6.98866 4.66529 6.83912 5.16362C6.68958 5.66196 6.74336 6.19879 6.98884 6.658C7.73802 8.08333 9.25277 9.53664 10.3914 10.5049C10.4289 10.5364 10.4556 10.5788 10.4677 10.6262C10.4797 10.6736 10.4766 10.7235 10.4586 10.769C9.72101 12.6096 8.78477 14.3652 7.66634 16.005C7.49947 15.801 7.34705 15.6016 7.2139 15.41C7.10146 15.2463 6.95289 15.1104 6.77953 15.0125C6.60617 14.9147 6.41262 14.8575 6.21364 14.8454C6.01571 14.8322 5.81736 14.8644 5.63391 14.9394C5.45046 15.0145 5.2868 15.1305 5.15557 15.2784C4.94336 15.5167 4.82621 15.8239 4.82626 16.1422C4.82546 16.3624 4.88174 16.5792 4.98967 16.7715C5.27515 17.2852 5.59349 17.7802 5.94272 18.2534C5.52342 18.74 5.08897 19.2061 4.63935 19.6519C4.3962 19.894 4.21331 20.1893 4.10525 20.5142C3.9972 20.8391 3.96697 21.1846 4.01698 21.5231C4.06699 21.8617 4.19585 22.1839 4.3933 22.4642C4.59074 22.7445 4.8513 22.975 5.15422 23.1374L5.19951 23.1618C5.51239 23.331 5.86283 23.4199 6.21904 23.4204C6.64358 23.4206 7.05815 23.2924 7.40775 23.0529C9.14737 21.8631 11.3681 19.6887 13.3482 17.2359C13.3741 17.203 13.4081 17.1775 13.447 17.1618C13.4859 17.1461 13.5283 17.1409 13.5698 17.1466C14.7589 17.3135 15.9326 17.5747 17.0797 17.9277C17.36 18.0213 17.6587 18.0467 17.9509 18.0018C18.2431 17.9568 18.5201 17.8429 18.7588 17.6694C18.996 17.5005 19.1889 17.2774 19.3215 17.019C19.4541 16.7606 19.5225 16.4744 19.5209 16.1843V16.12C19.5272 15.6446 19.3718 15.181 19.08 14.8043C18.7882 14.4276 18.377 14.1599 17.9131 14.0444C17.3686 13.921 16.8139 13.8476 16.256 13.8251C16.2149 13.8233 16.1752 13.8106 16.1407 13.7885C16.1062 13.7663 16.0783 13.7355 16.0598 13.699C16.0399 13.6616 16.0304 13.6197 16.0324 13.5774C16.0343 13.5352 16.0476 13.4942 16.0708 13.4588C17.6187 11.073 18.8712 8.51012 19.8011 5.8258ZM5.57834 16.4447C5.52661 16.3523 5.50004 16.248 5.50126 16.1422C5.5015 15.9883 5.55815 15.8399 5.66062 15.7246C5.72391 15.653 5.80283 15.5968 5.89134 15.5603C5.97986 15.5238 6.0756 15.5079 6.17125 15.5138C6.26828 15.5199 6.36264 15.5478 6.44712 15.5957C6.53161 15.6435 6.604 15.7098 6.65876 15.7897C6.83392 16.0422 7.03817 16.3056 7.26535 16.5752C6.98274 16.9667 6.69043 17.3486 6.38841 17.7206C6.09402 17.3111 5.82355 16.8851 5.57834 16.4447ZM15.4607 14.0061C15.5329 14.1471 15.6414 14.2665 15.7752 14.3521C15.9089 14.4378 16.0631 14.4866 16.222 14.4937C16.7381 14.5142 17.2512 14.5818 17.7549 14.6954C18.0715 14.7758 18.3516 14.9601 18.5497 15.2185C18.7478 15.4769 18.8524 15.7942 18.8465 16.119V16.1843C18.8476 16.3685 18.8043 16.5502 18.7202 16.7143C18.636 16.8784 18.5136 17.02 18.363 17.1273C18.2104 17.2379 18.0333 17.3105 17.8467 17.3391C17.66 17.3677 17.4691 17.3513 17.2901 17.2915C16.9579 17.183 16.6178 17.0863 16.2793 16.9993C16.444 16.6405 16.6517 16.1248 16.6608 15.787C16.6631 15.6981 16.6299 15.6119 16.5683 15.5474C16.5378 15.5154 16.5013 15.4898 16.4608 15.4718C16.4204 15.4539 16.3767 15.4441 16.3325 15.4429C16.243 15.4406 16.1563 15.4737 16.0914 15.5349C16.0265 15.5961 15.9887 15.6805 15.9864 15.7694C15.9138 16.1426 15.7865 16.5032 15.6087 16.8397C14.8865 16.679 14.2036 16.5625 13.6666 16.4842C13.5088 16.4616 13.3478 16.4804 13.1996 16.5387C13.0513 16.597 12.921 16.6928 12.8214 16.8165C12.5902 17.1028 12.3563 17.3845 12.1196 17.6618C11.6506 17.4831 11.2048 17.249 10.7918 16.9646C10.7574 16.9369 10.7179 16.9161 10.6754 16.9035C10.633 16.891 10.5885 16.8868 10.5444 16.8914C10.5004 16.8959 10.4576 16.909 10.4187 16.93C10.3797 16.9509 10.3453 16.9793 10.3174 17.0135C10.2895 17.0477 10.2686 17.087 10.2559 17.1292C10.2433 17.1714 10.2391 17.2156 10.2437 17.2594C10.2483 17.3032 10.2615 17.3457 10.2825 17.3844C10.3036 17.4232 10.3322 17.4574 10.3665 17.4852C10.7664 17.7725 11.1994 18.0111 11.6564 18.1959C10.5623 19.4527 9.37075 20.6223 8.09277 21.6939C7.75696 21.4406 7.45291 21.1481 7.18712 20.8228C7.16494 20.7847 7.13543 20.7513 7.10028 20.7246C7.06513 20.6978 7.02502 20.6782 6.98225 20.6669C6.93947 20.6555 6.89487 20.6527 6.85099 20.6585C6.80711 20.6643 6.7648 20.6786 6.72649 20.7007C6.68818 20.7227 6.65461 20.7521 6.6277 20.787C6.6008 20.822 6.58108 20.8618 6.56967 20.9044C6.55826 20.9469 6.55539 20.9912 6.56122 21.0349C6.56705 21.0785 6.58147 21.1205 6.60365 21.1586C6.76936 21.4433 7.22354 21.8483 7.55169 22.1198C7.37191 22.2556 7.19521 22.3847 7.02468 22.5014C6.80513 22.6506 6.54823 22.7364 6.28257 22.7491C6.01691 22.7618 5.75291 22.701 5.51995 22.5734L5.47467 22.5489C5.26235 22.4359 5.07989 22.2746 4.94213 22.0782C4.80437 21.8817 4.71522 21.6558 4.68194 21.4186C4.64668 21.1849 4.66743 20.9462 4.7425 20.7219C4.81757 20.4977 4.94484 20.2942 5.11395 20.1281C5.63711 19.6109 6.13946 19.0634 6.62176 18.4915C6.62735 18.4852 6.63255 18.4787 6.63776 18.4723C7.6988 17.2072 8.64053 15.8476 9.45105 14.4109C9.71953 14.5621 9.99878 14.6934 10.2866 14.804C10.37 14.8337 10.4618 14.8294 10.5422 14.7923C10.6225 14.7551 10.6849 14.688 10.7159 14.6055C10.7469 14.5229 10.7439 14.4316 10.7077 14.3512C10.6714 14.2708 10.6048 14.2078 10.5222 14.1759C10.2648 14.0762 10.0149 13.9582 9.77458 13.8228C10.2623 12.9125 10.6998 11.9764 11.0849 11.0187C11.1551 10.8431 11.1682 10.6502 11.1224 10.4668C11.0767 10.2835 10.9743 10.119 10.8298 9.99642C9.90199 9.22535 9.05346 8.36465 8.29664 7.42699C8.53172 7.11913 8.92828 6.64632 9.23524 6.47141C9.27366 6.44952 9.30738 6.42032 9.33445 6.38548C9.36153 6.35064 9.38143 6.31084 9.39304 6.26835C9.40464 6.22586 9.40771 6.18151 9.40208 6.13784C9.39644 6.09417 9.38221 6.05203 9.3602 6.01383C9.33818 5.97563 9.30882 5.94211 9.27377 5.91519C9.23873 5.88827 9.19869 5.86848 9.15596 5.85694C9.11322 5.8454 9.06861 5.84235 9.02469 5.84795C8.98077 5.85355 8.93838 5.8677 8.89995 5.88959C8.51013 6.15284 8.16795 6.47982 7.88794 6.85667C7.77695 6.68655 7.67598 6.51643 7.58657 6.34708C7.42375 6.0427 7.38794 5.68685 7.48688 5.35644C7.58582 5.02603 7.81156 4.74759 8.11532 4.58131C8.30241 4.4776 8.5131 4.42325 8.7273 4.42345C8.86752 4.42383 9.00681 4.44613 9.14005 4.48955C9.31902 4.54731 9.48417 4.64097 9.62526 4.76474C9.76636 4.88851 9.8804 5.03975 9.96034 5.20911C10.1852 5.68958 10.4594 6.20703 10.776 6.74728C10.8688 6.90611 11.0078 7.03331 11.1747 7.11214C11.3416 7.19097 11.5286 7.21775 11.711 7.18896C11.8935 7.16017 12.063 7.07716 12.1971 6.95083C12.3313 6.82451 12.4238 6.66078 12.4626 6.48118C12.5351 6.13634 12.5991 5.79495 12.6532 5.46582C12.7064 5.13976 12.7636 4.82244 12.8249 4.51388C13.281 4.74051 13.7045 4.92424 13.7275 4.9342C13.8095 4.96976 13.9023 4.97149 13.9856 4.93899C14.0689 4.9065 14.1357 4.84244 14.1715 4.76092C14.2073 4.67939 14.209 4.58708 14.1763 4.50428C14.1437 4.42149 14.0792 4.35499 13.9972 4.31943C13.9911 4.31675 13.4673 4.08954 12.9711 3.83551C13.2654 2.67666 13.9464 1.81016 14.8595 1.44578C15.7945 1.07086 16.8731 1.24328 17.8965 1.92913C18.4042 2.26982 18.8046 2.74637 19.0515 3.30372C19.2983 3.86107 19.3815 4.47647 19.2914 5.07884C18.7134 4.93145 18.1494 4.73408 17.606 4.48897C17.5664 4.46722 17.523 4.45357 17.478 4.44884C17.4331 4.44411 17.3877 4.4484 17.3445 4.46145C17.3013 4.4745 17.2612 4.49605 17.2265 4.52482C17.1918 4.55358 17.1633 4.58898 17.1427 4.6289C17.122 4.66883 17.1096 4.71247 17.1063 4.75725C17.1029 4.80202 17.1086 4.84701 17.1231 4.88955C17.1375 4.93208 17.1604 4.9713 17.1904 5.00487C17.2204 5.03844 17.2569 5.06568 17.2976 5.08497C17.885 5.35296 18.4953 5.56813 19.1213 5.7279C18.7754 6.73078 18.3783 7.71548 17.9316 8.67818C17.4335 8.52952 16.2922 8.1592 15.6513 7.71148C15.6151 7.68616 15.5742 7.66819 15.5309 7.65858C15.4877 7.64897 15.443 7.64792 15.3994 7.65549C15.3557 7.66306 15.314 7.6791 15.2766 7.70269C15.2392 7.72629 15.2069 7.75697 15.1814 7.793C15.1559 7.82903 15.1379 7.86969 15.1282 7.91266C15.1185 7.95564 15.1175 8.00008 15.1251 8.04346C15.1327 8.08684 15.1488 8.12831 15.1726 8.16549C15.1963 8.20267 15.2272 8.23484 15.2634 8.26016C15.9484 8.7391 17.0701 9.11785 17.6429 9.29238C17.0037 10.601 16.2888 11.8717 15.5016 13.098C15.4146 13.2323 15.3651 13.3871 15.3579 13.5466C15.3507 13.7061 15.3862 13.8647 15.4607 14.0061Z" fill="#32343E"/>
<path d="M8.99297 19.3329C8.83072 19.4915 8.6697 19.6456 8.50989 19.7952C8.44476 19.8562 8.40665 19.9404 8.40396 20.0293C8.40127 20.1182 8.43421 20.2045 8.49554 20.2692C8.55686 20.334 8.64155 20.3719 8.73097 20.3746C8.82039 20.3772 8.90722 20.3445 8.97235 20.2835C9.13575 20.1303 9.30038 19.9727 9.46622 19.8107C9.49857 19.78 9.52446 19.7432 9.54238 19.7025C9.5603 19.6617 9.56988 19.6179 9.57058 19.5734C9.57128 19.5289 9.56308 19.4848 9.54645 19.4435C9.52982 19.4022 9.5051 19.3647 9.47373 19.333C9.44236 19.3013 9.40496 19.2761 9.36371 19.2589C9.32246 19.2418 9.27818 19.2329 9.23346 19.2329C9.18874 19.2329 9.14446 19.2417 9.10321 19.2589C9.06195 19.2761 9.02454 19.3012 8.99316 19.3329H8.99297Z" fill="#32343E"/>
<path d="M15.0993 10.5476C15.0927 10.5449 14.4299 10.2805 13.9221 10.0217C13.8827 10.0016 13.8397 9.98935 13.7956 9.98574C13.7514 9.98214 13.707 9.98722 13.6648 10.0007C13.6227 10.0141 13.5836 10.0357 13.5498 10.0642C13.516 10.0927 13.4882 10.1275 13.4679 10.1667C13.4477 10.2059 13.4354 10.2486 13.4318 10.2925C13.4282 10.3364 13.4333 10.3806 13.4468 10.4225C13.4604 10.4645 13.4821 10.5033 13.5107 10.5369C13.5394 10.5705 13.5744 10.5981 13.6138 10.6183C14.1501 10.8916 14.8201 11.1589 14.8482 11.1702C14.9312 11.2032 15.0241 11.2021 15.1063 11.1671C15.1885 11.132 15.2534 11.066 15.2866 10.9834C15.3198 10.9008 15.3187 10.8085 15.2834 10.7268C15.2482 10.6451 15.1817 10.5806 15.0987 10.5476H15.0993Z" fill="#32343E"/>
</svg>
