<svg width="24" height="24" viewBox="0 0 24 24" fill="none" xmlns="http://www.w3.org/2000/svg">
<path d="M12.0609 3.05292L12 3.02586L11.9391 3.05292L4.9391 6.16292L4.85 6.20251V6.3V11C4.85 15.5808 7.86825 19.8125 11.9558 21.0733L12 21.087L12.0442 21.0733C16.1318 19.8125 19.15 15.5808 19.15 11V6.3V6.20251L19.0609 6.16292L12.0609 3.05292ZM3.15 5.09748L12 1.16415L20.85 5.09748V11C20.85 16.4743 17.0691 21.5882 12 22.8455C6.9309 21.5882 3.15 16.4743 3.15 11V5.09748ZM12.85 7.15V8.85H11.15V7.15H12.85ZM12.85 11.15V16.85H11.15V11.15H12.85Z" fill="#95969D" stroke="#FAFAFD" stroke-width="0.3"/>
</svg>
