<svg width="122" height="59" viewBox="0 0 122 59" fill="none" xmlns="http://www.w3.org/2000/svg">
<path d="M4.07071 56.1656C6.40538 56.1656 8.08155 54.3697 8.08155 52.035V40.4215H19.5155C21.6107 40.4215 23.227 38.865 23.227 36.7698C23.227 34.7345 21.6705 33.1182 19.5155 33.1182H8.08155V23.2407H22.7481C24.8433 23.2407 26.4596 21.6244 26.4596 19.589C26.4596 17.4938 24.9032 15.9374 22.7481 15.9374H4.13057C1.73604 15.9374 0 17.6734 0 20.0679V52.035C0 54.3697 1.67617 56.1656 4.07071 56.1656Z" fill="#181C2E"/>
<circle cx="103.461" cy="40.7267" r="13.7391" stroke="#E8E8E8" stroke-width="0.736025" stroke-linecap="round" stroke-linejoin="round" stroke-dasharray="0.99 2.96"/>
<path d="M86.537 41.7885C86.537 49.2415 80.4952 55.2834 73.0422 55.2834C65.5892 55.2834 59.5474 49.2415 59.5474 41.7885C59.5474 34.3355 65.5892 28.2937 73.0422 28.2937C80.4952 28.2937 86.537 34.3355 86.537 41.7885ZM67.5294 41.7885C67.5294 44.8331 69.9976 47.3013 73.0422 47.3013C76.0868 47.3013 78.555 44.8331 78.555 41.7885C78.555 38.7439 76.0868 36.2758 73.0422 36.2758C69.9976 36.2758 67.5294 38.7439 67.5294 41.7885Z" fill="#FF7622"/>
<path d="M55.4989 41.7885C55.4989 49.2415 49.4571 55.2834 42.0041 55.2834C34.5511 55.2834 28.5093 49.2415 28.5093 41.7885C28.5093 34.3355 34.5511 28.2937 42.0041 28.2937C49.4571 28.2937 55.4989 34.3355 55.4989 41.7885ZM36.4914 41.7885C36.4914 44.8331 38.9595 47.3013 42.0041 47.3013C45.0487 47.3013 47.5169 44.8331 47.5169 41.7885C47.5169 38.7439 45.0487 36.2758 42.0041 36.2758C38.9595 36.2758 36.4914 38.7439 36.4914 41.7885Z" fill="#FF7622"/>
<path fill-rule="evenodd" clip-rule="evenodd" d="M22.4985 51.2409C22.4985 50.9957 22.6973 50.797 22.9424 50.797H29.7017C29.9469 50.797 30.1456 50.9957 30.1456 51.2409C30.1456 51.4861 29.9469 51.6848 29.7017 51.6848H22.9424C22.6973 51.6848 22.4985 51.4861 22.4985 51.2409Z" fill="#FF7622"/>
<path fill-rule="evenodd" clip-rule="evenodd" d="M53.5771 51.2409C53.5771 50.9957 53.7759 50.797 54.0211 50.797H60.7803C61.0255 50.797 61.2242 50.9957 61.2242 51.2409C61.2242 51.4861 61.0255 51.6848 60.7803 51.6848H54.0211C53.7759 51.6848 53.5771 51.4861 53.5771 51.2409Z" fill="#FF7622"/>
<path fill-rule="evenodd" clip-rule="evenodd" d="M17.1006 54.8394C17.1006 54.5943 17.2993 54.3955 17.5445 54.3955L29.7017 54.3955C29.9468 54.3955 30.1456 54.5943 30.1456 54.8394C30.1456 55.0846 29.9468 55.2833 29.7017 55.2833L17.5445 55.2833C17.2993 55.2833 17.1006 55.0846 17.1006 54.8394Z" fill="#FF7622"/>
<path fill-rule="evenodd" clip-rule="evenodd" d="M48.1797 54.8394C48.1797 54.5943 48.3784 54.3955 48.6236 54.3955L60.7808 54.3955C61.026 54.3955 61.2247 54.5943 61.2247 54.8394C61.2247 55.0846 61.026 55.2833 60.7808 55.2833L48.6236 55.2833C48.3784 55.2833 48.1797 55.0846 48.1797 54.8394Z" fill="#FF7622"/>
<path fill-rule="evenodd" clip-rule="evenodd" d="M22.4985 58.438C22.4985 58.1929 22.6973 57.9941 22.9424 57.9941L35.0996 57.9941C35.3448 57.9941 35.5435 58.1929 35.5435 58.4381C35.5435 58.6832 35.3448 58.882 35.0996 58.882L22.9424 58.882C22.6973 58.882 22.4985 58.6832 22.4985 58.438Z" fill="#FF7622"/>
<path fill-rule="evenodd" clip-rule="evenodd" d="M53.5771 58.438C53.5771 58.1929 53.7759 57.9941 54.0211 57.9941L66.1782 57.9941C66.4234 57.9941 66.6222 58.1929 66.6222 58.4381C66.6222 58.6832 66.4234 58.882 66.1782 58.882L54.0211 58.882C53.7759 58.882 53.5771 58.6832 53.5771 58.438Z" fill="#FF7622"/>
<path d="M77.4543 26.7422C78.5382 26.7422 79.4264 25.8615 79.3269 24.7821C78.8713 19.84 76.7035 15.1874 73.1653 11.6492C69.1624 7.64627 63.7332 5.39746 58.0723 5.39746C52.4113 5.39746 46.9822 7.64627 42.9793 11.6492C39.441 15.1874 37.2733 19.84 36.8177 24.7821C36.7182 25.8615 37.6063 26.7422 38.6903 26.7422L58.0723 26.7422H77.4543Z" fill="#FF7622"/>
<path d="M60.7711 3.92542C60.7711 5.5514 59.5628 6.86952 58.0723 6.86952C56.5818 6.86952 55.3735 5.5514 55.3735 3.92542C55.3735 2.29944 56.5818 0.981323 58.0723 0.981323C59.5628 0.981323 60.7711 2.29944 60.7711 3.92542Z" fill="white"/>
<path fill-rule="evenodd" clip-rule="evenodd" d="M58.0722 1.96273C57.2024 1.96273 56.3548 2.75935 56.3548 3.92547C56.3548 5.09158 57.2024 5.8882 58.0722 5.8882C58.9421 5.8882 59.7896 5.09158 59.7896 3.92547C59.7896 2.75935 58.9421 1.96273 58.0722 1.96273ZM54.3921 3.92547C54.3921 1.83962 55.9611 0 58.0722 0C60.1833 0 61.7523 1.83962 61.7523 3.92547C61.7523 6.01131 60.1833 7.85093 58.0722 7.85093C55.9611 7.85093 54.3921 6.01131 54.3921 3.92547Z" fill="#FF7622"/>
<path d="M49.3568 12.0222C49.1187 11.6268 48.6056 11.4947 48.2186 11.7462C45.2927 13.6475 42.9963 16.3541 41.6145 19.5294C41.426 19.9627 41.6532 20.4572 42.0967 20.6203C42.5345 20.7814 43.0182 20.5583 43.2061 20.1313C44.446 17.3144 46.4829 14.9088 49.0723 13.2035C49.4644 12.9452 49.599 12.4244 49.3568 12.0222Z" fill="white"/>
<path d="M52.767 10.4994C52.6217 10.0611 52.1492 9.82009 51.7167 9.98201C51.2534 10.1555 50.7976 10.3478 50.3504 10.5586C49.9261 10.7586 49.7719 11.2764 49.9964 11.6882C50.2174 12.0934 50.7224 12.2432 51.1406 12.048C51.4992 11.8807 51.864 11.7263 52.2341 11.5854C52.6707 11.4191 52.9141 10.9428 52.767 10.4994Z" fill="white"/>
<rect x="111.802" y="15.2112" width="9.32298" height="40.236" rx="4.66149" fill="#181C2E"/>
<path d="M118.181 40.9721C118.181 48.9665 111.701 55.4473 103.706 55.4473C95.7117 55.4473 89.231 48.9665 89.231 40.9721C89.231 32.9777 95.7117 26.4969 103.706 26.4969C111.701 26.4969 118.181 32.9777 118.181 40.9721ZM97.7929 40.9721C97.7929 44.2379 100.44 46.8853 103.706 46.8853C106.972 46.8853 109.619 44.2379 109.619 40.9721C109.619 37.7063 106.972 35.0589 103.706 35.0589C100.44 35.0589 97.7929 37.7063 97.7929 40.9721Z" fill="#181C2E"/>
</svg>
