<svg width="22" height="19" viewBox="0 0 22 19" fill="none" xmlns="http://www.w3.org/2000/svg">
<path d="M13.5 13.5V15.5833C13.5 16.1359 13.2805 16.6658 12.8898 17.0565C12.4991 17.4472 11.9692 17.6667 11.4167 17.6667H3.08333C2.5308 17.6667 2.00089 17.4472 1.61019 17.0565C1.21949 16.6658 1 16.1359 1 15.5833V3.08333C1 2.5308 1.21949 2.00089 1.61019 1.61019C2.00089 1.21949 2.5308 1 3.08333 1H11C12.1505 1 13.5 1.93281 13.5 3.08333V5.16667" stroke="#E30000" stroke-linecap="round" stroke-linejoin="round"/>
<path d="M16.833 13.5L20.9997 9.33335L16.833 5.16669" stroke="#E30000" stroke-linecap="round" stroke-linejoin="round"/>
<path d="M6.83301 9.33331H20.1663" stroke="#E30000" stroke-linecap="round" stroke-linejoin="round"/>
</svg>
