<svg width="24" height="24" viewBox="0 0 24 24" fill="none" xmlns="http://www.w3.org/2000/svg">
<path d="M17 6C17 6.55229 17.4477 7 18 7H21C21.5523 7 22 7.44772 22 8V16C22 16.5523 21.5523 17 21 17H18C17.4477 17 17 17.4477 17 18V19C17 19.2652 17.1054 19.5196 17.2929 19.7071C17.4804 19.8946 17.7348 20 18 20H19C19.5523 20 20 20.4477 20 21C20 21.5523 19.5523 22 19 22H17.5C16.95 22 16 21.55 16 21C16 21.55 15.05 22 14.5 22H13C12.4477 22 12 21.5523 12 21C12 20.4477 12.4477 20 13 20H14C14.2652 20 14.5196 19.8946 14.7071 19.7071C14.8946 19.5196 15 19.2652 15 19V5C15 4.73478 14.8946 4.48043 14.7071 4.29289C14.5196 4.10536 14.2652 4 14 4H13C12.4477 4 12 3.55228 12 3C12 2.44772 12.4477 2 13 2H14.5C15.05 2 16 2.45 16 3C16 2.45 16.95 2 17.5 2H19C19.5523 2 20 2.44772 20 3C20 3.55228 19.5523 4 19 4H18C17.7348 4 17.4804 4.10536 17.2929 4.29289C17.1054 4.48043 17 4.73478 17 5V6ZM2 8C2 7.44772 2.44772 7 3 7H12C12.5523 7 13 7.44772 13 8C13 8.55229 12.5523 9 12 9H5C4.44772 9 4 9.44772 4 10V14C4 14.5523 4.44772 15 5 15H12C12.5523 15 13 15.4477 13 16C13 16.5523 12.5523 17 12 17H3C2.44772 17 2 16.5523 2 16V8ZM19 15C19.5523 15 20 14.5523 20 14V10C20 9.44772 19.5523 9 19 9H18C17.4477 9 17 9.44772 17 10V14C17 14.5523 17.4477 15 18 15H19ZM8.5 12C8.5 11.6022 8.34197 11.2206 8.06066 10.9393C7.77936 10.658 7.39783 10.5 7 10.5C6.60218 10.5 6.22064 10.658 5.93934 10.9393C5.65804 11.2206 5.5 11.6022 5.5 12C5.5 12.3978 5.65804 12.7794 5.93934 13.0607C6.22064 13.342 6.60218 13.5 7 13.5C7.39783 13.5 7.77936 13.342 8.06066 13.0607C8.34197 12.7794 8.5 12.3978 8.5 12ZM13 10.89C12.39 10.33 11.44 10.38 10.88 11C10.32 11.6 10.37 12.55 11 13.11C11.55 13.63 12.43 13.63 13 13.11V10.89Z" fill="#95969D"/>
<path d="M10.9897 11.1023L10.9913 11.1005C11.4818 10.5575 12.3016 10.5008 12.85 10.958V13.0417C12.336 13.4673 11.5789 13.4509 11.1031 13.001L11.1031 13.001L11.0997 12.9979C10.5307 12.4922 10.4889 11.6389 10.9897 11.1023ZM16.85 6C16.85 6.63513 17.3649 7.15 18 7.15H21C21.4694 7.15 21.85 7.53056 21.85 8V16C21.85 16.4694 21.4694 16.85 21 16.85H18C17.3649 16.85 16.85 17.3649 16.85 18V19C16.85 19.305 16.9712 19.5975 17.1868 19.8132C17.4025 20.0288 17.695 20.15 18 20.15H19C19.4694 20.15 19.85 20.5306 19.85 21C19.85 21.4694 19.4694 21.85 19 21.85H17.5C17.2576 21.85 16.9087 21.7479 16.6202 21.5772C16.4772 21.4926 16.3566 21.3954 16.2732 21.2934C16.1899 21.1914 16.15 21.0926 16.15 21H16H15.85C15.85 21.0926 15.8101 21.1914 15.7268 21.2934C15.6434 21.3954 15.5228 21.4926 15.3799 21.5772C15.0913 21.7479 14.7424 21.85 14.5 21.85H13C12.5306 21.85 12.15 21.4694 12.15 21C12.15 20.5306 12.5306 20.15 13 20.15H14C14.305 20.15 14.5975 20.0288 14.8132 19.8132C15.0288 19.5975 15.15 19.305 15.15 19V5C15.15 4.695 15.0288 4.40249 14.8132 4.18683C14.5975 3.97116 14.305 3.85 14 3.85H13C12.5306 3.85 12.15 3.46944 12.15 3C12.15 2.53056 12.5306 2.15 13 2.15H14.5C14.7424 2.15 15.0913 2.25205 15.3799 2.42284C15.5228 2.50743 15.6434 2.60459 15.7268 2.70662C15.8101 2.80857 15.85 2.90735 15.85 3H16H16.15C16.15 2.90735 16.1899 2.80857 16.2732 2.70662C16.3566 2.60459 16.4772 2.50743 16.6201 2.42284C16.9087 2.25205 17.2576 2.15 17.5 2.15H19C19.4694 2.15 19.85 2.53056 19.85 3C19.85 3.46944 19.4694 3.85 19 3.85H18C17.695 3.85 17.4025 3.97116 17.1868 4.18683C16.9712 4.40249 16.85 4.695 16.85 5V6ZM2.15 8C2.15 7.53056 2.53056 7.15 3 7.15H12C12.4694 7.15 12.85 7.53056 12.85 8C12.85 8.46944 12.4694 8.85 12 8.85H5C4.36487 8.85 3.85 9.36487 3.85 10V14C3.85 14.6351 4.36487 15.15 5 15.15H12C12.4694 15.15 12.85 15.5306 12.85 16C12.85 16.4694 12.4694 16.85 12 16.85H3C2.53056 16.85 2.15 16.4694 2.15 16V8ZM19 15.15C19.6351 15.15 20.15 14.6351 20.15 14V10C20.15 9.36487 19.6351 8.85 19 8.85H18C17.3649 8.85 16.85 9.36487 16.85 10V14C16.85 14.6351 17.3649 15.15 18 15.15H19ZM7.9546 11.0454C8.20777 11.2986 8.35 11.642 8.35 12C8.35 12.358 8.20777 12.7014 7.9546 12.9546C7.70142 13.2078 7.35804 13.35 7 13.35C6.64196 13.35 6.29858 13.2078 6.04541 12.9546C5.79223 12.7014 5.65 12.358 5.65 12C5.65 11.642 5.79223 11.2986 6.04541 11.0454C6.29858 10.7922 6.64196 10.65 7 10.65C7.35804 10.65 7.70142 10.7922 7.9546 11.0454Z" stroke="#FAFAFD" stroke-width="0.3"/>
</svg>
