<svg width="22" height="21" viewBox="0 0 22 21" fill="none" xmlns="http://www.w3.org/2000/svg">
<path d="M13.8571 4.11688C13.8571 4.11688 13.8571 1 11 1C8.14286 1 8.14286 4.11688 8.14286 4.11688M11 13.4675C15.6554 13.4675 19.3626 11.3988 20.5767 10.6321C20.8472 10.4613 21 10.1614 21 9.84142V5.11688C21 4.5646 20.5523 4.11688 20 4.11688H2C1.44772 4.11688 1 4.5646 1 5.11688V9.84142C1 10.1614 1.15282 10.4613 1.42334 10.6321C2.63744 11.3988 6.34464 13.4675 11 13.4675ZM11 15.026V11.9091V15.026ZM1.71429 12.1299V18.7013C1.71429 19.2536 2.162 19.7013 2.71429 19.7013H19.2857C19.838 19.7013 20.2857 19.2536 20.2857 18.7013V12.1299C20.2857 11.5776 19.838 11.1299 19.2857 11.1299H2.71429C2.162 11.1299 1.71429 11.5776 1.71429 12.1299Z" stroke="#95969D" stroke-linecap="round" stroke-linejoin="round"/>
</svg>
