<svg width="16" height="21" viewBox="0 0 16 21" fill="none" xmlns="http://www.w3.org/2000/svg">
<mask id="path-1-inside-1_8_6659" fill="white">
<path d="M6.66667 8.53125C6.66667 8.3572 6.7369 8.19028 6.86193 8.06721C6.98695 7.94414 7.15652 7.875 7.33333 7.875H12C12.1768 7.875 12.3464 7.94414 12.4714 8.06721C12.5964 8.19028 12.6667 8.3572 12.6667 8.53125C12.6667 8.7053 12.5964 8.87222 12.4714 8.99529C12.3464 9.11836 12.1768 9.1875 12 9.1875H7.33333C7.15652 9.1875 6.98695 9.11836 6.86193 8.99529C6.7369 8.87222 6.66667 8.7053 6.66667 8.53125ZM6.66667 12.4688C6.66667 12.2947 6.7369 12.1278 6.86193 12.0047C6.98695 11.8816 7.15652 11.8125 7.33333 11.8125H12C12.1768 11.8125 12.3464 11.8816 12.4714 12.0047C12.5964 12.1278 12.6667 12.2947 12.6667 12.4688C12.6667 12.6428 12.5964 12.8097 12.4714 12.9328C12.3464 13.0559 12.1768 13.125 12 13.125H7.33333C7.15652 13.125 6.98695 13.0559 6.86193 12.9328C6.7369 12.8097 6.66667 12.6428 6.66667 12.4688ZM6.66667 16.4062C6.66667 16.2322 6.7369 16.0653 6.86193 15.9422C6.98695 15.8191 7.15652 15.75 7.33333 15.75H12C12.1768 15.75 12.3464 15.8191 12.4714 15.9422C12.5964 16.0653 12.6667 16.2322 12.6667 16.4062C12.6667 16.5803 12.5964 16.7472 12.4714 16.8703C12.3464 16.9934 12.1768 17.0625 12 17.0625H7.33333C7.15652 17.0625 6.98695 16.9934 6.86193 16.8703C6.7369 16.7472 6.66667 16.5803 6.66667 16.4062ZM5.33333 8.53125C5.33333 8.79232 5.22798 9.0427 5.04044 9.22731C4.8529 9.41191 4.59855 9.51562 4.33333 9.51562C4.06812 9.51562 3.81376 9.41191 3.62623 9.22731C3.43869 9.0427 3.33333 8.79232 3.33333 8.53125C3.33333 8.27018 3.43869 8.0198 3.62623 7.83519C3.81376 7.65059 4.06812 7.54688 4.33333 7.54688C4.59855 7.54688 4.8529 7.65059 5.04044 7.83519C5.22798 8.0198 5.33333 8.27018 5.33333 8.53125ZM5.33333 12.4688C5.33333 12.7298 5.22798 12.9802 5.04044 13.1648C4.8529 13.3494 4.59855 13.4531 4.33333 13.4531C4.06812 13.4531 3.81376 13.3494 3.62623 13.1648C3.43869 12.9802 3.33333 12.7298 3.33333 12.4688C3.33333 12.2077 3.43869 11.9573 3.62623 11.7727C3.81376 11.5881 4.06812 11.4844 4.33333 11.4844C4.59855 11.4844 4.8529 11.5881 5.04044 11.7727C5.22798 11.9573 5.33333 12.2077 5.33333 12.4688ZM4.33333 17.3906C4.59855 17.3906 4.8529 17.2869 5.04044 17.1023C5.22798 16.9177 5.33333 16.6673 5.33333 16.4062C5.33333 16.1452 5.22798 15.8948 5.04044 15.7102C4.8529 15.5256 4.59855 15.4219 4.33333 15.4219C4.06812 15.4219 3.81376 15.5256 3.62623 15.7102C3.43869 15.8948 3.33333 16.1452 3.33333 16.4062C3.33333 16.6673 3.43869 16.9177 3.62623 17.1023C3.81376 17.2869 4.06812 17.3906 4.33333 17.3906ZM4.11333 1.3125C4.25126 0.928491 4.50678 0.596044 4.84468 0.360975C5.18258 0.125905 5.58623 -0.000213255 6 2.70686e-07H10C10.4138 -0.000213255 10.8174 0.125905 11.1553 0.360975C11.4932 0.596044 11.7487 0.928491 11.8867 1.3125H14C14.5304 1.3125 15.0391 1.51992 15.4142 1.88913C15.7893 2.25835 16 2.75911 16 3.28125V19.0312C16 19.5534 15.7893 20.0542 15.4142 20.4234C15.0391 20.7926 14.5304 21 14 21H2C1.46957 21 0.960859 20.7926 0.585786 20.4234C0.210713 20.0542 0 19.5534 0 19.0312V3.28125C0 2.75911 0.210713 2.25835 0.585786 1.88913C0.960859 1.51992 1.46957 1.3125 2 1.3125H4.11333ZM6 1.3125C5.82319 1.3125 5.65362 1.38164 5.52859 1.50471C5.40357 1.62778 5.33333 1.7947 5.33333 1.96875C5.33333 2.1428 5.40357 2.30972 5.52859 2.43279C5.65362 2.55586 5.82319 2.625 6 2.625H10C10.1768 2.625 10.3464 2.55586 10.4714 2.43279C10.5964 2.30972 10.6667 2.1428 10.6667 1.96875C10.6667 1.7947 10.5964 1.62778 10.4714 1.50471C10.3464 1.38164 10.1768 1.3125 10 1.3125H6ZM4.11333 2.625H2C1.82319 2.625 1.65362 2.69414 1.5286 2.81721C1.40357 2.94028 1.33333 3.1072 1.33333 3.28125V19.0312C1.33333 19.2053 1.40357 19.3722 1.5286 19.4953C1.65362 19.6184 1.82319 19.6875 2 19.6875H14C14.1768 19.6875 14.3464 19.6184 14.4714 19.4953C14.5964 19.3722 14.6667 19.2053 14.6667 19.0312V3.28125C14.6667 3.1072 14.5964 2.94028 14.4714 2.81721C14.3464 2.69414 14.1768 2.625 14 2.625H11.8867C11.7487 3.00901 11.4932 3.34146 11.1553 3.57653C10.8174 3.81159 10.4138 3.93771 10 3.9375H6C5.58623 3.93771 5.18258 3.81159 4.84468 3.57653C4.50678 3.34146 4.25126 3.00901 4.11333 2.625Z"/>
</mask>
<path d="M6.66667 8.53125C6.66667 8.3572 6.7369 8.19028 6.86193 8.06721C6.98695 7.94414 7.15652 7.875 7.33333 7.875H12C12.1768 7.875 12.3464 7.94414 12.4714 8.06721C12.5964 8.19028 12.6667 8.3572 12.6667 8.53125C12.6667 8.7053 12.5964 8.87222 12.4714 8.99529C12.3464 9.11836 12.1768 9.1875 12 9.1875H7.33333C7.15652 9.1875 6.98695 9.11836 6.86193 8.99529C6.7369 8.87222 6.66667 8.7053 6.66667 8.53125ZM6.66667 12.4688C6.66667 12.2947 6.7369 12.1278 6.86193 12.0047C6.98695 11.8816 7.15652 11.8125 7.33333 11.8125H12C12.1768 11.8125 12.3464 11.8816 12.4714 12.0047C12.5964 12.1278 12.6667 12.2947 12.6667 12.4688C12.6667 12.6428 12.5964 12.8097 12.4714 12.9328C12.3464 13.0559 12.1768 13.125 12 13.125H7.33333C7.15652 13.125 6.98695 13.0559 6.86193 12.9328C6.7369 12.8097 6.66667 12.6428 6.66667 12.4688ZM6.66667 16.4062C6.66667 16.2322 6.7369 16.0653 6.86193 15.9422C6.98695 15.8191 7.15652 15.75 7.33333 15.75H12C12.1768 15.75 12.3464 15.8191 12.4714 15.9422C12.5964 16.0653 12.6667 16.2322 12.6667 16.4062C12.6667 16.5803 12.5964 16.7472 12.4714 16.8703C12.3464 16.9934 12.1768 17.0625 12 17.0625H7.33333C7.15652 17.0625 6.98695 16.9934 6.86193 16.8703C6.7369 16.7472 6.66667 16.5803 6.66667 16.4062ZM5.33333 8.53125C5.33333 8.79232 5.22798 9.0427 5.04044 9.22731C4.8529 9.41191 4.59855 9.51562 4.33333 9.51562C4.06812 9.51562 3.81376 9.41191 3.62623 9.22731C3.43869 9.0427 3.33333 8.79232 3.33333 8.53125C3.33333 8.27018 3.43869 8.0198 3.62623 7.83519C3.81376 7.65059 4.06812 7.54688 4.33333 7.54688C4.59855 7.54688 4.8529 7.65059 5.04044 7.83519C5.22798 8.0198 5.33333 8.27018 5.33333 8.53125ZM5.33333 12.4688C5.33333 12.7298 5.22798 12.9802 5.04044 13.1648C4.8529 13.3494 4.59855 13.4531 4.33333 13.4531C4.06812 13.4531 3.81376 13.3494 3.62623 13.1648C3.43869 12.9802 3.33333 12.7298 3.33333 12.4688C3.33333 12.2077 3.43869 11.9573 3.62623 11.7727C3.81376 11.5881 4.06812 11.4844 4.33333 11.4844C4.59855 11.4844 4.8529 11.5881 5.04044 11.7727C5.22798 11.9573 5.33333 12.2077 5.33333 12.4688ZM4.33333 17.3906C4.59855 17.3906 4.8529 17.2869 5.04044 17.1023C5.22798 16.9177 5.33333 16.6673 5.33333 16.4062C5.33333 16.1452 5.22798 15.8948 5.04044 15.7102C4.8529 15.5256 4.59855 15.4219 4.33333 15.4219C4.06812 15.4219 3.81376 15.5256 3.62623 15.7102C3.43869 15.8948 3.33333 16.1452 3.33333 16.4062C3.33333 16.6673 3.43869 16.9177 3.62623 17.1023C3.81376 17.2869 4.06812 17.3906 4.33333 17.3906ZM4.11333 1.3125C4.25126 0.928491 4.50678 0.596044 4.84468 0.360975C5.18258 0.125905 5.58623 -0.000213255 6 2.70686e-07H10C10.4138 -0.000213255 10.8174 0.125905 11.1553 0.360975C11.4932 0.596044 11.7487 0.928491 11.8867 1.3125H14C14.5304 1.3125 15.0391 1.51992 15.4142 1.88913C15.7893 2.25835 16 2.75911 16 3.28125V19.0312C16 19.5534 15.7893 20.0542 15.4142 20.4234C15.0391 20.7926 14.5304 21 14 21H2C1.46957 21 0.960859 20.7926 0.585786 20.4234C0.210713 20.0542 0 19.5534 0 19.0312V3.28125C0 2.75911 0.210713 2.25835 0.585786 1.88913C0.960859 1.51992 1.46957 1.3125 2 1.3125H4.11333ZM6 1.3125C5.82319 1.3125 5.65362 1.38164 5.52859 1.50471C5.40357 1.62778 5.33333 1.7947 5.33333 1.96875C5.33333 2.1428 5.40357 2.30972 5.52859 2.43279C5.65362 2.55586 5.82319 2.625 6 2.625H10C10.1768 2.625 10.3464 2.55586 10.4714 2.43279C10.5964 2.30972 10.6667 2.1428 10.6667 1.96875C10.6667 1.7947 10.5964 1.62778 10.4714 1.50471C10.3464 1.38164 10.1768 1.3125 10 1.3125H6ZM4.11333 2.625H2C1.82319 2.625 1.65362 2.69414 1.5286 2.81721C1.40357 2.94028 1.33333 3.1072 1.33333 3.28125V19.0312C1.33333 19.2053 1.40357 19.3722 1.5286 19.4953C1.65362 19.6184 1.82319 19.6875 2 19.6875H14C14.1768 19.6875 14.3464 19.6184 14.4714 19.4953C14.5964 19.3722 14.6667 19.2053 14.6667 19.0312V3.28125C14.6667 3.1072 14.5964 2.94028 14.4714 2.81721C14.3464 2.69414 14.1768 2.625 14 2.625H11.8867C11.7487 3.00901 11.4932 3.34146 11.1553 3.57653C10.8174 3.81159 10.4138 3.93771 10 3.9375H6C5.58623 3.93771 5.18258 3.81159 4.84468 3.57653C4.50678 3.34146 4.25126 3.00901 4.11333 2.625Z" fill="#95969D" stroke="white" stroke-width="0.4" mask="url(#path-1-inside-1_8_6659)"/>
</svg>
