<svg width="20" height="20" viewBox="0 0 20 20" fill="none" xmlns="http://www.w3.org/2000/svg">
<path fill-rule="evenodd" clip-rule="evenodd" d="M13.6117 2.29175H6.38758C3.87008 2.29175 2.29175 4.07425 2.29175 6.59675V13.4034C2.29175 15.9259 3.86258 17.7084 6.38758 17.7084H13.6109C16.1367 17.7084 17.7084 15.9259 17.7084 13.4034V6.59675C17.7084 4.07425 16.1367 2.29175 13.6117 2.29175Z" stroke="#AFB0B6" stroke-linecap="round" stroke-linejoin="round"/>
<path fill-rule="evenodd" clip-rule="evenodd" d="M8.90759 10.0001C8.90759 10.8526 8.21676 11.5435 7.36426 11.5435C6.51176 11.5435 5.82092 10.8526 5.82092 10.0001C5.82092 9.14762 6.51176 8.45679 7.36426 8.45679H7.36676C8.21759 8.45762 8.90759 9.14845 8.90759 10.0001Z" stroke="#AFB0B6" stroke-linecap="round" stroke-linejoin="round"/>
<path d="M8.91 10H14.175V11.5433" stroke="#AFB0B6" stroke-linecap="round" stroke-linejoin="round"/>
<path d="M11.8182 11.5436V10.0002" stroke="#AFB0B6" stroke-linecap="round" stroke-linejoin="round"/>
</svg>
