<svg width="20" height="20" viewBox="0 0 20 20" fill="none" xmlns="http://www.w3.org/2000/svg">
<path d="M16.8696 10.8789C16.9089 10.5875 16.93 10.2939 16.9328 10C16.93 9.70606 16.9089 9.41255 16.8696 9.1211L18.8227 7.63135C18.9109 7.56572 18.9712 7.47071 18.992 7.3645C19.0128 7.25829 18.9927 7.14834 18.9355 7.05567L17.0862 3.93117C17.0326 3.83745 16.9457 3.76605 16.8418 3.73044C16.738 3.69482 16.6243 3.69744 16.5223 3.73781L14.2174 4.64308C13.7378 4.28646 13.2133 3.99109 12.6567 3.76418L12.3094 1.37795C12.2941 1.27236 12.2399 1.1758 12.1569 1.10627C12.0739 1.03673 11.9678 0.998972 11.8584 1.00002H8.15065C8.0412 0.998972 7.93509 1.03673 7.85211 1.10627C7.76912 1.1758 7.71491 1.27236 7.69959 1.37795L7.35228 3.76418C6.79499 3.98968 6.27033 4.28514 5.79161 4.64308L3.47767 3.73781C3.37566 3.69744 3.26202 3.69482 3.15816 3.73044C3.05431 3.76605 2.96741 3.83745 2.91385 3.93117L1.0645 7.05567C1.00731 7.14834 0.987193 7.25829 1.008 7.3645C1.0288 7.47071 1.08907 7.56572 1.17726 7.63135L3.12584 9.1211C3.0867 9.41256 3.06562 9.70606 3.0627 10C3.06546 10.2939 3.08655 10.5875 3.12584 10.8789L1.17726 12.3686C1.08907 12.4343 1.0288 12.5293 1.008 12.6355C0.987193 12.7417 1.00731 12.8517 1.0645 12.9443L2.91385 16.0688C2.96741 16.1626 3.05431 16.2339 3.15816 16.2696C3.26202 16.3052 3.37566 16.3026 3.47767 16.2622L5.78259 15.3569C6.2622 15.7135 6.78668 16.0089 7.34326 16.2358L7.69057 18.622C7.70589 18.7276 7.7601 18.8242 7.84308 18.8937C7.92607 18.9633 8.03218 19.001 8.14163 19H11.8403C11.9498 19.001 12.0559 18.9633 12.1389 18.8937C12.2219 18.8242 12.2761 18.7276 12.2914 18.622L12.6387 16.2358C13.196 16.0103 13.7207 15.7149 14.1994 15.3569L16.5043 16.2622C16.6063 16.3026 16.7199 16.3052 16.8238 16.2696C16.9276 16.2339 17.0145 16.1626 17.0681 16.0688L18.9175 12.9443C18.9746 12.8517 18.9948 12.7417 18.974 12.6355C18.9532 12.5293 18.8929 12.4343 18.8047 12.3686L16.8696 10.8789ZM10 13.1553C9.35927 13.1561 8.73268 12.9718 8.1995 12.6256C7.66632 12.2795 7.25051 11.787 7.0047 11.2105C6.75888 10.634 6.69411 9.99949 6.81856 9.38714C6.94301 8.77479 7.2511 8.21216 7.70385 7.77045C8.1566 7.32874 8.73365 7.02779 9.36201 6.90569C9.99036 6.78358 10.6418 6.84581 11.2338 7.0845C11.8258 7.32318 12.3319 7.7276 12.688 8.24657C13.044 8.76555 13.2341 9.37576 13.2341 10C13.2347 10.4141 13.1515 10.8243 12.9892 11.2071C12.827 11.5899 12.5888 11.9378 12.2885 12.2308C11.9881 12.5239 11.6314 12.7564 11.2387 12.915C10.846 13.0736 10.4251 13.1553 10 13.1553Z" stroke="#95969D" stroke-linecap="round" stroke-linejoin="round"/>
</svg>
