<svg width="20" height="20" viewBox="0 0 20 20" fill="none" xmlns="http://www.w3.org/2000/svg">
<g clip-path="url(#clip0_8_5854)">
<path fill-rule="evenodd" clip-rule="evenodd" d="M0 10C0 7.34784 1.05357 4.8043 2.92893 2.92893C4.8043 1.05357 7.34784 0 10 0C12.6522 0 15.1957 1.05357 17.0711 2.92893C18.9464 4.8043 20 7.34784 20 10C20 12.6522 18.9464 15.1957 17.0711 17.0711C15.1957 18.9464 12.6522 20 10 20C7.34784 20 4.8043 18.9464 2.92893 17.0711C1.05357 15.1957 0 12.6522 0 10H0ZM9.42933 14.28L15.1867 7.08267L14.1467 6.25067L9.23733 12.3853L5.76 9.488L4.90667 10.512L9.42933 14.2813V14.28Z" fill="#5386E4"/>
</g>
<defs>
<clipPath id="clip0_8_5854">
<rect width="20" height="20" fill="white"/>
</clipPath>
</defs>
</svg>
