<svg width="9" height="9" viewBox="0 0 9 9" fill="none" xmlns="http://www.w3.org/2000/svg">
<path d="M8.25115 4.50104L7.33602 3.45464L7.46354 2.0707L6.1096 1.76316L5.40075 0.562988L4.12557 1.11056L2.8504 0.562988L2.14155 1.7594L0.78761 2.0632L0.915127 3.45089L0 4.50104L0.915127 5.54743L0.78761 6.93513L2.14155 7.24267L2.8504 8.43909L4.12557 7.88776L5.40075 8.43533L6.1096 7.23892L7.46354 6.93137L7.33602 5.54743L8.25115 4.50104ZM3.14294 6.005L2.25031 5.10487C2.21554 5.07017 2.18796 5.02896 2.16914 4.98359C2.15032 4.93822 2.14063 4.88958 2.14063 4.84046C2.14063 4.79134 2.15032 4.7427 2.16914 4.69733C2.18796 4.65196 2.21554 4.61074 2.25031 4.57605L2.27657 4.54979C2.42284 4.40352 2.66287 4.40352 2.80914 4.54979L3.41298 5.15738L5.34449 3.22211C5.49076 3.07584 5.7308 3.07584 5.87707 3.22211L5.90332 3.24836C6.04959 3.39463 6.04959 3.63092 5.90332 3.77719L3.68301 6.005C3.52924 6.15127 3.29296 6.15127 3.14294 6.005Z" fill="#5386E4"/>
</svg>
