<svg width="275" height="201" viewBox="0 0 275 201" fill="none" xmlns="http://www.w3.org/2000/svg">
<g clip-path="url(#clip0_247_4119)">
<path d="M125.5 201C176.586 201 218 159.586 218 108.5C218 57.4137 176.586 16 125.5 16C74.4137 16 33 57.4137 33 108.5C33 159.586 74.4137 201 125.5 201Z" fill="#356899" fill-opacity="0.1"/>
<path d="M155 69.9932C155 68.441 155.406 67.2208 156.216 66.3324C157.038 65.4442 158.3 65 160 65C161.688 65 162.944 65.4486 163.766 66.3458C164.588 67.2342 165 68.45 165 69.9932C165 71.5456 164.588 72.7702 163.766 73.6676C162.944 74.5558 161.688 75 160 75C158.3 75 157.038 74.5558 156.216 73.6676C155.406 72.7702 155 71.5456 155 69.9932ZM161.35 69.9932C161.35 69.2754 161.262 68.7372 161.084 68.3782C160.906 68.0104 160.544 67.8264 160 67.8264C159.444 67.8264 159.078 68.0104 158.9 68.3782C158.722 68.7372 158.634 69.2754 158.634 69.9932C158.634 70.72 158.722 71.2674 158.9 71.6352C159.078 71.9942 159.444 72.1736 160 72.1736C160.544 72.1736 160.906 71.9942 161.084 71.6352C161.262 71.2674 161.35 70.72 161.35 69.9932Z" fill="#356899"/>
<path fill-rule="evenodd" clip-rule="evenodd" d="M2.77486 187.615C3.84563 187.234 4.97242 186.727 5.84135 185.992C6.87335 185.12 7.29305 183.997 7.57489 182.815C7.93674 181.296 8.08132 179.679 8.52009 178.157C8.68256 177.592 8.9952 177.379 9.12936 177.284C9.46843 177.045 9.81118 176.981 10.1336 177.005C10.5158 177.032 11.0407 177.177 11.386 177.818C11.4352 177.909 11.4992 178.049 11.5423 178.24C11.5736 178.381 11.5939 178.819 11.6272 179C11.7103 179.446 11.7798 179.891 11.845 180.339C12.0623 181.831 12.1872 183.097 12.8733 184.467C13.8044 186.327 14.7374 187.464 16.0026 187.968C17.226 188.456 18.6887 188.364 20.5577 187.982C20.7355 187.939 20.9115 187.902 21.0856 187.872C21.9096 187.728 22.6973 188.269 22.8592 189.09C23.021 189.91 22.4974 190.709 21.6807 190.89C21.5103 190.927 21.3423 190.963 21.1761 190.995C18.6506 191.621 15.7269 193.852 14.0278 195.806C13.5041 196.408 12.7373 198.093 11.9552 199.167C11.378 199.96 10.7293 200.482 10.1847 200.667C9.8198 200.791 9.51212 200.772 9.25796 200.709C8.88873 200.618 8.58228 200.418 8.3472 200.1C8.2192 199.926 8.10041 199.693 8.04379 199.395C8.01672 199.251 8.01366 198.887 8.01427 198.722C7.85489 198.174 7.65981 197.639 7.51765 197.085C7.17858 195.765 6.51334 194.93 5.72318 193.826C4.9841 192.792 4.19028 192.143 3.02659 191.625C2.87521 191.588 1.65366 191.289 1.22228 191.117C0.592126 190.866 0.291802 190.444 0.182879 190.217C-0.00235182 189.832 -0.021412 189.495 0.0155111 189.215C0.0702804 188.8 0.256128 188.446 0.585974 188.16C0.790282 187.982 1.09552 187.809 1.50413 187.725C1.81982 187.659 2.65733 187.621 2.77486 187.615ZM9.94103 185.464C9.99765 185.59 10.058 185.717 10.122 185.845C11.4856 188.568 13.0106 190.089 14.8641 190.827L14.9263 190.851C13.6863 191.771 12.5638 192.8 11.7059 193.787C11.3527 194.193 10.885 195.037 10.3798 195.902C9.92073 194.41 9.16996 193.355 8.22596 192.035C7.50473 191.027 6.74904 190.269 5.82042 189.651C6.54104 189.282 7.22842 188.848 7.82719 188.343C8.82411 187.5 9.48318 186.524 9.94103 185.464Z" fill="#E3E3E3"/>
<path d="M30 12C33.3137 12 36 9.31371 36 6C36 2.68629 33.3137 0 30 0C26.6863 0 24 2.68629 24 6C24 9.31371 26.6863 12 30 12Z" fill="#E3E3E3"/>
<path d="M269 137C272.314 137 275 134.314 275 131C275 127.686 272.314 125 269 125C265.686 125 263 127.686 263 131C263 134.314 265.686 137 269 137Z" fill="#E3E3E3"/>
<path fill-rule="evenodd" clip-rule="evenodd" d="M124 60C131.18 60 137 54.1797 137 47C137 39.8203 131.18 34 124 34C116.82 34 111 39.8203 111 47C111 54.1797 116.82 60 124 60ZM123.711 54.2224C127.54 54.2224 130.645 51.1183 130.645 47.289C130.645 43.4599 127.54 40.3558 123.711 40.3558C119.882 40.3558 116.777 43.4599 116.777 47.289C116.777 51.1183 119.882 54.2224 123.711 54.2224Z" fill="#356899"/>
<path d="M62 154.377V154.737V155V155.002L62.0001 155.023V155.028L61.9997 155.021C61.9994 155.017 61.999 155.01 61.9981 155.002C61.9981 155.001 61.998 155.001 61.9979 155C61.9974 154.995 61.9968 154.99 61.9961 154.983C61.9941 154.967 61.9896 154.935 61.9802 154.894C61.9748 154.87 61.963 154.822 61.9395 154.762C61.9297 154.737 61.9178 154.709 61.9034 154.68C61.878 154.629 61.8356 154.555 61.7684 154.477C61.7003 154.397 61.5939 154.299 61.4404 154.226C61.3026 154.161 61.1519 154.128 61 154.13V155L62 154.377ZM62 154.377C62.0287 154.416 62.0517 154.452 62.07 154.482C62.1099 154.549 62.14 154.614 62.163 154.669C62.2711 154.93 62.4301 155.167 62.631 155.367C62.8319 155.568 63.0708 155.727 63.3342 155.835C63.5976 155.944 63.8802 156 64.1657 156H184.834C185.12 156 185.402 155.944 185.666 155.835C185.929 155.727 186.168 155.568 186.369 155.367C186.561 155.177 186.766 155.066 186.927 154.997C186.973 154.977 187.023 154.958 187.07 154.941M62 154.377V153.728V153.725C61.9973 152.77 62.2676 151.833 62.7799 151.023C63.2922 150.214 64.0257 149.565 64.8955 149.153L64.8969 149.152C69.5935 146.919 73.5597 143.409 76.3363 139.028C79.1129 134.646 80.5863 129.572 80.5858 124.392V102.672C80.5858 91.0909 85.2115 79.9835 93.4469 71.793C101.683 63.6024 112.854 59 124.503 59C136.152 59 147.323 63.6024 155.559 71.793C163.794 79.9835 168.42 91.0909 168.42 102.672V124.392M187.07 154.941C187.071 154.996 187.071 155.044 187.068 155.085C187.066 155.138 187.061 155.161 187.061 155.161C187.061 155.161 187.065 155.144 187.076 155.117C187.118 155.017 187.191 154.936 187.263 154.887C187.29 154.868 187.311 154.859 187.311 154.858C187.311 154.858 187.298 154.864 187.266 154.875C187.26 154.877 187.251 154.88 187.239 154.884C187.203 154.896 187.139 154.916 187.07 154.941ZM187.07 154.941C187.069 154.884 187.066 154.819 187.062 154.747C187.053 154.605 187.04 154.466 187.026 154.311C187.014 154.171 187 153.999 187 153.848V153.846V153.728C187 152.775 186.729 151.842 186.218 151.035C185.707 150.229 184.976 149.582 184.109 149.17C179.41 146.936 175.442 143.423 172.665 139.038C169.888 134.653 168.416 129.575 168.42 124.392" fill="#356899" fill-opacity="0.28"/>
<path d="M62 154.377V154.737V155V155.002L62.0001 155.023V155.028L61.9997 155.021C61.9994 155.017 61.999 155.01 61.9981 155.002C61.9981 155.001 61.998 155.001 61.9979 155C61.9974 154.995 61.9968 154.99 61.9961 154.983C61.9941 154.967 61.9896 154.935 61.9802 154.894C61.9748 154.87 61.963 154.822 61.9395 154.762C61.9297 154.737 61.9178 154.709 61.9034 154.68C61.878 154.629 61.8356 154.555 61.7684 154.477C61.7003 154.397 61.5939 154.299 61.4404 154.226C61.3026 154.161 61.1519 154.128 61 154.13V155L62 154.377ZM62 154.377C62.0287 154.416 62.0517 154.452 62.07 154.482C62.1099 154.549 62.14 154.614 62.163 154.669C62.2711 154.93 62.4301 155.167 62.631 155.367C62.8319 155.568 63.0708 155.727 63.3342 155.835C63.5976 155.944 63.8802 156 64.1657 156H184.834C185.12 156 185.402 155.944 185.666 155.835C185.929 155.727 186.168 155.568 186.369 155.367C186.561 155.177 186.766 155.066 186.927 154.997C186.973 154.977 187.023 154.958 187.07 154.941M62 154.377V153.728V153.725C61.9973 152.77 62.2676 151.833 62.7799 151.023C63.2922 150.214 64.0257 149.565 64.8955 149.153L64.8969 149.152C69.5935 146.919 73.5597 143.409 76.3363 139.028C79.1129 134.646 80.5863 129.572 80.5858 124.392V102.672C80.5858 91.0909 85.2115 79.9835 93.4469 71.793C101.683 63.6024 112.854 59 124.503 59C136.152 59 147.323 63.6024 155.559 71.793C163.794 79.9835 168.42 91.0909 168.42 102.672V124.392M187.07 154.941C187.071 154.996 187.071 155.044 187.068 155.085C187.066 155.138 187.061 155.161 187.061 155.161C187.061 155.161 187.065 155.144 187.076 155.117C187.118 155.017 187.191 154.936 187.263 154.887C187.29 154.868 187.311 154.859 187.311 154.858C187.311 154.858 187.298 154.864 187.266 154.875C187.26 154.877 187.251 154.88 187.239 154.884C187.203 154.896 187.139 154.916 187.07 154.941ZM187.07 154.941C187.069 154.884 187.066 154.819 187.062 154.747C187.053 154.605 187.04 154.466 187.026 154.311C187.014 154.171 187 153.999 187 153.848V153.846V153.728C187 152.775 186.729 151.842 186.218 151.035C185.707 150.229 184.976 149.582 184.109 149.17C179.41 146.936 175.442 143.423 172.665 139.038C169.888 134.653 168.416 129.575 168.42 124.392M168.42 124.392H169.42" stroke="#356899" stroke-width="2"/>
<path fill-rule="evenodd" clip-rule="evenodd" d="M188 157H61V155H188V157Z" fill="#356899"/>
<path d="M198 130H180C179.448 130 179 130.448 179 131C179 131.552 179.448 132 180 132H198C198.552 132 199 131.552 199 131C199 130.448 198.552 130 198 130Z" fill="#356899"/>
<path d="M60 77H42C41.4477 77 41 77.4477 41 78C41 78.5523 41.4477 79 42 79H60C60.5523 79 61 78.5523 61 78C61 77.4477 60.5523 77 60 77Z" fill="#356899"/>
<path d="M213 135H205C204.448 135 204 135.448 204 136C204 136.552 204.448 137 205 137H213C213.552 137 214 136.552 214 136C214 135.448 213.552 135 213 135Z" fill="#356899"/>
<path d="M196 125H188C187.448 125 187 125.448 187 126C187 126.552 187.448 127 188 127H196C196.552 127 197 126.552 197 126C197 125.448 196.552 125 196 125Z" fill="#356899"/>
<path d="M59 70H51C50.4477 70 50 70.4477 50 71C50 71.5523 50.4477 72 51 72H59C59.5523 72 60 71.5523 60 71C60 70.4477 59.5523 70 59 70Z" fill="#356899"/>
</g>
<defs>
<clipPath id="clip0_247_4119">
<rect width="275" height="201" fill="white"/>
</clipPath>
</defs>
</svg>
