<svg width="157" height="145" viewBox="0 0 157 145" fill="none" xmlns="http://www.w3.org/2000/svg">
<g clip-path="url(#clip0_1851_1404)">
<path d="M70.8484 113.268C93.8868 113.268 112.563 94.592 112.563 71.5536C112.563 48.5152 93.8868 29.8389 70.8484 29.8389C47.81 29.8389 29.1337 48.5152 29.1337 71.5536C29.1337 94.592 47.81 113.268 70.8484 113.268Z" stroke="#356899" stroke-width="2"/>
<path d="M70.8483 101.064C87.1465 101.064 100.359 87.8517 100.359 71.5535C100.359 55.2553 87.1465 42.043 70.8483 42.043C54.5501 42.043 41.3378 55.2553 41.3378 71.5535C41.3378 87.8517 54.5501 101.064 70.8483 101.064Z" fill="#356899" fill-opacity="0.28" stroke="#356899" stroke-width="2"/>
<path d="M78.2331 50.5095C78.3639 50.0809 78.1227 49.626 77.6898 49.5104C72.2708 48.0623 66.5 48.6211 61.4484 51.1007C56.3968 53.5803 52.4249 57.8039 50.2559 62.9767C50.0826 63.3899 50.2948 63.859 50.7138 64.0177C51.1328 64.1764 51.5997 63.9646 51.7741 63.552C53.7965 58.7641 57.4813 54.8554 62.1633 52.5572C66.8452 50.2589 72.1914 49.7347 77.2162 51.0633C77.6494 51.1779 78.1025 50.938 78.2331 50.5095Z" fill="#356899" fill-opacity="0.960784"/>
<path d="M118.149 111.921C115.427 109.198 111.013 109.198 108.29 111.921C105.568 114.643 105.568 119.057 108.291 121.78L127.995 141.484C130.717 144.206 135.132 144.206 137.854 141.484C140.576 138.762 140.576 134.348 137.854 131.625L118.149 111.921Z" fill="#356899" fill-opacity="0.960784" stroke="#356899" stroke-width="2"/>
<path d="M112.057 116.686C111.678 116.307 111.064 116.307 110.686 116.686C110.307 117.064 110.307 117.678 110.686 118.057L120.811 128.182C121.19 128.561 121.803 128.561 122.182 128.182C122.561 127.803 122.561 127.19 122.182 126.811L112.057 116.686Z" fill="white"/>
<path d="M101.389 100L97 104.389L106.58 113.969L110.969 109.58L101.389 100Z" fill="#356899"/>
<path d="M139.909 86H121.995C121.446 86 121 86.4456 121 86.9952V86.9952C121 87.5449 121.446 87.9905 121.995 87.9905H139.909C140.459 87.9905 140.905 87.5449 140.905 86.9952C140.905 86.4456 140.459 86 139.909 86Z" fill="#356899"/>
<path d="M21.9094 50H3.99523C3.44558 50 3 50.4456 3 50.9952C3 51.5449 3.44558 51.9905 3.99523 51.9905H21.9094C22.459 51.9905 22.9046 51.5449 22.9046 50.9952C22.9046 50.4456 22.459 50 21.9094 50Z" fill="#356899"/>
<path d="M155.957 73H147.995C147.446 73 147 73.4456 147 73.9952V73.9952C147 74.5449 147.446 74.9905 147.995 74.9905H155.957C156.507 74.9905 156.952 74.5449 156.952 73.9952V73.9952C156.952 73.4456 156.507 73 155.957 73Z" fill="#356899"/>
<path d="M134.957 80H126.995C126.446 80 126 80.4456 126 80.9952V80.9952C126 81.5449 126.446 81.9905 126.995 81.9905H134.957C135.507 81.9905 135.952 81.5449 135.952 80.9952V80.9952C135.952 80.4456 135.507 80 134.957 80Z" fill="#356899"/>
<path d="M16.9571 55H8.99523C8.44558 55 8 55.4456 8 55.9952V55.9952C8 56.5449 8.44558 56.9905 8.99523 56.9905H16.9571C17.5067 56.9905 17.9523 56.5449 17.9523 55.9952V55.9952C17.9523 55.4456 17.5067 55 16.9571 55Z" fill="#356899"/>
</g>
<defs>
<clipPath id="clip0_1851_1404">
<rect width="157" height="145" fill="white"/>
</clipPath>
</defs>
</svg>
